<svg xmlns="http://www.w3.org/2000/svg" viewBox="0 0 32 32"><title>content-files-favorite-book</title><g><path fill="#000000" d="M29.715 1.52h-1.52v21.34H6.865v1.52h21.33v4.57h1.52V1.52z"></path><path fill="#000000" d="M14.485 28.95h13.71v1.53h-13.71Z"></path><path fill="#000000" d="M16.005 18.29h4.57v1.52h-4.57Z"></path><path fill="#000000" d="M12.955 32v-4.57h13.72v-1.52H8.385v1.52h1.52v3.05h1.53V32h1.52z"></path><path fill="#000000" d="M12.955 15.24h10.67v1.52h-10.67Z"></path><path fill="#000000" d="M14.485 10.67h1.52v1.52h1.52v1.53h1.53v-1.53h1.52v-1.52h1.52V9.14h1.53V6.1h-1.53V4.57h-3.04V6.1h-1.53V4.57h-3.04V6.1h-1.53v3.04h1.53v1.53z"></path><path fill="#000000" d="M6.865 3.05h1.52v18.28h-1.52Z"></path><path fill="#000000" d="M5.335 0h22.86v1.52H5.335Z"></path><path fill="#000000" d="M5.335 28.95h3.05v1.53h-3.05Z"></path><path fill="#000000" d="M5.335 24.38h1.53v1.53h-1.53Z"></path><path fill="#000000" d="M3.815 1.52h1.52v1.53h-1.52Z"></path><path fill="#000000" d="M3.815 3.05h-1.53v24.38h1.53v1.52h1.52v-3.04h-1.52V3.05z"></path></g></svg>