<?xml version="1.0" encoding="UTF-8"?>
<svg version="1.1" xmlns="http://www.w3.org/2000/svg" width="472" height="296">
<path d="M0 0 C0.88816406 -0.00128906 1.77632812 -0.00257812 2.69140625 -0.00390625 C3.61566406 -0.00003906 4.53992188 0.00382812 5.4921875 0.0078125 C6.42417969 0.00394531 7.35617188 0.00007813 8.31640625 -0.00390625 C9.20199219 -0.00261719 10.08757813 -0.00132813 11 0 C12.22033936 0.00169189 12.22033936 0.00169189 13.46533203 0.00341797 C15.3671875 0.1328125 15.3671875 0.1328125 16.3671875 1.1328125 C16.3671875 4.7628125 16.3671875 8.3928125 16.3671875 12.1328125 C123.9471875 12.1328125 231.5271875 12.1328125 342.3671875 12.1328125 C342.3671875 8.5028125 342.3671875 4.8728125 342.3671875 1.1328125 C346.34614244 0.93908061 350.32520327 0.75252744 354.3046875 0.5703125 C355.44099609 0.51423828 356.57730469 0.45816406 357.74804688 0.40039062 C358.82763672 0.35205078 359.90722656 0.30371094 361.01953125 0.25390625 C362.01976318 0.2067749 363.01999512 0.15964355 364.05053711 0.11108398 C366.3671875 0.1328125 366.3671875 0.1328125 367.3671875 1.1328125 C367.60005758 2.81465198 367.77982916 4.5040541 367.9296875 6.1953125 C368.05537109 7.57396484 368.05537109 7.57396484 368.18359375 8.98046875 C368.24417969 9.69074219 368.30476563 10.40101562 368.3671875 11.1328125 C369.07746094 11.18179688 369.78773438 11.23078125 370.51953125 11.28125 C371.43863281 11.35601562 372.35773438 11.43078125 373.3046875 11.5078125 C374.67947266 11.61222656 374.67947266 11.61222656 376.08203125 11.71875 C376.83613281 11.85539062 377.59023438 11.99203125 378.3671875 12.1328125 C379.66664327 14.73172404 379.3894952 16.45947906 379.24609375 19.359375 C379.19775391 20.390625 379.14941406 21.421875 379.09960938 22.484375 C379.04353516 23.56460938 378.98746094 24.64484375 378.9296875 25.7578125 C378.87748047 26.84578125 378.82527344 27.93375 378.77148438 29.0546875 C378.64156153 31.74763384 378.5049954 34.44025815 378.3671875 37.1328125 C374.7371875 37.1328125 371.1071875 37.1328125 367.3671875 37.1328125 C367.6971875 77.0628125 368.0271875 116.9928125 368.3671875 158.1328125 C371.6671875 158.4628125 374.9671875 158.7928125 378.3671875 159.1328125 C379.3671875 160.1328125 379.3671875 160.1328125 379.48071289 162.44946289 C379.47547607 163.44969482 379.47023926 164.44992676 379.46484375 165.48046875 C379.46162109 166.56005859 379.45839844 167.63964844 379.45507812 168.75195312 C379.44669922 169.88826172 379.43832031 171.02457031 379.4296875 172.1953125 C379.42517578 173.33548828 379.42066406 174.47566406 379.41601562 175.65039062 C379.40418497 178.47791601 379.3877016 181.3053389 379.3671875 184.1328125 C375.18729939 185.649614 372.69991901 186.4071453 368.3671875 185.1328125 C368.0371875 188.4328125 367.7071875 191.7328125 367.3671875 195.1328125 C359.1171875 195.1328125 350.8671875 195.1328125 342.3671875 195.1328125 C342.3671875 191.5028125 342.3671875 187.8728125 342.3671875 184.1328125 C301.8475947 184.21471697 261.32803753 184.30672763 220.80850058 184.41286411 C216.02573561 184.42538311 211.24297042 184.43781587 206.46020508 184.45019531 C205.50803514 184.45266131 204.5558652 184.4551273 203.57484163 184.45766802 C188.15368128 184.49740107 172.73251361 184.530146 157.31133192 184.56031232 C141.48997245 184.59141685 125.66864412 184.63002199 109.84731966 184.67560256 C100.0832676 184.70349559 90.31923835 184.72552512 80.55515713 184.74007501 C73.86125687 184.7506101 67.16740075 184.76842514 60.47353374 184.79197954 C56.61047074 184.80535745 52.74746966 184.81551147 48.88438225 184.81702614 C44.69598829 184.81875224 40.50779598 184.83580071 36.31944275 184.8543396 C35.09862013 184.85240487 33.87779752 184.85047013 32.61998028 184.84847677 C26.81762325 184.88697636 21.83699215 185.13517749 16.3671875 187.1328125 C16.3671875 190.1028125 16.3671875 193.0728125 16.3671875 196.1328125 C12.42623142 197.11805152 9.98236307 197.0720074 5.9921875 196.6953125 C2.65992031 196.38705828 -0.5741406 196.13232473 -3.921875 196.16015625 C-6.6328125 196.1328125 -6.6328125 196.1328125 -8.6328125 195.1328125 C-8.6328125 191.5028125 -8.6328125 187.8728125 -8.6328125 184.1328125 C-12.2628125 184.1328125 -15.8928125 184.1328125 -19.6328125 184.1328125 C-19.6328125 175.8828125 -19.6328125 167.6328125 -19.6328125 159.1328125 C-16.0028125 159.1328125 -12.3728125 159.1328125 -8.6328125 159.1328125 C-8.6328125 119.5328125 -8.6328125 79.9328125 -8.6328125 39.1328125 C-9.2928125 39.1328125 -9.9528125 39.1328125 -10.6328125 39.1328125 C-10.6328125 38.4728125 -10.6328125 37.8128125 -10.6328125 37.1328125 C-15.0878125 37.6278125 -15.0878125 37.6278125 -19.6328125 38.1328125 C-21.24284154 34.91275443 -20.77562705 31.41603094 -20.7578125 27.8828125 C-20.76167969 27.13128906 -20.76554687 26.37976563 -20.76953125 25.60546875 C-20.76212332 21.36072236 -20.65021549 17.27969559 -19.6328125 13.1328125 C-17.22735612 11.93008431 -15.68284297 12.03209778 -13.0078125 12.0703125 C-11.78191406 12.08384766 -11.78191406 12.08384766 -10.53125 12.09765625 C-9.59152344 12.11505859 -9.59152344 12.11505859 -8.6328125 12.1328125 C-8.64441406 11.50632812 -8.65601563 10.87984375 -8.66796875 10.234375 C-8.67699219 9.41710937 -8.68601562 8.59984375 -8.6953125 7.7578125 C-8.70691406 6.94570313 -8.71851563 6.13359375 -8.73046875 5.296875 C-8.6328125 3.1328125 -8.6328125 3.1328125 -7.6328125 1.1328125 C-4.77444259 0.18002253 -2.9663669 0.00410124 0 0 Z M-5.6328125 15.1328125 C-5.71950682 16.6215311 -5.73984744 18.1142575 -5.73046875 19.60546875 C-5.72724609 20.50458984 -5.72402344 21.40371094 -5.72070312 22.33007812 C-5.71232422 23.27560547 -5.70394531 24.22113281 -5.6953125 25.1953125 C-5.69080078 26.14470703 -5.68628906 27.09410156 -5.68164062 28.07226562 C-5.66981378 30.42580781 -5.65187771 32.77931782 -5.6328125 35.1328125 C-2.0028125 35.1328125 1.6271875 35.1328125 5.3671875 35.1328125 C5.3671875 76.7128125 5.3671875 118.2928125 5.3671875 161.1328125 C1.7371875 161.1328125 -1.8928125 161.1328125 -5.6328125 161.1328125 C-5.68659271 164.25804022 -5.72637825 167.3823496 -5.7578125 170.5078125 C-5.77457031 171.39726562 -5.79132812 172.28671875 -5.80859375 173.203125 C-5.81503906 174.05390625 -5.82148437 174.9046875 -5.828125 175.78125 C-5.83859863 176.56677246 -5.84907227 177.35229492 -5.85986328 178.16162109 C-5.81271377 180.3672775 -5.81271377 180.3672775 -3.6328125 182.1328125 C-1.09052091 182.30482535 1.32868746 182.36538867 3.8671875 182.3203125 C4.55683594 182.31966797 5.24648438 182.31902344 5.95703125 182.31835938 C9.78953944 182.33646859 9.78953944 182.33646859 13.3671875 181.1328125 C13.6971875 177.8328125 14.0271875 174.5328125 14.3671875 171.1328125 C123.5971875 171.1328125 232.8271875 171.1328125 345.3671875 171.1328125 C345.3671875 174.7628125 345.3671875 178.3928125 345.3671875 182.1328125 C351.9671875 182.1328125 358.5671875 182.1328125 365.3671875 182.1328125 C365.3671875 175.2028125 365.3671875 168.2728125 365.3671875 161.1328125 C362.0671875 161.1328125 358.7671875 161.1328125 355.3671875 161.1328125 C353.80143451 158.00130652 354.17844829 154.65102803 354.14599609 151.21069336 C354.1344902 150.39270767 354.12298431 149.57472198 354.11112976 148.73194885 C354.07436238 146.02055651 354.04476848 143.3091405 354.015625 140.59765625 C353.99251948 138.7196061 353.96912924 136.84155943 353.94546509 134.96351624 C353.89697708 131.0251053 353.85204759 127.08667357 353.80957031 123.14819336 C353.75469593 118.08804204 353.6908792 113.02805001 353.62439537 107.96803951 C353.57443917 104.08976651 353.5292649 100.21144924 353.48555374 96.33310127 C353.46392146 94.46667243 353.44076438 92.60026064 353.4160881 90.73386955 C353.38237981 88.13111857 353.3551046 85.52837951 353.32958984 82.92553711 C353.31821487 82.14681244 353.3068399 81.36808777 353.29512024 80.56576538 C353.28075444 78.75467874 353.31828565 76.9432958 353.3671875 75.1328125 C353.6971875 74.8028125 354.0271875 74.4728125 354.3671875 74.1328125 C354.45583958 71.2484743 354.48240046 68.38819092 354.46484375 65.50390625 C354.4634288 64.63967545 354.46201385 63.77544464 354.46055603 62.88502502 C354.45493989 60.11341958 354.44238469 57.3418937 354.4296875 54.5703125 C354.42467458 52.6959647 354.42011131 50.82161565 354.41601562 48.94726562 C354.40496522 44.34241706 354.3876898 39.73762829 354.3671875 35.1328125 C354.99367188 35.14441406 355.62015625 35.15601562 356.265625 35.16796875 C357.49152344 35.18150391 357.49152344 35.18150391 358.7421875 35.1953125 C359.96035156 35.21271484 359.96035156 35.21271484 361.203125 35.23046875 C363.41655892 35.27747584 363.41655892 35.27747584 365.3671875 34.1328125 C365.3671875 28.1928125 365.3671875 22.2528125 365.3671875 16.1328125 C358.60370643 14.35399935 358.60370643 14.35399935 351.9921875 13.8203125 C351.15945313 13.80355469 350.32671875 13.78679687 349.46875 13.76953125 C348.77523438 13.88941406 348.08171875 14.00929688 347.3671875 14.1328125 C344.62758724 17.64128768 344.62758724 17.64128768 345.3671875 25.1328125 C235.8071875 25.1328125 126.2471875 25.1328125 13.3671875 25.1328125 C13.6971875 24.4728125 14.0271875 23.8128125 14.3671875 23.1328125 C14.43669291 21.59257254 14.45171107 20.04946262 14.4296875 18.5078125 C14.42066406 17.69054687 14.41164063 16.87328125 14.40234375 16.03125 C14.39074219 15.40476562 14.37914063 14.77828125 14.3671875 14.1328125 C11.22137327 14.10392736 8.07559281 14.08605327 4.9296875 14.0703125 C4.03185547 14.06193359 3.13402344 14.05355469 2.20898438 14.04492188 C1.35498047 14.04169922 0.50097656 14.03847656 -0.37890625 14.03515625 C-1.56504517 14.02730103 -1.56504517 14.02730103 -2.77514648 14.01928711 C-4.64873939 13.92785341 -4.64873939 13.92785341 -5.6328125 15.1328125 Z " fill="#BFBFBF" transform="translate(51.6328125,55.8671875)"/>
<path d="M0 0 C108.24 0 216.48 0 328 0 C328 3.63 328 7.26 328 11 C219.76 11 111.52 11 0 11 C0 7.37 0 3.74 0 0 Z " fill="#262626" transform="translate(67,228)"/>
<path d="M0 0 C108.24 0 216.48 0 328 0 C328 3.3 328 6.6 328 10 C219.76 10 111.52 10 0 10 C0 6.7 0 3.4 0 0 Z " fill="#262626" transform="translate(67,70)"/>
<path d="M0 0 C0.88816406 -0.00128906 1.77632812 -0.00257812 2.69140625 -0.00390625 C3.61566406 -0.00003906 4.53992188 0.00382812 5.4921875 0.0078125 C6.42417969 0.00394531 7.35617188 0.00007813 8.31640625 -0.00390625 C9.20199219 -0.00261719 10.08757813 -0.00132813 11 0 C12.22033936 0.00169189 12.22033936 0.00169189 13.46533203 0.00341797 C15.3671875 0.1328125 15.3671875 0.1328125 16.3671875 1.1328125 C16.3671875 4.7628125 16.3671875 8.3928125 16.3671875 12.1328125 C123.9471875 12.1328125 231.5271875 12.1328125 342.3671875 12.1328125 C342.3671875 8.5028125 342.3671875 4.8728125 342.3671875 1.1328125 C346.34614244 0.93908061 350.32520327 0.75252744 354.3046875 0.5703125 C355.44099609 0.51423828 356.57730469 0.45816406 357.74804688 0.40039062 C358.82763672 0.35205078 359.90722656 0.30371094 361.01953125 0.25390625 C362.01976318 0.2067749 363.01999512 0.15964355 364.05053711 0.11108398 C366.3671875 0.1328125 366.3671875 0.1328125 367.3671875 1.1328125 C367.60005758 2.81465198 367.77982916 4.5040541 367.9296875 6.1953125 C368.05537109 7.57396484 368.05537109 7.57396484 368.18359375 8.98046875 C368.24417969 9.69074219 368.30476563 10.40101562 368.3671875 11.1328125 C369.07746094 11.18179688 369.78773438 11.23078125 370.51953125 11.28125 C371.43863281 11.35601562 372.35773438 11.43078125 373.3046875 11.5078125 C374.67947266 11.61222656 374.67947266 11.61222656 376.08203125 11.71875 C376.83613281 11.85539062 377.59023438 11.99203125 378.3671875 12.1328125 C379.66664327 14.73172404 379.3894952 16.45947906 379.24609375 19.359375 C379.19775391 20.390625 379.14941406 21.421875 379.09960938 22.484375 C379.04353516 23.56460938 378.98746094 24.64484375 378.9296875 25.7578125 C378.87748047 26.84578125 378.82527344 27.93375 378.77148438 29.0546875 C378.64156153 31.74763384 378.5049954 34.44025815 378.3671875 37.1328125 C374.7371875 37.1328125 371.1071875 37.1328125 367.3671875 37.1328125 C367.6971875 77.0628125 368.0271875 116.9928125 368.3671875 158.1328125 C371.6671875 158.4628125 374.9671875 158.7928125 378.3671875 159.1328125 C379.3671875 160.1328125 379.3671875 160.1328125 379.48071289 162.44946289 C379.47547607 163.44969482 379.47023926 164.44992676 379.46484375 165.48046875 C379.46162109 166.56005859 379.45839844 167.63964844 379.45507812 168.75195312 C379.44669922 169.88826172 379.43832031 171.02457031 379.4296875 172.1953125 C379.42517578 173.33548828 379.42066406 174.47566406 379.41601562 175.65039062 C379.40418497 178.47791601 379.3877016 181.3053389 379.3671875 184.1328125 C375.18729939 185.649614 372.69991901 186.4071453 368.3671875 185.1328125 C368.0371875 188.4328125 367.7071875 191.7328125 367.3671875 195.1328125 C367.0371875 195.1328125 366.7071875 195.1328125 366.3671875 195.1328125 C366.3671875 191.1728125 366.3671875 187.2128125 366.3671875 183.1328125 C369.9971875 183.1328125 373.6271875 183.1328125 377.3671875 183.1328125 C377.3671875 175.5428125 377.3671875 167.9528125 377.3671875 160.1328125 C373.7371875 160.1328125 370.1071875 160.1328125 366.3671875 160.1328125 C366.3671875 119.2128125 366.3671875 78.2928125 366.3671875 36.1328125 C369.9971875 36.1328125 373.6271875 36.1328125 377.3671875 36.1328125 C377.3671875 28.5428125 377.3671875 20.9528125 377.3671875 13.1328125 C373.7371875 13.1328125 370.1071875 13.1328125 366.3671875 13.1328125 C366.3671875 9.5028125 366.3671875 5.8728125 366.3671875 2.1328125 C358.7771875 2.1328125 351.1871875 2.1328125 343.3671875 2.1328125 C343.3671875 5.7628125 343.3671875 9.3928125 343.3671875 13.1328125 C350.6271875 13.1328125 357.8871875 13.1328125 365.3671875 13.1328125 C365.0371875 14.4528125 364.7071875 15.7728125 364.3671875 17.1328125 C363.4184375 16.8028125 362.4696875 16.4728125 361.4921875 16.1328125 C356.81271494 14.7683667 352.19894991 14.95781909 347.3671875 15.1328125 C347.2228125 16.2259375 347.0784375 17.3190625 346.9296875 18.4453125 C346.3671875 22.1328125 346.3671875 22.1328125 345.3671875 25.1328125 C338.64855265 26.37513491 332.00241127 26.25237271 325.18714905 26.21510315 C323.84054867 26.21140558 322.49394699 26.20815726 321.14734453 26.20531791 C317.45762297 26.19624411 313.76795138 26.18081684 310.07825649 26.16433513 C306.09539531 26.14766287 302.11251759 26.13690696 298.12963867 26.12542725 C291.23254544 26.10474069 284.33547359 26.0803177 277.43840218 26.05334663 C267.46643239 26.01435657 257.49444999 25.98101752 247.52245551 25.94905137 C231.34299895 25.89703345 215.16356169 25.84045441 198.98413086 25.78100586 C183.26864371 25.72327177 167.55315137 25.6676865 151.83764648 25.61499023 C150.86871199 25.61174052 149.89977749 25.6084908 148.90148134 25.6051426 C144.04055274 25.58885274 139.179624 25.57260511 134.31869519 25.55637848 C94.00150211 25.42173804 53.68433798 25.27961881 13.3671875 25.1328125 C13.6971875 21.5028125 14.0271875 17.8728125 14.3671875 14.1328125 C8.0971875 14.4628125 1.8271875 14.7928125 -4.6328125 15.1328125 C-4.9628125 21.7328125 -5.2928125 28.3328125 -5.6328125 35.1328125 C-2.0028125 35.1328125 1.6271875 35.1328125 5.3671875 35.1328125 C5.3671875 76.7128125 5.3671875 118.2928125 5.3671875 161.1328125 C5.0371875 161.1328125 4.7071875 161.1328125 4.3671875 161.1328125 C4.3671875 119.8828125 4.3671875 78.6328125 4.3671875 36.1328125 C0.4071875 36.1328125 -3.5528125 36.1328125 -7.6328125 36.1328125 C-7.6328125 77.0528125 -7.6328125 117.9728125 -7.6328125 160.1328125 C-11.2628125 160.1328125 -14.8928125 160.1328125 -18.6328125 160.1328125 C-18.6328125 167.7228125 -18.6328125 175.3128125 -18.6328125 183.1328125 C-15.0028125 183.1328125 -11.3728125 183.1328125 -7.6328125 183.1328125 C-7.6328125 186.7628125 -7.6328125 190.3928125 -7.6328125 194.1328125 C-0.0428125 194.1328125 7.5471875 194.1328125 15.3671875 194.1328125 C15.3671875 190.5028125 15.3671875 186.8728125 15.3671875 183.1328125 C123.6071875 183.1328125 231.8471875 183.1328125 343.3671875 183.1328125 C343.3671875 187.0928125 343.3671875 191.0528125 343.3671875 195.1328125 C343.0371875 195.1328125 342.7071875 195.1328125 342.3671875 195.1328125 C342.3671875 191.5028125 342.3671875 187.8728125 342.3671875 184.1328125 C301.8475947 184.21471697 261.32803753 184.30672763 220.80850058 184.41286411 C216.02573561 184.42538311 211.24297042 184.43781587 206.46020508 184.45019531 C205.50803514 184.45266131 204.5558652 184.4551273 203.57484163 184.45766802 C188.15368128 184.49740107 172.73251361 184.530146 157.31133192 184.56031232 C141.48997245 184.59141685 125.66864412 184.63002199 109.84731966 184.67560256 C100.0832676 184.70349559 90.31923835 184.72552512 80.55515713 184.74007501 C73.86125687 184.7506101 67.16740075 184.76842514 60.47353374 184.79197954 C56.61047074 184.80535745 52.74746966 184.81551147 48.88438225 184.81702614 C44.69598829 184.81875224 40.50779598 184.83580071 36.31944275 184.8543396 C35.09862013 184.85240487 33.87779752 184.85047013 32.61998028 184.84847677 C26.81762325 184.88697636 21.83699215 185.13517749 16.3671875 187.1328125 C16.3671875 190.1028125 16.3671875 193.0728125 16.3671875 196.1328125 C12.42623142 197.11805152 9.98236307 197.0720074 5.9921875 196.6953125 C2.65992031 196.38705828 -0.5741406 196.13232473 -3.921875 196.16015625 C-6.6328125 196.1328125 -6.6328125 196.1328125 -8.6328125 195.1328125 C-8.6328125 191.5028125 -8.6328125 187.8728125 -8.6328125 184.1328125 C-12.2628125 184.1328125 -15.8928125 184.1328125 -19.6328125 184.1328125 C-19.6328125 175.8828125 -19.6328125 167.6328125 -19.6328125 159.1328125 C-16.0028125 159.1328125 -12.3728125 159.1328125 -8.6328125 159.1328125 C-8.6328125 119.5328125 -8.6328125 79.9328125 -8.6328125 39.1328125 C-9.2928125 39.1328125 -9.9528125 39.1328125 -10.6328125 39.1328125 C-10.6328125 38.4728125 -10.6328125 37.8128125 -10.6328125 37.1328125 C-15.0878125 37.6278125 -15.0878125 37.6278125 -19.6328125 38.1328125 C-21.24284154 34.91275443 -20.77562705 31.41603094 -20.7578125 27.8828125 C-20.76167969 27.13128906 -20.76554687 26.37976563 -20.76953125 25.60546875 C-20.76212332 21.36072236 -20.65021549 17.27969559 -19.6328125 13.1328125 C-17.22735612 11.93008431 -15.68284297 12.03209778 -13.0078125 12.0703125 C-11.78191406 12.08384766 -11.78191406 12.08384766 -10.53125 12.09765625 C-9.59152344 12.11505859 -9.59152344 12.11505859 -8.6328125 12.1328125 C-8.64441406 11.50632812 -8.65601563 10.87984375 -8.66796875 10.234375 C-8.67699219 9.41710937 -8.68601562 8.59984375 -8.6953125 7.7578125 C-8.70691406 6.94570313 -8.71851563 6.13359375 -8.73046875 5.296875 C-8.6328125 3.1328125 -8.6328125 3.1328125 -7.6328125 1.1328125 C-4.77444259 0.18002253 -2.9663669 0.00410124 0 0 Z M15.3671875 14.1328125 C15.3671875 17.4328125 15.3671875 20.7328125 15.3671875 24.1328125 C123.6071875 24.1328125 231.8471875 24.1328125 343.3671875 24.1328125 C343.3671875 20.8328125 343.3671875 17.5328125 343.3671875 14.1328125 C235.1271875 14.1328125 126.8871875 14.1328125 15.3671875 14.1328125 Z " fill="#A8A8A8" transform="translate(51.6328125,55.8671875)"/>
<path d="M0 0 C3.96 0 7.92 0 12 0 C12 41.25 12 82.5 12 125 C3 126 3 126 1 125 C1 132.26 1 139.52 1 147 C8.26 147 15.52 147 23 147 C23 150.63 23 154.26 23 158 C15.41 158 7.82 158 0 158 C0 154.37 0 150.74 0 147 C-3.63 147 -7.26 147 -11 147 C-11 139.41 -11 131.82 -11 124 C-7.37 124 -3.74 124 0 124 C0 83.08 0 42.16 0 0 Z " fill="#272727" transform="translate(44,92)"/>
<path d="M0 0 C3.3 0 6.6 0 10 0 C10 40.59 10 81.18 10 123 C6.7 123 3.4 123 0 123 C0 82.41 0 41.82 0 0 Z " fill="#272727" transform="translate(407,93)"/>
<path d="M0 0 C7.59 0 15.18 0 23 0 C23 3.63 23 7.26 23 11 C26.63 11 30.26 11 34 11 C34 18.59 34 26.18 34 34 C30.37 34 26.74 34 23 34 C23 74.92 23 115.84 23 158 C22.67 158 22.34 158 22 158 C22 117.41 22 76.82 22 35 C18.7 35 15.4 35 12 35 C12 75.59 12 116.18 12 158 C11.34 157.67 10.68 157.34 10 157 C9.67 128.95 9.34 100.9 9 72 C9.66 72 10.32 72 11 72 C11 59.13 11 46.26 11 33 C16.445 32.505 16.445 32.505 22 32 C22 25.07 22 18.14 22 11 C14.74 11 7.48 11 0 11 C0 7.37 0 3.74 0 0 Z " fill="#8F8F8F" transform="translate(395,58)"/>
<path d="M0 0 C0.33 0 0.66 0 1 0 C1 40.92 1 81.84 1 124 C4.3 124 7.6 124 11 124 C11 83.08 11 42.16 11 0 C11.33 0 11.66 0 12 0 C12 41.25 12 82.5 12 125 C3 126 3 126 1 125 C1 132.26 1 139.52 1 147 C8.26 147 15.52 147 23 147 C23 150.63 23 154.26 23 158 C15.41 158 7.82 158 0 158 C0 154.37 0 150.74 0 147 C-3.63 147 -7.26 147 -11 147 C-11 139.41 -11 131.82 -11 124 C-7.37 124 -3.74 124 0 124 C0 83.08 0 42.16 0 0 Z " fill="#797979" transform="translate(44,92)"/>
<path d="M0 0 C0.4140625 2.28515625 0.4140625 2.28515625 0.625 5.0625 C0.73714844 6.44115234 0.73714844 6.44115234 0.8515625 7.84765625 C0.90054687 8.55792969 0.94953125 9.26820312 1 10 C1.71027344 10.04898438 2.42054688 10.09796875 3.15234375 10.1484375 C4.07144531 10.22320312 4.99054688 10.29796875 5.9375 10.375 C7.31228516 10.47941406 7.31228516 10.47941406 8.71484375 10.5859375 C9.46894531 10.72257812 10.22304688 10.85921875 11 11 C12.29945577 13.59891154 12.0223077 15.32666656 11.87890625 18.2265625 C11.83056641 19.2578125 11.78222656 20.2890625 11.73242188 21.3515625 C11.67634766 22.43179688 11.62027344 23.51203125 11.5625 24.625 C11.51029297 25.71296875 11.45808594 26.8009375 11.40429688 27.921875 C11.27437403 30.61482134 11.1378079 33.30744565 11 36 C7.37 36 3.74 36 0 36 C0.33 75.93 0.66 115.86 1 157 C4.3 157.33 7.6 157.66 11 158 C12 159 12 159 12.11352539 161.31665039 C12.10828857 162.31688232 12.10305176 163.31711426 12.09765625 164.34765625 C12.09443359 165.42724609 12.09121094 166.50683594 12.08789062 167.61914062 C12.07951172 168.75544922 12.07113281 169.89175781 12.0625 171.0625 C12.05798828 172.20267578 12.05347656 173.34285156 12.04882812 174.51757812 C12.03699747 177.34510351 12.0205141 180.1725264 12 183 C7.82011189 184.5168015 5.33273151 185.2743328 1 184 C0.67 187.3 0.34 190.6 0 194 C-0.33 194 -0.66 194 -1 194 C-1 190.04 -1 186.08 -1 182 C2.63 182 6.26 182 10 182 C10 174.41 10 166.82 10 159 C6.37 159 2.74 159 -1 159 C-1 118.08 -1 77.16 -1 35 C2.63 35 6.26 35 10 35 C10 27.41 10 19.82 10 12 C6.37 12 2.74 12 -1 12 C-1 8.37 -1 4.74 -1 1 C-8.59 1 -16.18 1 -24 1 C-24 4.63 -24 8.26 -24 12 C-132.24 12 -240.48 12 -352 12 C-352 8.04 -352 4.08 -352 0 C-351.67 0 -351.34 0 -351 0 C-351 3.63 -351 7.26 -351 11 C-243.42 11 -135.84 11 -25 11 C-25 7.37 -25 3.74 -25 0 C-21.20856295 -0.19404993 -17.41701949 -0.38053698 -13.625 -0.5625 C-12.54476563 -0.61857422 -11.46453125 -0.67464844 -10.3515625 -0.73242188 C-9.3203125 -0.78076172 -8.2890625 -0.82910156 -7.2265625 -0.87890625 C-6.27346191 -0.9260376 -5.32036133 -0.97316895 -4.33837891 -1.02172852 C-2 -1 -2 -1 0 0 Z " fill="#FDFDFD" transform="translate(419,57)"/>
<path d="M0 0 C0.33 0 0.66 0 1 0 C1 7.59 1 15.18 1 23 C4.63 23 8.26 23 12 23 C12 63.92 12 104.84 12 147 C8.37 147 4.74 147 1 147 C1 154.59 1 162.18 1 170 C4.63 170 8.26 170 12 170 C12 173.63 12 177.26 12 181 C19.59 181 27.18 181 35 181 C35 177.37 35 173.74 35 170 C143.24 170 251.48 170 363 170 C363 173.96 363 177.92 363 182 C362.67 182 362.34 182 362 182 C362 178.37 362 174.74 362 171 C321.4804072 171.08190447 280.96085003 171.17391513 240.44131308 171.28005161 C235.65854811 171.29257061 230.87578292 171.30500337 226.09301758 171.31738281 C225.14084764 171.31984881 224.1886777 171.3223148 223.20765413 171.32485552 C207.78649378 171.36458857 192.36532611 171.3973335 176.94414442 171.42749982 C161.12278495 171.45860435 145.30145662 171.49720949 129.48013216 171.54279006 C119.7160801 171.57068309 109.95205085 171.59271262 100.18796963 171.60726251 C93.49406937 171.6177976 86.80021325 171.63561264 80.10634624 171.65916704 C76.24328324 171.67254495 72.38028216 171.68269897 68.51719475 171.68421364 C64.32880079 171.68593974 60.14060848 171.70298821 55.95225525 171.7215271 C54.73143263 171.71959237 53.51061002 171.71765763 52.25279278 171.71566427 C46.45043575 171.75416386 41.46980465 172.00236499 36 174 C36 176.97 36 179.94 36 183 C32.05904392 183.98523902 29.61517557 183.9391949 25.625 183.5625 C22.29273281 183.25424578 19.0586719 182.99951223 15.7109375 183.02734375 C13 183 13 183 11 182 C11 178.37 11 174.74 11 171 C7.37 171 3.74 171 0 171 C0 162.75 0 154.5 0 146 C3.63 146 7.26 146 11 146 C11 106.4 11 66.8 11 26 C10.34 26 9.68 26 9 26 C9 25.34 9 24.68 9 24 C6.03 24.33 3.06 24.66 0 25 C-1.61002904 21.77994193 -1.14281455 18.28321844 -1.125 14.75 C-1.12886719 13.99847656 -1.13273437 13.24695313 -1.13671875 12.47265625 C-1.12927026 8.20467379 -0.84330157 4.20312211 0 0 Z " fill="#F0F0F0" transform="translate(32,69)"/>
<path d="M0 0 C1.95825873 -0.02694851 3.91662226 -0.04637218 5.875 -0.0625 C6.96554688 -0.07410156 8.05609375 -0.08570313 9.1796875 -0.09765625 C12 0 12 0 14 1 C14 1.66 14 2.32 14 3 C13.01 3.66 12.02 4.32 11 5 C11 5.66 11 6.32 11 7 C10.01 7 9.02 7 8 7 C8 7.99 8 8.98 8 10 C26.46279042 9.93951748 44.92543474 9.86205462 63.38806629 9.76428509 C71.96027715 9.71928808 80.5324461 9.67988252 89.10473633 9.65356445 C96.5749215 9.63061589 104.04497448 9.59725331 111.51505488 9.55129844 C115.47171959 9.52732359 119.42825304 9.50862285 123.38498878 9.50238609 C127.10736993 9.49635436 130.82941504 9.47642459 134.55167198 9.44572449 C136.57281974 9.43270447 138.59404588 9.43451941 140.61523438 9.4367218 C141.81416824 9.42418365 143.01310211 9.41164551 144.24836731 9.39872742 C145.29275876 9.39411845 146.33715021 9.38950949 147.41318989 9.38476086 C150.41486353 8.9382934 151.10655457 8.28133352 153 6 C156 4 156 4 158 4 C158 3.01 158 2.02 158 1 C158.66 1 159.32 1 160 1 C160 1.99 160 2.98 160 4 C160.99 4.495 160.99 4.495 162 5 C161.01 6.65 160.02 8.3 159 10 C167.50206366 9.98510736 176.00340077 9.94343574 184.50512123 9.86790943 C188.45319791 9.83367041 192.40088893 9.80853437 196.34912109 9.80444336 C200.1620358 9.8001536 203.974081 9.77163657 207.78672409 9.72656822 C209.23866072 9.71361455 210.69070152 9.70927804 212.14268875 9.71384621 C221.03414388 10.10876757 221.03414388 10.10876757 228.75146484 6.45581055 C229.49348145 5.64539307 230.23549805 4.83497559 231 4 C231.99 4 232.98 4 234 4 C234 3.01 234 2.02 234 1 C234.99 1 235.98 1 237 1 C237 1.99 237 2.98 237 4 C237.99 4.495 237.99 4.495 239 5 C237.68 6.32 236.36 7.64 235 9 C265.03 9.33 295.06 9.66 326 10 C326 10.33 326 10.66 326 11 C218.42 11 110.84 11 0 11 C0 7.37 0 3.74 0 0 Z " fill="#353535" transform="translate(67,228)"/>
<path d="M0 0 C7.26 0 14.52 0 22 0 C21.67 1.32 21.34 2.64 21 4 C20.05125 3.67 19.1025 3.34 18.125 3 C13.44552744 1.6355542 8.83176241 1.82500659 4 2 C3.855625 3.093125 3.71125 4.18625 3.5625 5.3125 C3 9 3 9 2 12 C-4.69491001 13.23574432 -11.31302971 13.11966172 -18.10411072 13.08229065 C-19.44246149 13.07859303 -20.78081357 13.07534473 -22.11916643 13.07250541 C-25.78608501 13.06343209 -29.4529533 13.04800488 -33.11984503 13.03152263 C-37.07816604 13.01484971 -41.03650368 13.00409428 -44.99484253 12.99261475 C-51.849374 12.97192862 -58.70388396 12.94750569 -65.55839348 12.92053413 C-75.46882501 12.88154337 -85.37926923 12.84820464 -95.28972561 12.81623887 C-111.36935366 12.7642215 -127.44896229 12.70764244 -143.52856445 12.64819336 C-159.14704635 12.59045889 -174.76553346 12.53487362 -190.3840332 12.48217773 C-191.82847396 12.47730316 -191.82847396 12.47730316 -193.30209535 12.4723301 C-198.1330558 12.45604023 -202.9640164 12.43979261 -207.79497707 12.42356598 C-247.86334203 12.28892646 -287.93167816 12.14688321 -328 12 C-328 11.67 -328 11.34 -328 11 C-219.76 11 -111.52 11 0 11 C0 7.37 0 3.74 0 0 Z " fill="#A2A2A2" transform="translate(395,69)"/>
<path d="M0 0 C0.4140625 2.28515625 0.4140625 2.28515625 0.625 5.0625 C0.69976562 5.98160156 0.77453125 6.90070312 0.8515625 7.84765625 C0.90054687 8.55792969 0.94953125 9.26820312 1 10 C1.71027344 10.04898438 2.42054688 10.09796875 3.15234375 10.1484375 C4.53099609 10.26058594 4.53099609 10.26058594 5.9375 10.375 C6.85402344 10.44460937 7.77054687 10.51421875 8.71484375 10.5859375 C9.46894531 10.72257812 10.22304688 10.85921875 11 11 C12.29945577 13.59891154 12.0223077 15.32666656 11.87890625 18.2265625 C11.83056641 19.2578125 11.78222656 20.2890625 11.73242188 21.3515625 C11.67634766 22.43179688 11.62027344 23.51203125 11.5625 24.625 C11.51029297 25.71296875 11.45808594 26.8009375 11.40429688 27.921875 C11.27437403 30.61482134 11.1378079 33.30744565 11 36 C7.37 36 3.74 36 0 36 C0.33 75.93 0.66 115.86 1 157 C4.3 157.33 7.6 157.66 11 158 C12 159 12 159 12.11352539 161.31665039 C12.10828857 162.31688232 12.10305176 163.31711426 12.09765625 164.34765625 C12.09443359 165.42724609 12.09121094 166.50683594 12.08789062 167.61914062 C12.07532227 169.32360352 12.07532227 169.32360352 12.0625 171.0625 C12.05798828 172.20267578 12.05347656 173.34285156 12.04882812 174.51757812 C12.03699747 177.34510351 12.0205141 180.1725264 12 183 C7.82011189 184.5168015 5.33273151 185.2743328 1 184 C0.67 187.3 0.34 190.6 0 194 C-0.33 194 -0.66 194 -1 194 C-1 190.04 -1 186.08 -1 182 C2.63 182 6.26 182 10 182 C10 174.41 10 166.82 10 159 C6.37 159 2.74 159 -1 159 C-1 118.08 -1 77.16 -1 35 C2.63 35 6.26 35 10 35 C10 27.41 10 19.82 10 12 C6.37 12 2.74 12 -1 12 C-1 8.37 -1 4.74 -1 1 C-8.59 1 -16.18 1 -24 1 C-24 0.67 -24 0.34 -24 0 C-20.3754207 -0.19632025 -16.75032733 -0.38055978 -13.125 -0.5625 C-12.09246094 -0.61857422 -11.05992187 -0.67464844 -9.99609375 -0.73242188 C-8.51689453 -0.80493164 -8.51689453 -0.80493164 -7.0078125 -0.87890625 C-6.09660645 -0.9260376 -5.18540039 -0.97316895 -4.24658203 -1.02172852 C-2 -1 -2 -1 0 0 Z " fill="#F2F2F2" transform="translate(419,57)"/>
<path d="M0 0 C1.95825873 -0.02694851 3.91662226 -0.04637218 5.875 -0.0625 C6.96554688 -0.07410156 8.05609375 -0.08570313 9.1796875 -0.09765625 C12 0 12 0 14 1 C14 1.66 14 2.32 14 3 C13.01 3.66 12.02 4.32 11 5 C11 5.66 11 6.32 11 7 C10.01 7 9.02 7 8 7 C8 7.99 8 8.98 8 10 C54.53 10 101.06 10 149 10 C149 10.33 149 10.66 149 11 C99.83 11 50.66 11 0 11 C0 7.37 0 3.74 0 0 Z " fill="#303030" transform="translate(67,228)"/>
<path d="M0 0 C3.63 0 7.26 0 11 0 C11 7.59 11 15.18 11 23 C7.37 23 3.74 23 0 23 C0 15.41 0 7.82 0 0 Z " fill="#2B2B2B" transform="translate(418,216)"/>
<path d="M0 0 C3.63 0 7.26 0 11 0 C11 7.59 11 15.18 11 23 C7.37 23 3.74 23 0 23 C0 15.41 0 7.82 0 0 Z " fill="#2B2B2B" transform="translate(33,216)"/>
<path d="M0 0 C7.26 0 14.52 0 22 0 C22 3.63 22 7.26 22 11 C14.74 11 7.48 11 0 11 C0 7.37 0 3.74 0 0 Z " fill="#292929" transform="translate(395,239)"/>
<path d="M0 0 C7.26 0 14.52 0 22 0 C22 3.63 22 7.26 22 11 C14.74 11 7.48 11 0 11 C0 7.37 0 3.74 0 0 Z " fill="#2A2A2A" transform="translate(45,239)"/>
<path d="M0 0 C3.63 0 7.26 0 11 0 C11 7.26 11 14.52 11 22 C7.37 22 3.74 22 0 22 C0 14.74 0 7.48 0 0 Z " fill="#292929" transform="translate(33,70)"/>
<path d="M0 0 C3.63 0 7.26 0 11 0 C11 7.26 11 14.52 11 22 C7.37 22 3.74 22 0 22 C0 14.74 0 7.48 0 0 Z " fill="#292929" transform="translate(418,70)"/>
<path d="M0 0 C7.26 0 14.52 0 22 0 C22 3.63 22 7.26 22 11 C14.74 11 7.48 11 0 11 C0 7.37 0 3.74 0 0 Z " fill="#2B2B2B" transform="translate(395,58)"/>
<path d="M0 0 C7.26 0 14.52 0 22 0 C22 3.63 22 7.26 22 11 C14.74 11 7.48 11 0 11 C0 7.37 0 3.74 0 0 Z " fill="#2B2B2B" transform="translate(45,58)"/>
<path d="M0 0 C0.33 0 0.66 0 1 0 C1.02505615 0.57032959 1.0501123 1.14065918 1.07592773 1.72827148 C1.19156549 4.29826157 1.31443624 6.86785527 1.4375 9.4375 C1.47681641 10.33533203 1.51613281 11.23316406 1.55664062 12.15820312 C1.59853516 13.01220703 1.64042969 13.86621094 1.68359375 14.74609375 C1.72025146 15.53685303 1.75690918 16.3276123 1.79467773 17.14233398 C1.80563257 19.01401441 1.80563257 19.01401441 3 20 C5.86267567 20.07325168 8.700719 20.09238205 11.5625 20.0625 C12.77196289 20.05573242 12.77196289 20.05573242 14.00585938 20.04882812 C16.00393756 20.03700518 18.00197783 20.01906914 20 20 C19.979375 18.906875 19.95875 17.81375 19.9375 16.6875 C20 13 20 13 21 10 C74.46 10 127.92 10 183 10 C183 10.33 183 10.66 183 11 C129.87 11 76.74 11 22 11 C22 14.63 22 18.26 22 22 C14.74 22 7.48 22 0 22 C0 14.74 0 7.48 0 0 Z " fill="#BABABA" transform="translate(45,217)"/>
<path d="M0 0 C0.33 0 0.66 0 1 0 C1 7.59 1 15.18 1 23 C4.63 23 8.26 23 12 23 C12 63.92 12 104.84 12 147 C8.04 147.33 4.08 147.66 0 148 C0 147.34 0 146.68 0 146 C3.63 146 7.26 146 11 146 C11 106.4 11 66.8 11 26 C10.34 26 9.68 26 9 26 C9 25.34 9 24.68 9 24 C6.03 24.33 3.06 24.66 0 25 C-1.61002904 21.77994193 -1.14281455 18.28321844 -1.125 14.75 C-1.12886719 13.99847656 -1.13273437 13.24695313 -1.13671875 12.47265625 C-1.12927026 8.20467379 -0.84330157 4.20312211 0 0 Z " fill="#F8F8F8" transform="translate(32,69)"/>
<path d="M0 0 C3.63 0 7.26 0 11 0 C11 3.3 11 6.6 11 10 C8.37493198 10.02690844 5.75013827 10.04679404 3.125 10.0625 C2.37863281 10.07087891 1.63226563 10.07925781 0.86328125 10.08789062 C-4.7734375 10.11328125 -4.7734375 10.11328125 -7 9 C-5.59257936 5.48144841 -4.33533477 4.61387166 -1 3 C-0.67 2.01 -0.34 1.02 0 0 Z " fill="#2A2A2A" transform="translate(384,70)"/>
<path d="M0 0 C0.33 0 0.66 0 1 0 C1 7.26 1 14.52 1 22 C4.63 22 8.26 22 12 22 C12 25.63 12 29.26 12 33 C19.59 33 27.18 33 35 33 C34.67 33.99 34.34 34.98 34 36 C32.98679688 35.9278125 31.97359375 35.855625 30.9296875 35.78125 C29.57813249 35.68739201 28.22656957 35.59364808 26.875 35.5 C26.20984375 35.45230469 25.5446875 35.40460938 24.859375 35.35546875 C21.77300983 35.14365938 18.72725036 35.00253132 15.6328125 35.03125 C13 35 13 35 11 34 C11 30.37 11 26.74 11 23 C7.37 23 3.74 23 0 23 C0 15.41 0 7.82 0 0 Z " fill="#EAEAEA" transform="translate(32,217)"/>
<path d="M0 0 C0.33 0 0.66 0 1 0 C1.61205763 7.6835092 2.13292199 15.29052435 2 23 C-2.12168689 24.62950412 -4.70700357 25.26264601 -9 24 C-9.33 27.3 -9.66 30.6 -10 34 C-10.33 34 -10.66 34 -11 34 C-11 30.04 -11 26.08 -11 22 C-7.37 22 -3.74 22 0 22 C0 14.74 0 7.48 0 0 Z " fill="#F1F1F1" transform="translate(429,217)"/>
<path d="M0 0 C0.33 0 0.66 0 1 0 C1.02505615 0.57032959 1.0501123 1.14065918 1.07592773 1.72827148 C1.19156549 4.29826157 1.31443624 6.86785527 1.4375 9.4375 C1.47681641 10.33533203 1.51613281 11.23316406 1.55664062 12.15820312 C1.59853516 13.01220703 1.64042969 13.86621094 1.68359375 14.74609375 C1.72025146 15.53685303 1.75690918 16.3276123 1.79467773 17.14233398 C1.80563257 19.01401441 1.80563257 19.01401441 3 20 C5.86267567 20.07325168 8.700719 20.09238205 11.5625 20.0625 C12.77196289 20.05573242 12.77196289 20.05573242 14.00585938 20.04882812 C16.00393756 20.03700518 18.00197783 20.01906914 20 20 C19.95875 18.906875 19.9175 17.81375 19.875 16.6875 C20 13 20 13 22 10 C22 13.96 22 17.92 22 22 C14.74 22 7.48 22 0 22 C0 14.74 0 7.48 0 0 Z " fill="#F5F5F5" transform="translate(45,217)"/>
<path d="M0 0 C0.66 0 1.32 0 2 0 C2 1.65 2 3.3 2 5 C1.34 5 0.68 5 0 5 C-0.2475 5.94875 -0.495 6.8975 -0.75 7.875 C-2 11 -2 11 -4.125 12.375 C-4.74375 12.58125 -5.3625 12.7875 -6 13 C-6.66 12.34 -7.32 11.68 -8 11 C-7.625 8.375 -7.625 8.375 -7 6 C-6.01 5.67 -5.02 5.34 -4 5 C-4 4.34 -4 3.68 -4 3 C-2.68 2.67 -1.36 2.34 0 2 C0 1.34 0 0.68 0 0 Z " fill="#343434" transform="translate(53,175)"/>
<path d="M0 0 C7.26 0 14.52 0 22 0 C21.67 1.32 21.34 2.64 21 4 C20.05125 3.67 19.1025 3.34 18.125 3 C13.44552744 1.6355542 8.83176241 1.82500659 4 2 C3.855625 3.093125 3.71125 4.18625 3.5625 5.3125 C3 9 3 9 2 12 C1.34 12 0.68 12 0 12 C0 8.04 0 4.08 0 0 Z " fill="#C3C3C3" transform="translate(395,69)"/>
<path d="M0 0 C0.66 0.33 1.32 0.66 2 1 C2 7 2 7 0.1875 9.1875 C-2 11 -2 11 -5 11 C-5.33 11.99 -5.66 12.98 -6 14 C-6 11.36 -6 8.72 -6 6 C-5.34 5.67 -4.68 5.34 -4 5 C-3.67 4.34 -3.34 3.68 -3 3 C-2.34 3 -1.68 3 -1 3 C-0.67 2.01 -0.34 1.02 0 0 Z " fill="#353535" transform="translate(413,117)"/>
<path d="M0 0 C0 2.31 0 4.62 0 7 C-0.66 7 -1.32 7 -2 7 C-1.67 7.99 -1.34 8.98 -1 10 C-1.99 10 -2.98 10 -4 10 C-4.66 9.34 -5.32 8.68 -6 8 C-6 6.68 -6 5.36 -6 4 C-1.66666667 0 -1.66666667 0 0 0 Z " fill="#343434" transform="translate(55,98)"/>
<path d="M0 0 C7.59 0 15.18 0 23 0 C22.67 0.99 22.34 1.98 22 3 C20.98679687 2.9278125 19.97359375 2.855625 18.9296875 2.78125 C17.57813249 2.68739201 16.22656957 2.59364808 14.875 2.5 C14.20984375 2.45230469 13.5446875 2.40460938 12.859375 2.35546875 C8.89764586 2.08358538 4.97061445 1.95052194 1 2 C0.67 1.34 0.34 0.68 0 0 Z " fill="#D9D9D9" transform="translate(44,250)"/>
<path d="M0 0 C0.66 0.66 1.32 1.32 2 2 C0.53781513 6.6302521 0.53781513 6.6302521 -2 8.375 C-4 9 -4 9 -6 8 C-4.95125002 5.37812506 -4.35068687 4.20628639 -1.875 2.75 C-1.25625 2.5025 -0.6375 2.255 0 2 C0 1.34 0 0.68 0 0 Z " fill="#343434" transform="translate(383,71)"/>
<path d="M0 0 C1.32 0.33 2.64 0.66 4 1 C3.54177532 4.46941546 3.10868317 7.67395049 2 11 C1.34 11 0.68 11 0 11 C0 7.37 0 3.74 0 0 Z " fill="#F2F2F2" transform="translate(395,70)"/>
<path d="M0 0 C0 0.66 0 1.32 0 2 C0.66 2 1.32 2 2 2 C2 2.66 2 3.32 2 4 C-0.64 4.33 -3.28 4.66 -6 5 C-6 4.01 -6 3.02 -6 2 C-3 0 -3 0 0 0 Z " fill="#343434" transform="translate(156,75)"/>
<path d="M0 0 C2.31 0 4.62 0 7 0 C6.01 0.495 6.01 0.495 5 1 C5 1.99 5 2.98 5 4 C3.35 4.33 1.7 4.66 0 5 C0 3.35 0 1.7 0 0 Z " fill="#242424" transform="translate(68,228)"/>
<path d="M0 0 C0.33 0 0.66 0 1 0 C1.28875 1.093125 1.5775 2.18625 1.875 3.3125 C2.81893204 7.04013845 2.81893204 7.04013845 5 10 C3.35 10.33 1.7 10.66 0 11 C0 7.37 0 3.74 0 0 Z " fill="#2D2D2D" transform="translate(67,228)"/>
<path d="M0 0 C2.31 0 4.62 0 7 0 C7 0.66 7 1.32 7 2 C6.01 2 5.02 2 4 2 C4 2.99 4 3.98 4 5 C2.68 4.34 1.36 3.68 0 3 C0 2.01 0 1.02 0 0 Z " fill="#343434" transform="translate(233,70)"/>
</svg>
