<svg xmlns="http://www.w3.org/2000/svg" viewBox="0 0 32 32"><title>coding-apps-websites-programming-bug</title><g><path d="M28.95 18.29v-3.05H25.9v-3.05h-1.52v-1.52h-1.52v1.52h-6.1v1.53h1.53v1.52h1.52v3.05h-1.52v1.52h-1.53v10.67h3.05v-1.52h1.52v-1.53h3.05v-1.52h1.52v3.05h1.53v-6.1H25.9v-6.09h1.53v3.04H32v-1.52Zm-9.14 9.14h-1.52v-1.52h1.52Zm4.57-4.57h-1.52v1.53h-1.53v-1.53h-1.52v-1.52h1.52v-1.53h1.53v1.53h1.52Zm0-7.62h-1.52v-1.52h1.52Z" fill="#000000"></path><path fill="#000000" d="M27.43 6.1h3.05V4.58H25.9v4.57h-1.52v1.52h3.05V6.1z"></path><path fill="#000000" d="M24.38 28.96h1.52V32h-1.52Z"></path><path fill="#000000" d="M21.33 21.34h1.53v1.52h-1.53Z"></path><path fill="#000000" d="M22.86 6.1h-1.53v3.05H10.67V6.1H9.14v4.57h13.72V6.1z"></path><path fill="#000000" d="M21.33 0h1.53v1.53h-1.53Z"></path><path fill="#000000" d="M19.81 4.58h1.52V6.1h-1.52Z"></path><path fill="#000000" d="M19.81 1.53h1.52v1.52h-1.52Z"></path><path fill="#000000" d="M16.76 15.24h1.53v3.05h-1.53Z"></path><path fill="#000000" d="M16.76 6.1h1.53v1.52h-1.53Z"></path><path fill="#000000" d="M13.71 15.24h1.53v3.05h-1.53Z"></path><path fill="#000000" d="M13.71 6.1h1.53v1.52h-1.53Z"></path><path fill="#000000" d="M12.19 3.05h7.62v1.53h-7.62Z"></path><path fill="#000000" d="M10.67 4.58h1.52V6.1h-1.52Z"></path><path fill="#000000" d="M10.67 1.53h1.52v1.52h-1.52Z"></path><path fill="#000000" d="M9.14 21.34h1.53v1.52H9.14Z"></path><path fill="#000000" d="M9.14 0h1.53v1.53H9.14Z"></path><path d="M7.62 12.19H6.1v3.05H3.05v3.05H0v1.52h4.57v-3.04H6.1v6.09H4.57v6.1H6.1v-3.05h1.52v1.52h3.05v1.53h1.52v1.52h3.05V19.81h-1.53v-1.52h-1.52v-3.05h1.52v-1.52h1.53v-1.53h-6.1v-1.52H7.62Zm6.09 13.72v1.52h-1.52v-1.52Zm-3.04-6.1v1.53h1.52v1.52h-1.52v1.53H9.14v-1.53H7.62v-1.52h1.52v-1.53Zm-1.53-4.57H7.62v-1.52h1.52Z" fill="#000000"></path><path fill="#000000" d="M6.1 28.96h1.52V32H6.1Z"></path><path fill="#000000" d="M6.1 9.15V4.58H1.52V6.1h3.05v4.57h3.05V9.15H6.1z"></path></g></svg>