<svg width="25" height="25" viewBox="0 0 25 25" fill="none" xmlns="http://www.w3.org/2000/svg">
<path d="M4.98047 1.66016C9.94336 1.66016 14.9062 1.66016 20.0195 1.66016C20.0195 2.20801 20.0195 2.75586 20.0195 3.32031C20.5674 3.32031 21.1152 3.32031 21.6797 3.32031C21.6797 3.86816 21.6797 4.41602 21.6797 4.98047C22.2275 4.98047 22.7754 4.98047 23.3398 4.98047C23.3398 9.94336 23.3398 14.9062 23.3398 20.0195C22.792 20.0195 22.2441 20.0195 21.6797 20.0195C21.6797 20.5674 21.6797 21.1152 21.6797 21.6797C21.1318 21.6797 20.584 21.6797 20.0195 21.6797C20.0195 22.2275 20.0195 22.7754 20.0195 23.3398C15.0566 23.3398 10.0938 23.3398 4.98047 23.3398C4.98047 22.792 4.98047 22.2441 4.98047 21.6797C4.43262 21.6797 3.88477 21.6797 3.32031 21.6797C3.32031 21.1318 3.32031 20.584 3.32031 20.0195C2.77246 20.0195 2.22461 20.0195 1.66016 20.0195C1.66016 15.0566 1.66016 10.0938 1.66016 4.98047C2.20801 4.98047 2.75586 4.98047 3.32031 4.98047C3.32031 4.43262 3.32031 3.88477 3.32031 3.32031C3.86816 3.32031 4.41602 3.32031 4.98047 3.32031C4.98047 2.77246 4.98047 2.22461 4.98047 1.66016Z" fill="#FDAAAA"/>
<path d="M10.0098 6.64062C10.5576 6.64062 11.1055 6.64062 11.6699 6.64062C11.6699 7.20459 11.6699 7.76855 11.6699 8.34961C12.2178 8.34961 12.7656 8.34961 13.3301 8.34961C13.3301 8.89746 13.3301 9.44531 13.3301 10.0098C13.8779 10.0098 14.4258 10.0098 14.9902 10.0098C14.9902 10.5576 14.9902 11.1055 14.9902 11.6699C15.5381 11.6699 16.0859 11.6699 16.6504 11.6699C16.6504 12.2178 16.6504 12.7656 16.6504 13.3301C16.1025 13.3301 15.5547 13.3301 14.9902 13.3301C14.9902 13.8779 14.9902 14.4258 14.9902 14.9902C14.4424 14.9902 13.8945 14.9902 13.3301 14.9902C13.3301 15.5381 13.3301 16.0859 13.3301 16.6504C12.7822 16.6504 12.2344 16.6504 11.6699 16.6504C11.6699 17.1982 11.6699 17.7461 11.6699 18.3105C11.1221 18.3105 10.5742 18.3105 10.0098 18.3105C10.0098 14.4595 10.0098 10.6084 10.0098 6.64062Z" fill="#F2EDE5"/>
</svg>
