<?xml version="1.0" encoding="UTF-8"?>
<svg version="1.1" xmlns="http://www.w3.org/2000/svg" width="512" height="512">
<path d="M0 0 C101.64 0 203.28 0 308 0 C308 11.22 308 22.44 308 34 C319.22 34 330.44 34 342 34 C342 45.22 342 56.44 342 68 C353.22 68 364.44 68 376 68 C376 169.64 376 271.28 376 376 C364.78 376 353.56 376 342 376 C342 387.22 342 398.44 342 410 C330.78 410 319.56 410 308 410 C308 421.22 308 432.44 308 444 C206.36 444 104.72 444 0 444 C0 432.78 0 421.56 0 410 C-11.22 410 -22.44 410 -34 410 C-34 398.78 -34 387.56 -34 376 C-45.22 376 -56.44 376 -68 376 C-68 274.36 -68 172.72 -68 68 C-56.78 68 -45.56 68 -34 68 C-34 56.78 -34 45.56 -34 34 C-22.78 34 -11.56 34 0 34 C0 22.78 0 11.56 0 0 Z " fill="#9D49FC" transform="translate(102,34)"/>
<path d="M0 0 C11.22 0 22.44 0 34 0 C34 11.55 34 23.1 34 35 C45.22 35 56.44 35 68 35 C68 46.22 68 57.44 68 69 C79.22 69 90.44 69 102 69 C102 80.22 102 91.44 102 103 C113.22 103 124.44 103 136 103 C136 114.22 136 125.44 136 137 C124.78 137 113.56 137 102 137 C102 148.22 102 159.44 102 171 C90.78 171 79.56 171 68 171 C68 182.22 68 193.44 68 205 C56.78 205 45.56 205 34 205 C34 216.22 34 227.44 34 239 C22.78 239 11.56 239 0 239 C0 160.13 0 81.26 0 0 Z " fill="#FEFEFE" transform="translate(205,136)"/>
</svg>
