<?xml version="1.0" encoding="UTF-8"?>
<svg version="1.1" xmlns="http://www.w3.org/2000/svg" width="512" height="512">
<path d="M0 0 C32.34 0 64.68 0 98 0 C98 10.89 98 21.78 98 33 C119.78 33 141.56 33 164 33 C164 43.56 164 54.12 164 65 C174.56 65 185.12 65 196 65 C196 86.78 196 108.56 196 131 C206.89 131 217.78 131 229 131 C229 163.34 229 195.68 229 229 C218.11 229 207.22 229 196 229 C196 250.78 196 272.56 196 295 C185.44 295 174.88 295 164 295 C164 305.56 164 316.12 164 327 C142.22 327 120.44 327 98 327 C98 337.89 98 348.78 98 360 C65.66 360 33.32 360 0 360 C0 349.11 0 338.22 0 327 C-21.78 327 -43.56 327 -66 327 C-66 316.44 -66 305.88 -66 295 C-76.56 295 -87.12 295 -98 295 C-98 273.22 -98 251.44 -98 229 C-108.89 229 -119.78 229 -131 229 C-131 196.66 -131 164.32 -131 131 C-120.11 131 -109.22 131 -98 131 C-98 109.22 -98 87.44 -98 65 C-87.44 65 -76.88 65 -66 65 C-66 54.44 -66 43.88 -66 33 C-44.22 33 -22.44 33 0 33 C0 22.11 0 11.22 0 0 Z M1 34 C1 44.56 1 55.12 1 66 C-20.78 66 -42.56 66 -65 66 C-65 87.78 -65 109.56 -65 132 C-75.56 132 -86.12 132 -97 132 C-97 163.68 -97 195.36 -97 228 C-86.44 228 -75.88 228 -65 228 C-65 249.78 -65 271.56 -65 294 C-43.22 294 -21.44 294 1 294 C1 304.56 1 315.12 1 326 C32.68 326 64.36 326 97 326 C97 315.44 97 304.88 97 294 C118.78 294 140.56 294 163 294 C163 272.22 163 250.44 163 228 C173.56 228 184.12 228 195 228 C195 196.32 195 164.64 195 132 C184.44 132 173.88 132 163 132 C163 110.22 163 88.44 163 66 C141.22 66 119.44 66 97 66 C97 55.44 97 44.88 97 34 C65.32 34 33.64 34 1 34 Z " fill="#000000" transform="translate(207,76)"/>
<path d="M0 0 C10.89 0 21.78 0 33 0 C33 54.12 33 108.24 33 164 C22.11 164 11.22 164 0 164 C0 109.88 0 55.76 0 0 Z " fill="#000000" transform="translate(272,174)"/>
<path d="M0 0 C10.89 0 21.78 0 33 0 C33 54.12 33 108.24 33 164 C22.11 164 11.22 164 0 164 C0 109.88 0 55.76 0 0 Z " fill="#000000" transform="translate(207,174)"/>
</svg>
