<svg width="20" height="20" viewBox="0 0 20 20" fill="none" xmlns="http://www.w3.org/2000/svg">
<path d="M4.42516 0C8.10456 0 11.7839 0 15.5748 0C15.5748 0.742857 15.5748 1.48571 15.5748 2.25108C16.305 2.25108 17.0351 2.25108 17.7874 2.25108C17.7874 2.97965 17.7874 3.70823 17.7874 4.45887C18.5176 4.45887 19.2477 4.45887 20 4.45887C20 8.1303 20 11.8017 20 15.5844C19.2698 15.5844 18.5397 15.5844 17.7874 15.5844C17.7874 16.313 17.7874 17.0416 17.7874 17.7922C17.0573 17.7922 16.3271 17.7922 15.5748 17.7922C15.5748 18.5208 15.5748 19.2494 15.5748 20C11.8954 20 8.21605 20 4.42516 20C4.42516 19.2714 4.42516 18.5429 4.42516 17.7922C3.69501 17.7922 2.96486 17.7922 2.21258 17.7922C2.21258 17.0636 2.21258 16.3351 2.21258 15.5844C1.48243 15.5844 0.752278 15.5844 0 15.5844C0 11.913 0 8.24156 0 4.45887C0.730152 4.45887 1.4603 4.45887 2.21258 4.45887C2.21258 3.7303 2.21258 3.00173 2.21258 2.25108C2.94273 2.25108 3.67289 2.25108 4.42516 2.25108C4.42516 1.50823 4.42516 0.765368 4.42516 0ZM4.46855 2.25108C4.46855 2.99394 4.46855 3.7368 4.46855 4.50216C3.73839 4.50216 3.00824 4.50216 2.25597 4.50216C2.25597 8.14502 2.25597 11.7879 2.25597 15.5411C2.98612 15.5411 3.71627 15.5411 4.46855 15.5411C4.46855 16.2697 4.46855 16.9983 4.46855 17.7489C8.11931 17.7489 11.7701 17.7489 15.5315 17.7489C15.5315 17.0203 15.5315 16.2918 15.5315 15.5411C16.2616 15.5411 16.9918 15.5411 17.744 15.5411C17.744 11.8983 17.744 8.25541 17.744 4.50216C17.0139 4.50216 16.2837 4.50216 15.5315 4.50216C15.5315 3.75931 15.5315 3.01645 15.5315 2.25108C11.8807 2.25108 8.22993 2.25108 4.46855 2.25108Z" fill="#AA3F55"/>
<path d="M13.7743 7C14.5088 7 15.2433 7 16 7C16 7.74971 16 8.49942 16 9.27184C15.2796 9.27184 14.5593 9.27184 13.8171 9.27184C13.8171 10.0071 13.8171 10.7424 13.8171 11.5C13.0968 11.5 12.3764 11.5 11.6342 11.5C11.6342 12.2497 11.6342 12.9994 11.6342 13.7718C10.8998 13.7718 10.1653 13.7718 9.40856 13.7718C9.40856 14.5071 9.40856 15.2424 9.40856 16C8.67409 16 7.93961 16 7.18288 16C7.18288 15.2647 7.18288 14.5294 7.18288 13.7718C6.46253 13.7718 5.74218 13.7718 5 13.7718C5 13.0221 5 12.2724 5 11.5C5.73447 11.5 6.46895 11.5 7.22568 11.5C7.22568 12.2353 7.22568 12.9706 7.22568 13.7282C7.93191 13.7282 8.63813 13.7282 9.36576 13.7282C9.36576 12.9784 9.36576 12.2287 9.36576 11.4563C10.1002 11.4563 10.8347 11.4563 11.5914 11.4563C11.5914 10.721 11.5914 9.98573 11.5914 9.22816C12.3118 9.22816 13.0321 9.22816 13.7743 9.22816C13.7743 8.49286 13.7743 7.75757 13.7743 7Z" fill="#AA3F55"/>
</svg>
