<?xml version="1.0" encoding="UTF-8"?>
<svg version="1.1" xmlns="http://www.w3.org/2000/svg" width="1000" height="1000">
<path d="M0 0 C110.22 0 220.44 0 334 0 C334 15.51 334 31.02 334 47 C365.35 47 396.7 47 429 47 C429 62.84 429 78.68 429 95 C444.84 95 460.68 95 477 95 C477 110.51 477 126.02 477 142 C492.84 142 508.68 142 525 142 C525 157.84 525 173.68 525 190 C540.51 190 556.02 190 572 190 C572 205.84 572 221.68 572 238 C587.84 238 603.68 238 620 238 C620 269.35 620 300.7 620 333 C635.51 333 651.02 333 667 333 C667 443.22 667 553.44 667 667 C651.49 667 635.98 667 620 667 C620 698.35 620 729.7 620 762 C604.16 762 588.32 762 572 762 C572 777.84 572 793.68 572 810 C556.49 810 540.98 810 525 810 C525 825.84 525 841.68 525 858 C509.16 858 493.32 858 477 858 C477 873.51 477 889.02 477 905 C461.16 905 445.32 905 429 905 C429 920.84 429 936.68 429 953 C397.65 953 366.3 953 334 953 C334 968.51 334 984.02 334 1000 C223.78 1000 113.56 1000 0 1000 C0 984.49 0 968.98 0 953 C-31.35 953 -62.7 953 -95 953 C-95 937.16 -95 921.32 -95 905 C-110.84 905 -126.68 905 -143 905 C-143 889.49 -143 873.98 -143 858 C-158.84 858 -174.68 858 -191 858 C-191 842.16 -191 826.32 -191 810 C-206.51 810 -222.02 810 -238 810 C-238 794.16 -238 778.32 -238 762 C-253.84 762 -269.68 762 -286 762 C-286 730.65 -286 699.3 -286 667 C-301.51 667 -317.02 667 -333 667 C-333 556.78 -333 446.56 -333 333 C-317.49 333 -301.98 333 -286 333 C-286 301.65 -286 270.3 -286 238 C-270.16 238 -254.32 238 -238 238 C-238 222.16 -238 206.32 -238 190 C-222.49 190 -206.98 190 -191 190 C-191 174.16 -191 158.32 -191 142 C-175.16 142 -159.32 142 -143 142 C-143 126.49 -143 110.98 -143 95 C-127.16 95 -111.32 95 -95 95 C-95 79.16 -95 63.32 -95 47 C-63.65 47 -32.3 47 0 47 C0 31.49 0 15.98 0 0 Z " fill="#F6C217" transform="translate(333,0)"/>
<path d="M0 0 C31.35 0 62.7 0 95 0 C95 31.35 95 62.7 95 95 C63.65 95 32.3 95 0 95 C0 110.51 0 126.02 0 142 C78.54 142 157.08 142 238 142 C238 126.49 238 110.98 238 95 C206.65 95 175.3 95 143 95 C143 79.16 143 63.32 143 47 C205.7 47 268.4 47 333 47 C333 94.19 333 141.38 333 190 C348.84 190 364.68 190 381 190 C381 268.54 381 347.08 381 428 C365.16 428 349.32 428 333 428 C333 475.19 333 522.38 333 571 C301.65 571 270.3 571 238 571 C238 586.51 238 602.02 238 618 C269.35 618 300.7 618 333 618 C333 618.33 333 618.66 333 619 C270.3 619 207.6 619 143 619 C143 587.32 143 555.64 143 523 C174.35 523 205.7 523 238 523 C238 507.49 238 491.98 238 476 C159.46 476 80.92 476 0 476 C0 491.51 0 507.02 0 523 C31.35 523 62.7 523 95 523 C95 554.35 95 585.7 95 618 C63.65 618 32.3 618 0 618 C0 602.49 0 586.98 0 571 C-31.35 571 -62.7 571 -95 571 C-95 555.16 -95 539.32 -95 523 C-110.84 523 -126.68 523 -143 523 C-143 491.65 -143 460.3 -143 428 C-158.51 428 -174.02 428 -190 428 C-190 349.46 -190 270.92 -190 190 C-174.49 190 -158.98 190 -143 190 C-143 158.65 -143 127.3 -143 95 C-127.16 95 -111.32 95 -95 95 C-95 79.16 -95 63.32 -95 47 C-63.65 47 -32.3 47 0 47 C0 31.49 0 15.98 0 0 Z " fill="#F6C216" transform="translate(381,191)"/>
<path d="M0 0 C31.35 0 62.7 0 95 0 C95 31.35 95 62.7 95 95 C63.65 95 32.3 95 0 95 C0 110.51 0 126.02 0 142 C-15.84 142 -31.68 142 -48 142 C-48 189.19 -48 236.38 -48 285 C-32.16 285 -16.32 285 0 285 C0 300.84 0 316.68 0 333 C78.54 333 157.08 333 238 333 C238 380.19 238 427.38 238 476 C159.46 476 80.92 476 0 476 C0 491.51 0 507.02 0 523 C31.35 523 62.7 523 95 523 C95 554.35 95 585.7 95 618 C63.65 618 32.3 618 0 618 C0 602.49 0 586.98 0 571 C-31.35 571 -62.7 571 -95 571 C-95 555.16 -95 539.32 -95 523 C-110.84 523 -126.68 523 -143 523 C-143 491.65 -143 460.3 -143 428 C-158.51 428 -174.02 428 -190 428 C-190 349.46 -190 270.92 -190 190 C-174.49 190 -158.98 190 -143 190 C-143 158.65 -143 127.3 -143 95 C-127.16 95 -111.32 95 -95 95 C-95 79.16 -95 63.32 -95 47 C-63.65 47 -32.3 47 0 47 C0 31.49 0 15.98 0 0 Z " fill="#F6C217" transform="translate(381,191)"/>
<path d="M0 0 C15.84 0 31.68 0 48 0 C48 172.92 48 345.84 48 524 C32.16 524 16.32 524 0 524 C0 492.65 0 461.3 0 429 C-15.51 429 -31.02 429 -47 429 C-47 318.78 -47 208.56 -47 95 C-31.49 95 -15.98 95 0 95 C0 63.65 0 32.3 0 0 Z " fill="#F86A1C" transform="translate(47,238)"/>
<path d="M0 0 C31.35 0 62.7 0 95 0 C95 110.22 95 220.44 95 334 C63.65 334 32.3 334 0 334 C0 223.78 0 113.56 0 0 Z " fill="#FCE7AC" transform="translate(905,333)"/>
<path d="M0 0 C78.54 0 157.08 0 238 0 C238 15.51 238 31.02 238 47 C206.65 47 175.3 47 143 47 C143 78.68 143 110.36 143 143 C174.35 143 205.7 143 238 143 C238 158.51 238 174.02 238 190 C159.46 190 80.92 190 0 190 C0 174.49 0 158.98 0 143 C31.35 143 62.7 143 95 143 C95 111.65 95 80.3 95 48 C63.65 48 32.3 48 0 48 C0 63.51 0 79.02 0 95 C-31.35 95 -62.7 95 -95 95 C-95 79.16 -95 63.32 -95 47 C-63.65 47 -32.3 47 0 47 C0 31.49 0 15.98 0 0 Z " fill="#6C2600" transform="translate(381,143)"/>
<path d="M0 0 C78.54 0 157.08 0 238 0 C238 15.51 238 31.02 238 47 C206.65 47 175.3 47 143 47 C143 78.68 143 110.36 143 143 C174.35 143 205.7 143 238 143 C238 158.51 238 174.02 238 190 C159.46 190 80.92 190 0 190 C0 174.49 0 158.98 0 143 C31.35 143 62.7 143 95 143 C95 111.32 95 79.64 95 47 C63.65 47 32.3 47 0 47 C0 31.49 0 15.98 0 0 Z " fill="#6C2600" transform="translate(381,667)"/>
<path d="M0 0 C31.35 0 62.7 0 95 0 C95.33 15.51 95.66 31.02 96 47 C119.265 47.495 119.265 47.495 143 48 C143 63.51 143 79.02 143 95 C174.35 95 205.7 95 238 95 C238 126.68 238 158.36 238 191 C206.65 191 175.3 191 143 191 C143 175.16 143 159.32 143 143 C127.16 143 111.32 143 95 143 C95 127.49 95 111.98 95 96 C79.16 96 63.32 96 47 96 C47 80.16 47 64.32 47 48 C31.49 48 15.98 48 0 48 C0 32.16 0 16.32 0 0 Z " fill="#F96B1C" transform="translate(95,762)"/>
<path d="M0 0 C110.22 0 220.44 0 334 0 C334 15.51 334 31.02 334 47 C223.78 47 113.56 47 0 47 C0 31.49 0 15.98 0 0 Z " fill="#000000" transform="translate(333,953)"/>
<path d="M0 0 C15.51 0 31.02 0 47 0 C47 110.22 47 220.44 47 334 C31.49 334 15.98 334 0 334 C0 223.78 0 113.56 0 0 Z " fill="#000000" transform="translate(953,333)"/>
<path d="M0 0 C15.51 0 31.02 0 47 0 C47 110.22 47 220.44 47 334 C31.49 334 15.98 334 0 334 C0 223.78 0 113.56 0 0 Z " fill="#000000" transform="translate(0,333)"/>
<path d="M0 0 C110.22 0 220.44 0 334 0 C334 15.51 334 31.02 334 47 C223.78 47 113.56 47 0 47 C0 31.49 0 15.98 0 0 Z " fill="#000000" transform="translate(333,0)"/>
<path d="M0 0 C62.7 0 125.4 0 190 0 C190 31.35 190 62.7 190 95 C158.65 95 127.3 95 95 95 C95 79.49 95 63.98 95 48 C63.65 48 32.3 48 0 48 C0 32.16 0 16.32 0 0 Z " fill="#F6C216" transform="translate(286,714)"/>
<path d="M0 0 C0.33 0 0.66 0 1 0 C1 141.24 1 282.48 1 428 C0.67 428 0.34 428 0 428 C0 396.65 0 365.3 0 333 C-15.51 333 -31.02 333 -47 333 C-47 254.46 -47 175.92 -47 95 C-31.49 95 -15.98 95 0 95 C0 63.65 0 32.3 0 0 Z " fill="#F86A1C" transform="translate(809,286)"/>
<path d="M0 0 C78.54 0 157.08 0 238 0 C238 15.84 238 31.68 238 48 C159.46 48 80.92 48 0 48 C0 32.16 0 16.32 0 0 Z " fill="#6D2700" transform="translate(381,476)"/>
<path d="M0 0 C31.35 0 62.7 0 95 0 C95 31.35 95 62.7 95 95 C79.49 95 63.98 95 48 95 C48 110.84 48 126.68 48 143 C32.16 143 16.32 143 0 143 C0 95.81 0 48.62 0 0 Z " fill="#FA6B1C" transform="translate(714,619)"/>
<path d="M0 0 C15.84 0 31.68 0 48 0 C48 15.84 48 31.68 48 48 C63.51 48 79.02 48 95 48 C95 79.35 95 110.7 95 143 C63.65 143 32.3 143 0 143 C0 95.81 0 48.62 0 0 Z " fill="#FA6B1C" transform="translate(714,238)"/>
<path d="M0 0 C15.51 0 31.02 0 47 0 C47 78.54 47 157.08 47 238 C31.49 238 15.98 238 0 238 C0 159.46 0 80.92 0 0 Z " fill="#6C2600" transform="translate(810,381)"/>
<path d="M0 0 C15.51 0 31.02 0 47 0 C47 78.54 47 157.08 47 238 C31.49 238 15.98 238 0 238 C0 159.46 0 80.92 0 0 Z " fill="#FFEAAF" transform="translate(191,381)"/>
<path d="M0 0 C15.51 0 31.02 0 47 0 C47 78.54 47 157.08 47 238 C31.49 238 15.98 238 0 238 C0 159.46 0 80.92 0 0 Z " fill="#6C2600" transform="translate(143,381)"/>
<path d="M0 0 C62.7 0 125.4 0 190 0 C190 15.84 190 31.68 190 48 C127.3 48 64.6 48 0 48 C0 32.16 0 16.32 0 0 Z " fill="#FA6C1C" transform="translate(524,238)"/>
<path d="M0 0 C62.7 0 125.4 0 190 0 C190 15.84 190 31.68 190 48 C127.3 48 64.6 48 0 48 C0 32.16 0 16.32 0 0 Z " fill="#F86A1C" transform="translate(524,190)"/>
<path d="M0 0 C15.84 0 31.68 0 48 0 C48 15.84 48 31.68 48 48 C32.49 48 16.98 48 1 48 C1.0396079 63.42274686 1.0396079 63.42274686 1.09008789 78.84545898 C1.09300691 80.77067001 1.0955555 82.69588165 1.09765625 84.62109375 C1.10277222 85.63079224 1.10788818 86.64049072 1.11315918 87.68078613 C1.11334045 89.11194763 1.11334045 89.11194763 1.11352539 90.57202148 C1.115746 91.40475082 1.11796661 92.23748016 1.12025452 93.09544373 C1 95 1 95 0 96 C-1.47354348 96.09304018 -2.95150591 96.11746265 -4.42797852 96.11352539 C-5.38208618 96.11340454 -6.33619385 96.11328369 -7.31921387 96.11315918 C-8.32891235 96.10804321 -9.33861084 96.10292725 -10.37890625 96.09765625 C-11.30183472 96.09664917 -12.22476318 96.09564209 -13.17565918 96.09460449 C-16.63795201 96.08935494 -20.1002272 96.07539381 -23.5625 96.0625 C-31.296875 96.041875 -39.03125 96.02125 -47 96 C-47 111.51 -47 127.02 -47 143 C-62.84 143 -78.68 143 -95 143 C-95 127.16 -95 111.32 -95 95 C-79.49 95 -63.98 95 -48 95 C-48 79.16 -48 63.32 -48 47 C-32.16 47 -16.32 47 0 47 C0 31.49 0 15.98 0 0 Z " fill="#020100" transform="translate(190,95)"/>
<path d="M0 0 C15.84 0 31.68 0 48 0 C48 15.84 48 31.68 48 48 C32.49 48 16.98 48 1 48 C1 63.84 1 79.68 1 96 C-14.84 96 -30.68 96 -47 96 C-47 111.51 -47 127.02 -47 143 C-62.84 143 -78.68 143 -95 143 C-95 127.16 -95 111.32 -95 95 C-79.49 95 -63.98 95 -48 95 C-48 79.49 -48 63.98 -48 48 C-32.16 48 -16.32 48 0 48 C0 32.16 0 16.32 0 0 Z " fill="#010100" transform="translate(857,762)"/>
<path d="M0 0 C15.84 0 31.68 0 48 0 C48 47.19 48 94.38 48 143 C32.16 143 16.32 143 0 143 C0 95.81 0 48.62 0 0 Z " fill="#6D2700" transform="translate(619,524)"/>
<path d="M0 0 C15.84 0 31.68 0 48 0 C48 47.19 48 94.38 48 143 C32.16 143 16.32 143 0 143 C0 95.81 0 48.62 0 0 Z " fill="#6D2700" transform="translate(333,333)"/>
<path d="M0 0 C15.84 0 31.68 0 48 0 C48 15.84 48 31.68 48 48 C63.51 48 79.02 48 95 48 C95 63.84 95 79.68 95 96 C79.16 96 63.32 96 47 96 C47 80.16 47 64.32 47 48 C31.49 48 15.98 48 0 48 C0 32.16 0 16.32 0 0 Z " fill="#000000" transform="translate(95,762)"/>
<path d="M0 0 C15.84 0 31.68 0 48 0 C48 15.84 48 31.68 48 48 C63.51 48 79.02 48 95 48 C95 63.84 95 79.68 95 96 C79.16 96 63.32 96 47 96 C47 80.16 47 64.32 47 48 C31.49 48 15.98 48 0 48 C0 32.16 0 16.32 0 0 Z " fill="#000000" transform="translate(810,142)"/>
<path d="M0 0 C31.35 0 62.7 0 95 0 C95 15.84 95 31.68 95 48 C63.65 48 32.3 48 0 48 C0 32.16 0 16.32 0 0 Z " fill="#000000" transform="translate(667,905)"/>
<path d="M0 0 C31.35 0 62.7 0 95 0 C95 15.84 95 31.68 95 48 C63.65 48 32.3 48 0 48 C0 32.16 0 16.32 0 0 Z " fill="#000000" transform="translate(238,905)"/>
<path d="M0 0 C31.35 0 62.7 0 95 0 C95 15.84 95 31.68 95 48 C63.65 48 32.3 48 0 48 C0 32.16 0 16.32 0 0 Z " fill="#FEE9AE" transform="translate(286,714)"/>
<path d="M0 0 C15.84 0 31.68 0 48 0 C48 31.35 48 62.7 48 95 C32.16 95 16.32 95 0 95 C0 63.65 0 32.3 0 0 Z " fill="#000000" transform="translate(905,667)"/>
<path d="M0 0 C15.84 0 31.68 0 48 0 C48 31.35 48 62.7 48 95 C32.16 95 16.32 95 0 95 C0 63.65 0 32.3 0 0 Z " fill="#FEE9AD" transform="translate(857,667)"/>
<path d="M0 0 C15.84 0 31.68 0 48 0 C48 31.35 48 62.7 48 95 C32.16 95 16.32 95 0 95 C0 63.65 0 32.3 0 0 Z " fill="#FA6B1C" transform="translate(95,667)"/>
<path d="M0 0 C15.84 0 31.68 0 48 0 C48 31.35 48 62.7 48 95 C32.16 95 16.32 95 0 95 C0 63.65 0 32.3 0 0 Z " fill="#000000" transform="translate(47,667)"/>
<path d="M0 0 C15.84 0 31.68 0 48 0 C48 31.35 48 62.7 48 95 C32.16 95 16.32 95 0 95 C0 63.65 0 32.3 0 0 Z " fill="#FEE9AD" transform="translate(238,619)"/>
<path d="M0 0 C15.84 0 31.68 0 48 0 C48 31.35 48 62.7 48 95 C32.16 95 16.32 95 0 95 C0 63.65 0 32.3 0 0 Z " fill="#FEE9AD" transform="translate(238,286)"/>
<path d="M0 0 C15.84 0 31.68 0 48 0 C48 31.35 48 62.7 48 95 C32.16 95 16.32 95 0 95 C0 63.65 0 32.3 0 0 Z " fill="#000000" transform="translate(905,238)"/>
<path d="M0 0 C15.84 0 31.68 0 48 0 C48 31.35 48 62.7 48 95 C32.16 95 16.32 95 0 95 C0 63.65 0 32.3 0 0 Z " fill="#FEE9AD" transform="translate(857,238)"/>
<path d="M0 0 C15.84 0 31.68 0 48 0 C48 31.35 48 62.7 48 95 C32.16 95 16.32 95 0 95 C0 63.65 0 32.3 0 0 Z " fill="#000000" transform="translate(47,238)"/>
<path d="M0 0 C31.35 0 62.7 0 95 0 C95 15.84 95 31.68 95 48 C63.65 48 32.3 48 0 48 C0 32.16 0 16.32 0 0 Z " fill="#000000" transform="translate(667,47)"/>
<path d="M0 0 C31.35 0 62.7 0 95 0 C95 15.84 95 31.68 95 48 C63.65 48 32.3 48 0 48 C0 32.16 0 16.32 0 0 Z " fill="#000000" transform="translate(238,47)"/>
<path d="M0 0 C31.35 0 62.7 0 95 0 C95 15.51 95 31.02 95 47 C63.65 47 32.3 47 0 47 C0 31.49 0 15.98 0 0 Z " fill="#6C2600" transform="translate(619,762)"/>
<path d="M0 0 C31.35 0 62.7 0 95 0 C95 15.51 95 31.02 95 47 C63.65 47 32.3 47 0 47 C0 31.49 0 15.98 0 0 Z " fill="#FFEAAF" transform="translate(381,762)"/>
<path d="M0 0 C31.35 0 62.7 0 95 0 C95 15.51 95 31.02 95 47 C63.65 47 32.3 47 0 47 C0 31.49 0 15.98 0 0 Z " fill="#6C2600" transform="translate(286,762)"/>
<path d="M0 0 C15.51 0 31.02 0 47 0 C47 31.35 47 62.7 47 95 C31.49 95 15.98 95 0 95 C0 63.65 0 32.3 0 0 Z " fill="#6C2600" transform="translate(762,619)"/>
<path d="M0 0 C15.51 0 31.02 0 47 0 C47 31.35 47 62.7 47 95 C31.49 95 15.98 95 0 95 C0 63.65 0 32.3 0 0 Z " fill="#6C2600" transform="translate(191,619)"/>
<path d="M0 0 C15.51 0 31.02 0 47 0 C47 31.35 47 62.7 47 95 C31.49 95 15.98 95 0 95 C0 63.65 0 32.3 0 0 Z " fill="#6C2600" transform="translate(762,286)"/>
<path d="M0 0 C15.51 0 31.02 0 47 0 C47 31.35 47 62.7 47 95 C31.49 95 15.98 95 0 95 C0 63.65 0 32.3 0 0 Z " fill="#6C2600" transform="translate(191,286)"/>
<path d="M0 0 C31.35 0 62.7 0 95 0 C95 15.51 95 31.02 95 47 C63.65 47 32.3 47 0 47 C0 31.49 0 15.98 0 0 Z " fill="#F7C317" transform="translate(524,238)"/>
<path d="M0 0 C31.35 0 62.7 0 95 0 C95 15.51 95 31.02 95 47 C63.65 47 32.3 47 0 47 C0 31.49 0 15.98 0 0 Z " fill="#6C2600" transform="translate(619,191)"/>
<path d="M0 0 C31.35 0 62.7 0 95 0 C95 15.51 95 31.02 95 47 C63.65 47 32.3 47 0 47 C0 31.49 0 15.98 0 0 Z " fill="#FEE9AE" transform="translate(667,96)"/>
<path d="M0 0 C15.84 0 31.68 0 48 0 C48 15.51 48 31.02 48 47 C142.05 47 236.1 47 333 47 C333 31.49 333 15.98 333 0 C333.33 0 333.66 0 334 0 C334 15.84 334 31.68 334 48 C223.78 48 113.56 48 0 48 C0 32.16 0 16.32 0 0 Z " fill="#E96A1A" transform="translate(333,905)"/>
<path d="M0 0 C15.84 0 31.68 0 48 0 C48 15.84 48 31.68 48 48 C32.16 48 16.32 48 0 48 C0 32.16 0 16.32 0 0 Z " fill="#6D2700" transform="translate(714,714)"/>
<path d="M0 0 C15.84 0 31.68 0 48 0 C48 15.84 48 31.68 48 48 C32.16 48 16.32 48 0 48 C0 32.16 0 16.32 0 0 Z " fill="#6D2800" transform="translate(238,714)"/>
<path d="M0 0 C15.84 0 31.68 0 48 0 C48 15.84 48 31.68 48 48 C32.16 48 16.32 48 0 48 C0 32.16 0 16.32 0 0 Z " fill="#6D2800" transform="translate(333,619)"/>
<path d="M0 0 C15.84 0 31.68 0 48 0 C48 15.84 48 31.68 48 48 C32.16 48 16.32 48 0 48 C0 32.16 0 16.32 0 0 Z " fill="#6D2800" transform="translate(619,333)"/>
<path d="M0 0 C15.84 0 31.68 0 48 0 C48 15.84 48 31.68 48 48 C32.16 48 16.32 48 0 48 C0 32.16 0 16.32 0 0 Z " fill="#6D2700" transform="translate(714,238)"/>
<path d="M0 0 C15.84 0 31.68 0 48 0 C48 15.84 48 31.68 48 48 C32.16 48 16.32 48 0 48 C0 32.16 0 16.32 0 0 Z " fill="#6D2800" transform="translate(238,238)"/>
<path d="M0 0 C15.84 0 31.68 0 48 0 C48 15.51 48 31.02 48 47 C32.16 47 16.32 47 0 47 C0 31.49 0 15.98 0 0 Z " fill="#000000" transform="translate(190,858)"/>
<path d="M0 0 C15.51 0 31.02 0 47 0 C47 15.84 47 31.68 47 48 C31.49 48 15.98 48 0 48 C0 32.16 0 16.32 0 0 Z " fill="#FEE9AE" transform="translate(286,238)"/>
<path d="M0 0 C15.51 0 31.02 0 47 0 C47 15.84 47 31.68 47 48 C31.49 48 15.98 48 0 48 C0 32.16 0 16.32 0 0 Z " fill="#FEE9AD" transform="translate(762,143)"/>
<path d="M0 0 C15.84 0 31.68 0 48 0 C48 15.51 48 31.02 48 47 C32.16 47 16.32 47 0 47 C0 31.49 0 15.98 0 0 Z " fill="#000000" transform="translate(762,95)"/>
<path d="M0 0 C15.51 0 31.02 0 47 0 C47 15.51 47 31.02 47 47 C31.49 47 15.98 47 0 47 C0 31.49 0 15.98 0 0 Z " fill="#FFEAAF" transform="translate(810,762)"/>
<path d="M0 0 C15.51 0 31.02 0 47 0 C47 15.51 47 31.02 47 47 C31.49 47 15.98 47 0 47 C0 31.49 0 15.98 0 0 Z " fill="#FFEAAF" transform="translate(810,191)"/>
<path d="M0 0 C15.51 0 31.02 0 47 0 C47 15.51 47 31.02 47 47 C31.49 47 15.98 47 0 47 C0 31.49 0 15.98 0 0 Z " fill="#FFE9AE" transform="translate(619,48)"/>
</svg>
