<svg xmlns="http://www.w3.org/2000/svg" viewBox="0 0 32 32"><title>business-product-startup-1</title><g><path fill="#000000" d="M28.95 28.95H32v1.53h-3.05Z"></path><path fill="#000000" d="M27.43 30.48h1.52V32h-1.52Z"></path><path fill="#000000" d="M27.43 19.81H25.9v1.52h1.53v1.53h1.52v-7.62h-1.52v4.57z"></path><path fill="#000000" d="M24.38 28.95h3.05v1.53h-3.05Z"></path><path fill="#000000" d="M25.9 13.72h1.53v1.52H25.9Z"></path><path fill="#000000" d="M21.33 27.43h3.05v1.52h-3.05Z"></path><path fill="#000000" d="M22.86 21.33h1.52v-1.52h1.52v-1.52h-1.52v-4.57h1.52v-1.53h-1.52V7.62h-1.52v13.71z"></path><path fill="#000000" d="M19.81 30.48h1.52V32h-1.52Z"></path><path fill="#000000" d="M19.81 18.29h1.52v1.52h-1.52Z"></path><path fill="#000000" d="M19.81 15.24h1.52v1.52h-1.52Z"></path><path fill="#000000" d="M18.28 27.43h1.53v3.05h-1.53Z"></path><path fill="#000000" d="M13.71 24.38h6.1v1.53h-6.1Z"></path><path fill="#000000" d="M18.28 1.52h1.53v1.53h-1.53Z"></path><path fill="#000000" d="M15.24 0h3.04v1.52h-3.04Z"></path><path fill="#000000" d="M19.81 9.14h-1.53V7.62h-3.04v1.52h1.52v1.53h-1.52V9.14h-1.53v3.05h1.53v1.53h3.04v-1.53h1.53V9.14z"></path><path fill="#000000" d="M13.71 27.43h1.53v3.05h-1.53Z"></path><path fill="#000000" d="M10.66 22.86h1.53v1.52h1.52v-1.52h6.1v1.52h1.52v-1.52h1.53v-1.53h-12.2v1.53z"></path><path fill="#000000" d="M13.71 1.52h1.53v1.53h-1.53Z"></path><path fill="#000000" d="M12.19 30.48h1.52V32h-1.52Z"></path><path fill="#000000" d="M9.14 27.43h3.05v1.52H9.14Z"></path><path fill="#000000" d="M13.71 4.57V3.05h-1.52v1.52h-1.53v3.05h1.53V6.1h9.14v1.52h1.53V4.57h-1.53V3.05h-1.52v1.52h-6.1z"></path><path fill="#000000" d="M10.66 7.62H9.14v4.57H7.62v1.53h1.52v4.57H7.62v1.52h1.52v1.52h1.52V7.62z"></path><path fill="#000000" d="M6.09 28.95h3.05v1.53H6.09Z"></path><path fill="#000000" d="M6.09 13.72h1.53v1.52H6.09Z"></path><path fill="#000000" d="M4.57 30.48h1.52V32H4.57Z"></path><path fill="#000000" d="M6.09 15.24H4.57v7.62h1.52v-1.53h1.53v-1.52H6.09v-4.57z"></path><path fill="#000000" d="M1.52 28.95h3.05v1.53H1.52Z"></path><path fill="#000000" d="M0 30.48h1.52V32H0Z"></path></g></svg>