<svg xmlns="http://www.w3.org/2000/svg" viewBox="0 0 32 32"><title>interface-essential-signin-login copy 101</title><g><path fill="#000000" d="M30.47 9.14H32V0h-9.15v1.52h6.1v1.53h1.52v6.09z"></path><path fill="#000000" d="M22.85 30.48V32H32v-9.14h-1.53v6.09h-1.52v1.53h-6.1z"></path><path fill="#000000" d="M27.42 27.43h1.53v1.52h-1.53Z"></path><path fill="#000000" d="M27.42 3.05h1.53v1.52h-1.53Z"></path><path fill="#000000" d="M25.9 25.9h1.52v1.53H25.9Z"></path><path fill="#000000" d="M25.9 4.57h1.52v1.52H25.9Z"></path><path fill="#000000" d="M24.38 24.38h1.52v1.52h-1.52Z"></path><path fill="#000000" d="M24.38 6.09h1.52v1.53h-1.52Z"></path><path fill="#000000" d="M22.85 22.86h1.53v1.52h-1.53Z"></path><path fill="#000000" d="M22.85 7.62h1.53v1.52h-1.53Z"></path><path fill="#000000" d="M21.33 21.33h1.52v1.53h-1.52Z"></path><path fill="#000000" d="M21.33 9.14h1.52v1.53h-1.52Z"></path><path fill="#000000" d="M19.8 19.81h1.53v1.52H19.8Z"></path><path fill="#000000" d="M19.8 10.67h1.53v1.52H19.8Z"></path><path fill="#000000" d="M18.28 18.29h1.52v1.52h-1.52Z"></path><path fill="#000000" d="M18.28 12.19h1.52v1.52h-1.52Z"></path><path fill="#000000" d="M16.76 16.76h1.52v1.53h-1.52Z"></path><path fill="#000000" d="M16.76 13.71h1.52v1.53h-1.52Z"></path><path fill="#000000" d="M15.23 15.24h1.53v1.52h-1.53Z"></path><path fill="#000000" d="M13.71 16.76h1.52v1.53h-1.52Z"></path><path fill="#000000" d="M13.71 13.71h1.52v1.53h-1.52Z"></path><path fill="#000000" d="M12.19 18.29h1.52v1.52h-1.52Z"></path><path fill="#000000" d="M12.19 12.19h1.52v1.52h-1.52Z"></path><path fill="#000000" d="M10.66 19.81h1.53v1.52h-1.53Z"></path><path fill="#000000" d="M10.66 10.67h1.53v1.52h-1.53Z"></path><path fill="#000000" d="M9.14 21.33h1.52v1.53H9.14Z"></path><path fill="#000000" d="M9.14 9.14h1.52v1.53H9.14Z"></path><path fill="#000000" d="M7.61 22.86h1.53v1.52H7.61Z"></path><path fill="#000000" d="M7.61 7.62h1.53v1.52H7.61Z"></path><path fill="#000000" d="M6.09 24.38h1.52v1.52H6.09Z"></path><path fill="#000000" d="M6.09 6.09h1.52v1.53H6.09Z"></path><path fill="#000000" d="M4.57 25.9h1.52v1.53H4.57Z"></path><path fill="#000000" d="M4.57 4.57h1.52v1.52H4.57Z"></path><path fill="#000000" d="M3.04 27.43h1.53v1.52H3.04Z"></path><path fill="#000000" d="M3.04 3.05h1.53v1.52H3.04Z"></path><path fill="#000000" d="M9.14 1.52V0H0v9.14h1.52V3.05h1.52V1.52h6.1z"></path><path fill="#000000" d="M9.14 30.48h-6.1v-1.53H1.52v-6.09H0V32h9.14v-1.52z"></path></g></svg>