<svg xmlns="http://www.w3.org/2000/svg" viewBox="0 0 32 32"><title>interface-essential-reflect-down</title><g><path fill="#000000" d="M29.71 28.96h1.53v1.52h-1.53Z"></path><path fill="#000000" d="M29.71 1.53h1.53v1.52h-1.53Z"></path><path fill="#000000" d="M28.19 27.43h1.52v1.53h-1.52Z"></path><path fill="#000000" d="M11.43 15.24h19.81v1.52H11.43Z"></path><path fill="#000000" d="M28.19 3.05h1.52v1.52h-1.52Z"></path><path fill="#000000" d="M12.95 30.48h16.76V32H12.95Z"></path><path fill="#000000" d="M26.67 25.91h1.52v1.52h-1.52Z"></path><path fill="#000000" d="M26.67 4.57h1.52V6.1h-1.52Z"></path><path fill="#000000" d="M25.14 24.38h1.53v1.53h-1.53Z"></path><path fill="#000000" d="M25.14 6.1h1.53v1.52h-1.53Z"></path><path fill="#000000" d="M23.62 22.86h1.52v1.52h-1.52Z"></path><path fill="#000000" d="M23.62 7.62h1.52v1.53h-1.52Z"></path><path fill="#000000" d="M22.09 21.34h1.53v1.52h-1.53Z"></path><path fill="#000000" d="M22.09 9.15h1.53v1.52h-1.53Z"></path><path fill="#000000" d="M20.57 19.81h1.52v1.53h-1.52Z"></path><path fill="#000000" d="M20.57 10.67h1.52v1.52h-1.52Z"></path><path fill="#000000" d="M19.05 21.34h1.52v1.52h-1.52Z"></path><path fill="#000000" d="M19.05 9.15h1.52v1.52h-1.52Z"></path><path fill="#000000" d="M17.52 22.86h1.53v1.52h-1.53Z"></path><path fill="#000000" d="M17.52 7.62h1.53v1.53h-1.53Z"></path><path fill="#000000" d="M16 24.38h1.52v1.53H16Z"></path><path fill="#000000" d="M16 6.1h1.52v1.52H16Z"></path><path fill="#000000" d="M14.48 25.91H16v1.52h-1.52Z"></path><path fill="#000000" d="M14.48 4.57H16V6.1h-1.52Z"></path><path fill="#000000" d="M12.95 0h16.76v1.53H12.95Z"></path><path fill="#000000" d="M12.95 27.43h1.53v1.53h-1.53Z"></path><path fill="#000000" d="M12.95 3.05h1.53v1.52h-1.53Z"></path><path fill="#000000" d="M11.43 28.96h1.52v1.52h-1.52Z"></path><path fill="#000000" d="M11.43 1.53h1.52v1.52h-1.52Z"></path><path fill="#000000" d="M6.86 27.43v-1.52h1.52v-1.53H9.9v-1.52h1.53v-1.52H9.9v-1.53H8.38v-1.52H6.86v-1.53H5.33v4.58H3.81v1.52h1.52v4.57h1.53z"></path><path fill="#000000" d="M3.81 7.62h3.05v1.53H3.81Z"></path><path fill="#000000" d="M2.29 19.81h1.52v1.53H2.29Z"></path><path fill="#000000" d="M2.29 9.15h1.52v1.52H2.29Z"></path><path fill="#000000" d="M.76 10.67h1.53v9.14H.76Z"></path></g></svg>