<svg xmlns="http://www.w3.org/2000/svg" viewBox="0 0 32 32"><title>interface-essential-setting-slide</title><g><path fill="#000000" d="M25.905 9.14V6.1h4.57V4.57h-4.57V1.52h-1.52v7.62h1.52z"></path><path fill="#000000" d="M25.905 30.48v-3.05h4.57V25.9h-4.57v-3.04h-1.52v7.62h1.52z"></path><path fill="#000000" d="M30.475 15.24H9.145v-3.05h-1.52v-1.52h-1.53v1.52h-1.52v3.05h-3.05v1.52h3.05v3.05h1.52v1.52h1.53v-1.52h1.52v-3.05h21.33v-1.52z"></path><path fill="#000000" d="M22.855 30.48h1.53V32h-1.53Z"></path><path fill="#000000" d="M22.855 21.33h1.53v1.53h-1.53Z"></path><path fill="#000000" d="M22.855 9.14h1.53v1.53h-1.53Z"></path><path fill="#000000" d="M22.855 0h1.53v1.52h-1.53Z"></path><path fill="#000000" d="M22.855 22.86h-1.52v3.04H1.525v1.53h19.81v3.05h1.52v-7.62z"></path><path fill="#000000" d="M21.335 4.57H1.525V6.1h19.81v3.04h1.52V1.52h-1.52v3.05z"></path></g></svg>