<?xml version="1.0" encoding="UTF-8"?>
<svg version="1.1" xmlns="http://www.w3.org/2000/svg" width="1000" height="1000">
<path d="M0 0 C217.47 0 434.94 0 659 0 C659 4.95 659 9.9 659 15 C672.86 15 686.72 15 701 15 C701 29.19 701 43.38 701 58 C709.46668056 57.92088228 709.46668056 57.92088228 717.93310547 57.81982422 C718.98385254 57.8148291 720.03459961 57.80983398 721.1171875 57.8046875 C722.19597168 57.79421387 723.27475586 57.78374023 724.38623047 57.77294922 C727 58 727 58 729 60 C729.17553419 63.08524939 729.23122797 66.07964202 729.1953125 69.1640625 C729.19106766 70.52487442 729.19106766 70.52487442 729.18673706 71.91317749 C729.17552153 74.81725123 729.15041463 77.72101912 729.125 80.625 C729.11497197 82.59114139 729.10584581 84.5572876 729.09765625 86.5234375 C729.07557772 91.34907659 729.04103865 96.1744864 729 101 C730.85516235 100.99214478 730.85516235 100.99214478 732.74780273 100.98413086 C737.31924725 100.96608439 741.89068859 100.95456929 746.4621582 100.94506836 C748.44393441 100.94002733 750.42570689 100.93319462 752.4074707 100.92456055 C755.24952109 100.91248485 758.09152247 100.90676955 760.93359375 100.90234375 C761.82525742 100.89718246 762.71692108 100.89202118 763.63560486 100.88670349 C765.75740601 100.88650823 767.8791078 100.9378997 770 101 C771 102 771 102 771.11352539 104.40844727 C771.10828857 105.45057373 771.10305176 106.4927002 771.09765625 107.56640625 C771.09443359 108.69111328 771.09121094 109.81582031 771.08789062 110.97460938 C771.07951172 112.15861328 771.07113281 113.34261719 771.0625 114.5625 C771.05798828 115.75037109 771.05347656 116.93824219 771.04882812 118.16210938 C771.03699675 121.10812226 771.02051287 124.05403681 771 127 C772.07121094 126.98839844 773.14242187 126.97679687 774.24609375 126.96484375 C775.64322743 126.95546701 777.04036299 126.94636669 778.4375 126.9375 C779.14455078 126.92912109 779.85160156 126.92074219 780.58007812 126.91210938 C782.38693559 126.90346412 784.19387603 126.94779989 786 127 C788.17782681 129.17782681 787.26089916 134.25103078 787.31640625 137.28515625 C787.33718735 138.21597519 787.35796844 139.14679413 787.37937927 140.1058197 C787.44497931 143.09130182 787.50380802 146.07687484 787.5625 149.0625 C787.6056753 151.08138976 787.64928925 153.1002702 787.69335938 155.11914062 C787.80150018 160.07933513 787.90049549 165.03959451 788 170 C801.53 170 815.06 170 829 170 C829 227.09 829 284.18 829 343 C815.14 343 801.28 343 787 343 C787 348.61 787 354.22 787 360 C786 361 786 361 782.62109375 361.09765625 C781.22652923 361.09098369 779.83198257 361.07902532 778.4375 361.0625 C777.37112305 361.05573242 777.37112305 361.05573242 776.28320312 361.04882812 C774.52209987 361.03700864 772.76103964 361.01907263 771 361 C771.00523682 362.23153809 771.01047363 363.46307617 771.01586914 364.73193359 C771.03393553 369.29035722 771.04543804 373.84877767 771.05493164 378.40722656 C771.0599681 380.38216687 771.06679751 382.35710343 771.07543945 384.33203125 C771.08753508 387.16667605 771.0932351 390.00127166 771.09765625 392.8359375 C771.10281754 393.72243988 771.10797882 394.60894226 771.11329651 395.52230835 C771.11387171 401.77225659 771.11387171 401.77225659 770 404 C756.47 404 742.94 404 729 404 C729 408.95 729 413.9 729 419 C719.76 419 710.52 419 701 419 C701 433.19 701 447.38 701 462 C687.14 462 673.28 462 659 462 C659.03955825 470.4665847 659.03955825 470.4665847 659.09008789 478.93310547 C659.09383423 480.50922607 659.09383423 480.50922607 659.09765625 482.1171875 C659.10289307 483.19597168 659.10812988 484.27475586 659.11352539 485.38623047 C659 488 659 488 658 490 C653.05 490 648.1 490 643 490 C643 503.53 643 517.06 643 531 C639.56395235 532.71802382 635.61561104 532.1196618 631.8359375 532.09765625 C630.92872955 532.0962413 630.02152161 532.09482635 629.08682251 532.09336853 C626.18284845 532.08776096 623.27895085 532.07520718 620.375 532.0625 C618.40885528 532.05748598 616.44270935 532.0529229 614.4765625 532.04882812 C609.6510121 532.03778906 604.82551903 532.02051935 600 532 C600.01740234 533.60681641 600.01740234 533.60681641 600.03515625 535.24609375 C600.04453299 536.64322743 600.05363331 538.04036299 600.0625 539.4375 C600.07087891 540.14455078 600.07925781 540.85160156 600.08789062 541.58007812 C600.09653588 543.38693559 600.05220011 545.19387603 600 547 C599 548 599 548 595.12280273 548.11352539 C593.39305834 548.11327423 591.66330895 548.10771043 589.93359375 548.09765625 C589.1286145 548.09664917 588.32363525 548.09564209 587.4942627 548.09460449 C584.47532739 548.08935614 581.45641233 548.075395 578.4375 548.0625 C571.693125 548.041875 564.94875 548.02125 558 548 C558 561.86 558 575.72 558 590 C554.8815675 591.0394775 552.72524414 591.11494838 549.45703125 591.09765625 C548.00647339 591.09390991 548.00647339 591.09390991 546.52661133 591.09008789 C544.68812622 591.07643188 544.68812622 591.07643188 542.8125 591.0625 C536.9653125 591.0315625 536.9653125 591.0315625 531 591 C530.67 605.19 530.34 619.38 530 634 C516.47 634 502.94 634 489 634 C489.0790305 641.7634463 489.0790305 641.7634463 489.18017578 649.52661133 C489.1851709 650.4936499 489.19016602 651.46068848 489.1953125 652.45703125 C489.21102295 653.9416687 489.21102295 653.9416687 489.22705078 655.45629883 C489 658 489 658 487 661 C484.37302936 661.22137393 481.99106036 661.28162025 479.375 661.1875 C478.66859375 661.17396484 477.9621875 661.16042969 477.234375 661.14648438 C475.48925872 661.1111104 473.74453392 661.05730221 472 661 C472.01571045 662.80186768 472.01571045 662.80186768 472.03173828 664.64013672 C472.06787287 669.08672112 472.09087657 673.53329248 472.10986328 677.97998047 C472.11993582 679.90643494 472.13359443 681.83287408 472.15087891 683.75927734 C472.17507241 686.52445252 472.18647036 689.289426 472.1953125 692.0546875 C472.20563507 692.9193161 472.21595764 693.7839447 472.22659302 694.67477417 C472.22699106 696.78453521 472.12265243 698.89380718 472 701 C470 703 470 703 466.10107422 703.22705078 C464.41891207 703.22673341 462.73672981 703.21539396 461.0546875 703.1953125 C460.1696756 703.1924826 459.2846637 703.18965271 458.37283325 703.18673706 C455.54008588 703.1755224 452.70765216 703.1504157 449.875 703.125 C447.95703581 703.11497185 446.03906667 703.10584572 444.12109375 703.09765625 C439.41394124 703.07557889 434.70702384 703.04104045 430 703 C430 707.95 430 712.9 430 718 C427.42788678 719.28605661 425.43093034 719.21043941 422.5546875 719.31640625 C421.58515137 719.35451416 420.61561523 719.39262207 419.61669922 719.43188477 C418.38193848 719.47498779 417.14717773 719.51809082 415.875 719.5625 C411.95625 719.706875 408.0375 719.85125 404 720 C404 733.53 404 747.06 404 761 C354.5 761 305 761 254 761 C254 747.47 254 733.94 254 720 C248.72 719.67 243.44 719.34 238 719 C237 718 237 718 236.90234375 714.62109375 C236.90901631 713.22652923 236.92097468 711.83198257 236.9375 710.4375 C236.94201172 709.72658203 236.94652344 709.01566406 236.95117188 708.28320312 C236.96299136 706.52209987 236.98092737 704.76103964 237 703 C235.15269287 703.01571045 235.15269287 703.01571045 233.26806641 703.03173828 C228.70966485 703.06787089 224.15127602 703.09087585 219.59277344 703.10986328 C217.61781691 703.11993627 215.64287534 703.13359521 213.66796875 703.15087891 C210.83329582 703.17507039 207.99881962 703.18646991 205.1640625 703.1953125 C204.27756012 703.20563507 203.39105774 703.21595764 202.47769165 703.22659302 C200.31714048 703.2269907 198.15706282 703.12272534 196 703 C194 701 194 701 193.77294922 697.10107422 C193.77326659 695.41891207 193.78460604 693.73672981 193.8046875 692.0546875 C193.80893234 690.72716965 193.80893234 690.72716965 193.81326294 689.37283325 C193.8244776 686.54008588 193.8495843 683.70765216 193.875 680.875 C193.88502815 678.95703581 193.89415428 677.03906667 193.90234375 675.12109375 C193.92442111 670.41394124 193.95895955 665.70702384 194 661 C193.31373535 661.01571045 192.6274707 661.0314209 191.92041016 661.04760742 C188.82202337 661.10982719 185.72376776 661.14894898 182.625 661.1875 C181.00464844 661.22520508 181.00464844 661.22520508 179.3515625 661.26367188 C178.3203125 661.27333984 177.2890625 661.28300781 176.2265625 661.29296875 C175.27346191 661.3086792 174.32036133 661.32438965 173.33837891 661.34057617 C172.18088135 661.17199097 172.18088135 661.17199097 171 661 C168.73401552 657.60102327 168.76257346 656.43680827 168.8046875 652.45703125 C168.80968262 651.48999268 168.81467773 650.5229541 168.81982422 649.52661133 C168.83803223 648.30095459 168.85624023 647.07529785 168.875 645.8125 C168.91625 641.914375 168.9575 638.01625 169 634 C155.47 634 141.94 634 128 634 C127.67 619.81 127.34 605.62 127 591 C121.72 591 116.44 591 111 591 C110.34 590.67 109.68 590.34 109 590 C109 576.47 109 562.94 109 549 C105.97972656 548.93941406 102.95945312 548.87882813 99.84765625 548.81640625 C96.93527592 548.7546683 94.02293647 548.69125932 91.1105957 548.62768555 C89.08035896 548.58426759 87.05008408 548.54259774 85.01977539 548.50268555 C82.10811849 548.44514854 79.19665486 548.38140722 76.28515625 548.31640625 C75.3716188 548.29969376 74.45808136 548.28298126 73.51686096 548.26576233 C67.11387171 548.11387171 67.11387171 548.11387171 66 547 C65.92686433 544.46950598 65.90752473 541.96695163 65.9375 539.4375 C65.94201172 538.72658203 65.94652344 538.01566406 65.95117188 537.28320312 C65.96299136 535.52209987 65.98092737 533.76103964 66 532 C64.20598755 532.01571045 64.20598755 532.01571045 62.37573242 532.03173828 C57.94216907 532.06791405 53.50861879 532.09089166 49.07495117 532.10986328 C47.15533251 532.11992639 45.23572919 532.13357816 43.31616211 532.15087891 C40.55839248 532.17511364 37.80082536 532.18647992 35.04296875 532.1953125 C34.18350143 532.20563507 33.32403412 532.21595764 32.43852234 532.22659302 C31.23761711 532.22681961 31.23761711 532.22681961 30.01245117 532.22705078 C29.3085173 532.231492 28.60458344 532.23593323 27.87931824 532.24050903 C26 532 26 532 23 530 C22.733513 526.94924916 22.65242854 524.10373821 22.70703125 521.0546875 C22.71127609 520.1696756 22.71552094 519.2846637 22.71989441 518.37283325 C22.73671741 515.53991555 22.77437575 512.70770348 22.8125 509.875 C22.82754218 507.95704151 22.84123139 506.03907189 22.85351562 504.12109375 C22.88408396 499.41357048 22.94279722 494.70757709 23 490 C15.41 490 7.82 490 0 490 C0 480.76 0 471.52 0 462 C-14.19 462 -28.38 462 -43 462 C-43 447.81 -43 433.62 -43 419 C-49.27 419 -55.54 419 -62 419 C-62 414.05 -62 409.1 -62 404 C-63.23153809 404.01047363 -64.46307617 404.02094727 -65.73193359 404.03173828 C-70.29033515 404.06787089 -74.84872398 404.09087585 -79.40722656 404.10986328 C-81.38218309 404.11993627 -83.35712466 404.13359521 -85.33203125 404.15087891 C-88.16670418 404.17507039 -91.00118038 404.18646991 -93.8359375 404.1953125 C-94.72243988 404.20563507 -95.60894226 404.21595764 -96.52230835 404.22659302 C-98.68285952 404.2269907 -100.84293718 404.12272534 -103 404 C-105 402 -105 402 -105.22705078 398.00927734 C-105.22673337 396.28479831 -105.21539124 394.56029967 -105.1953125 392.8359375 C-105.1924826 391.92872955 -105.18965271 391.02152161 -105.18673706 390.08682251 C-105.17552153 387.18274877 -105.15041463 384.27898088 -105.125 381.375 C-105.11497197 379.40885861 -105.10584581 377.4427124 -105.09765625 375.4765625 C-105.07557772 370.65092341 -105.04103865 365.8255136 -105 361 C-106.0372522 361.00785522 -106.0372522 361.00785522 -107.09545898 361.01586914 C-110.20946352 361.036575 -113.32345361 361.04963963 -116.4375 361.0625 C-117.52611328 361.07087891 -118.61472656 361.07925781 -119.73632812 361.08789062 C-120.77080078 361.09111328 -121.80527344 361.09433594 -122.87109375 361.09765625 C-123.82943115 361.10289307 -124.78776855 361.10812988 -125.77514648 361.11352539 C-128 361 -128 361 -129 360 C-129 354.39 -129 348.78 -129 343 C-142.86 343 -156.72 343 -171 343 C-171 285.91 -171 228.82 -171 170 C-157.47 170 -143.94 170 -130 170 C-129.93941406 166.97972656 -129.87882812 163.95945313 -129.81640625 160.84765625 C-129.7546683 157.93527592 -129.69125932 155.02293647 -129.62768555 152.1105957 C-129.58426759 150.08035896 -129.54259774 148.05008408 -129.50268555 146.01977539 C-129.44514854 143.10811849 -129.38140722 140.19665486 -129.31640625 137.28515625 C-129.29133751 135.91485008 -129.29133751 135.91485008 -129.26576233 134.51686096 C-129.11387171 128.11387171 -129.11387171 128.11387171 -128 127 C-126.29227642 126.91286169 -124.58101351 126.89299993 -122.87109375 126.90234375 C-121.83662109 126.90556641 -120.80214844 126.90878906 -119.73632812 126.91210938 C-118.64771484 126.92048828 -117.55910156 126.92886719 -116.4375 126.9375 C-114.7987793 126.94426758 -114.7987793 126.94426758 -113.12695312 126.95117188 C-110.41791505 126.96300174 -107.70898401 126.97948457 -105 127 C-105.01047363 126.28344238 -105.02094727 125.56688477 -105.03173828 124.82861328 C-105.07321299 121.59411095 -105.09929892 118.35966447 -105.125 115.125 C-105.14175781 113.99707031 -105.15851563 112.86914062 -105.17578125 111.70703125 C-105.18222656 110.63066406 -105.18867187 109.55429688 -105.1953125 108.4453125 C-105.20578613 107.45031738 -105.21625977 106.45532227 -105.22705078 105.43017578 C-105 103 -105 103 -103 101 C-99.91475061 100.82446581 -96.92035798 100.76877203 -93.8359375 100.8046875 C-92.47512558 100.80893234 -92.47512558 100.80893234 -91.08682251 100.81326294 C-88.18274877 100.82447847 -85.27898088 100.84958537 -82.375 100.875 C-80.40885861 100.88502803 -78.4427124 100.89415419 -76.4765625 100.90234375 C-71.65092341 100.92442228 -66.8255136 100.95896135 -62 101 C-62.01047363 99.76846191 -62.02094727 98.53692383 -62.03173828 97.26806641 C-62.06787089 92.70966485 -62.09087585 88.15127602 -62.10986328 83.59277344 C-62.11993627 81.61781691 -62.13359521 79.64287534 -62.15087891 77.66796875 C-62.17507039 74.83329582 -62.18646991 71.99881962 -62.1953125 69.1640625 C-62.20563507 68.27756012 -62.21595764 67.39105774 -62.22659302 66.47769165 C-62.2269907 64.31714048 -62.12272534 62.15706282 -62 60 C-61.01 59.01 -61.01 59.01 -60 58 C-54.39 58 -48.78 58 -43 58 C-43 43.81 -43 29.62 -43 15 C-29.14 15 -15.28 15 -1 15 C-0.67 10.05 -0.34 5.1 0 0 Z " fill="#DDF7FE" transform="translate(171,86)"/>
<path d="M0 0 C5.61 0 11.22 0 17 0 C17 8.25 17 16.5 17 25 C31.19 25 45.38 25 60 25 C60 39.19 60 53.38 60 68 C186.72 68 313.44 68 444 68 C444 73.61 444 79.22 444 85 C472.38 85 500.76 85 530 85 C530 141.43 530 197.86 530 256 C515.81 256 501.62 256 487 256 C487 270.19 487 284.38 487 299 C473.14 299 459.28 299 445 299 C445 318.8 445 338.6 445 359 C436.42 359 427.84 359 419 359 C419 367.25 419 375.5 419 384 C441.44 384 463.88 384 487 384 C487 398.19 487 412.38 487 427 C472.81 427 458.62 427 444 427 C444 432.61 444 438.22 444 444 C435.75 444 427.5 444 419 444 C419 458.19 419 472.38 419 487 C404.81 487 390.62 487 376 487 C376 501.19 376 515.38 376 530 C370.39 530 364.78 530 359 530 C359 538.25 359 546.5 359 555 C344.81 555 330.62 555 316 555 C316 569.19 316 583.38 316 598 C307.75 598 299.5 598 291 598 C291 603.61 291 609.22 291 615 C242.82 615 194.64 615 145 615 C145 609.39 145 603.78 145 598 C139.72 598 134.44 598 129 598 C129 584.14 129 570.28 129 556 C134.28 556 139.56 556 145 556 C145 547.42 145 538.84 145 530 C139.39 530 133.78 530 128 530 C128 538.25 128 546.5 128 555 C114.14 555 100.28 555 86 555 C86 532.56 86 510.12 86 487 C99.86 487 113.72 487 128 487 C128 472.81 128 458.62 128 444 C114.14 444 100.28 444 86 444 C86 424.2 86 404.4 86 384 C77.42 384 68.84 384 60 384 C60 375.75 60 367.5 60 359 C40.2 359 20.4 359 0 359 C0 339.2 0 319.4 0 299 C-14.19 299 -28.38 299 -43 299 C-43 279.2 -43 259.4 -43 239 C-57.19 239 -71.38 239 -86 239 C-86 210.95 -86 182.9 -86 154 C-94.25 154 -102.5 154 -111 154 C-111 145.42 -111 136.84 -111 128 C-130.8 128 -150.6 128 -171 128 C-171 113.81 -171 99.62 -171 85 C-185.19 85 -199.38 85 -214 85 C-214 135.82 -214 186.64 -214 239 C-222.25 239 -230.5 239 -239 239 C-239 182.57 -239 126.14 -239 68 C-188.18 68 -137.36 68 -85 68 C-85 53.81 -85 39.62 -85 25 C-56.95 25 -28.9 25 0 25 C0 16.75 0 8.5 0 0 Z " fill="#F3C2FE" transform="translate(282,189)"/>
<path d="M0 0 C217.47 0 434.94 0 659 0 C659 4.95 659 9.9 659 15 C672.86 15 686.72 15 701 15 C701 29.19 701 43.38 701 58 C709.46668056 57.92088228 709.46668056 57.92088228 717.93310547 57.81982422 C718.98385254 57.8148291 720.03459961 57.80983398 721.1171875 57.8046875 C722.19597168 57.79421387 723.27475586 57.78374023 724.38623047 57.77294922 C727 58 727 58 729 60 C729.17553419 63.08524939 729.23122797 66.07964202 729.1953125 69.1640625 C729.19106766 70.52487442 729.19106766 70.52487442 729.18673706 71.91317749 C729.17552153 74.81725123 729.15041463 77.72101912 729.125 80.625 C729.11497197 82.59114139 729.10584581 84.5572876 729.09765625 86.5234375 C729.07557772 91.34907659 729.04103865 96.1744864 729 101 C730.85516235 100.99214478 730.85516235 100.99214478 732.74780273 100.98413086 C737.31924725 100.96608439 741.89068859 100.95456929 746.4621582 100.94506836 C748.44393441 100.94002733 750.42570689 100.93319462 752.4074707 100.92456055 C755.24952109 100.91248485 758.09152247 100.90676955 760.93359375 100.90234375 C761.82525742 100.89718246 762.71692108 100.89202118 763.63560486 100.88670349 C765.75740601 100.88650823 767.8791078 100.9378997 770 101 C771 102 771 102 771.11352539 104.40844727 C771.10828857 105.45057373 771.10305176 106.4927002 771.09765625 107.56640625 C771.09443359 108.69111328 771.09121094 109.81582031 771.08789062 110.97460938 C771.07951172 112.15861328 771.07113281 113.34261719 771.0625 114.5625 C771.05798828 115.75037109 771.05347656 116.93824219 771.04882812 118.16210938 C771.03699675 121.10812226 771.02051287 124.05403681 771 127 C772.07121094 126.98839844 773.14242187 126.97679687 774.24609375 126.96484375 C775.64322743 126.95546701 777.04036299 126.94636669 778.4375 126.9375 C779.14455078 126.92912109 779.85160156 126.92074219 780.58007812 126.91210938 C782.38693559 126.90346412 784.19387603 126.94779989 786 127 C788.17782681 129.17782681 787.26089916 134.25103078 787.31640625 137.28515625 C787.33718735 138.21597519 787.35796844 139.14679413 787.37937927 140.1058197 C787.44497931 143.09130182 787.50380802 146.07687484 787.5625 149.0625 C787.6056753 151.08138976 787.64928925 153.1002702 787.69335938 155.11914062 C787.80150018 160.07933513 787.90049549 165.03959451 788 170 C801.53 170 815.06 170 829 170 C829 227.09 829 284.18 829 343 C815.14 343 801.28 343 787 343 C787 348.61 787 354.22 787 360 C786 361 786 361 782.62109375 361.09765625 C781.22652923 361.09098369 779.83198257 361.07902532 778.4375 361.0625 C777.37112305 361.05573242 777.37112305 361.05573242 776.28320312 361.04882812 C774.52209987 361.03700864 772.76103964 361.01907263 771 361 C771.00523682 362.23153809 771.01047363 363.46307617 771.01586914 364.73193359 C771.03393553 369.29035722 771.04543804 373.84877767 771.05493164 378.40722656 C771.0599681 380.38216687 771.06679751 382.35710343 771.07543945 384.33203125 C771.08753508 387.16667605 771.0932351 390.00127166 771.09765625 392.8359375 C771.10281754 393.72243988 771.10797882 394.60894226 771.11329651 395.52230835 C771.11387171 401.77225659 771.11387171 401.77225659 770 404 C756.47 404 742.94 404 729 404 C729 408.95 729 413.9 729 419 C719.76 419 710.52 419 701 419 C701 413.39 701 407.78 701 402 C709.25 402 717.5 402 726 402 C726 387.81 726 373.62 726 359 C740.19 359 754.38 359 769 359 C769 353.39 769 347.78 769 342 C774.61 342 780.22 342 786 342 C786 285.57 786 229.14 786 171 C780.39 171 774.78 171 769 171 C769 156.81 769 142.62 769 128 C755.14 128 741.28 128 727 128 C727 119.42 727 110.84 727 102 C718.42 102 709.84 102 701 102 C701 88.14 701 74.28 701 60 C686.81 60 672.62 60 658 60 C658 45.81 658 31.62 658 17 C477.49 17 296.98 17 111 17 C111 31.19 111 45.38 111 60 C116.61 60 122.22 60 128 60 C128 73.86 128 87.72 128 102 C122.39 102 116.78 102 111 102 C111 110.58 111 119.16 111 128 C82.95 128 54.9 128 26 128 C26 142.19 26 156.38 26 171 C-24.82 171 -75.64 171 -128 171 C-128 227.43 -128 283.86 -128 342 C-119.75 342 -111.5 342 -103 342 C-103 291.18 -103 240.36 -103 188 C-88.81 188 -74.62 188 -60 188 C-60 202.19 -60 216.38 -60 231 C-40.2 231 -20.4 231 0 231 C0 239.58 0 248.16 0 257 C8.25 257 16.5 257 25 257 C25 285.05 25 313.1 25 342 C39.19 342 53.38 342 68 342 C68 361.8 68 381.6 68 402 C82.19 402 96.38 402 111 402 C111 421.8 111 441.6 111 462 C130.8 462 150.6 462 171 462 C171 470.25 171 478.5 171 487 C179.58 487 188.16 487 197 487 C197 506.8 197 526.6 197 547 C210.86 547 224.72 547 239 547 C239 561.19 239 575.38 239 590 C225.14 590 211.28 590 197 590 C197 612.44 197 634.88 197 658 C210.86 658 224.72 658 239 658 C239 649.75 239 641.5 239 633 C244.61 633 250.22 633 256 633 C256 641.58 256 650.16 256 659 C250.72 659 245.44 659 240 659 C240 672.86 240 686.72 240 701 C245.28 701 250.56 701 256 701 C256 706.61 256 712.22 256 718 C304.18 718 352.36 718 402 718 C402 712.39 402 706.78 402 701 C410.25 701 418.5 701 427 701 C427 686.81 427 672.62 427 658 C441.19 658 455.38 658 470 658 C470 649.75 470 641.5 470 633 C475.61 633 481.22 633 487 633 C487 618.81 487 604.62 487 590 C501.19 590 515.38 590 530 590 C530 604.52 530 619.04 530 634 C516.47 634 502.94 634 489 634 C489.0790305 641.7634463 489.0790305 641.7634463 489.18017578 649.52661133 C489.1851709 650.4936499 489.19016602 651.46068848 489.1953125 652.45703125 C489.21102295 653.9416687 489.21102295 653.9416687 489.22705078 655.45629883 C489 658 489 658 487 661 C484.37302936 661.22137393 481.99106036 661.28162025 479.375 661.1875 C478.66859375 661.17396484 477.9621875 661.16042969 477.234375 661.14648438 C475.48925872 661.1111104 473.74453392 661.05730221 472 661 C472.01571045 662.80186768 472.01571045 662.80186768 472.03173828 664.64013672 C472.06787287 669.08672112 472.09087657 673.53329248 472.10986328 677.97998047 C472.11993582 679.90643494 472.13359443 681.83287408 472.15087891 683.75927734 C472.17507241 686.52445252 472.18647036 689.289426 472.1953125 692.0546875 C472.20563507 692.9193161 472.21595764 693.7839447 472.22659302 694.67477417 C472.22699106 696.78453521 472.12265243 698.89380718 472 701 C470 703 470 703 466.10107422 703.22705078 C464.41891207 703.22673341 462.73672981 703.21539396 461.0546875 703.1953125 C460.1696756 703.1924826 459.2846637 703.18965271 458.37283325 703.18673706 C455.54008588 703.1755224 452.70765216 703.1504157 449.875 703.125 C447.95703581 703.11497185 446.03906667 703.10584572 444.12109375 703.09765625 C439.41394124 703.07557889 434.70702384 703.04104045 430 703 C430 707.95 430 712.9 430 718 C427.42788678 719.28605661 425.43093034 719.21043941 422.5546875 719.31640625 C421.58515137 719.35451416 420.61561523 719.39262207 419.61669922 719.43188477 C418.38193848 719.47498779 417.14717773 719.51809082 415.875 719.5625 C411.95625 719.706875 408.0375 719.85125 404 720 C404 733.53 404 747.06 404 761 C354.5 761 305 761 254 761 C254 747.47 254 733.94 254 720 C248.72 719.67 243.44 719.34 238 719 C237 718 237 718 236.90234375 714.62109375 C236.90901631 713.22652923 236.92097468 711.83198257 236.9375 710.4375 C236.94201172 709.72658203 236.94652344 709.01566406 236.95117188 708.28320312 C236.96299136 706.52209987 236.98092737 704.76103964 237 703 C235.15269287 703.01571045 235.15269287 703.01571045 233.26806641 703.03173828 C228.70966485 703.06787089 224.15127602 703.09087585 219.59277344 703.10986328 C217.61781691 703.11993627 215.64287534 703.13359521 213.66796875 703.15087891 C210.83329582 703.17507039 207.99881962 703.18646991 205.1640625 703.1953125 C204.27756012 703.20563507 203.39105774 703.21595764 202.47769165 703.22659302 C200.31714048 703.2269907 198.15706282 703.12272534 196 703 C194 701 194 701 193.77294922 697.10107422 C193.77326659 695.41891207 193.78460604 693.73672981 193.8046875 692.0546875 C193.80893234 690.72716965 193.80893234 690.72716965 193.81326294 689.37283325 C193.8244776 686.54008588 193.8495843 683.70765216 193.875 680.875 C193.88502815 678.95703581 193.89415428 677.03906667 193.90234375 675.12109375 C193.92442111 670.41394124 193.95895955 665.70702384 194 661 C193.31373535 661.01571045 192.6274707 661.0314209 191.92041016 661.04760742 C188.82202337 661.10982719 185.72376776 661.14894898 182.625 661.1875 C181.00464844 661.22520508 181.00464844 661.22520508 179.3515625 661.26367188 C178.3203125 661.27333984 177.2890625 661.28300781 176.2265625 661.29296875 C175.27346191 661.3086792 174.32036133 661.32438965 173.33837891 661.34057617 C172.18088135 661.17199097 172.18088135 661.17199097 171 661 C168.73401552 657.60102327 168.76257346 656.43680827 168.8046875 652.45703125 C168.80968262 651.48999268 168.81467773 650.5229541 168.81982422 649.52661133 C168.83803223 648.30095459 168.85624023 647.07529785 168.875 645.8125 C168.91625 641.914375 168.9575 638.01625 169 634 C155.47 634 141.94 634 128 634 C127.67 619.81 127.34 605.62 127 591 C121.72 591 116.44 591 111 591 C110.34 590.67 109.68 590.34 109 590 C109 576.47 109 562.94 109 549 C105.97972656 548.93941406 102.95945312 548.87882813 99.84765625 548.81640625 C96.93527592 548.7546683 94.02293647 548.69125932 91.1105957 548.62768555 C89.08035896 548.58426759 87.05008408 548.54259774 85.01977539 548.50268555 C82.10811849 548.44514854 79.19665486 548.38140722 76.28515625 548.31640625 C75.3716188 548.29969376 74.45808136 548.28298126 73.51686096 548.26576233 C67.11387171 548.11387171 67.11387171 548.11387171 66 547 C65.92686433 544.46950598 65.90752473 541.96695163 65.9375 539.4375 C65.94201172 538.72658203 65.94652344 538.01566406 65.95117188 537.28320312 C65.96299136 535.52209987 65.98092737 533.76103964 66 532 C64.20598755 532.01571045 64.20598755 532.01571045 62.37573242 532.03173828 C57.94216907 532.06791405 53.50861879 532.09089166 49.07495117 532.10986328 C47.15533251 532.11992639 45.23572919 532.13357816 43.31616211 532.15087891 C40.55839248 532.17511364 37.80082536 532.18647992 35.04296875 532.1953125 C34.18350143 532.20563507 33.32403412 532.21595764 32.43852234 532.22659302 C31.23761711 532.22681961 31.23761711 532.22681961 30.01245117 532.22705078 C29.3085173 532.231492 28.60458344 532.23593323 27.87931824 532.24050903 C26 532 26 532 23 530 C22.733513 526.94924916 22.65242854 524.10373821 22.70703125 521.0546875 C22.71127609 520.1696756 22.71552094 519.2846637 22.71989441 518.37283325 C22.73671741 515.53991555 22.77437575 512.70770348 22.8125 509.875 C22.82754218 507.95704151 22.84123139 506.03907189 22.85351562 504.12109375 C22.88408396 499.41357048 22.94279722 494.70757709 23 490 C15.41 490 7.82 490 0 490 C0 480.76 0 471.52 0 462 C-14.19 462 -28.38 462 -43 462 C-43 447.81 -43 433.62 -43 419 C-49.27 419 -55.54 419 -62 419 C-62 414.05 -62 409.1 -62 404 C-63.23153809 404.01047363 -64.46307617 404.02094727 -65.73193359 404.03173828 C-70.29033515 404.06787089 -74.84872398 404.09087585 -79.40722656 404.10986328 C-81.38218309 404.11993627 -83.35712466 404.13359521 -85.33203125 404.15087891 C-88.16670418 404.17507039 -91.00118038 404.18646991 -93.8359375 404.1953125 C-94.72243988 404.20563507 -95.60894226 404.21595764 -96.52230835 404.22659302 C-98.68285952 404.2269907 -100.84293718 404.12272534 -103 404 C-105 402 -105 402 -105.22705078 398.00927734 C-105.22673337 396.28479831 -105.21539124 394.56029967 -105.1953125 392.8359375 C-105.1924826 391.92872955 -105.18965271 391.02152161 -105.18673706 390.08682251 C-105.17552153 387.18274877 -105.15041463 384.27898088 -105.125 381.375 C-105.11497197 379.40885861 -105.10584581 377.4427124 -105.09765625 375.4765625 C-105.07557772 370.65092341 -105.04103865 365.8255136 -105 361 C-106.0372522 361.00785522 -106.0372522 361.00785522 -107.09545898 361.01586914 C-110.20946352 361.036575 -113.32345361 361.04963963 -116.4375 361.0625 C-117.52611328 361.07087891 -118.61472656 361.07925781 -119.73632812 361.08789062 C-120.77080078 361.09111328 -121.80527344 361.09433594 -122.87109375 361.09765625 C-123.82943115 361.10289307 -124.78776855 361.10812988 -125.77514648 361.11352539 C-128 361 -128 361 -129 360 C-129 354.39 -129 348.78 -129 343 C-142.86 343 -156.72 343 -171 343 C-171 285.91 -171 228.82 -171 170 C-157.47 170 -143.94 170 -130 170 C-129.93941406 166.97972656 -129.87882812 163.95945313 -129.81640625 160.84765625 C-129.7546683 157.93527592 -129.69125932 155.02293647 -129.62768555 152.1105957 C-129.58426759 150.08035896 -129.54259774 148.05008408 -129.50268555 146.01977539 C-129.44514854 143.10811849 -129.38140722 140.19665486 -129.31640625 137.28515625 C-129.29133751 135.91485008 -129.29133751 135.91485008 -129.26576233 134.51686096 C-129.11387171 128.11387171 -129.11387171 128.11387171 -128 127 C-126.29227642 126.91286169 -124.58101351 126.89299993 -122.87109375 126.90234375 C-121.83662109 126.90556641 -120.80214844 126.90878906 -119.73632812 126.91210938 C-118.64771484 126.92048828 -117.55910156 126.92886719 -116.4375 126.9375 C-114.7987793 126.94426758 -114.7987793 126.94426758 -113.12695312 126.95117188 C-110.41791505 126.96300174 -107.70898401 126.97948457 -105 127 C-105.01047363 126.28344238 -105.02094727 125.56688477 -105.03173828 124.82861328 C-105.07321299 121.59411095 -105.09929892 118.35966447 -105.125 115.125 C-105.14175781 113.99707031 -105.15851563 112.86914062 -105.17578125 111.70703125 C-105.18222656 110.63066406 -105.18867187 109.55429688 -105.1953125 108.4453125 C-105.20578613 107.45031738 -105.21625977 106.45532227 -105.22705078 105.43017578 C-105 103 -105 103 -103 101 C-99.91475061 100.82446581 -96.92035798 100.76877203 -93.8359375 100.8046875 C-92.47512558 100.80893234 -92.47512558 100.80893234 -91.08682251 100.81326294 C-88.18274877 100.82447847 -85.27898088 100.84958537 -82.375 100.875 C-80.40885861 100.88502803 -78.4427124 100.89415419 -76.4765625 100.90234375 C-71.65092341 100.92442228 -66.8255136 100.95896135 -62 101 C-62.01047363 99.76846191 -62.02094727 98.53692383 -62.03173828 97.26806641 C-62.06787089 92.70966485 -62.09087585 88.15127602 -62.10986328 83.59277344 C-62.11993627 81.61781691 -62.13359521 79.64287534 -62.15087891 77.66796875 C-62.17507039 74.83329582 -62.18646991 71.99881962 -62.1953125 69.1640625 C-62.20563507 68.27756012 -62.21595764 67.39105774 -62.22659302 66.47769165 C-62.2269907 64.31714048 -62.12272534 62.15706282 -62 60 C-61.01 59.01 -61.01 59.01 -60 58 C-54.39 58 -48.78 58 -43 58 C-43 43.81 -43 29.62 -43 15 C-29.14 15 -15.28 15 -1 15 C-0.67 10.05 -0.34 5.1 0 0 Z " fill="#8ECBFE" transform="translate(171,86)"/>
<path d="M0 0 C33.99 0 67.98 0 103 0 C103 14.19 103 28.38 103 43 C111.58 43 120.16 43 129 43 C129 65.44 129 87.88 129 111 C142.86 111 156.72 111 171 111 C171 88.56 171 66.12 171 43 C176.61 43 182.22 43 188 43 C188 28.81 188 14.62 188 0 C236.18 0 284.36 0 334 0 C334 14.19 334 28.38 334 43 C342.25 43 350.5 43 359 43 C359 79.63 359 116.26 359 154 C350.75 154 342.5 154 334 154 C334 193.6 334 233.2 334 274 C319.81 274 305.62 274 291 274 C291 316.24 291 358.48 291 402 C276.81 402 262.62 402 248 402 C248 416.19 248 430.38 248 445 C242.39 445 236.78 445 231 445 C231 388.57 231 332.14 231 274 C216.81 274 202.62 274 188 274 C188 330.43 188 386.86 188 445 C182.39 445 176.78 445 171 445 C171 453.25 171 461.5 171 470 C157.14 470 143.28 470 129 470 C129 447.56 129 425.12 129 402 C142.86 402 156.72 402 171 402 C171 387.81 171 373.62 171 359 C157.14 359 143.28 359 129 359 C129 339.2 129 319.4 129 299 C120.42 299 111.84 299 103 299 C103 290.75 103 282.5 103 274 C83.2 274 63.4 274 43 274 C43 254.2 43 234.4 43 214 C28.81 214 14.62 214 0 214 C0 194.2 0 174.4 0 154 C-14.19 154 -28.38 154 -43 154 C-43 125.95 -43 97.9 -43 69 C-51.25 69 -59.5 69 -68 69 C-68 68.67 -68 68.34 -68 68 C-59.42 68 -50.84 68 -42 68 C-42 59.75 -42 51.5 -42 43 C-28.14 43 -14.28 43 0 43 C0 28.81 0 14.62 0 0 Z " fill="#A1E6F7" transform="translate(239,274)"/>
<path d="M0 0 C217.47 0 434.94 0 659 0 C659 4.95 659 9.9 659 15 C672.86 15 686.72 15 701 15 C701 29.19 701 43.38 701 58 C709.46668056 57.92088228 709.46668056 57.92088228 717.93310547 57.81982422 C718.98385254 57.8148291 720.03459961 57.80983398 721.1171875 57.8046875 C722.19597168 57.79421387 723.27475586 57.78374023 724.38623047 57.77294922 C727 58 727 58 729 60 C729.17553419 63.08524939 729.23122797 66.07964202 729.1953125 69.1640625 C729.19106766 70.52487442 729.19106766 70.52487442 729.18673706 71.91317749 C729.17552153 74.81725123 729.15041463 77.72101912 729.125 80.625 C729.11497197 82.59114139 729.10584581 84.5572876 729.09765625 86.5234375 C729.07557772 91.34907659 729.04103865 96.1744864 729 101 C730.85516235 100.99214478 730.85516235 100.99214478 732.74780273 100.98413086 C737.31924725 100.96608439 741.89068859 100.95456929 746.4621582 100.94506836 C748.44393441 100.94002733 750.42570689 100.93319462 752.4074707 100.92456055 C755.24952109 100.91248485 758.09152247 100.90676955 760.93359375 100.90234375 C761.82525742 100.89718246 762.71692108 100.89202118 763.63560486 100.88670349 C765.75740601 100.88650823 767.8791078 100.9378997 770 101 C771 102 771 102 771.11352539 104.40844727 C771.10828857 105.45057373 771.10305176 106.4927002 771.09765625 107.56640625 C771.09443359 108.69111328 771.09121094 109.81582031 771.08789062 110.97460938 C771.07951172 112.15861328 771.07113281 113.34261719 771.0625 114.5625 C771.05798828 115.75037109 771.05347656 116.93824219 771.04882812 118.16210938 C771.03699675 121.10812226 771.02051287 124.05403681 771 127 C772.07121094 126.98839844 773.14242187 126.97679687 774.24609375 126.96484375 C775.64322743 126.95546701 777.04036299 126.94636669 778.4375 126.9375 C779.14455078 126.92912109 779.85160156 126.92074219 780.58007812 126.91210938 C782.38693559 126.90346412 784.19387603 126.94779989 786 127 C788.17782681 129.17782681 787.26089916 134.25103078 787.31640625 137.28515625 C787.33718735 138.21597519 787.35796844 139.14679413 787.37937927 140.1058197 C787.44497931 143.09130182 787.50380802 146.07687484 787.5625 149.0625 C787.6056753 151.08138976 787.64928925 153.1002702 787.69335938 155.11914062 C787.80150018 160.07933513 787.90049549 165.03959451 788 170 C801.53 170 815.06 170 829 170 C829 227.09 829 284.18 829 343 C815.14 343 801.28 343 787 343 C787 348.61 787 354.22 787 360 C786 361 786 361 782.62109375 361.09765625 C781.22652923 361.09098369 779.83198257 361.07902532 778.4375 361.0625 C777.37112305 361.05573242 777.37112305 361.05573242 776.28320312 361.04882812 C774.52209987 361.03700864 772.76103964 361.01907263 771 361 C771.00523682 362.23153809 771.01047363 363.46307617 771.01586914 364.73193359 C771.03393553 369.29035722 771.04543804 373.84877767 771.05493164 378.40722656 C771.0599681 380.38216687 771.06679751 382.35710343 771.07543945 384.33203125 C771.08753508 387.16667605 771.0932351 390.00127166 771.09765625 392.8359375 C771.10281754 393.72243988 771.10797882 394.60894226 771.11329651 395.52230835 C771.11387171 401.77225659 771.11387171 401.77225659 770 404 C756.47 404 742.94 404 729 404 C729 408.95 729 413.9 729 419 C719.76 419 710.52 419 701 419 C701 413.39 701 407.78 701 402 C709.25 402 717.5 402 726 402 C726 387.81 726 373.62 726 359 C740.19 359 754.38 359 769 359 C769 353.39 769 347.78 769 342 C774.61 342 780.22 342 786 342 C786 285.57 786 229.14 786 171 C780.39 171 774.78 171 769 171 C769 156.81 769 142.62 769 128 C755.14 128 741.28 128 727 128 C727 119.42 727 110.84 727 102 C718.42 102 709.84 102 701 102 C701 88.14 701 74.28 701 60 C686.81 60 672.62 60 658 60 C658 45.81 658 31.62 658 17 C477.49 17 296.98 17 111 17 C111 31.19 111 45.38 111 60 C116.61 60 122.22 60 128 60 C128 73.86 128 87.72 128 102 C122.39 102 116.78 102 111 102 C111 110.58 111 119.16 111 128 C82.95 128 54.9 128 26 128 C26 142.19 26 156.38 26 171 C-24.82 171 -75.64 171 -128 171 C-128 227.43 -128 283.86 -128 342 C-119.42 342 -110.84 342 -102 342 C-102 347.61 -102 353.22 -102 359 C-88.14 359 -74.28 359 -60 359 C-60 373.19 -60 387.38 -60 402 C-54.39 402 -48.78 402 -43 402 C-43 407.61 -43 413.22 -43 419 C-49.27 419 -55.54 419 -62 419 C-62 414.05 -62 409.1 -62 404 C-63.23153809 404.01047363 -64.46307617 404.02094727 -65.73193359 404.03173828 C-70.29033515 404.06787089 -74.84872398 404.09087585 -79.40722656 404.10986328 C-81.38218309 404.11993627 -83.35712466 404.13359521 -85.33203125 404.15087891 C-88.16670418 404.17507039 -91.00118038 404.18646991 -93.8359375 404.1953125 C-94.72243988 404.20563507 -95.60894226 404.21595764 -96.52230835 404.22659302 C-98.68285952 404.2269907 -100.84293718 404.12272534 -103 404 C-105 402 -105 402 -105.22705078 398.00927734 C-105.22673337 396.28479831 -105.21539124 394.56029967 -105.1953125 392.8359375 C-105.1924826 391.92872955 -105.18965271 391.02152161 -105.18673706 390.08682251 C-105.17552153 387.18274877 -105.15041463 384.27898088 -105.125 381.375 C-105.11497197 379.40885861 -105.10584581 377.4427124 -105.09765625 375.4765625 C-105.07557772 370.65092341 -105.04103865 365.8255136 -105 361 C-106.0372522 361.00785522 -106.0372522 361.00785522 -107.09545898 361.01586914 C-110.20946352 361.036575 -113.32345361 361.04963963 -116.4375 361.0625 C-117.52611328 361.07087891 -118.61472656 361.07925781 -119.73632812 361.08789062 C-120.77080078 361.09111328 -121.80527344 361.09433594 -122.87109375 361.09765625 C-123.82943115 361.10289307 -124.78776855 361.10812988 -125.77514648 361.11352539 C-128 361 -128 361 -129 360 C-129 354.39 -129 348.78 -129 343 C-142.86 343 -156.72 343 -171 343 C-171 285.91 -171 228.82 -171 170 C-157.47 170 -143.94 170 -130 170 C-129.93941406 166.97972656 -129.87882812 163.95945313 -129.81640625 160.84765625 C-129.7546683 157.93527592 -129.69125932 155.02293647 -129.62768555 152.1105957 C-129.58426759 150.08035896 -129.54259774 148.05008408 -129.50268555 146.01977539 C-129.44514854 143.10811849 -129.38140722 140.19665486 -129.31640625 137.28515625 C-129.29133751 135.91485008 -129.29133751 135.91485008 -129.26576233 134.51686096 C-129.11387171 128.11387171 -129.11387171 128.11387171 -128 127 C-126.29227642 126.91286169 -124.58101351 126.89299993 -122.87109375 126.90234375 C-121.83662109 126.90556641 -120.80214844 126.90878906 -119.73632812 126.91210938 C-118.64771484 126.92048828 -117.55910156 126.92886719 -116.4375 126.9375 C-114.7987793 126.94426758 -114.7987793 126.94426758 -113.12695312 126.95117188 C-110.41791505 126.96300174 -107.70898401 126.97948457 -105 127 C-105.01047363 126.28344238 -105.02094727 125.56688477 -105.03173828 124.82861328 C-105.07321299 121.59411095 -105.09929892 118.35966447 -105.125 115.125 C-105.14175781 113.99707031 -105.15851563 112.86914062 -105.17578125 111.70703125 C-105.18222656 110.63066406 -105.18867187 109.55429688 -105.1953125 108.4453125 C-105.20578613 107.45031738 -105.21625977 106.45532227 -105.22705078 105.43017578 C-105 103 -105 103 -103 101 C-99.91475061 100.82446581 -96.92035798 100.76877203 -93.8359375 100.8046875 C-92.47512558 100.80893234 -92.47512558 100.80893234 -91.08682251 100.81326294 C-88.18274877 100.82447847 -85.27898088 100.84958537 -82.375 100.875 C-80.40885861 100.88502803 -78.4427124 100.89415419 -76.4765625 100.90234375 C-71.65092341 100.92442228 -66.8255136 100.95896135 -62 101 C-62.01047363 99.76846191 -62.02094727 98.53692383 -62.03173828 97.26806641 C-62.06787089 92.70966485 -62.09087585 88.15127602 -62.10986328 83.59277344 C-62.11993627 81.61781691 -62.13359521 79.64287534 -62.15087891 77.66796875 C-62.17507039 74.83329582 -62.18646991 71.99881962 -62.1953125 69.1640625 C-62.20563507 68.27756012 -62.21595764 67.39105774 -62.22659302 66.47769165 C-62.2269907 64.31714048 -62.12272534 62.15706282 -62 60 C-61.01 59.01 -61.01 59.01 -60 58 C-54.39 58 -48.78 58 -43 58 C-43 43.81 -43 29.62 -43 15 C-29.14 15 -15.28 15 -1 15 C-0.67 10.05 -0.34 5.1 0 0 Z " fill="#61B2F2" transform="translate(171,86)"/>
<path d="M0 0 C48.18 0 96.36 0 146 0 C146 14.19 146 28.38 146 43 C154.25 43 162.5 43 171 43 C171 79.63 171 116.26 171 154 C162.75 154 154.5 154 146 154 C146 193.6 146 233.2 146 274 C131.81 274 117.62 274 103 274 C103 316.24 103 358.48 103 402 C88.81 402 74.62 402 60 402 C60 416.19 60 430.38 60 445 C54.39 445 48.78 445 43 445 C43 388.57 43 332.14 43 274 C28.81 274 14.62 274 0 274 C0 220.21 0 166.42 0 111 C-5.61 111 -11.22 111 -17 111 C-17 88.56 -17 66.12 -17 43 C-11.39 43 -5.78 43 0 43 C0 28.81 0 14.62 0 0 Z " fill="#A8BEFE" transform="translate(427,274)"/>
<path d="M0 0 C5.61 0 11.22 0 17 0 C17 8.25 17 16.5 17 25 C31.19 25 45.38 25 60 25 C60 39.19 60 53.38 60 68 C186.72 68 313.44 68 444 68 C444 73.61 444 79.22 444 85 C435.75 85 427.5 85 419 85 C419 99.19 419 113.38 419 128 C404.81 128 390.62 128 376 128 C376 136.25 376 144.5 376 153 C370.39 153 364.78 153 359 153 C359 186.99 359 220.98 359 256 C344.81 256 330.62 256 316 256 C316 289.99 316 323.98 316 359 C307.75 359 299.5 359 291 359 C291 319.4 291 279.8 291 239 C299.25 239 307.5 239 316 239 C316 202.37 316 165.74 316 128 C307.75 128 299.5 128 291 128 C291 113.81 291 99.62 291 85 C242.82 85 194.64 85 145 85 C145 99.19 145 113.38 145 128 C139.39 128 133.78 128 128 128 C128 150.44 128 172.88 128 196 C114.14 196 100.28 196 86 196 C86 173.56 86 151.12 86 128 C77.42 128 68.84 128 60 128 C60 113.81 60 99.62 60 85 C26.01 85 -7.98 85 -43 85 C-43 99.19 -43 113.38 -43 128 C-56.86 128 -70.72 128 -85 128 C-85 136.25 -85 144.5 -85 153 C-93.58 153 -102.16 153 -111 153 C-111 144.75 -111 136.5 -111 128 C-130.8 128 -150.6 128 -171 128 C-171 113.81 -171 99.62 -171 85 C-185.19 85 -199.38 85 -214 85 C-214 135.82 -214 186.64 -214 239 C-222.25 239 -230.5 239 -239 239 C-239 182.57 -239 126.14 -239 68 C-188.18 68 -137.36 68 -85 68 C-85 53.81 -85 39.62 -85 25 C-56.95 25 -28.9 25 0 25 C0 16.75 0 8.5 0 0 Z " fill="#ECFAFE" transform="translate(282,189)"/>
<path d="M0 0 C104.28 0 208.56 0 316 0 C316 0.33 316 0.66 316 1 C293.56 1 271.12 1 248 1 C248 14.86 248 28.72 248 43 C262.19 43 276.38 43 291 43 C291 57.19 291 71.38 291 86 C299.25 86 307.5 86 316 86 C316 94.25 316 102.5 316 111 C330.19 111 344.38 111 359 111 C359 125.19 359 139.38 359 154 C260.33 154 161.66 154 60 154 C60 139.81 60 125.62 60 111 C45.81 111 31.62 111 17 111 C17 102.75 17 94.5 17 86 C11.39 86 5.78 86 0 86 C0 85.67 0 85.34 0 85 C5.61 85 11.22 85 17 85 C17 71.14 17 57.28 17 43 C11.39 43 5.78 43 0 43 C0 28.81 0 14.62 0 0 Z " fill="#A8D2FE" transform="translate(282,103)"/>
<path d="M0 0 C19.8 0 39.6 0 60 0 C60 50.82 60 101.64 60 154 C54.39 154 48.78 154 43 154 C43 159.61 43 165.22 43 171 C28.81 171 14.62 171 0 171 C0 185.19 0 199.38 0 214 C-8.25 214 -16.5 214 -25 214 C-25 233.8 -25 253.6 -25 274 C-38.86 274 -52.72 274 -67 274 C-66.96044175 282.4665847 -66.96044175 282.4665847 -66.90991211 290.93310547 C-66.90616577 292.50922607 -66.90616577 292.50922607 -66.90234375 294.1171875 C-66.89710693 295.19597168 -66.89187012 296.27475586 -66.88647461 297.38623047 C-67 300 -67 300 -68 302 C-72.95 302 -77.9 302 -83 302 C-83 315.53 -83 329.06 -83 343 C-86.43604765 344.71802382 -90.38438896 344.1196618 -94.1640625 344.09765625 C-95.07127045 344.0962413 -95.97847839 344.09482635 -96.91317749 344.09336853 C-99.81715155 344.08776096 -102.72104915 344.07520718 -105.625 344.0625 C-107.59114472 344.05748598 -109.55729065 344.0529229 -111.5234375 344.04882812 C-116.3489879 344.03778906 -121.17448097 344.02051935 -126 344 C-125.98839844 345.07121094 -125.97679687 346.14242188 -125.96484375 347.24609375 C-125.95546701 348.64322743 -125.94636669 350.04036299 -125.9375 351.4375 C-125.92493164 352.49807617 -125.92493164 352.49807617 -125.91210938 353.58007812 C-125.90346412 355.38693559 -125.94779989 357.19387603 -126 359 C-127 360 -127 360 -130.87719727 360.11352539 C-132.60694166 360.11327423 -134.33669105 360.10771043 -136.06640625 360.09765625 C-136.8713855 360.09664917 -137.67636475 360.09564209 -138.5057373 360.09460449 C-141.52467261 360.08935614 -144.54358767 360.075395 -147.5625 360.0625 C-157.6790625 360.0315625 -157.6790625 360.0315625 -168 360 C-168 373.86 -168 387.72 -168 402 C-171.09764653 403.03254884 -173.26148787 403.12908904 -176.5078125 403.1328125 C-177.57644531 403.13410156 -178.64507813 403.13539063 -179.74609375 403.13671875 C-181.41865234 403.13091797 -181.41865234 403.13091797 -183.125 403.125 C-184.24777344 403.12886719 -185.37054687 403.13273437 -186.52734375 403.13671875 C-188.12642578 403.13478516 -188.12642578 403.13478516 -189.7578125 403.1328125 C-190.7389502 403.13168457 -191.72008789 403.13055664 -192.73095703 403.12939453 C-195 403 -195 403 -196 402 C-196.09268999 400.64905018 -196.11747326 399.29332909 -196.11352539 397.93920898 C-196.11344986 397.07839218 -196.11337433 396.21757538 -196.11329651 395.33067322 C-196.10813522 394.39526199 -196.10297394 393.45985077 -196.09765625 392.49609375 C-196.0962413 391.54307877 -196.09482635 390.59006378 -196.09336853 389.60816956 C-196.08775152 386.55124835 -196.07519616 383.49439923 -196.0625 380.4375 C-196.05748719 378.37044376 -196.05292391 376.30338638 -196.04882812 374.23632812 C-196.03862558 369.15750167 -196.01905356 364.07883194 -196 359 C-187.75 359 -179.5 359 -171 359 C-171 353.39 -171 347.78 -171 342 C-156.81 342 -142.62 342 -128 342 C-128 327.81 -128 313.62 -128 299 C-150.44 299 -172.88 299 -196 299 C-196 290.75 -196 282.5 -196 274 C-187.42 274 -178.84 274 -170 274 C-170 254.2 -170 234.4 -170 214 C-156.14 214 -142.28 214 -128 214 C-128 199.81 -128 185.62 -128 171 C-113.81 171 -99.62 171 -85 171 C-85 151.2 -85 131.4 -85 111 C-79.39 111 -73.78 111 -68 111 C-68 97.14 -68 83.28 -68 69 C-53.81 69 -39.62 69 -25 69 C-25 60.42 -25 51.84 -25 43 C-16.75 43 -8.5 43 0 43 C0 28.81 0 14.62 0 0 Z " fill="#BEADFB" transform="translate(897,274)"/>
<path d="M0 0 C14.19 0 28.38 0 43 0 C43 56.43 43 112.86 43 171 C48.61 171 54.22 171 60 171 C60 156.81 60 142.62 60 128 C74.19 128 88.38 128 103 128 C103 85.76 103 43.52 103 0 C117.19 0 131.38 0 146 0 C146 42.24 146 84.48 146 128 C154.25 128 162.5 128 171 128 C171 108.2 171 88.4 171 68 C185.19 68 199.38 68 214 68 C214 53.81 214 39.62 214 25 C219.61 25 225.22 25 231 25 C231 44.8 231 64.6 231 85 C225.39 85 219.78 85 214 85 C214 99.19 214 113.38 214 128 C200.14 128 186.28 128 172 128 C172 150.11 172 172.22 172 195 C185.86 195 199.72 195 214 195 C214 195.33 214 195.66 214 196 C199.81 196 185.62 196 171 196 C171 210.19 171 224.38 171 239 C162.75 239 154.5 239 146 239 C146 244.61 146 250.22 146 256 C97.82 256 49.64 256 0 256 C0 250.39 0 244.78 0 239 C-5.28 239 -10.56 239 -16 239 C-16 225.14 -16 211.28 -16 197 C-10.72 197 -5.44 197 0 197 C0 131.99 0 66.98 0 0 Z " fill="#F9FDFE" transform="translate(427,548)"/>
<path d="M0 0 C217.47 0 434.94 0 659 0 C659 4.95 659 9.9 659 15 C672.86 15 686.72 15 701 15 C701 29.19 701 43.38 701 58 C709.46668056 57.92088228 709.46668056 57.92088228 717.93310547 57.81982422 C718.98385254 57.8148291 720.03459961 57.80983398 721.1171875 57.8046875 C722.19597168 57.79421387 723.27475586 57.78374023 724.38623047 57.77294922 C727 58 727 58 729 60 C729.17553419 63.08524939 729.23122797 66.07964202 729.1953125 69.1640625 C729.19106766 70.52487442 729.19106766 70.52487442 729.18673706 71.91317749 C729.17552153 74.81725123 729.15041463 77.72101912 729.125 80.625 C729.11497197 82.59114139 729.10584581 84.5572876 729.09765625 86.5234375 C729.07557772 91.34907659 729.04103865 96.1744864 729 101 C730.85516235 100.99214478 730.85516235 100.99214478 732.74780273 100.98413086 C737.31924725 100.96608439 741.89068859 100.95456929 746.4621582 100.94506836 C748.44393441 100.94002733 750.42570689 100.93319462 752.4074707 100.92456055 C755.24952109 100.91248485 758.09152247 100.90676955 760.93359375 100.90234375 C761.82525742 100.89718246 762.71692108 100.89202118 763.63560486 100.88670349 C765.75740601 100.88650823 767.8791078 100.9378997 770 101 C771 102 771 102 771.11352539 104.40844727 C771.10828857 105.45057373 771.10305176 106.4927002 771.09765625 107.56640625 C771.09443359 108.69111328 771.09121094 109.81582031 771.08789062 110.97460938 C771.07951172 112.15861328 771.07113281 113.34261719 771.0625 114.5625 C771.05798828 115.75037109 771.05347656 116.93824219 771.04882812 118.16210938 C771.03699675 121.10812226 771.02051287 124.05403681 771 127 C772.07121094 126.98839844 773.14242187 126.97679687 774.24609375 126.96484375 C775.64322743 126.95546701 777.04036299 126.94636669 778.4375 126.9375 C779.14455078 126.92912109 779.85160156 126.92074219 780.58007812 126.91210938 C782.38693559 126.90346412 784.19387603 126.94779989 786 127 C788.17782681 129.17782681 787.26089916 134.25103078 787.31640625 137.28515625 C787.33718735 138.21597519 787.35796844 139.14679413 787.37937927 140.1058197 C787.44497931 143.09130182 787.50380802 146.07687484 787.5625 149.0625 C787.6056753 151.08138976 787.64928925 153.1002702 787.69335938 155.11914062 C787.80150018 160.07933513 787.90049549 165.03959451 788 170 C801.53 170 815.06 170 829 170 C829 227.09 829 284.18 829 343 C815.14 343 801.28 343 787 343 C787 348.61 787 354.22 787 360 C786 361 786 361 782.62109375 361.09765625 C781.22652923 361.09098369 779.83198257 361.07902532 778.4375 361.0625 C777.37112305 361.05573242 777.37112305 361.05573242 776.28320312 361.04882812 C774.52209987 361.03700864 772.76103964 361.01907263 771 361 C771.00523682 362.23153809 771.01047363 363.46307617 771.01586914 364.73193359 C771.03393553 369.29035722 771.04543804 373.84877767 771.05493164 378.40722656 C771.0599681 380.38216687 771.06679751 382.35710343 771.07543945 384.33203125 C771.08753508 387.16667605 771.0932351 390.00127166 771.09765625 392.8359375 C771.10281754 393.72243988 771.10797882 394.60894226 771.11329651 395.52230835 C771.11387171 401.77225659 771.11387171 401.77225659 770 404 C756.47 404 742.94 404 729 404 C729 408.95 729 413.9 729 419 C719.76 419 710.52 419 701 419 C701 413.39 701 407.78 701 402 C709.25 402 717.5 402 726 402 C726 387.81 726 373.62 726 359 C740.19 359 754.38 359 769 359 C769 353.39 769 347.78 769 342 C774.61 342 780.22 342 786 342 C786 285.57 786 229.14 786 171 C780.39 171 774.78 171 769 171 C769 156.81 769 142.62 769 128 C755.14 128 741.28 128 727 128 C727 119.42 727 110.84 727 102 C718.42 102 709.84 102 701 102 C701 88.14 701 74.28 701 60 C686.81 60 672.62 60 658 60 C658 45.81 658 31.62 658 17 C440.86 17 223.72 17 0 17 C0 31.19 0 45.38 0 60 C-14.19 60 -28.38 60 -43 60 C-43 73.86 -43 87.72 -43 102 C-48.61 102 -54.22 102 -60 102 C-60 110.58 -60 119.16 -60 128 C-74.19 128 -88.38 128 -103 128 C-103 119.09 -103 110.18 -103 101 C-89.47 101 -75.94 101 -62 101 C-62.07916733 87.59684348 -62.07916733 87.59684348 -62.18017578 74.19384766 C-62.18601537 72.51725518 -62.19111219 70.84065988 -62.1953125 69.1640625 C-62.20554443 68.28903076 -62.21577637 67.41399902 -62.22631836 66.51245117 C-62.22694924 64.34032378 -62.12338291 62.16862041 -62 60 C-61.34 59.34 -60.68 58.68 -60 58 C-54.39 58 -48.78 58 -43 58 C-43 43.81 -43 29.62 -43 15 C-29.14 15 -15.28 15 -1 15 C-0.67 10.05 -0.34 5.1 0 0 Z " fill="#4A5AAA" transform="translate(171,86)"/>
<path d="M0 0 C14.19 0 28.38 0 43 0 C43 8.25 43 16.5 43 25 C51.58 25 60.16 25 69 25 C69 44.8 69 64.6 69 85 C82.86 85 96.72 85 111 85 C111 99.19 111 113.38 111 128 C97.14 128 83.28 128 69 128 C69 150.44 69 172.88 69 196 C82.86 196 96.72 196 111 196 C111 187.75 111 179.5 111 171 C116.61 171 122.22 171 128 171 C128 179.58 128 188.16 128 197 C122.72 197 117.44 197 112 197 C112 210.86 112 224.72 112 239 C117.28 239 122.56 239 128 239 C128 244.61 128 250.22 128 256 C176.18 256 224.36 256 274 256 C274 250.39 274 244.78 274 239 C282.25 239 290.5 239 299 239 C299 224.81 299 210.62 299 196 C313.19 196 327.38 196 342 196 C342 187.75 342 179.5 342 171 C347.61 171 353.22 171 359 171 C359 156.81 359 142.62 359 128 C373.19 128 387.38 128 402 128 C402 142.52 402 157.04 402 172 C388.47 172 374.94 172 361 172 C361.0790305 179.7634463 361.0790305 179.7634463 361.18017578 187.52661133 C361.18766846 188.97716919 361.18766846 188.97716919 361.1953125 190.45703125 C361.20578613 191.44678955 361.21625977 192.43654785 361.22705078 193.45629883 C361 196 361 196 359 199 C356.37302936 199.22137393 353.99106036 199.28162025 351.375 199.1875 C350.66859375 199.17396484 349.9621875 199.16042969 349.234375 199.14648438 C347.48925872 199.1111104 345.74453392 199.05730221 344 199 C344.01047363 200.20124512 344.02094727 201.40249023 344.03173828 202.64013672 C344.06787287 207.08672112 344.09087657 211.53329248 344.10986328 215.97998047 C344.11993582 217.90643494 344.13359443 219.83287408 344.15087891 221.75927734 C344.17507241 224.52445252 344.18647036 227.289426 344.1953125 230.0546875 C344.20563507 230.9193161 344.21595764 231.7839447 344.22659302 232.67477417 C344.22699106 234.78453521 344.12265243 236.89380718 344 239 C342 241 342 241 338.10107422 241.22705078 C336.41891207 241.22673341 334.73672981 241.21539396 333.0546875 241.1953125 C331.72716965 241.19106766 331.72716965 241.19106766 330.37283325 241.18673706 C327.54008588 241.1755224 324.70765216 241.1504157 321.875 241.125 C319.95703581 241.11497185 318.03906667 241.10584572 316.12109375 241.09765625 C311.41394124 241.07557889 306.70702384 241.04104045 302 241 C302 245.95 302 250.9 302 256 C299.42788678 257.28605661 297.43093034 257.21043941 294.5546875 257.31640625 C293.58515137 257.35451416 292.61561523 257.39262207 291.61669922 257.43188477 C289.76455811 257.49653931 289.76455811 257.49653931 287.875 257.5625 C283.95625 257.706875 280.0375 257.85125 276 258 C276 271.53 276 285.06 276 299 C226.5 299 177 299 126 299 C126 285.47 126 271.94 126 258 C120.72 257.67 115.44 257.34 110 257 C109 256 109 256 108.90234375 252.62109375 C108.90901631 251.22652923 108.92097468 249.83198257 108.9375 248.4375 C108.94201172 247.72658203 108.94652344 247.01566406 108.95117188 246.28320312 C108.96299136 244.52209987 108.98092737 242.76103964 109 241 C107.15269287 241.01571045 107.15269287 241.01571045 105.26806641 241.03173828 C100.70966485 241.06787089 96.15127602 241.09087585 91.59277344 241.10986328 C89.61781691 241.11993627 87.64287534 241.13359521 85.66796875 241.15087891 C82.83329582 241.17507039 79.99881962 241.18646991 77.1640625 241.1953125 C76.27756012 241.20563507 75.39105774 241.21595764 74.47769165 241.22659302 C72.31714048 241.2269907 70.15706282 241.12272534 68 241 C66 239 66 239 65.77294922 235.10107422 C65.77326659 233.41891207 65.78460604 231.73672981 65.8046875 230.0546875 C65.8075174 229.1696756 65.81034729 228.2846637 65.81326294 227.37283325 C65.8244776 224.54008588 65.8495843 221.70765216 65.875 218.875 C65.88502815 216.95703581 65.89415428 215.03906667 65.90234375 213.12109375 C65.92442111 208.41394124 65.95895955 203.70702384 66 199 C64.97060303 199.02356567 64.97060303 199.02356567 63.92041016 199.04760742 C60.82202337 199.10982719 57.72376776 199.14894898 54.625 199.1875 C53.54476562 199.21263672 52.46453125 199.23777344 51.3515625 199.26367188 C49.8046875 199.27817383 49.8046875 199.27817383 48.2265625 199.29296875 C46.79691162 199.31653442 46.79691162 199.31653442 45.33837891 199.34057617 C44.18088135 199.17199097 44.18088135 199.17199097 43 199 C40.73401552 195.60102327 40.76257346 194.43680827 40.8046875 190.45703125 C40.80968262 189.48999268 40.81467773 188.5229541 40.81982422 187.52661133 C40.83803223 186.30095459 40.85624023 185.07529785 40.875 183.8125 C40.91625 179.914375 40.9575 176.01625 41 172 C27.47 172 13.94 172 0 172 C0 143.29 0 114.58 0 85 C-5.61 85 -11.22 85 -17 85 C-17 79.39 -17 73.78 -17 68 C-11.39 68 -5.78 68 0 68 C0 45.56 0 23.12 0 0 Z " fill="#DDF7FE" transform="translate(299,548)"/>
<path d="M0 0 C42.24 0 84.48 0 128 0 C128 14.19 128 28.38 128 43 C142.19 43 156.38 43 171 43 C171 56.86 171 70.72 171 85 C179.58 85 188.16 85 197 85 C197 93.58 197 102.16 197 111 C210.86 111 224.72 111 239 111 C239 125.19 239 139.38 239 154 C196.76 154 154.52 154 111 154 C111 139.81 111 125.62 111 111 C82.62 111 54.24 111 25 111 C25 102.75 25 94.5 25 86 C16.75 86 8.5 86 0 86 C0 57.62 0 29.24 0 0 Z " fill="#9D88EA" transform="translate(701,103)"/>
<path d="M0 0 C62.04 0 124.08 0 188 0 C188 0.33 188 0.66 188 1 C165.56 1 143.12 1 120 1 C120 14.86 120 28.72 120 43 C134.19 43 148.38 43 163 43 C163 57.19 163 71.38 163 86 C171.25 86 179.5 86 188 86 C188 94.25 188 102.5 188 111 C202.19 111 216.38 111 231 111 C231 125.19 231 139.38 231 154 C194.37 154 157.74 154 120 154 C120 139.81 120 125.62 120 111 C105.81 111 91.62 111 77 111 C77 102.75 77 94.5 77 86 C71.39 86 65.78 86 60 86 C60 71.81 60 57.62 60 43 C45.81 43 31.62 43 17 43 C17 29.14 17 15.28 17 1 C11.39 1 5.78 1 0 1 C0 0.67 0 0.34 0 0 Z " fill="#A7BDFE" transform="translate(410,103)"/>
<path d="M0 0 C0 36.63 0 73.26 0 111 C-14.19 111 -28.38 111 -43 111 C-43 125.19 -43 139.38 -43 154 C-48.61 154 -54.22 154 -60 154 C-60 139.81 -60 125.62 -60 111 C-74.19 111 -88.38 111 -103 111 C-103 102.75 -103 94.5 -103 86 C-111.25 86 -119.5 86 -128 86 C-128 71.81 -128 57.62 -128 43 C-142.19 43 -156.38 43 -171 43 C-171 29.14 -171 15.28 -171 1 C-161.81263057 0.82141871 -152.62532965 0.65154785 -143.4375 0.5 C-142.35827522 0.48218412 -142.35827522 0.48218412 -141.25724792 0.46400833 C-94.17431566 -0.30273233 -47.08789314 -0.06228557 0 0 Z " fill="#DDA7FE" transform="translate(701,103)"/>
<path d="M0 0 C14.19 0 28.38 0 43 0 C43 14.52 43 29.04 43 44 C29.47 44 15.94 44 2 44 C2.0790305 51.7634463 2.0790305 51.7634463 2.18017578 59.52661133 C2.18766846 60.97716919 2.18766846 60.97716919 2.1953125 62.45703125 C2.20578613 63.44678955 2.21625977 64.43654785 2.22705078 65.45629883 C2 68 2 68 0 71 C-2.62697064 71.22137393 -5.00893964 71.28162025 -7.625 71.1875 C-8.33140625 71.17396484 -9.0378125 71.16042969 -9.765625 71.14648438 C-11.51074128 71.1111104 -13.25546608 71.05730221 -15 71 C-14.98952637 72.20124512 -14.97905273 73.40249023 -14.96826172 74.64013672 C-14.93212713 79.08672112 -14.90912343 83.53329248 -14.89013672 87.97998047 C-14.88006418 89.90643494 -14.86640557 91.83287408 -14.84912109 93.75927734 C-14.82492759 96.52445252 -14.81352964 99.289426 -14.8046875 102.0546875 C-14.79436493 102.9193161 -14.78404236 103.7839447 -14.77340698 104.67477417 C-14.77300894 106.78453521 -14.87734757 108.89380718 -15 111 C-17 113 -17 113 -20.89892578 113.22705078 C-22.58108793 113.22673341 -24.26327019 113.21539396 -25.9453125 113.1953125 C-26.8303244 113.1924826 -27.7153363 113.18965271 -28.62716675 113.18673706 C-31.45991412 113.1755224 -34.29234784 113.1504157 -37.125 113.125 C-39.04296419 113.11497185 -40.96093333 113.10584572 -42.87890625 113.09765625 C-47.58605876 113.07557889 -52.29297616 113.04104045 -57 113 C-57 117.95 -57 122.9 -57 128 C-59.57211322 129.28605661 -61.56906966 129.21043941 -64.4453125 129.31640625 C-65.41484863 129.35451416 -66.38438477 129.39262207 -67.38330078 129.43188477 C-68.61806152 129.47498779 -69.85282227 129.51809082 -71.125 129.5625 C-75.04375 129.706875 -78.9625 129.85125 -83 130 C-83 143.53 -83 157.06 -83 171 C-132.5 171 -182 171 -233 171 C-233 157.47 -233 143.94 -233 130 C-238.28 129.67 -243.56 129.34 -249 129 C-249.33 128.67 -249.66 128.34 -250 128 C-250 123.05 -250 118.1 -250 113 C-263.53 113 -277.06 113 -291 113 C-291 98.48 -291 83.96 -291 69 C-276.81 69 -262.62 69 -248 69 C-248 82.86 -248 96.72 -248 111 C-242.39 111 -236.78 111 -231 111 C-231 116.61 -231 122.22 -231 128 C-182.82 128 -134.64 128 -85 128 C-85 122.39 -85 116.78 -85 111 C-76.75 111 -68.5 111 -60 111 C-60 96.81 -60 82.62 -60 68 C-45.81 68 -31.62 68 -17 68 C-17 59.75 -17 51.5 -17 43 C-11.39 43 -5.78 43 0 43 C0 28.81 0 14.62 0 0 Z " fill="#4858A9" transform="translate(658,676)"/>
<path d="M0 0 C36.63 0 73.26 0 111 0 C111 14.19 111 28.38 111 43 C96.81 43 82.62 43 68 43 C68 48.61 68 54.22 68 60 C59.75 60 51.5 60 43 60 C43 74.19 43 88.38 43 103 C28.81 103 14.62 103 0 103 C0 117.19 0 131.38 0 146 C-5.61 146 -11.22 146 -17 146 C-17 153.92 -17 161.84 -17 170 C-30.86 170 -44.72 170 -59 170 C-59 147.89 -59 125.78 -59 103 C-45.14 103 -31.28 103 -17 103 C-17 88.81 -17 74.62 -17 60 C-11.39 60 -5.78 60 0 60 C0 40.2 0 20.4 0 0 Z " fill="#D7CCFE" transform="translate(658,573)"/>
<path d="M0 0 C0.33 0 0.66 0 1 0 C2.2528333 22.66285947 2.09354004 45.31134248 2 68 C-6.25 68 -14.5 68 -23 68 C-23 124.43 -23 180.86 -23 239 C-14.42 239 -5.84 239 3 239 C3 244.61 3 250.22 3 256 C16.86 256 30.72 256 45 256 C45 270.19 45 284.38 45 299 C50.61 299 56.22 299 62 299 C62 304.61 62 310.22 62 316 C55.73 316 49.46 316 43 316 C43 311.05 43 306.1 43 301 C41.76846191 301.01047363 40.53692383 301.02094727 39.26806641 301.03173828 C34.70966485 301.06787089 30.15127602 301.09087585 25.59277344 301.10986328 C23.61781691 301.11993627 21.64287534 301.13359521 19.66796875 301.15087891 C16.83329582 301.17507039 13.99881962 301.18646991 11.1640625 301.1953125 C10.27756012 301.20563507 9.39105774 301.21595764 8.47769165 301.22659302 C6.31714048 301.2269907 4.15706282 301.12272534 2 301 C0 299 0 299 -0.22705078 295.00927734 C-0.22673337 293.28479831 -0.21539124 291.56029967 -0.1953125 289.8359375 C-0.1924826 288.92872955 -0.18965271 288.02152161 -0.18673706 287.08682251 C-0.17552153 284.18274877 -0.15041463 281.27898088 -0.125 278.375 C-0.11497197 276.40885861 -0.10584581 274.4427124 -0.09765625 272.4765625 C-0.07557772 267.65092341 -0.04103865 262.8255136 0 258 C-1.0372522 258.00785522 -1.0372522 258.00785522 -2.09545898 258.01586914 C-5.20946352 258.036575 -8.32345361 258.04963963 -11.4375 258.0625 C-12.52611328 258.07087891 -13.61472656 258.07925781 -14.73632812 258.08789062 C-15.77080078 258.09111328 -16.80527344 258.09433594 -17.87109375 258.09765625 C-18.82943115 258.10289307 -19.78776855 258.10812988 -20.77514648 258.11352539 C-23 258 -23 258 -24 257 C-24 251.39 -24 245.78 -24 240 C-37.86 240 -51.72 240 -66 240 C-66 182.91 -66 125.82 -66 67 C-52.47 67 -38.94 67 -25 67 C-24.93941406 63.97972656 -24.87882812 60.95945312 -24.81640625 57.84765625 C-24.7546683 54.93527592 -24.69125932 52.02293647 -24.62768555 49.1105957 C-24.58426759 47.08035896 -24.54259774 45.05008408 -24.50268555 43.01977539 C-24.44514854 40.10811849 -24.38140722 37.19665486 -24.31640625 34.28515625 C-24.29969376 33.3716188 -24.28298126 32.45808136 -24.26576233 31.51686096 C-24.11387171 25.11387171 -24.11387171 25.11387171 -23 24 C-21.29227642 23.91286169 -19.58101351 23.89299993 -17.87109375 23.90234375 C-16.93966553 23.90484131 -16.0082373 23.90733887 -15.04858398 23.90991211 C-13.26109741 23.92356812 -13.26109741 23.92356812 -11.4375 23.9375 C-7.663125 23.958125 -3.88875 23.97875 0 24 C0 16.08 0 8.16 0 0 Z " fill="#4A5AAA" transform="translate(66,189)"/>
<path d="M0 0 C8.25 0 16.5 0 25 0 C25 36.63 25 73.26 25 111 C16.75 111 8.5 111 0 111 C0 150.6 0 190.2 0 231 C-14.19 231 -28.38 231 -43 231 C-43 177.21 -43 123.42 -43 68 C-28.81 68 -14.62 68 0 68 C0 45.56 0 23.12 0 0 Z " fill="#DDA8FF" transform="translate(573,317)"/>
<path d="M0 0 C14.19 0 28.38 0 43 0 C43 19.8 43 39.6 43 60 C28.81 60 14.62 60 0 60 C0 74.19 0 88.38 0 103 C-13.86 103 -27.72 103 -42 103 C-42 122.8 -42 142.6 -42 163 C-50.58 163 -59.16 163 -68 163 C-68 171.25 -68 179.5 -68 188 C-82.19 188 -96.38 188 -111 188 C-111 165.56 -111 143.12 -111 120 C-96.81 120 -82.62 120 -68 120 C-68 114.39 -68 108.78 -68 103 C-59.75 103 -51.5 103 -43 103 C-43 83.2 -43 63.4 -43 43 C-28.81 43 -14.62 43 0 43 C0 28.81 0 14.62 0 0 Z " fill="#EBF9FE" transform="translate(769,385)"/>
<path d="M0 0 C47.85 0 95.7 0 145 0 C145 5.61 145 11.22 145 17 C125.2 17 105.4 17 85 17 C85 31.19 85 45.38 85 60 C76.75 60 68.5 60 60 60 C60 68.58 60 77.16 60 86 C45.81 86 31.62 86 17 86 C17 99.86 17 113.72 17 128 C11.39 128 5.78 128 0 128 C0 85.76 0 43.52 0 0 Z " fill="#F9FDFE" transform="translate(812,257)"/>
<path d="M0 0 C36.63 0 73.26 0 111 0 C111 14.19 111 28.38 111 43 C82.62 43 54.24 43 25 43 C25 56.86 25 70.72 25 85 C2.89 85 -19.22 85 -42 85 C-42 71.47 -42 57.94 -42 44 C-28.14 44 -14.28 44 0 44 C0 29.48 0 14.96 0 0 Z " fill="#8DCBFE" transform="translate(171,103)"/>
<path d="M0 0 C14.19 0 28.38 0 43 0 C43 56.43 43 112.86 43 171 C28.81 171 14.62 171 0 171 C0 114.57 0 58.14 0 0 Z " fill="#DDF7FE" transform="translate(427,548)"/>
<path d="M0 0 C42.24 0 84.48 0 128 0 C128 14.19 128 28.38 128 43 C105.56 43 83.12 43 60 43 C60 56.86 60 70.72 60 85 C45.81 85 31.62 85 17 85 C17 71.14 17 57.28 17 43 C11.39 43 5.78 43 0 43 C0 28.81 0 14.62 0 0 Z " fill="#F9FDFE" transform="translate(282,103)"/>
<path d="M0 0 C14.19 0 28.38 0 43 0 C43 42.24 43 84.48 43 128 C28.81 128 14.62 128 0 128 C0 142.19 0 156.38 0 171 C-5.61 171 -11.22 171 -17 171 C-17 137.01 -17 103.02 -17 68 C-11.39 68 -5.78 68 0 68 C0 45.56 0 23.12 0 0 Z " fill="#DDA8FF" transform="translate(487,548)"/>
<path d="M0 0 C14.19 0 28.38 0 43 0 C43 53.79 43 107.58 43 163 C28.81 163 14.62 163 0 163 C0 109.21 0 55.42 0 0 Z " fill="#AF94FF" transform="translate(487,385)"/>
<path d="M0 0 C8.58 0 17.16 0 26 0 C26 22.44 26 44.88 26 68 C45.47 68 64.94 68 85 68 C85 82.19 85 96.38 85 111 C56.95 111 28.9 111 0 111 C0 96.81 0 82.62 0 68 C-14.19 68 -28.38 68 -43 68 C-43 59.75 -43 51.5 -43 43 C-48.61 43 -54.22 43 -60 43 C-60 42.67 -60 42.34 -60 42 C-40.2 42 -20.4 42 0 42 C0 28.14 0 14.28 0 0 Z " fill="#A1E5F6" transform="translate(342,146)"/>
<path d="M0 0 C14.19 0 28.38 0 43 0 C43 14.19 43 28.38 43 43 C29.14 43 15.28 43 1 43 C1.03955825 51.4665847 1.03955825 51.4665847 1.09008789 59.93310547 C1.09383423 61.50922607 1.09383423 61.50922607 1.09765625 63.1171875 C1.10289307 64.19597168 1.10812988 65.27475586 1.11352539 66.38623047 C1 69 1 69 0 71 C-4.95 71 -9.9 71 -15 71 C-15 84.53 -15 98.06 -15 112 C-18.43604765 113.71802382 -22.38438896 113.1196618 -26.1640625 113.09765625 C-27.07127045 113.0962413 -27.97847839 113.09482635 -28.91317749 113.09336853 C-31.81715155 113.08776096 -34.72104915 113.07520718 -37.625 113.0625 C-39.59114472 113.05748598 -41.55729065 113.0529229 -43.5234375 113.04882812 C-48.3489879 113.03778906 -53.17448097 113.02051935 -58 113 C-57.98839844 114.07121094 -57.97679687 115.14242187 -57.96484375 116.24609375 C-57.95546701 117.64322743 -57.94636669 119.04036299 -57.9375 120.4375 C-57.92912109 121.14455078 -57.92074219 121.85160156 -57.91210938 122.58007812 C-57.90346412 124.38693559 -57.94779989 126.19387603 -58 128 C-59 129 -59 129 -62.87719727 129.11352539 C-64.60694166 129.11327423 -66.33669105 129.10771043 -68.06640625 129.09765625 C-68.8713855 129.09664917 -69.67636475 129.09564209 -70.5057373 129.09460449 C-73.52467261 129.08935614 -76.54358767 129.075395 -79.5625 129.0625 C-89.6790625 129.0315625 -89.6790625 129.0315625 -100 129 C-100 142.86 -100 156.72 -100 171 C-103.09764653 172.03254884 -105.26148787 172.12908904 -108.5078125 172.1328125 C-109.57644531 172.13410156 -110.64507813 172.13539063 -111.74609375 172.13671875 C-112.86113281 172.13285156 -113.97617187 172.12898437 -115.125 172.125 C-116.24777344 172.12886719 -117.37054687 172.13273438 -118.52734375 172.13671875 C-120.12642578 172.13478516 -120.12642578 172.13478516 -121.7578125 172.1328125 C-122.7389502 172.13168457 -123.72008789 172.13055664 -124.73095703 172.12939453 C-127 172 -127 172 -128 171 C-128.09268999 169.64905018 -128.11747326 168.29332909 -128.11352539 166.93920898 C-128.11344986 166.07839218 -128.11337433 165.21757538 -128.11329651 164.33067322 C-128.10813522 163.39526199 -128.10297394 162.45985077 -128.09765625 161.49609375 C-128.0962413 160.54307877 -128.09482635 159.59006378 -128.09336853 158.60816956 C-128.08775152 155.55124835 -128.07519616 152.49439923 -128.0625 149.4375 C-128.05748719 147.37044376 -128.05292391 145.30338638 -128.04882812 143.23632812 C-128.03862558 138.15750167 -128.01905356 133.07883194 -128 128 C-119.75 128 -111.5 128 -103 128 C-103 122.39 -103 116.78 -103 111 C-88.81 111 -74.62 111 -60 111 C-60 96.81 -60 82.62 -60 68 C-45.81 68 -31.62 68 -17 68 C-17 59.75 -17 51.5 -17 43 C-11.39 43 -5.78 43 0 43 C0 28.81 0 14.62 0 0 Z " fill="#495AAA" transform="translate(829,505)"/>
<path d="M0 0 C33.99 0 67.98 0 103 0 C103 28.38 103 56.76 103 86 C88.81 86 74.62 86 60 86 C60 71.81 60 57.62 60 43 C40.2 43 20.4 43 0 43 C0 28.81 0 14.62 0 0 Z " fill="#F9FDFE" transform="translate(598,103)"/>
<path d="M0 0 C14.19 0 28.38 0 43 0 C43 42.24 43 84.48 43 128 C28.81 128 14.62 128 0 128 C0 85.76 0 43.52 0 0 Z " fill="#DEF7FF" transform="translate(530,548)"/>
<path d="M0 0 C42.24 0 84.48 0 128 0 C128 14.19 128 28.38 128 43 C85.76 43 43.52 43 0 43 C0 28.81 0 14.62 0 0 Z " fill="#BDACFB" transform="translate(701,103)"/>
<path d="M0 0 C5.61 0 11.22 0 17 0 C17 19.8 17 39.6 17 60 C11.39 60 5.78 60 0 60 C0 74.19 0 88.38 0 103 C-13.86 103 -27.72 103 -42 103 C-42 125.11 -42 147.22 -42 170 C-28.14 170 -14.28 170 0 170 C0 170.33 0 170.66 0 171 C-14.19 171 -28.38 171 -43 171 C-43 162.75 -43 154.5 -43 146 C-51.25 146 -59.5 146 -68 146 C-68 131.81 -68 117.62 -68 103 C-59.75 103 -51.5 103 -43 103 C-43 83.2 -43 63.4 -43 43 C-28.81 43 -14.62 43 0 43 C0 28.81 0 14.62 0 0 Z " fill="#DDF6FE" transform="translate(641,573)"/>
<path d="M0 0 C13.86 0 27.72 0 42 0 C42.7826975 26.22036637 43.09159396 52.39679716 43.0625 78.625 C43.06121597 79.7907682 43.06121597 79.7907682 43.05990601 80.98008728 C43.04846444 90.65342553 43.0253819 100.32667744 43 110 C28.81 110 14.62 110 0 110 C0 73.7 0 37.4 0 0 Z " fill="#AF93FF" transform="translate(530,275)"/>
<path d="M0 0 C19.8 0 39.6 0 60 0 C60 5.61 60 11.22 60 17 C45.81 17 31.62 17 17 17 C17 31.19 17 45.38 17 60 C11.39 60 5.78 60 0 60 C0 68.25 0 76.5 0 85 C-14.19 85 -28.38 85 -43 85 C-43 62.56 -43 40.12 -43 17 C-28.81 17 -14.62 17 0 17 C0 11.39 0 5.78 0 0 Z " fill="#D7CCFE" transform="translate(812,488)"/>
<path d="M0 0 C8.25 0 16.5 0 25 0 C25 8.58 25 17.16 25 26 C39.19 26 53.38 26 68 26 C68 39.86 68 53.72 68 68 C82.19 68 96.38 68 111 68 C111 73.61 111 79.22 111 85 C116.61 85 122.22 85 128 85 C128.02464513 91.1055471 128.04283371 97.21106551 128.05493164 103.31665039 C128.05997288 105.39543156 128.06680574 107.47420916 128.07543945 109.55297852 C128.08751422 112.53402586 128.09323024 115.51502649 128.09765625 118.49609375 C128.10281754 119.43150497 128.10797882 120.3669162 128.11329651 121.33067322 C128.11337204 122.19149002 128.11344757 123.05230682 128.11352539 123.93920898 C128.115746 124.70087875 128.11796661 125.46254852 128.12025452 126.24729919 C128 128 128 128 127 129 C124.34346557 129.10002455 121.71870728 129.13877463 119.0625 129.125 C118.32064453 129.12886719 117.57878906 129.13273438 116.81445312 129.13671875 C111.25327002 129.12663501 111.25327002 129.12663501 109 128 C109 114.47 109 100.94 109 87 C104.46958984 86.90912109 104.46958984 86.90912109 99.84765625 86.81640625 C96.93527592 86.7546683 94.02293647 86.69125932 91.1105957 86.62768555 C89.08035896 86.58426759 87.05008408 86.54259774 85.01977539 86.50268555 C82.10811849 86.44514854 79.19665486 86.38140722 76.28515625 86.31640625 C75.3716188 86.29969376 74.45808136 86.28298126 73.51686096 86.26576233 C67.11387171 86.11387171 67.11387171 86.11387171 66 85 C65.92686433 82.46950598 65.90752473 79.96695163 65.9375 77.4375 C65.94201172 76.72658203 65.94652344 76.01566406 65.95117188 75.28320312 C65.96299136 73.52209987 65.98092737 71.76103964 66 70 C64.20598755 70.01571045 64.20598755 70.01571045 62.37573242 70.03173828 C57.94216907 70.06791405 53.50861879 70.09089166 49.07495117 70.10986328 C47.15533251 70.11992639 45.23572919 70.13357816 43.31616211 70.15087891 C40.55839248 70.17511364 37.80082536 70.18647992 35.04296875 70.1953125 C34.18350143 70.20563507 33.32403412 70.21595764 32.43852234 70.22659302 C31.23761711 70.22681961 31.23761711 70.22681961 30.01245117 70.22705078 C28.95655037 70.23371262 28.95655037 70.23371262 27.87931824 70.24050903 C26 70 26 70 23 68 C22.733513 64.94924916 22.65242854 62.10373821 22.70703125 59.0546875 C22.71127609 58.1696756 22.71552094 57.2846637 22.71989441 56.37283325 C22.73671741 53.53991555 22.77437575 50.70770348 22.8125 47.875 C22.82754218 45.95704151 22.84123139 44.03907189 22.85351562 42.12109375 C22.88408396 37.41357048 22.94279722 32.70757709 23 28 C15.41 28 7.82 28 0 28 C0 18.76 0 9.52 0 0 Z " fill="#4858A7" transform="translate(171,548)"/>
<path d="M0 0 C8.25 0 16.5 0 25 0 C25 50.82 25 101.64 25 154 C16.75 154 8.5 154 0 154 C0 103.18 0 52.36 0 0 Z " fill="#BFE2FE" transform="translate(43,274)"/>
<path d="M0 0 C13.86 0 27.72 0 42 0 C42 28.05 42 56.1 42 85 C28.14 85 14.28 85 0 85 C0 56.95 0 28.9 0 0 Z " fill="#DDF7FE" transform="translate(197,343)"/>
<path d="M0 0 C36.63 0 73.26 0 111 0 C111 14.19 111 28.38 111 43 C96.81 43 82.62 43 68 43 C68 48.61 68 54.22 68 60 C59.75 60 51.5 60 43 60 C43 40.53 43 21.06 43 1 C28.81 1 14.62 1 0 1 C0 0.67 0 0.34 0 0 Z " fill="#D7CCFE" transform="translate(658,573)"/>
<path d="M0 0 C5.61 0 11.22 0 17 0 C17 14.19 17 28.38 17 43 C31.19 43 45.38 43 60 43 C60 51.58 60 60.16 60 69 C45.81 69 31.62 69 17 69 C17 82.86 17 96.72 17 111 C11.39 111 5.78 111 0 111 C0 74.37 0 37.74 0 0 Z " fill="#DDF6FE" transform="translate(812,274)"/>
<path d="M0 0 C8.25 0 16.5 0 25 0 C25 39.6 25 79.2 25 120 C16.75 120 8.5 120 0 120 C0 80.4 0 40.8 0 0 Z " fill="#F9FDFF" transform="translate(573,428)"/>
<path d="M0 0 C5.28 0 10.56 0 16 0 C16 22.44 16 44.88 16 68 C-3.8 68 -23.6 68 -44 68 C-44 53.81 -44 39.62 -44 25 C-29.48 25 -14.96 25 0 25 C0 16.75 0 8.5 0 0 Z " fill="#8DCAFD" transform="translate(112,189)"/>
<path d="M0 0 C14.19 0 28.38 0 43 0 C43 22.77 43 45.54 43 69 C28.81 69 14.62 69 0 69 C0 46.23 0 23.46 0 0 Z " fill="#DEF7FF" transform="translate(487,676)"/>
<path d="M0 0 C13.86 0 27.72 0 42 0 C42 22.44 42 44.88 42 68 C28.14 68 14.28 68 0 68 C0 45.56 0 23.12 0 0 Z " fill="#F9FDFE" transform="translate(368,676)"/>
<path d="M0 0 C13.86 0 27.72 0 42 0 C42 22.44 42 44.88 42 68 C28.14 68 14.28 68 0 68 C0 45.56 0 23.12 0 0 Z " fill="#DDF7FE" transform="translate(368,317)"/>
<path d="M0 0 C5.61 0 11.22 0 17 0 C17 53.79 17 107.58 17 163 C11.39 163 5.78 163 0 163 C0 109.21 0 55.42 0 0 Z " fill="#DCF7FE" transform="translate(410,385)"/>
<path d="M0 0 C14.19 0 28.38 0 43 0 C43 14.19 43 28.38 43 43 C51.25 43 59.5 43 68 43 C68.13663941 65.68214224 67.60451885 88.32732752 67 111 C66.67 111 66.34 111 66 111 C66 97.8 66 84.6 66 71 C58.52042587 71.11865397 58.52042587 71.11865397 51.04150391 71.27026367 C50.11257324 71.27775635 49.18364258 71.28524902 48.2265625 71.29296875 C47.27346191 71.3086792 46.32036133 71.32438965 45.33837891 71.34057617 C44.56671387 71.22818604 43.79504883 71.1157959 43 71 C40.73401552 67.60102327 40.76257346 66.43680827 40.8046875 62.45703125 C40.80968262 61.48999268 40.81467773 60.5229541 40.81982422 59.52661133 C40.83803223 58.30095459 40.85624023 57.07529785 40.875 55.8125 C40.91625 51.914375 40.9575 48.01625 41 44 C27.47 44 13.94 44 0 44 C0 29.48 0 14.96 0 0 Z " fill="#4858A9" transform="translate(299,676)"/>
<path d="M0 0 C14.19 0 28.38 0 43 0 C43 33.66 43 67.32 43 102 C42.67 102 42.34 102 42 102 C42 87.81 42 73.62 42 59 C28.14 59 14.28 59 0 59 C0 39.53 0 20.06 0 0 Z " fill="#BEADFB" transform="translate(658,574)"/>
<path d="M0 0 C19.47 0 38.94 0 59 0 C59 14.19 59 28.38 59 43 C39.53 43 20.06 43 0 43 C0 28.81 0 14.62 0 0 Z " fill="#D7CCFE" transform="translate(641,633)"/>
<path d="M0 0 C14.19 0 28.38 0 43 0 C43 19.47 43 38.94 43 59 C28.81 59 14.62 59 0 59 C0 39.53 0 20.06 0 0 Z " fill="#BFE2FE" transform="translate(299,617)"/>
<path d="M0 0 C13.86 0 27.72 0 42 0 C42 19.8 42 39.6 42 60 C28.14 60 14.28 60 0 60 C0 40.2 0 20.4 0 0 Z " fill="#F9FDFE" transform="translate(240,428)"/>
<path d="M0 0 C33.99 0 67.98 0 103 0 C103 28.38 103 56.76 103 86 C88.81 86 74.62 86 60 86 C60 85.67 60 85.34 60 85 C73.86 85 87.72 85 102 85 C102 57.28 102 29.56 102 1 C82.53 1 63.06 1 43 1 C43 14.86 43 28.72 43 43 C28.81 43 14.62 43 0 43 C0 28.81 0 14.62 0 0 Z " fill="#DEF4FD" transform="translate(598,103)"/>
<path d="M0 0 C62.04 0 124.08 0 188 0 C188 0.33 188 0.66 188 1 C165.56 1 143.12 1 120 1 C120 14.86 120 28.72 120 43 C105.81 43 91.62 43 77 43 C77 29.14 77 15.28 77 1 C51.59 1 26.18 1 0 1 C0 0.67 0 0.34 0 0 Z " fill="#AD95FC" transform="translate(410,103)"/>
<path d="M0 0 C42.24 0 84.48 0 128 0 C128 14.19 128 28.38 128 43 C105.56 43 83.12 43 60 43 C60 42.67 60 42.34 60 42 C68.25 42 76.5 42 85 42 C85 28.47 85 14.94 85 1 C56.95 1 28.9 1 0 1 C0 0.67 0 0.34 0 0 Z " fill="#DCF5FD" transform="translate(282,103)"/>
<path d="M0 0 C14.19 0 28.38 0 43 0 C43 14.19 43 28.38 43 43 C28.81 43 14.62 43 0 43 C0 28.81 0 14.62 0 0 Z " fill="#4A5AAA" transform="translate(128,505)"/>
<path d="M0 0 C14.19 0 28.38 0 43 0 C43 14.19 43 28.38 43 43 C28.81 43 14.62 43 0 43 C0 28.81 0 14.62 0 0 Z " fill="#DEF7FF" transform="translate(658,274)"/>
<path d="M0 0 C14.19 0 28.38 0 43 0 C43 14.19 43 28.38 43 43 C28.81 43 14.62 43 0 43 C0 28.81 0 14.62 0 0 Z " fill="#AF94FF" transform="translate(598,214)"/>
<path d="M0 0 C14.19 0 28.38 0 43 0 C43 14.19 43 28.38 43 43 C28.81 43 14.62 43 0 43 C0 28.81 0 14.62 0 0 Z " fill="#BDACFB" transform="translate(829,146)"/>
<path d="M0 0 C14.19 0 28.38 0 43 0 C43 14.19 43 28.38 43 43 C28.81 43 14.62 43 0 43 C0 28.81 0 14.62 0 0 Z " fill="#AF94FF" transform="translate(530,146)"/>
<path d="M0 0 C13.86 0 27.72 0 42 0 C42 14.19 42 28.38 42 43 C28.14 43 14.28 43 0 43 C0 28.81 0 14.62 0 0 Z " fill="#BFE2FE" transform="translate(240,573)"/>
<path d="M0 0 C13.86 0 27.72 0 42 0 C42 14.19 42 28.38 42 43 C28.14 43 14.28 43 0 43 C0 28.81 0 14.62 0 0 Z " fill="#DDF7FE" transform="translate(197,274)"/>
<path d="M0 0 C13.86 0 27.72 0 42 0 C42 13.86 42 27.72 42 42 C28.14 42 14.28 42 0 42 C0 28.14 0 14.28 0 0 Z " fill="#F9FDFE" transform="translate(727,445)"/>
<path d="M0 0 C13.86 0 27.72 0 42 0 C42 13.86 42 27.72 42 42 C28.14 42 14.28 42 0 42 C0 28.14 0 14.28 0 0 Z " fill="#BDACFB" transform="translate(898,215)"/>
<path d="M0 0 C0.99 0.495 0.99 0.495 2 1 C2 14.53 2 28.06 2 42 C15.44814005 41.96039484 15.44814005 41.96039484 28.89624023 41.90991211 C30.57535743 41.906993 32.25447533 41.90444443 33.93359375 41.90234375 C34.81374146 41.89722778 35.69388916 41.89211182 36.60070801 41.88684082 C38.73413879 41.88653104 40.86748314 41.93755933 43 42 C44 43 44 43 44.11352539 45.40844727 C44.10828857 46.45057373 44.10305176 47.4927002 44.09765625 48.56640625 C44.09443359 49.69111328 44.09121094 50.81582031 44.08789062 51.97460938 C44.07532227 53.75061523 44.07532227 53.75061523 44.0625 55.5625 C44.05798828 56.75037109 44.05347656 57.93824219 44.04882812 59.16210938 C44.03699686 62.10809412 44.01906076 65.05405316 44 68 C48.95 68 53.9 68 59 68 C59 68.33 59 68.66 59 69 C46.1185914 70.11330848 33.4125683 69.93962866 20.5 69.5625 C13.735 69.376875 6.97 69.19125 0 69 C0 46.23 0 23.46 0 0 Z " fill="#4154A6" transform="translate(898,145)"/>
<path d="M0 0 C5.28 0 10.56 0 16 0 C16 25.41 16 50.82 16 77 C10.72 77 5.44 77 0 77 C0 51.59 0 26.18 0 0 Z " fill="#F9FDFE" transform="translate(411,428)"/>
<path d="M0 0 C9.24 0 18.48 0 28 0 C28 13.86 28 27.72 28 42 C24.90235347 43.03254884 22.73851213 43.12908904 19.4921875 43.1328125 C18.42355469 43.13410156 17.35492187 43.13539063 16.25390625 43.13671875 C15.13886719 43.13285156 14.02382813 43.12898437 12.875 43.125 C11.75222656 43.12886719 10.62945313 43.13273438 9.47265625 43.13671875 C7.87357422 43.13478516 7.87357422 43.13478516 6.2421875 43.1328125 C5.2610498 43.13168457 4.27991211 43.13055664 3.26904297 43.12939453 C1 43 1 43 0 42 C-0.08874135 38.89748799 -0.11518455 35.8173188 -0.09765625 32.71484375 C-0.0962413 31.78402481 -0.09482635 30.85320587 -0.09336853 29.8941803 C-0.08775172 26.90858809 -0.0751964 23.92306971 -0.0625 20.9375 C-0.05748716 18.91862087 -0.05292388 16.89974057 -0.04882812 14.88085938 C-0.03862587 9.92052129 -0.01905382 4.9603437 0 0 Z " fill="#4352A0" transform="translate(701,634)"/>
<path d="M0 0 C5.61 0 11.22 0 17 0 C17 22.44 17 44.88 17 68 C11.39 68 5.78 68 0 68 C0 45.56 0 23.12 0 0 Z " fill="#AF94FF" transform="translate(470,548)"/>
<path d="M0 0 C22.44 0 44.88 0 68 0 C68 5.61 68 11.22 68 17 C45.56 17 23.12 17 0 17 C0 11.39 0 5.78 0 0 Z " fill="#DDF7FE" transform="translate(43,257)"/>
<path d="M0 0 C8.58 0 17.16 0 26 0 C26 14.19 26 28.38 26 43 C17.42 43 8.84 43 0 43 C0 28.81 0 14.62 0 0 Z " fill="#BEE1FE" transform="translate(171,505)"/>
<path d="M0 0 C8.58 0 17.16 0 26 0 C26 14.19 26 28.38 26 43 C17.42 43 8.84 43 0 43 C0 28.81 0 14.62 0 0 Z " fill="#DDF7FE" transform="translate(342,274)"/>
<path d="M0 0 C14.19 0 28.38 0 43 0 C43 8.58 43 17.16 43 26 C37.0368177 26.02290595 31.07378689 26.04283396 25.1105957 26.05493164 C23.08031702 26.05997278 21.05004198 26.06680557 19.01977539 26.07543945 C16.10822653 26.08751467 13.1967255 26.09323034 10.28515625 26.09765625 C8.91485008 26.10539818 8.91485008 26.10539818 7.51686096 26.11329651 C5.34424573 26.11349168 3.17172704 26.06211805 1 26 C0 25 0 25 -0.11352539 22.59155273 C-0.10828857 21.54942627 -0.10305176 20.5072998 -0.09765625 19.43359375 C-0.09515869 18.42095459 -0.09266113 17.40831543 -0.09008789 16.36499023 C-0.08098389 15.06891846 -0.07187988 13.77284668 -0.0625 12.4375 C-0.041875 8.333125 -0.02125 4.22875 0 0 Z " fill="#F8FDFE" transform="translate(299,548)"/>
<path d="M0 0 C8.25 0 16.5 0 25 0 C25 14.19 25 28.38 25 43 C16.75 43 8.5 43 0 43 C0 28.81 0 14.62 0 0 Z " fill="#BFE2FE" transform="translate(342,676)"/>
<path d="M0 0 C14.19 0 28.38 0 43 0 C43 8.25 43 16.5 43 25 C28.81 25 14.62 25 0 25 C0 16.75 0 8.5 0 0 Z " fill="#DDF7FE" transform="translate(658,548)"/>
<path d="M0 0 C8.25 0 16.5 0 25 0 C25 14.19 25 28.38 25 43 C16.75 43 8.5 43 0 43 C0 28.81 0 14.62 0 0 Z " fill="#DDF7FF" transform="translate(573,505)"/>
<path d="M0 0 C8.25 0 16.5 0 25 0 C25 14.19 25 28.38 25 43 C16.75 43 8.5 43 0 43 C0 28.81 0 14.62 0 0 Z " fill="#DDF7FE" transform="translate(872,274)"/>
<path d="M0 0 C8.25 0 16.5 0 25 0 C25 14.19 25 28.38 25 43 C16.75 43 8.5 43 0 43 C0 28.81 0 14.62 0 0 Z " fill="#DEF7FF" transform="translate(573,274)"/>
<path d="M0 0 C14.19 0 28.38 0 43 0 C43 8.25 43 16.5 43 25 C28.81 25 14.62 25 0 25 C0 16.75 0 8.5 0 0 Z " fill="#EB94FE" transform="translate(658,189)"/>
<path d="M0 0 C13.86 0 27.72 0 42 0 C42 8.25 42 16.5 42 25 C28.14 25 14.28 25 0 25 C0 16.75 0 8.5 0 0 Z " fill="#C0E3FE" transform="translate(197,548)"/>
<path d="M0 0 C8.25 0 16.5 0 25 0 C25 13.86 25 27.72 25 42 C16.75 42 8.5 42 0 42 C0 28.14 0 14.28 0 0 Z " fill="#D7CCFE" transform="translate(872,445)"/>
<path d="M0 0 C5.61 0 11.22 0 17 0 C17 19.8 17 39.6 17 60 C11.39 60 5.78 60 0 60 C0 40.2 0 20.4 0 0 Z " fill="#F8FDFE" transform="translate(282,488)"/>
<path d="M0 0 C19.8 0 39.6 0 60 0 C60 5.61 60 11.22 60 17 C40.2 17 20.4 17 0 17 C0 11.39 0 5.78 0 0 Z " fill="#DDF7FF" transform="translate(470,257)"/>
<path d="M0 0 C14.19 0 28.38 0 43 0 C43 0.33 43 0.66 43 1 C29.14 1 15.28 1 1 1 C1 20.8 1 40.6 1 61 C-21.77 61 -44.54 61 -68 61 C-68 60.67 -68 60.34 -68 60 C-59.75 60 -51.5 60 -43 60 C-43 54.39 -43 48.78 -43 43 C-28.81 43 -14.62 43 0 43 C0 28.81 0 14.62 0 0 Z " fill="#5361AF" transform="translate(769,573)"/>
<path d="M0 0 C13.86 0 27.72 0 42 0 C42 19.8 42 39.6 42 60 C28.14 60 14.28 60 0 60 C0 59.67 0 59.34 0 59 C13.53 59 27.06 59 41 59 C41 45.47 41 31.94 41 18 C27.47 18 13.94 18 0 18 C0 12.06 0 6.12 0 0 Z " fill="#DFF7FE" transform="translate(240,428)"/>
<path d="M0 0 C14.19 0 28.38 0 43 0 C43 5.61 43 11.22 43 17 C48.61 17 54.22 17 60 17 C60 17.33 60 17.66 60 18 C40.2 18 20.4 18 0 18 C0 12.06 0 6.12 0 0 Z " fill="#4D5DAC" transform="translate(239,616)"/>
<path d="M0 0 C5.61 0 11.22 0 17 0 C17 13.86 17 27.72 17 42 C31.19 42 45.38 42 60 42 C60 42.33 60 42.66 60 43 C40.2 43 20.4 43 0 43 C0 28.81 0 14.62 0 0 Z " fill="#DCF6FF" transform="translate(111,274)"/>
<path d="M0 0 C1.5631897 0.00785522 1.5631897 0.00785522 3.15795898 0.01586914 C4.28266602 0.0190918 5.40737305 0.02231445 6.56616211 0.02563477 C7.75016602 0.03401367 8.93416992 0.04239258 10.15405273 0.05102539 C11.34192383 0.05553711 12.52979492 0.06004883 13.75366211 0.06469727 C16.69967499 0.07652864 19.64558954 0.09301252 22.59155273 0.11352539 C22.80076381 22.7920065 22.19595911 45.44507127 21.59155273 68.11352539 C21.26155273 68.11352539 20.93155273 68.11352539 20.59155273 68.11352539 C20.59155273 54.91352539 20.59155273 41.71352539 20.59155273 28.11352539 C13.00155273 28.11352539 5.41155273 28.11352539 -2.40844727 28.11352539 C-3.73258816 25.4652436 -3.53801768 23.44672427 -3.54125977 20.48461914 C-3.54254883 19.36764648 -3.54383789 18.25067383 -3.54516602 17.09985352 C-3.54129883 15.92874023 -3.53743164 14.75762695 -3.53344727 13.55102539 C-3.53731445 12.37604492 -3.54118164 11.20106445 -3.54516602 9.99047852 C-3.54387695 8.87479492 -3.54258789 7.75911133 -3.54125977 6.60961914 C-3.54013184 5.58022217 -3.53900391 4.5508252 -3.5378418 3.49023438 C-3.36227579 0.26545114 -3.22906241 0.15220619 0 0 Z " fill="#41509B" transform="translate(344.408447265625,718.886474609375)"/>
<path d="M0 0 C5.61 0 11.22 0 17 0 C17 14.19 17 28.38 17 43 C11.39 43 5.78 43 0 43 C0 28.81 0 14.62 0 0 Z " fill="#BEADFB" transform="translate(641,633)"/>
<path d="M0 0 C14.19 0 28.38 0 43 0 C43 5.28 43 10.56 43 16 C29.14 16 15.28 16 1 16 C1 30.19 1 44.38 1 59 C0.67 59 0.34 59 0 59 C0 39.53 0 20.06 0 0 Z " fill="#8FCBFE" transform="translate(299,617)"/>
<path d="M0 0 C14.19 0 28.38 0 43 0 C43 5.61 43 11.22 43 17 C28.81 17 14.62 17 0 17 C0 11.39 0 5.78 0 0 Z " fill="#BEE1FE" transform="translate(128,488)"/>
<path d="M0 0 C5.61 0 11.22 0 17 0 C17 14.19 17 28.38 17 43 C11.39 43 5.78 43 0 43 C0 28.81 0 14.62 0 0 Z " fill="#D7CBFE" transform="translate(940,385)"/>
<path d="M0 0 C5.61 0 11.22 0 17 0 C17 14.19 17 28.38 17 43 C11.39 43 5.78 43 0 43 C0 28.81 0 14.62 0 0 Z " fill="#DEF7FF" transform="translate(410,274)"/>
<path d="M0 0 C5.61 0 11.22 0 17 0 C17 14.19 17 28.38 17 43 C11.39 43 5.78 43 0 43 C0 28.81 0 14.62 0 0 Z " fill="#EB95FF" transform="translate(641,146)"/>
<path d="M0 0 C13.86 0 27.72 0 42 0 C42 5.61 42 11.22 42 17 C28.14 17 14.28 17 0 17 C0 11.39 0 5.78 0 0 Z " fill="#D7CCFE" transform="translate(898,428)"/>
<path d="M0 0 C13.86 0 27.72 0 42 0 C42 5.61 42 11.22 42 17 C28.14 17 14.28 17 0 17 C0 11.39 0 5.78 0 0 Z " fill="#BFE2FE" transform="translate(69,428)"/>
<path d="M0 0 C14.19 0 28.38 0 43 0 C43 0.33 43 0.66 43 1 C29.14 1 15.28 1 1 1 C1 20.8 1 40.6 1 61 C-55.76 61 -112.52 61 -171 61 C-171 60.67 -171 60.34 -171 60 C-122.82 60 -74.64 60 -25 60 C-25 54.39 -25 48.78 -25 43 C-16.75 43 -8.5 43 0 43 C0 28.81 0 14.62 0 0 Z " fill="#5C6BB3" transform="translate(598,744)"/>
<path d="M0 0 C5.28 0 10.56 0 16 0 C16 13.86 16 27.72 16 42 C10.72 42 5.44 42 0 42 C0 28.14 0 14.28 0 0 Z " fill="#BFE2FE" transform="translate(112,445)"/>
<path d="M0 0 C8.58 0 17.16 0 26 0 C26 8.25 26 16.5 26 25 C17.42 25 8.84 25 0 25 C0 16.75 0 8.5 0 0 Z " fill="#DCF7FE" transform="translate(171,317)"/>
<path d="M0 0 C8.25 0 16.5 0 25 0 C25 8.25 25 16.5 25 25 C16.75 25 8.5 25 0 25 C0 16.75 0 8.5 0 0 Z " fill="#BEADFB" transform="translate(872,189)"/>
<path d="M0 0 C8.25 0 16.5 0 25 0 C25 8.25 25 16.5 25 25 C16.75 25 8.5 25 0 25 C0 16.75 0 8.5 0 0 Z " fill="#AE93FF" transform="translate(573,189)"/>
<path d="M0 0 C0.33 0 0.66 0 1 0 C1 8.25 1 16.5 1 25 C14.86 25 28.72 25 43 25 C43 16.75 43 8.5 43 0 C48.61 0 54.22 0 60 0 C60 8.58 60 17.16 60 26 C54.72 26 49.44 26 44 26 C44 39.86 44 53.72 44 68 C43.67 68 43.34 68 43 68 C43 54.14 43 40.28 43 26 C28.81 26 14.62 26 0 26 C0 17.42 0 8.84 0 0 Z " fill="#D4EAF7" transform="translate(367,719)"/>
<path d="M0 0 C0.02891546 4.45831982 0.04676981 8.91661569 0.0625 13.375 C0.07087891 14.64601563 0.07925781 15.91703125 0.08789062 17.2265625 C0.09272461 19.04414062 0.09272461 19.04414062 0.09765625 20.8984375 C0.10551147 22.57945557 0.10551147 22.57945557 0.11352539 24.29443359 C0 27 0 27 -1 29 C-5.95 29 -10.9 29 -16 29 C-16 42.53 -16 56.06 -16 70 C-16.33 70 -16.66 70 -17 70 C-17 56.14 -17 42.28 -17 28 C-17.66 27.67 -18.32 27.34 -19 27 C-18.67 18.42 -18.34 9.84 -18 1 C-13.8234375 0.7525 -13.8234375 0.7525 -9.5625 0.5 C-8.68408447 0.44779297 -7.80566895 0.39558594 -6.90063477 0.34179688 C-1.11111111 0 -1.11111111 0 0 0 Z " fill="#4154A1" transform="translate(830,547)"/>
<path d="M0 0 C5.94 0 11.88 0 18 0 C18.02686048 4.29170795 18.04677107 8.58324945 18.0625 12.875 C18.07087891 14.09832031 18.07925781 15.32164062 18.08789062 16.58203125 C18.09272461 18.33193359 18.09272461 18.33193359 18.09765625 20.1171875 C18.10551147 21.73536377 18.10551147 21.73536377 18.11352539 23.38623047 C18 26 18 26 17 28 C12.05 28 7.1 28 2 28 C2 40.87 2 53.74 2 67 C1.67 67 1.34 67 1 67 C1 53.8 1 40.6 1 27 C0.01 26.67 -0.98 26.34 -2 26 C-1.34 26 -0.68 26 0 26 C0 17.42 0 8.84 0 0 Z " fill="#424FA5" transform="translate(641,719)"/>
<path d="M0 0 C8.58 0 17.16 0 26 0 C26.05718255 13.03047257 25.83419443 26.03676744 25.5 39.0625 C25.45163102 41.00845878 25.40345287 42.95442232 25.35546875 44.90039062 C25.23917072 49.60031791 25.12031964 54.30017402 25 59 C24.67 59 24.34 59 24 59 C24 45.47 24 31.94 24 18 C16.47567226 18.03958834 16.47567226 18.03958834 8.95141602 18.09008789 C7.55427368 18.09383423 7.55427368 18.09383423 6.12890625 18.09765625 C5.17056885 18.10289307 4.21223145 18.10812988 3.22485352 18.11352539 C1 18 1 18 0 17 C-0.07330331 14.13530675 -0.09217831 11.30106326 -0.0625 8.4375 C-0.041875 5.653125 -0.02125 2.86875 0 0 Z " fill="#4052A7" transform="translate(42,429)"/>
<path d="M0 0 C5.28 0 10.56 0 16 0 C16 8.25 16 16.5 16 25 C10.72 25 5.44 25 0 25 C0 16.75 0 8.5 0 0 Z " fill="#F9FDFE" transform="translate(283,189)"/>
<path d="M0 0 C0 5.61 0 11.22 0 17 C-6.27 17 -12.54 17 -19 17 C-19 12.05 -19 7.1 -19 2 C-32.53 2 -46.06 2 -60 2 C-60 1.67 -60 1.34 -60 1 C-54.18748132 0.85490891 -48.37490227 0.71263424 -42.56225586 0.57275391 C-40.59283679 0.52498904 -38.62343489 0.47650958 -36.65405273 0.42724609 C-24.43158379 0.12207362 -12.22648935 -0.05389086 0 0 Z " fill="#4256A7" transform="translate(128,488)"/>
<path d="M0 0 C19.8 0 39.6 0 60 0 C60 0.33 60 0.66 60 1 C45.81 1 31.62 1 17 1 C17 6.28 17 11.56 17 17 C11.39 17 5.78 17 0 17 C0 11.39 0 5.78 0 0 Z " fill="#BADFFE" transform="translate(282,616)"/>
<path d="M0 0 C5.61 0 11.22 0 17 0 C17 5.61 17 11.22 17 17 C11.39 17 5.78 17 0 17 C0 11.39 0 5.78 0 0 Z " fill="#DDF7FE" transform="translate(940,257)"/>
<path d="M0 0 C8.58 0 17.16 0 26 0 C26 8.58 26 17.16 26 26 C39.86 26 53.72 26 68 26 C68 26.33 68 26.66 68 27 C54.14 27 40.28 27 26 27 C26 40.86 26 54.72 26 69 C25.67 69 25.34 69 25 69 C25 55.14 25 41.28 25 27 C16.75 27 8.5 27 0 27 C0 26.67 0 26.34 0 26 C8.25 26 16.5 26 25 26 C25 17.75 25 9.5 25 1 C16.75 1 8.5 1 0 1 C0 0.67 0 0.34 0 0 Z " fill="#998FE3" transform="translate(872,188)"/>
<path d="M0 0 C7.92 0 15.84 0 24 0 C25.69439089 3.38878178 24.99513621 7.22807535 24.87890625 10.9453125 C24.85529526 11.8303244 24.83168427 12.7153363 24.80735779 13.62716675 C24.73065076 16.45993817 24.64665678 19.29244104 24.5625 22.125 C24.50928636 24.04295551 24.45654592 25.96092422 24.40429688 27.87890625 C24.27502609 32.58610827 24.1392187 37.29308212 24 42 C23.67 42 23.34 42 23 42 C23 28.8 23 15.6 23 2 C15.41 2 7.82 2 0 2 C0 1.34 0 0.68 0 0 Z " fill="#000125" transform="translate(171,574)"/>
<path d="M0 0 C0.33 0 0.66 0 1 0 C1 13.53 1 27.06 1 41 C0.67 41 0.34 41 0 41 C0 27.47 0 13.94 0 0 Z " fill="#000000" transform="translate(702,678)"/>
<path d="M0 0 C0.33 0 0.66 0 1 0 C1 13.2 1 26.4 1 40 C0.67 40 0.34 40 0 40 C0 26.8 0 13.6 0 0 Z " fill="#000000" transform="translate(297,678)"/>
</svg>
