<svg xmlns="http://www.w3.org/2000/svg" viewBox="0 0 32 32"><title>internet-network-download</title><g><path fill="#000000" d="M28.955 25.9h1.52v3.05h-1.52Z"></path><path fill="#000000" d="M27.435 22.86h1.52v3.04h-1.52Z"></path><path fill="#000000" d="M3.055 28.95v1.53h1.52V32h22.86v-1.52h1.52v-1.53h-25.9z"></path><path fill="#000000" d="M21.335 9.14h4.57v1.53h-4.57Z"></path><path fill="#000000" d="M13.715 25.9h4.57v1.53h-4.57Z"></path><path fill="#000000" d="M13.715 3.05h4.57v1.52h-4.57Z"></path><path fill="#000000" d="M13.715 0h4.57v1.52h-4.57Z"></path><path fill="#000000" d="M13.715 13.71h-3.05v1.53h1.53v1.52h1.52v1.52h1.53v1.53h1.52v-1.53h1.52v-1.52h1.53v-1.52h1.52v-1.53h-3.05V6.09h-4.57v7.62z"></path><path fill="#000000" d="M6.095 9.14h4.57v1.53h-4.57Z"></path><path fill="#000000" d="M27.435 22.86V10.67h-1.53v10.66H6.095V10.67h-1.52v12.19h22.86z"></path><path fill="#000000" d="M3.055 22.86h1.52v3.04h-1.52Z"></path><path fill="#000000" d="M1.525 25.9h1.53v3.05h-1.53Z"></path></g></svg>