<svg xmlns="http://www.w3.org/2000/svg" viewBox="0 0 32 32"><title>internet-network-cloud-error</title><g><path fill="#000000" d="M30.47 16.005H32v6.09h-1.53Z"></path><path fill="#000000" d="M28.95 22.095h1.52v1.53h-1.52Z"></path><path fill="#000000" d="M28.95 14.475h1.52v1.53h-1.52Z"></path><path fill="#000000" d="M27.43 23.625h1.52v1.52h-1.52Z"></path><path fill="#000000" d="M27.43 12.955h1.52v1.52h-1.52Z"></path><path fill="#000000" d="M3.05 25.145h24.38v1.52H3.05Z"></path><path fill="#000000" d="M24.38 11.435h3.05v1.52h-3.05Z"></path><path fill="#000000" d="M22.85 9.905h1.53v1.53h-1.53Z"></path><path fill="#000000" d="M21.33 17.525h1.52v1.52h-1.52Z"></path><path fill="#000000" d="M21.33 14.475h1.52v1.53h-1.52Z"></path><path fill="#000000" d="M21.33 8.385h1.52v1.52h-1.52Z"></path><path fill="#000000" d="M19.81 16.005h1.52v1.52h-1.52Z"></path><path fill="#000000" d="M18.28 17.525h1.53v1.52h-1.53Z"></path><path fill="#000000" d="M18.28 14.475h1.53v1.53h-1.53Z"></path><path fill="#000000" d="M18.28 6.855h3.05v1.53h-3.05Z"></path><path fill="#000000" d="M13.71 22.095h3.05v1.53h3.05v-3.05h-6.1v1.52z"></path><path fill="#000000" d="M13.71 5.335h4.57v1.52h-4.57Z"></path><path fill="#000000" d="M12.19 17.525h1.52v1.52h-1.52Z"></path><path fill="#000000" d="M12.19 14.475h1.52v1.53h-1.52Z"></path><path fill="#000000" d="M10.66 6.855h3.05v1.53h-3.05Z"></path><path fill="#000000" d="M10.66 16.005h1.53v1.52h-1.53Z"></path><path fill="#000000" d="M9.14 17.525h1.52v1.52H9.14Z"></path><path fill="#000000" d="M9.14 14.475h1.52v1.53H9.14Z"></path><path fill="#000000" d="M9.14 8.385h1.52v1.52H9.14Z"></path><path fill="#000000" d="M7.62 9.905h1.52v3.05H7.62Z"></path><path fill="#000000" d="M3.05 12.955h4.57v1.52H3.05Z"></path><path fill="#000000" d="M1.52 23.625h1.53v1.52H1.52Z"></path><path fill="#000000" d="M1.52 14.475h1.53v1.53H1.52Z"></path><path fill="#000000" d="M0 16.005h1.52v7.62H0Z"></path></g></svg>