<svg xmlns="http://www.w3.org/2000/svg" viewBox="0 0 32 32"><title>photography-file-picture</title><g><path d="M27.425 6.09h-1.52V4.57h-1.52V3.04h-1.53V1.52h-1.52V0H3.045v32h25.91V7.62h-1.53Zm0 24.38H4.575V1.52h15.23v7.62h7.62Z" fill="#000000"></path><path fill="#000000" d="M19.805 19.81v-1.53h-1.52v1.53h-9.14v-1.53h-1.53V7.62h-1.52v16.76h1.52v-3.05h16.77v3.05h1.52V10.66h-1.52v7.62h-1.53v1.53h-3.05z"></path><path fill="#000000" d="M7.615 24.38h16.77v1.52H7.615Z"></path><path fill="#000000" d="M21.335 16.76h1.52v1.52h-1.52Z"></path><path fill="#000000" d="M18.285 15.24h3.05v1.52h-3.05Z"></path><path fill="#000000" d="M16.765 16.76h1.52v1.52h-1.52Z"></path><path fill="#000000" d="M15.235 15.24h1.53v1.52h-1.53Z"></path><path fill="#000000" d="M12.195 13.71h3.04v1.53h-3.04Z"></path><path fill="#000000" d="M10.665 15.24h1.53v1.52h-1.53Z"></path><path fill="#000000" d="M9.145 16.76h1.52v1.52h-1.52Z"></path><path fill="#000000" d="M9.145 9.14h3.05v3.05h-3.05Z"></path><path fill="#000000" d="M7.615 6.09h9.15v1.53h-9.15Z"></path></g></svg>