<svg xmlns="http://www.w3.org/2000/svg" viewBox="0 0 32 32"><title>interface-essential-send-mail</title><g><path fill="#000000" d="M25.9 11.43H32v1.52h-6.1Z"></path><path fill="#000000" d="M28.95 14.48H32V16h-3.05Z"></path><path fill="#000000" d="M9.14 22.1h7.62v1.52h7.62v-3.05h4.57v-3.04h-1.52v1.52H1.52v-1.52H0v3.04h9.14v1.53z"></path><path fill="#000000" d="M24.38 16h3.05v1.53h-3.05Z"></path><path fill="#000000" d="M22.85 8.38h3.05v1.53h-3.05Z"></path><path fill="#000000" d="M21.33 14.48h3.05V16h-3.05Z"></path><path fill="#000000" d="M18.28 12.95h-1.52v1.53h4.57v-1.53h-1.52v-1.52h-1.53v1.52z"></path><path fill="#000000" d="M19.81 11.43h1.52V8.38h-4.57v1.53h3.05v1.52z"></path><path fill="#000000" d="M13.71 9.91h3.05v1.52h-3.05Z"></path><path fill="#000000" d="M12.19 14.48h4.57V16h-4.57Z"></path><path fill="#000000" d="M10.66 11.43h3.05v1.52h-3.05Z"></path><path fill="#000000" d="M7.62 12.95h3.04v1.53H7.62Z"></path><path fill="#000000" d="M4.57 14.48h3.05V16H4.57Z"></path><path fill="#000000" d="M1.52 16h3.05v1.53H1.52Z"></path></g></svg>