<svg xmlns="http://www.w3.org/2000/svg" viewBox="0 0 32 32"><title>interface-essential-view-eye</title><g><path fill="#000000" d="M29.71 14.475h1.53v3.05h-1.53Z"></path><path fill="#000000" d="M28.19 17.525h1.52v1.52h-1.52Z"></path><path fill="#000000" d="M28.19 12.955h1.52v1.52h-1.52Z"></path><path fill="#000000" d="M26.67 19.045h1.52v1.53h-1.52Z"></path><path fill="#000000" d="M26.67 11.425h1.52v1.53h-1.52Z"></path><path fill="#000000" d="M23.62 20.575h3.05v1.52h-3.05Z"></path><path fill="#000000" d="M23.62 9.905h3.05v1.52h-3.05Z"></path><path fill="#000000" d="M20.57 22.095h3.05v1.52h-3.05Z"></path><path fill="#000000" d="M20.57 12.955h1.52v6.09h-1.52Z"></path><path fill="#000000" d="M20.57 8.385h3.05v1.52h-3.05Z"></path><path fill="#000000" d="M19.05 19.045h1.52v1.53h-1.52Z"></path><path fill="#000000" d="M19.05 11.425h1.52v1.53h-1.52Z"></path><path fill="#000000" d="M11.43 23.615h9.14v1.53h-9.14Z"></path><path fill="#000000" d="M12.95 20.575h6.1v1.52h-6.1Z"></path><path fill="#000000" d="M17.52 12.955h-3.04v1.52h-1.53v3.05h1.53v1.52h3.04v-1.52h1.53v-3.05h-1.53v-1.52z"></path><path fill="#000000" d="M12.95 9.905h6.1v1.52h-6.1Z"></path><path fill="#000000" d="M11.43 6.855h9.14v1.53h-9.14Z"></path><path fill="#000000" d="M11.43 19.045h1.52v1.53h-1.52Z"></path><path fill="#000000" d="M11.43 11.425h1.52v1.53h-1.52Z"></path><path fill="#000000" d="M8.38 22.095h3.05v1.52H8.38Z"></path><path fill="#000000" d="M9.9 12.955h1.53v6.09H9.9Z"></path><path fill="#000000" d="M8.38 8.385h3.05v1.52H8.38Z"></path><path fill="#000000" d="M5.33 20.575h3.05v1.52H5.33Z"></path><path fill="#000000" d="M5.33 9.905h3.05v1.52H5.33Z"></path><path fill="#000000" d="M3.81 19.045h1.52v1.53H3.81Z"></path><path fill="#000000" d="M3.81 11.425h1.52v1.53H3.81Z"></path><path fill="#000000" d="M2.29 17.525h1.52v1.52H2.29Z"></path><path fill="#000000" d="M2.29 12.955h1.52v1.52H2.29Z"></path><path fill="#000000" d="M.76 14.475h1.53v3.05H.76Z"></path></g></svg>