<svg xmlns="http://www.w3.org/2000/svg" viewBox="0 0 32 32"><title>interface-essential-flag</title><g><path fill="#000000" d="M29.715 21.335h1.52v1.52h-1.52Z"></path><path fill="#000000" d="M29.715 6.095h1.52v1.52h-1.52Z"></path><path fill="#000000" d="M28.195 18.285h1.52v3.05h-1.52Z"></path><path fill="#000000" d="M28.195 7.615h1.52v3.05h-1.52Z"></path><path fill="#000000" d="M19.045 22.855V6.095h10.67v-1.52h-10.67v-1.53h-1.52v16.76H2.285V3.045H.765v27.43h1.52v-9.14h12.19v1.52h1.53v1.52h13.71v-1.52h-10.67z"></path><path fill="#000000" d="M26.665 15.235h1.53v3.05h-1.53Z"></path><path fill="#000000" d="M26.665 10.665h1.53v3.05h-1.53Z"></path><path fill="#000000" d="M25.145 13.715h1.52v1.52h-1.52Z"></path><path fill="#000000" d="M2.285 1.525h15.24v1.52H2.285Z"></path></g></svg>