<svg xmlns="http://www.w3.org/2000/svg" viewBox="0 0 32 32"><title>interface-essential-flash</title><g><path fill="#000000" d="M29.71 8.38h1.53V9.9h-1.53Z"></path><path fill="#000000" d="M28.19 9.9h1.52v1.53h-1.52Z"></path><path fill="#000000" d="M28.19 6.86h1.52v1.52h-1.52Z"></path><path fill="#000000" d="M26.67 8.38h1.52V9.9h-1.52Z"></path><path fill="#000000" d="M26.67 28.19v-1.53h1.52v-1.52h-1.52v-1.52h-1.53v1.52h-1.52v1.52h1.52v1.53h1.53z"></path><path fill="#000000" d="M25.14 12.95h1.53V16h-1.53Z"></path><path fill="#000000" d="M23.62 16h1.52v1.52h-1.52Z"></path><path fill="#000000" d="M23.62 3.81h1.52v1.52h-1.52Z"></path><path fill="#000000" d="M22.09 17.52h1.53v1.53h-1.53Z"></path><path fill="#000000" d="M22.09 5.33h1.53v1.53h-1.53Z"></path><path fill="#000000" d="M20.57 19.05h1.52v1.52h-1.52Z"></path><path fill="#000000" d="M20.57 6.86h1.52v1.52h-1.52Z"></path><path fill="#000000" d="M19.05 20.57h1.52v1.52h-1.52Z"></path><path fill="#000000" d="M19.05 8.38h1.52V9.9h-1.52Z"></path><path fill="#000000" d="M17.52 29.71h1.53v1.53h-1.53Z"></path><path fill="#000000" d="M17.52 22.09h1.53v1.53h-1.53Z"></path><path fill="#000000" d="M17.52 9.9v1.53H16v1.52h9.14v-1.52h-6.09V9.9h-1.53z"></path><path fill="#000000" d="M16 23.62h1.52v1.52H16Z"></path><path fill="#000000" d="M25.14 2.28v1.53h1.53V.76H14.48v1.52h10.66z"></path><path fill="#000000" d="M14.48 25.14H16v1.52h-1.52Z"></path><path fill="#000000" d="M12.95 26.66h1.53v1.53h-1.53Z"></path><path fill="#000000" d="M12.95 2.28h1.53v1.53h-1.53Z"></path><path fill="#000000" d="M11.43 28.19h1.52v1.52h-1.52Z"></path><path fill="#000000" d="M12.95 16H3.81v1.52h7.62v3.05h1.52V16z"></path><path fill="#000000" d="M11.43 3.81h1.52v1.52h-1.52Z"></path><path fill="#000000" d="M9.9 29.71h1.53v1.53H9.9Z"></path><path fill="#000000" d="M9.9 20.57h1.53v4.57H9.9Z"></path><path fill="#000000" d="M9.9 5.33h1.53v1.53H9.9Z"></path><path fill="#000000" d="M8.38 25.14H9.9v4.57H8.38Z"></path><path fill="#000000" d="M8.38 6.86H9.9v1.52H8.38Z"></path><path fill="#000000" d="M6.86 8.38h1.52V9.9H6.86Z"></path><path fill="#000000" d="M5.33 9.9h1.53v1.53H5.33Z"></path><path fill="#000000" d="M3.81 22.09h1.52v1.53H3.81Z"></path><path fill="#000000" d="M3.81 11.43h1.52v1.52H3.81Z"></path><path fill="#000000" d="M3.81.76v1.52H2.29v1.53h1.52v1.52h1.52V3.81h1.53V2.28H5.33V.76H3.81z"></path><path fill="#000000" d="M2.29 23.62h1.52v1.52H2.29Z"></path><path fill="#000000" d="M2.29 20.57h1.52v1.52H2.29Z"></path><path fill="#000000" d="M2.29 12.95h1.52V16H2.29Z"></path><path fill="#000000" d="M.76 22.09h1.53v1.53H.76Z"></path></g></svg>