<svg xmlns="http://www.w3.org/2000/svg" viewBox="0 0 32 32"><title>business-money-coin-currency</title><g><path fill="#000000" d="M18.285 6.095h3.05v1.52h1.52v1.53h1.53v3.05h1.52v7.61h-1.52v3.05h-1.53v1.53h-1.52v1.52h-3.05v1.52h-7.62v1.53h10.67v-1.53h3.05v-1.52h1.52v-1.52h1.53v-1.53h1.52v-3.05h1.52v-7.61h-1.52v-3.05h-1.52v-1.53h-1.53v-1.52h-1.52v-1.52h-3.05v-1.53h-10.67v1.53h7.62v1.52z"></path><path fill="#000000" d="M22.855 12.195h1.53v7.61h-1.53Z"></path><path fill="#000000" d="M21.335 19.805h1.52v1.53h-1.52Z"></path><path fill="#000000" d="M21.335 10.665h1.52v1.53h-1.52Z"></path><path fill="#000000" d="M19.815 21.335h1.52v1.52h-1.52Z"></path><path fill="#000000" d="M19.815 9.145h1.52v1.52h-1.52Z"></path><path fill="#000000" d="M18.285 22.855h1.53v1.53h-1.53Z"></path><path fill="#000000" d="M18.285 7.615h1.53v1.53h-1.53Z"></path><path fill="#000000" d="M10.665 24.385h7.62v1.52h-7.62Z"></path><path fill="#000000" d="M16.765 16.765h1.52v3.04h-1.52Z"></path><path fill="#000000" d="M16.765 12.195h1.52v1.52h-1.52Z"></path><path fill="#000000" d="M10.665 6.095h7.62v1.52h-7.62Z"></path><path fill="#000000" d="M13.715 21.335v1.52h1.52v-1.52h1.53v-1.53h-1.53v-3.04h1.53v-1.53h-1.53v-3.04h1.53v-1.53h-1.53v-1.52h-1.52v1.52h-1.52v1.53h1.52v3.04h-1.52v1.53h1.52v3.04h-1.52v1.53h1.52z"></path><path fill="#000000" d="M10.665 18.285h1.53v1.52h-1.53Z"></path><path fill="#000000" d="M10.665 12.195h1.53v3.04h-1.53Z"></path><path fill="#000000" d="M7.625 25.905h3.04v1.52h-3.04Z"></path><path fill="#000000" d="M9.145 22.855h1.52v1.53h-1.52Z"></path><path fill="#000000" d="M9.145 7.615h1.52v1.53h-1.52Z"></path><path fill="#000000" d="M7.625 4.575h3.04v1.52h-3.04Z"></path><path fill="#000000" d="M7.625 21.335h1.52v1.52h-1.52Z"></path><path fill="#000000" d="M7.625 9.145h1.52v1.52h-1.52Z"></path><path fill="#000000" d="M6.095 24.385h1.53v1.52h-1.53Z"></path><path fill="#000000" d="M6.095 19.805h1.53v1.53h-1.53Z"></path><path fill="#000000" d="M6.095 10.665h1.53v1.53h-1.53Z"></path><path fill="#000000" d="M6.095 6.095h1.53v1.52h-1.53Z"></path><path fill="#000000" d="M4.575 22.855h1.52v1.53h-1.52Z"></path><path fill="#000000" d="M4.575 12.195h1.52v7.61h-1.52Z"></path><path fill="#000000" d="M4.575 7.615h1.52v1.53h-1.52Z"></path><path fill="#000000" d="M3.045 19.805h1.53v3.05h-1.53Z"></path><path fill="#000000" d="M3.045 9.145h1.53v3.05h-1.53Z"></path><path fill="#000000" d="M1.525 12.195h1.52v7.61h-1.52Z"></path></g></svg>