<svg width="48" height="45" viewBox="0 0 48 45" fill="none" xmlns="http://www.w3.org/2000/svg">
<g filter="url(#filter0_d_902_13550)">
<path d="M15.7188 3.51562C21.1844 3.51562 26.65 3.51562 32.2812 3.51562C32.2812 5.86172 32.2812 8.20781 32.2812 10.625C26.8156 10.625 21.35 10.625 15.7188 10.625C15.7188 8.27891 15.7188 5.93281 15.7188 3.51562Z" fill="#F2EDE5"/>
<path d="M34.5469 22.3438C35.3461 22.3438 36.1453 22.3438 36.9688 22.3438C36.9688 23.1172 36.9688 23.8906 36.9688 24.6875C38.5156 24.6875 40.0625 24.6875 41.6562 24.6875C41.6562 25.4609 41.6562 26.2344 41.6562 27.0312C42.4297 27.0312 43.2031 27.0312 44 27.0312C44 28.6039 44 30.1766 44 31.7969C43.2266 31.7969 42.4531 31.7969 41.6562 31.7969C41.6562 32.5703 41.6562 33.3438 41.6562 34.1406C40.1094 34.1406 38.5625 34.1406 36.9688 34.1406C36.9688 34.9141 36.9688 35.6875 36.9688 36.4844C36.1695 36.4844 35.3703 36.4844 34.5469 36.4844C34.5469 35.7109 34.5469 34.9375 34.5469 34.1406C33.7734 34.1406 33 34.1406 32.2031 34.1406C32.2031 31.0211 32.2031 27.9016 32.2031 24.6875C32.9766 24.6875 33.75 24.6875 34.5469 24.6875C34.5469 23.9141 34.5469 23.1406 34.5469 22.3438Z" fill="#F2EDE5"/>
<path d="M11.0312 22.3438C11.8305 22.3438 12.6297 22.3438 13.4531 22.3438C13.4531 23.1172 13.4531 23.8906 13.4531 24.6875C14.2266 24.6875 15 24.6875 15.7969 24.6875C15.7969 27.807 15.7969 30.9266 15.7969 34.1406C15.0234 34.1406 14.25 34.1406 13.4531 34.1406C13.4531 34.9141 13.4531 35.6875 13.4531 36.4844C12.6539 36.4844 11.8547 36.4844 11.0312 36.4844C11.0312 35.7109 11.0312 34.9375 11.0312 34.1406C9.48438 34.1406 7.9375 34.1406 6.34375 34.1406C6.34375 33.3672 6.34375 32.5938 6.34375 31.7969C5.57031 31.7969 4.79688 31.7969 4 31.7969C4 30.2242 4 28.6516 4 27.0312C4.77344 27.0312 5.54688 27.0312 6.34375 27.0312C6.34375 26.2578 6.34375 25.4844 6.34375 24.6875C7.89062 24.6875 9.4375 24.6875 11.0312 24.6875C11.0312 23.9141 11.0312 23.1406 11.0312 22.3438Z" fill="#F2EDE5"/>
<path d="M34.5469 8.20312C35.3461 8.20312 36.1453 8.20312 36.9688 8.20312C36.9688 8.97656 36.9688 9.75 36.9688 10.5469C37.7422 10.5469 38.5156 10.5469 39.3125 10.5469C39.3125 11.3203 39.3125 12.0938 39.3125 12.8906C40.0859 12.8906 40.8594 12.8906 41.6562 12.8906C41.6562 16.0359 41.6562 19.1812 41.6562 22.4219C40.857 22.4219 40.0578 22.4219 39.2344 22.4219C39.2344 19.3023 39.2344 16.1828 39.2344 12.9688C38.4609 12.9688 37.6875 12.9688 36.8906 12.9688C36.8906 12.1953 36.8906 11.4219 36.8906 10.625C36.1172 10.625 35.3438 10.625 34.5469 10.625C34.5469 9.82578 34.5469 9.02656 34.5469 8.20312Z" fill="#F2EDE5"/>
<path d="M11.0312 8.20312C11.8305 8.20312 12.6297 8.20312 13.4531 8.20312C13.4531 9.00234 13.4531 9.80156 13.4531 10.625C12.6797 10.625 11.9062 10.625 11.1094 10.625C11.1094 11.3984 11.1094 12.1719 11.1094 12.9688C10.3359 12.9688 9.5625 12.9688 8.76562 12.9688C8.76562 16.0883 8.76562 19.2078 8.76562 22.4219C7.96641 22.4219 7.16719 22.4219 6.34375 22.4219C6.34375 19.2766 6.34375 16.1312 6.34375 12.8906C7.11719 12.8906 7.89062 12.8906 8.6875 12.8906C8.6875 12.1172 8.6875 11.3438 8.6875 10.5469C9.46094 10.5469 10.2344 10.5469 11.0312 10.5469C11.0312 9.77344 11.0312 9 11.0312 8.20312Z" fill="#F2EDE5"/>
</g>
<defs>
<filter id="filter0_d_902_13550" x="0" y="0" width="48" height="48" filterUnits="userSpaceOnUse" color-interpolation-filters="sRGB">
<feFlood flood-opacity="0" result="BackgroundImageFix"/>
<feColorMatrix in="SourceAlpha" type="matrix" values="0 0 0 0 0 0 0 0 0 0 0 0 0 0 0 0 0 0 127 0" result="hardAlpha"/>
<feOffset dy="4"/>
<feGaussianBlur stdDeviation="2"/>
<feComposite in2="hardAlpha" operator="out"/>
<feColorMatrix type="matrix" values="0 0 0 0 0 0 0 0 0 0 0 0 0 0 0 0 0 0 0.25 0"/>
<feBlend mode="normal" in2="BackgroundImageFix" result="effect1_dropShadow_902_13550"/>
<feBlend mode="normal" in="SourceGraphic" in2="effect1_dropShadow_902_13550" result="shape"/>
</filter>
</defs>
</svg>
