<?xml version="1.0" encoding="UTF-8"?>
<svg version="1.1" xmlns="http://www.w3.org/2000/svg" width="1000" height="1000">
<path d="M0 0 C60.72 0 121.44 0 184 0 C184.33 29.37 184.66 58.74 185 89 C214.7 89 244.4 89 275 89 C275 119.03 275 149.06 275 180 C304.7 180 334.4 180 365 180 C365 149.97 365 119.94 365 89 C395.03 89 425.06 89 456 89 C456 59.63 456 30.26 456 0 C516.72 0 577.44 0 640 0 C640 29.37 640 58.74 640 89 C669.19996035 88.96039321 669.19996035 88.96039321 698.39990234 88.90991211 C704.0402832 88.90539551 704.0402832 88.90539551 706.67861938 88.90455627 C708.52603394 88.90301809 710.37344748 88.89949571 712.22085571 88.89442444 C715.01493074 88.88713621 717.80894428 88.88609295 720.60302734 88.88647461 C721.42961538 88.8828765 722.25620342 88.87927839 723.10783958 88.87557125 C728.77194733 88.88597366 728.77194733 88.88597366 731 90 C731 119.7 731 149.4 731 180 C760.37 180 789.74 180 820 180 C820 240.72 820 301.44 820 364 C790.63 364 761.26 364 731 364 C731.03960679 393.19996035 731.03960679 393.19996035 731.09008789 422.39990234 C731.09460449 428.0402832 731.09460449 428.0402832 731.09544373 430.67861938 C731.09698191 432.52603394 731.10050429 434.37344748 731.10557556 436.22085571 C731.11286379 439.01493074 731.11390705 441.80894428 731.11352539 444.60302734 C731.11892255 445.8429094 731.11892255 445.8429094 731.12442875 447.10783958 C731.11402634 452.77194733 731.11402634 452.77194733 730 455 C700.3 455 670.6 455 640 455 C640.03961674 484.24500426 640.03961674 484.24500426 640.09008789 513.48999023 C640.09460449 519.1348877 640.09460449 519.1348877 640.09544373 521.77406311 C640.09698344 523.62485494 640.10050893 525.47564574 640.10557556 527.32643127 C640.11285172 530.12315627 640.11390746 532.91981975 640.11352539 535.71655273 C640.11892255 536.96183196 640.11892255 536.96183196 640.12442875 538.23226833 C640.11402634 543.88597366 640.11402634 543.88597366 639 545 C636.2001028 545.09519368 633.42493826 545.12553944 630.62475586 545.11352539 C629.30780479 545.11374443 629.30780479 545.11374443 627.96424866 545.1139679 C625.04775565 545.11326844 622.13132567 545.10547455 619.21484375 545.09765625 C617.19845108 545.09579218 615.18205796 545.09436823 613.16566467 545.09336853 C607.84734862 545.08954244 602.5290597 545.07971139 597.21075439 545.06866455 C591.78829312 545.05845238 586.36582748 545.05387133 580.94335938 545.04882812 C570.29556097 545.0380892 559.64778274 545.02101169 549 545 C549.00222061 546.12530624 549.00444122 547.25061249 549.00672913 548.41001892 C549.02695944 558.9906144 549.0419716 569.57120597 549.05181217 580.15181637 C549.05704128 585.59202312 549.06413943 591.03221431 549.07543945 596.47241211 C549.08626735 601.71785702 549.09227662 606.96328692 549.09487724 612.20874214 C549.09673167 614.21470946 549.10035262 616.22067592 549.10573006 618.22663689 C549.11293919 621.02602824 549.113991 623.82535679 549.11352539 626.62475586 C549.11712067 627.46272705 549.12071594 628.30069824 549.12442017 629.1640625 C549.11405216 634.88594784 549.11405216 634.88594784 548 636 C545.2001028 636.09519368 542.42493826 636.12553944 539.62475586 636.11352539 C538.30780479 636.11374443 538.30780479 636.11374443 536.96424866 636.1139679 C534.04775565 636.11326844 531.13132567 636.10547455 528.21484375 636.09765625 C526.19845108 636.09579218 524.18205796 636.09436823 522.16566467 636.09336853 C516.84734862 636.08954244 511.5290597 636.07971139 506.21075439 636.06866455 C500.78829312 636.05845238 495.36582748 636.05387133 489.94335938 636.04882812 C479.29556097 636.0380892 468.64778274 636.02101169 458 636 C458.00222061 637.11277817 458.00444122 638.22555634 458.00672913 639.37205505 C458.02695955 649.8349213 458.04197166 660.29778361 458.05181217 670.76066494 C458.05704125 676.14033762 458.06413935 681.51999458 458.07543945 686.8996582 C458.08626745 692.08674843 458.09227665 697.27382349 458.09487724 702.46092415 C458.09673165 704.4445628 458.10035256 706.42820058 458.10573006 708.41183281 C458.11293932 711.18009136 458.11399099 713.94828638 458.11352539 716.71655273 C458.11712067 717.54517319 458.12071594 718.37379364 458.12442017 719.2275238 C458.11405216 724.88594784 458.11405216 724.88594784 457 726 C454.20006693 726.0951949 451.42497184 726.12552637 448.62475586 726.11352539 C447.73253861 726.11364593 446.84032137 726.11376646 445.92106724 726.11389065 C443.01896781 726.11314135 440.11693177 726.10551237 437.21484375 726.09765625 C435.42875194 726.09618688 433.64265971 726.09516614 431.85656738 726.09460449 C425.21687171 726.08935101 418.57718524 726.07538993 411.9375 726.0625 C397.108125 726.041875 382.27875 726.02125 367 726 C367 755.7 367 785.4 367 816 C343.83047781 816.04010881 343.83047781 816.04010881 333.99023438 816.04882812 C327.263257 816.05481695 320.53629317 816.06191828 313.80932617 816.07543945 C308.38881723 816.08626706 302.9683228 816.09227656 297.54780388 816.09487724 C295.47485055 816.09673172 293.40189806 816.10035277 291.32895088 816.10573006 C288.43616107 816.1129388 285.54343204 816.11399101 282.65063477 816.11352539 C281.78461136 816.11712067 280.91858795 816.12071594 280.02632141 816.12442017 C274.11405216 816.11405216 274.11405216 816.11405216 273 815 C272.90482197 812.23061034 272.87445735 809.48622841 272.88647461 806.71655273 C272.88632858 805.84833893 272.88618256 804.98012512 272.8860321 804.08560181 C272.88673154 801.20157414 272.89452537 798.3176102 272.90234375 795.43359375 C272.90420782 793.43962133 272.90563177 791.44564845 272.90663147 789.45167542 C272.91045752 784.19254298 272.92028855 778.93343797 272.93133545 773.67431641 C272.9415477 768.31217825 272.94612869 762.95003569 272.95117188 757.58789062 C272.96191074 747.05858167 272.9789882 736.52929311 273 726 C271.87469376 726.00222061 270.74938751 726.00444122 269.58998108 726.00672913 C259.0093856 726.02695944 248.42879403 726.0419716 237.84818363 726.05181217 C232.40797688 726.05704128 226.96778569 726.06413943 221.52758789 726.07543945 C216.28214298 726.08626735 211.03671308 726.09227662 205.79125786 726.09487724 C203.78529054 726.09673167 201.77932408 726.10035262 199.77336311 726.10573006 C196.97397176 726.11293919 194.17464321 726.113991 191.37524414 726.11352539 C190.53727295 726.11712067 189.69930176 726.12071594 188.8359375 726.12442017 C183.11405216 726.11405216 183.11405216 726.11405216 182 725 C181.90482197 722.23061034 181.87445735 719.48622841 181.88647461 716.71655273 C181.88632858 715.84833893 181.88618256 714.98012512 181.8860321 714.08560181 C181.88673154 711.20157414 181.89452537 708.3176102 181.90234375 705.43359375 C181.90420782 703.43962133 181.90563177 701.44564845 181.90663147 699.45167542 C181.91045752 694.19254298 181.92028855 688.93343797 181.93133545 683.67431641 C181.9415477 678.31217825 181.94612869 672.95003569 181.95117188 667.58789062 C181.96191074 657.05858167 181.9789882 646.52929311 182 636 C180.87469376 636.00222061 179.74938751 636.00444122 178.58998108 636.00672913 C168.0093856 636.02695944 157.42879403 636.0419716 146.84818363 636.05181217 C141.40797688 636.05704128 135.96778569 636.06413943 130.52758789 636.07543945 C125.28214298 636.08626735 120.03671308 636.09227662 114.79125786 636.09487724 C112.78529054 636.09673167 110.77932408 636.10035262 108.77336311 636.10573006 C105.97397176 636.11293919 103.17464321 636.113991 100.37524414 636.11352539 C99.53727295 636.11712067 98.69930176 636.12071594 97.8359375 636.12442017 C92.11405216 636.11405216 92.11405216 636.11405216 91 635 C90.90480632 632.2001028 90.87446056 629.42493826 90.88647461 626.62475586 C90.88632858 625.74678848 90.88618256 624.86882111 90.8860321 623.96424866 C90.88673156 621.04775565 90.89452545 618.13132567 90.90234375 615.21484375 C90.90420782 613.19845108 90.90563177 611.18205796 90.90663147 609.16566467 C90.91045756 603.84734862 90.92028861 598.5290597 90.93133545 593.21075439 C90.94154762 587.78829312 90.94612867 582.36582748 90.95117188 576.94335938 C90.9619108 566.29556097 90.97898831 555.64778274 91 545 C89.87469376 545.00222061 88.74938751 545.00444122 87.58998108 545.00672913 C77.0093856 545.02695944 66.42879403 545.0419716 55.84818363 545.05181217 C50.40797688 545.05704128 44.96778569 545.06413943 39.52758789 545.07543945 C34.28214298 545.08626735 29.03671308 545.09227662 23.79125786 545.09487724 C21.78529054 545.09673167 19.77932408 545.10035262 17.77336311 545.10573006 C14.97397176 545.11293919 12.17464321 545.113991 9.37524414 545.11352539 C8.53727295 545.11712067 7.69930176 545.12071594 6.8359375 545.12442017 C1.11405216 545.11405216 1.11405216 545.11405216 0 544 C-0.09517803 541.23061034 -0.12554265 538.48622841 -0.11352539 535.71655273 C-0.11367142 534.84833893 -0.11381744 533.98012512 -0.1139679 533.08560181 C-0.11326846 530.20157414 -0.10547463 527.3176102 -0.09765625 524.43359375 C-0.09579218 522.43962133 -0.09436823 520.44564845 -0.09336853 518.45167542 C-0.08954248 513.19254298 -0.07971145 507.93343797 -0.06866455 502.67431641 C-0.0584523 497.31217825 -0.05387131 491.95003569 -0.04882812 486.58789062 C-0.03808926 476.05858167 -0.0210118 465.52929311 0 455 C-1.11277817 455.00222061 -2.22555634 455.00444122 -3.37205505 455.00672913 C-13.8349213 455.02695955 -24.29778361 455.04197166 -34.76066494 455.05181217 C-40.14033762 455.05704125 -45.51999458 455.06413935 -50.8996582 455.07543945 C-56.08674843 455.08626745 -61.27382349 455.09227665 -66.46092415 455.09487724 C-68.4445628 455.09673165 -70.42820058 455.10035256 -72.41183281 455.10573006 C-75.18009136 455.11293932 -77.94828638 455.11399099 -80.71655273 455.11352539 C-81.54517319 455.11712067 -82.37379364 455.12071594 -83.2275238 455.12442017 C-88.88594784 455.11405216 -88.88594784 455.11405216 -90 454 C-90.0951949 451.20006693 -90.12552637 448.42497184 -90.11352539 445.62475586 C-90.11364593 444.73253861 -90.11376646 443.84032137 -90.11389065 442.92106724 C-90.11314135 440.01896781 -90.10551237 437.11693177 -90.09765625 434.21484375 C-90.09618688 432.42875194 -90.09516614 430.64265971 -90.09460449 428.85656738 C-90.08935101 422.21687171 -90.07538993 415.57718524 -90.0625 408.9375 C-90.041875 394.108125 -90.02125 379.27875 -90 364 C-119.7 364 -149.4 364 -180 364 C-180 303.28 -180 242.56 -180 180 C-150.3 180 -120.6 180 -90 180 C-90.03961685 150.42589428 -90.03961685 150.42589428 -90.09008789 120.85180664 C-90.09460449 115.14343262 -90.09460449 115.14343262 -90.09544373 112.47459412 C-90.09698346 110.60296898 -90.10050898 108.73134486 -90.10557556 106.85972595 C-90.11285159 104.0315477 -90.11390747 101.20343029 -90.11352539 98.37524414 C-90.1171235 97.53568963 -90.12072161 96.69613512 -90.12442875 95.83113956 C-90.11402634 90.11402634 -90.11402634 90.11402634 -89 89 C-86.23057407 88.90482072 -83.48626234 88.87447042 -80.71655273 88.88647461 C-79.83424767 88.88635407 -78.95194262 88.88623354 -78.04290104 88.88610935 C-75.17310672 88.88685863 -72.30337652 88.89448755 -69.43359375 88.90234375 C-67.66735872 88.90381312 -65.90112325 88.90483386 -64.1348877 88.90539551 C-57.56908518 88.91064894 -51.00329197 88.92461002 -44.4375 88.9375 C-29.773125 88.958125 -15.10875 88.97875 0 89 C0 59.63 0 30.26 0 0 Z " fill="#FFCAEA" transform="translate(180,92)"/>
<path d="M0 0 C60.72 0 121.44 0 184 0 C184.33 29.37 184.66 58.74 185 89 C214.7 89 244.4 89 275 89 C275 119.03 275 149.06 275 180 C304.7 180 334.4 180 365 180 C365 149.97 365 119.94 365 89 C395.03 89 425.06 89 456 89 C456 59.63 456 30.26 456 0 C516.72 0 577.44 0 640 0 C640 29.37 640 58.74 640 89 C669.19996035 88.96039321 669.19996035 88.96039321 698.39990234 88.90991211 C704.0402832 88.90539551 704.0402832 88.90539551 706.67861938 88.90455627 C708.52603394 88.90301809 710.37344748 88.89949571 712.22085571 88.89442444 C715.01493074 88.88713621 717.80894428 88.88609295 720.60302734 88.88647461 C721.42961538 88.8828765 722.25620342 88.87927839 723.10783958 88.87557125 C728.77194733 88.88597366 728.77194733 88.88597366 731 90 C731 119.7 731 149.4 731 180 C760.37 180 789.74 180 820 180 C820 240.72 820 301.44 820 364 C790.63 364 761.26 364 731 364 C731.03960679 393.19996035 731.03960679 393.19996035 731.09008789 422.39990234 C731.09460449 428.0402832 731.09460449 428.0402832 731.09544373 430.67861938 C731.09698191 432.52603394 731.10050429 434.37344748 731.10557556 436.22085571 C731.11286379 439.01493074 731.11390705 441.80894428 731.11352539 444.60302734 C731.11892255 445.8429094 731.11892255 445.8429094 731.12442875 447.10783958 C731.11402634 452.77194733 731.11402634 452.77194733 730 455 C700.3 455 670.6 455 640 455 C640.03961674 484.24500426 640.03961674 484.24500426 640.09008789 513.48999023 C640.09460449 519.1348877 640.09460449 519.1348877 640.09544373 521.77406311 C640.09698344 523.62485494 640.10050893 525.47564574 640.10557556 527.32643127 C640.11285172 530.12315627 640.11390746 532.91981975 640.11352539 535.71655273 C640.11892255 536.96183196 640.11892255 536.96183196 640.12442875 538.23226833 C640.11402634 543.88597366 640.11402634 543.88597366 639 545 C636.2001028 545.09519368 633.42493826 545.12553944 630.62475586 545.11352539 C629.30780479 545.11374443 629.30780479 545.11374443 627.96424866 545.1139679 C625.04775565 545.11326844 622.13132567 545.10547455 619.21484375 545.09765625 C617.19845108 545.09579218 615.18205796 545.09436823 613.16566467 545.09336853 C607.84734862 545.08954244 602.5290597 545.07971139 597.21075439 545.06866455 C591.78829312 545.05845238 586.36582748 545.05387133 580.94335938 545.04882812 C570.29556097 545.0380892 559.64778274 545.02101169 549 545 C549.00222061 546.12530624 549.00444122 547.25061249 549.00672913 548.41001892 C549.02695944 558.9906144 549.0419716 569.57120597 549.05181217 580.15181637 C549.05704128 585.59202312 549.06413943 591.03221431 549.07543945 596.47241211 C549.08626735 601.71785702 549.09227662 606.96328692 549.09487724 612.20874214 C549.09673167 614.21470946 549.10035262 616.22067592 549.10573006 618.22663689 C549.11293919 621.02602824 549.113991 623.82535679 549.11352539 626.62475586 C549.11712067 627.46272705 549.12071594 628.30069824 549.12442017 629.1640625 C549.11405216 634.88594784 549.11405216 634.88594784 548 636 C545.2001028 636.09519368 542.42493826 636.12553944 539.62475586 636.11352539 C538.30780479 636.11374443 538.30780479 636.11374443 536.96424866 636.1139679 C534.04775565 636.11326844 531.13132567 636.10547455 528.21484375 636.09765625 C526.19845108 636.09579218 524.18205796 636.09436823 522.16566467 636.09336853 C516.84734862 636.08954244 511.5290597 636.07971139 506.21075439 636.06866455 C500.78829312 636.05845238 495.36582748 636.05387133 489.94335938 636.04882812 C479.29556097 636.0380892 468.64778274 636.02101169 458 636 C458.00222061 637.11277817 458.00444122 638.22555634 458.00672913 639.37205505 C458.02695955 649.8349213 458.04197166 660.29778361 458.05181217 670.76066494 C458.05704125 676.14033762 458.06413935 681.51999458 458.07543945 686.8996582 C458.08626745 692.08674843 458.09227665 697.27382349 458.09487724 702.46092415 C458.09673165 704.4445628 458.10035256 706.42820058 458.10573006 708.41183281 C458.11293932 711.18009136 458.11399099 713.94828638 458.11352539 716.71655273 C458.11712067 717.54517319 458.12071594 718.37379364 458.12442017 719.2275238 C458.11405216 724.88594784 458.11405216 724.88594784 457 726 C454.20006693 726.0951949 451.42497184 726.12552637 448.62475586 726.11352539 C447.73253861 726.11364593 446.84032137 726.11376646 445.92106724 726.11389065 C443.01896781 726.11314135 440.11693177 726.10551237 437.21484375 726.09765625 C435.42875194 726.09618688 433.64265971 726.09516614 431.85656738 726.09460449 C425.21687171 726.08935101 418.57718524 726.07538993 411.9375 726.0625 C397.108125 726.041875 382.27875 726.02125 367 726 C367 755.7 367 785.4 367 816 C343.83047781 816.04010881 343.83047781 816.04010881 333.99023438 816.04882812 C327.263257 816.05481695 320.53629317 816.06191828 313.80932617 816.07543945 C308.38881723 816.08626706 302.9683228 816.09227656 297.54780388 816.09487724 C295.47485055 816.09673172 293.40189806 816.10035277 291.32895088 816.10573006 C288.43616107 816.1129388 285.54343204 816.11399101 282.65063477 816.11352539 C281.78461136 816.11712067 280.91858795 816.12071594 280.02632141 816.12442017 C274.11405216 816.11405216 274.11405216 816.11405216 273 815 C272.90482197 812.23061034 272.87445735 809.48622841 272.88647461 806.71655273 C272.88632858 805.84833893 272.88618256 804.98012512 272.8860321 804.08560181 C272.88673154 801.20157414 272.89452537 798.3176102 272.90234375 795.43359375 C272.90420782 793.43962133 272.90563177 791.44564845 272.90663147 789.45167542 C272.91045752 784.19254298 272.92028855 778.93343797 272.93133545 773.67431641 C272.9415477 768.31217825 272.94612869 762.95003569 272.95117188 757.58789062 C272.96191074 747.05858167 272.9789882 736.52929311 273 726 C271.87469376 726.00222061 270.74938751 726.00444122 269.58998108 726.00672913 C259.0093856 726.02695944 248.42879403 726.0419716 237.84818363 726.05181217 C232.40797688 726.05704128 226.96778569 726.06413943 221.52758789 726.07543945 C216.28214298 726.08626735 211.03671308 726.09227662 205.79125786 726.09487724 C203.78529054 726.09673167 201.77932408 726.10035262 199.77336311 726.10573006 C196.97397176 726.11293919 194.17464321 726.113991 191.37524414 726.11352539 C190.53727295 726.11712067 189.69930176 726.12071594 188.8359375 726.12442017 C183.11405216 726.11405216 183.11405216 726.11405216 182 725 C181.90482197 722.23061034 181.87445735 719.48622841 181.88647461 716.71655273 C181.88632858 715.84833893 181.88618256 714.98012512 181.8860321 714.08560181 C181.88673154 711.20157414 181.89452537 708.3176102 181.90234375 705.43359375 C181.90420782 703.43962133 181.90563177 701.44564845 181.90663147 699.45167542 C181.91045752 694.19254298 181.92028855 688.93343797 181.93133545 683.67431641 C181.9415477 678.31217825 181.94612869 672.95003569 181.95117188 667.58789062 C181.96191074 657.05858167 181.9789882 646.52929311 182 636 C180.87469376 636.00222061 179.74938751 636.00444122 178.58998108 636.00672913 C168.0093856 636.02695944 157.42879403 636.0419716 146.84818363 636.05181217 C141.40797688 636.05704128 135.96778569 636.06413943 130.52758789 636.07543945 C125.28214298 636.08626735 120.03671308 636.09227662 114.79125786 636.09487724 C112.78529054 636.09673167 110.77932408 636.10035262 108.77336311 636.10573006 C105.97397176 636.11293919 103.17464321 636.113991 100.37524414 636.11352539 C99.53727295 636.11712067 98.69930176 636.12071594 97.8359375 636.12442017 C92.11405216 636.11405216 92.11405216 636.11405216 91 635 C90.90480632 632.2001028 90.87446056 629.42493826 90.88647461 626.62475586 C90.88632858 625.74678848 90.88618256 624.86882111 90.8860321 623.96424866 C90.88673156 621.04775565 90.89452545 618.13132567 90.90234375 615.21484375 C90.90420782 613.19845108 90.90563177 611.18205796 90.90663147 609.16566467 C90.91045756 603.84734862 90.92028861 598.5290597 90.93133545 593.21075439 C90.94154762 587.78829312 90.94612867 582.36582748 90.95117188 576.94335938 C90.9619108 566.29556097 90.97898831 555.64778274 91 545 C89.87469376 545.00222061 88.74938751 545.00444122 87.58998108 545.00672913 C77.0093856 545.02695944 66.42879403 545.0419716 55.84818363 545.05181217 C50.40797688 545.05704128 44.96778569 545.06413943 39.52758789 545.07543945 C34.28214298 545.08626735 29.03671308 545.09227662 23.79125786 545.09487724 C21.78529054 545.09673167 19.77932408 545.10035262 17.77336311 545.10573006 C14.97397176 545.11293919 12.17464321 545.113991 9.37524414 545.11352539 C8.53727295 545.11712067 7.69930176 545.12071594 6.8359375 545.12442017 C1.11405216 545.11405216 1.11405216 545.11405216 0 544 C-0.09517803 541.23061034 -0.12554265 538.48622841 -0.11352539 535.71655273 C-0.11367142 534.84833893 -0.11381744 533.98012512 -0.1139679 533.08560181 C-0.11326846 530.20157414 -0.10547463 527.3176102 -0.09765625 524.43359375 C-0.09579218 522.43962133 -0.09436823 520.44564845 -0.09336853 518.45167542 C-0.08954248 513.19254298 -0.07971145 507.93343797 -0.06866455 502.67431641 C-0.0584523 497.31217825 -0.05387131 491.95003569 -0.04882812 486.58789062 C-0.03808926 476.05858167 -0.0210118 465.52929311 0 455 C-1.11277817 455.00222061 -2.22555634 455.00444122 -3.37205505 455.00672913 C-13.8349213 455.02695955 -24.29778361 455.04197166 -34.76066494 455.05181217 C-40.14033762 455.05704125 -45.51999458 455.06413935 -50.8996582 455.07543945 C-56.08674843 455.08626745 -61.27382349 455.09227665 -66.46092415 455.09487724 C-68.4445628 455.09673165 -70.42820058 455.10035256 -72.41183281 455.10573006 C-75.18009136 455.11293932 -77.94828638 455.11399099 -80.71655273 455.11352539 C-81.54517319 455.11712067 -82.37379364 455.12071594 -83.2275238 455.12442017 C-88.88594784 455.11405216 -88.88594784 455.11405216 -90 454 C-90.0951949 451.20006693 -90.12552637 448.42497184 -90.11352539 445.62475586 C-90.11364593 444.73253861 -90.11376646 443.84032137 -90.11389065 442.92106724 C-90.11314135 440.01896781 -90.10551237 437.11693177 -90.09765625 434.21484375 C-90.09618688 432.42875194 -90.09516614 430.64265971 -90.09460449 428.85656738 C-90.08935101 422.21687171 -90.07538993 415.57718524 -90.0625 408.9375 C-90.041875 394.108125 -90.02125 379.27875 -90 364 C-119.7 364 -149.4 364 -180 364 C-180 303.28 -180 242.56 -180 180 C-150.3 180 -120.6 180 -90 180 C-90.03961685 150.42589428 -90.03961685 150.42589428 -90.09008789 120.85180664 C-90.09460449 115.14343262 -90.09460449 115.14343262 -90.09544373 112.47459412 C-90.09698346 110.60296898 -90.10050898 108.73134486 -90.10557556 106.85972595 C-90.11285159 104.0315477 -90.11390747 101.20343029 -90.11352539 98.37524414 C-90.1171235 97.53568963 -90.12072161 96.69613512 -90.12442875 95.83113956 C-90.11402634 90.11402634 -90.11402634 90.11402634 -89 89 C-86.23057407 88.90482072 -83.48626234 88.87447042 -80.71655273 88.88647461 C-79.83424767 88.88635407 -78.95194262 88.88623354 -78.04290104 88.88610935 C-75.17310672 88.88685863 -72.30337652 88.89448755 -69.43359375 88.90234375 C-67.66735872 88.90381312 -65.90112325 88.90483386 -64.1348877 88.90539551 C-57.56908518 88.91064894 -51.00329197 88.92461002 -44.4375 88.9375 C-29.773125 88.958125 -15.10875 88.97875 0 89 C0 59.63 0 30.26 0 0 Z M2 91 C2 120.7 2 150.4 2 181 C-28.03 181 -58.06 181 -89 181 C-89 241.06 -89 301.12 -89 363 C-58.97 363 -28.94 363 2 363 C2 392.7 2 422.4 2 453 C31.7 453 61.4 453 92 453 C92 483.03 92 513.06 92 544 C122.03 544 152.06 544 183 544 C183 574.03 183 604.06 183 635 C213.03 635 243.06 635 274 635 C274 664.7 274 694.4 274 725 C304.36 725 334.72 725 366 725 C366 695.3 366 665.6 366 635 C396.03 635 426.06 635 457 635 C457 604.97 457 574.94 457 544 C487.03 544 517.06 544 548 544 C548 513.97 548 483.94 548 453 C577.7 453 607.4 453 638 453 C638 423.3 638 393.6 638 363 C668.03 363 698.06 363 729 363 C729 302.94 729 242.88 729 181 C698.97 181 668.94 181 638 181 C638 151.3 638 121.6 638 91 C578.27 91 518.54 91 457 91 C457 120.7 457 150.4 457 181 C426.97 181 396.94 181 366 181 C366 211.03 366 241.06 366 272 C335.64 272 305.28 272 274 272 C274 241.97 274 211.94 274 181 C243.97 181 213.94 181 183 181 C183 151.3 183 121.6 183 91 C123.27 91 63.54 91 2 91 Z " fill="#FE1982" transform="translate(180,92)"/>
<path d="M0 0 C30.03 0 60.06 0 91 0 C91 60.06 91 120.12 91 182 C60.97 182 30.94 182 0 182 C0 211.7 0 241.4 0 272 C-29.7 272 -59.4 272 -90 272 C-90 302.03 -90 332.06 -90 363 C-120.03 363 -150.06 363 -181 363 C-181 393.03 -181 423.06 -181 454 C-211.03 454 -241.06 454 -272 454 C-272 483.7 -272 513.4 -272 544 C-302.36 544 -332.72 544 -364 544 C-364 514.3 -364 484.6 -364 454 C-394.03 454 -424.06 454 -455 454 C-455 423.97 -455 393.94 -455 363 C-485.03 363 -515.06 363 -546 363 C-546 332.97 -546 302.94 -546 272 C-575.7 272 -605.4 272 -636 272 C-636 242.3 -636 212.6 -636 182 C-576.27 182 -516.54 182 -455 182 C-455 211.7 -455 241.4 -455 272 C-394.61 272 -334.22 272 -272 272 C-272 242.3 -272 212.6 -272 182 C-241.97 182 -211.94 182 -181 182 C-181 151.97 -181 121.94 -181 91 C-121.27 91 -61.54 91 0 91 C0 60.97 0 30.94 0 0 Z " fill="#FE7CC9" transform="translate(818,273)"/>
<path d="M0 0 C59.73 0 119.46 0 181 0 C181 59.73 181 119.46 181 181 C121.27 181 61.54 181 0 181 C0 211.03 0 241.06 0 272 C-30.03 272 -60.06 272 -91 272 C-91 301.7 -91 331.4 -91 362 C-151.39 362 -211.78 362 -274 362 C-274 332.3 -274 302.6 -274 272 C-243.97 272 -213.94 272 -183 272 C-183 241.97 -183 211.94 -183 181 C-152.64 181 -122.28 181 -91 181 C-91 150.97 -91 120.94 -91 90 C-60.97 90 -30.94 90 0 90 C0 60.3 0 30.6 0 0 Z " fill="#FFAFDE" transform="translate(637,183)"/>
<path d="M0 0 C90.42 0 180.84 0 274 0 C274 30.03 274 60.06 274 91 C243.97 91 213.94 91 183 91 C183 120.7 183 150.4 183 181 C152.64 181 122.28 181 91 181 C91 151.3 91 121.6 91 91 C60.97 91 30.94 91 0 91 C0 60.97 0 30.94 0 0 Z " fill="#FE51B8" transform="translate(363,636)"/>
<path d="M0 0 C30.03 0 60.06 0 91 0 C91 60.06 91 120.12 91 182 C60.97 182 30.94 182 0 182 C0 121.94 0 61.88 0 0 Z " fill="#FE9BD1" transform="translate(91,273)"/>
<path d="M0 0 C59.73 0 119.46 0 181 0 C181 29.7 181 59.4 181 90 C121.27 90 61.54 90 0 90 C0 60.3 0 30.6 0 0 Z " fill="#FFB0DF" transform="translate(182,183)"/>
<path d="M0 0 C30.03 0 60.06 0 91 0 C91 30.03 91 60.06 91 91 C60.97 91 30.94 91 0 91 C0 60.97 0 30.94 0 0 Z " fill="#FE51B8" transform="translate(637,545)"/>
<path d="M0 0 C30.03 0 60.06 0 91 0 C91 30.03 91 60.06 91 91 C60.97 91 30.94 91 0 91 C0 60.97 0 30.94 0 0 Z " fill="#FF51B8" transform="translate(272,545)"/>
<path d="M0 0 C30.03 0 60.06 0 91 0 C91 30.03 91 60.06 91 91 C60.97 91 30.94 91 0 91 C0 60.97 0 30.94 0 0 Z " fill="#FFDBF2" transform="translate(363,364)"/>
<path d="M0 0 C29.7 0 59.4 0 90 0 C90 30.03 90 60.06 90 91 C60.3 91 30.6 91 0 91 C0 60.97 0 30.94 0 0 Z " fill="#FFAFDE" transform="translate(92,273)"/>
<path d="M0 0 C29.7 0 59.4 0 90 0 C90 29.7 90 59.4 90 90 C60.3 90 30.6 90 0 90 C0 60.3 0 30.6 0 0 Z " fill="#FF51B8" transform="translate(728,455)"/>
</svg>
