<svg xmlns="http://www.w3.org/2000/svg" viewBox="0 0 32 32"><title>interface-essential-alert-triangle-1</title><g><path fill="#000000" d="M30.48 27.43H32v3.05h-1.52Z"></path><path fill="#000000" d="M28.95 24.38h1.53v3.05h-1.53Z"></path><path fill="#000000" d="M1.52 30.48h28.96V32H1.52Z"></path><path fill="#000000" d="M27.43 21.33h1.52v3.05h-1.52Z"></path><path fill="#000000" d="M25.9 18.29h1.53v3.04H25.9Z"></path><path fill="#000000" d="M24.38 15.24h1.52v3.05h-1.52Z"></path><path fill="#000000" d="M22.86 12.19h1.52v3.05h-1.52Z"></path><path fill="#000000" d="M21.33 9.14h1.53v3.05h-1.53Z"></path><path fill="#000000" d="M19.81 6.09h1.52v3.05h-1.52Z"></path><path fill="#000000" d="M18.29 3.05h1.52v3.04h-1.52Z"></path><path fill="#000000" d="M18.29 21.33h-4.58v1.53h-1.52v4.57h1.52v1.52h4.58v-1.52h1.52v-4.57h-1.52v-1.53z"></path><path d="M18.29 9.14h-4.58v1.53h-1.52v6.09h1.52v3.05h4.58v-3.05h1.52v-6.09h-1.52Zm0 6.1h-1.53v-3.05h-1.52v-1.52h1.52v1.52h1.53Z" fill="#000000"></path><path fill="#000000" d="M16.76 1.52h1.53v1.53h-1.53Z"></path><path fill="#000000" d="M15.24 0h1.52v1.52h-1.52Z"></path><path fill="#000000" d="M13.71 1.52h1.53v1.53h-1.53Z"></path><path fill="#000000" d="M12.19 3.05h1.52v3.04h-1.52Z"></path><path fill="#000000" d="M10.67 6.09h1.52v3.05h-1.52Z"></path><path fill="#000000" d="M9.14 9.14h1.53v3.05H9.14Z"></path><path fill="#000000" d="M7.62 12.19h1.52v3.05H7.62Z"></path><path fill="#000000" d="M6.09 15.24h1.53v3.05H6.09Z"></path><path fill="#000000" d="M4.57 18.29h1.52v3.04H4.57Z"></path><path fill="#000000" d="M3.05 21.33h1.52v3.05H3.05Z"></path><path fill="#000000" d="M1.52 24.38h1.53v3.05H1.52Z"></path><path fill="#000000" d="M0 27.43h1.52v3.05H0Z"></path></g></svg>