<svg xmlns="http://www.w3.org/2000/svg" viewBox="0 0 32 32"><title>interface-essential-information-circle-1</title><g><path fill="#000000" d="M30.48 12.19H32v7.62h-1.52Z"></path><path fill="#000000" d="M28.95 19.81h1.53v3.05h-1.53Z"></path><path fill="#000000" d="M28.95 9.14h1.53v3.05h-1.53Z"></path><path fill="#000000" d="M27.43 22.86h1.52v3.04h-1.52Z"></path><path fill="#000000" d="M27.43 6.09h1.52v3.05h-1.52Z"></path><path fill="#000000" d="M25.9 25.9h1.53v1.53H25.9Z"></path><path fill="#000000" d="M25.9 4.57h1.53v1.52H25.9Z"></path><path fill="#000000" d="M22.86 27.43h3.04v1.52h-3.04Z"></path><path fill="#000000" d="M22.86 3.05h3.04v1.52h-3.04Z"></path><path fill="#000000" d="M19.81 28.95h3.05v1.53h-3.05Z"></path><path fill="#000000" d="M21.33 22.86h-1.52v-7.62h-1.52v-1.53h-4.58v1.53h-1.52V25.9h1.52v1.53h7.62V25.9h1.53v-1.52h-1.53v-1.52z"></path><path fill="#000000" d="M19.81 1.52h3.05v1.53h-3.05Z"></path><path fill="#000000" d="M12.19 30.48h7.62V32h-7.62Z"></path><path fill="#000000" d="M13.71 12.19h4.58v-1.52h1.52V6.09h-1.52V4.57h-4.58v1.52h-1.52v4.58h1.52v1.52z"></path><path fill="#000000" d="M12.19 0h7.62v1.52h-7.62Z"></path><path fill="#000000" d="M9.14 28.95h3.05v1.53H9.14Z"></path><path fill="#000000" d="M9.14 1.52h3.05v1.53H9.14Z"></path><path fill="#000000" d="M6.09 27.43h3.05v1.52H6.09Z"></path><path fill="#000000" d="M6.09 3.05h3.05v1.52H6.09Z"></path><path fill="#000000" d="M4.57 25.9h1.52v1.53H4.57Z"></path><path fill="#000000" d="M4.57 4.57h1.52v1.52H4.57Z"></path><path fill="#000000" d="M3.05 22.86h1.52v3.04H3.05Z"></path><path fill="#000000" d="M3.05 6.09h1.52v3.05H3.05Z"></path><path fill="#000000" d="M1.52 19.81h1.53v3.05H1.52Z"></path><path fill="#000000" d="M1.52 9.14h1.53v3.05H1.52Z"></path><path fill="#000000" d="M0 12.19h1.52v7.62H0Z"></path></g></svg>