<svg xmlns="http://www.w3.org/2000/svg" viewBox="0 0 32 32"><title>interface-essential-navigation-menu-3</title><g><path fill="#000000" d="M29.71 3.81h1.53v24.38h-1.53Z"></path><path fill="#000000" d="M28.19 28.19h1.52v1.52h-1.52Z"></path><path fill="#000000" d="M28.19 2.28h1.52v1.53h-1.52Z"></path><path fill="#000000" d="M3.81 29.71h24.38v1.53H3.81Z"></path><path fill="#000000" d="M25.14 20.57H6.86v1.52H5.33v3.05h1.53v-1.52h18.28v1.52h1.53v-3.05h-1.53v-1.52z"></path><path fill="#000000" d="M25.14 12.95H6.86v1.52H5.33v3.05h1.53V16h18.28v1.52h1.53v-3.05h-1.53v-1.52z"></path><path fill="#000000" d="M25.14 5.33H6.86v1.52H5.33V9.9h1.53V8.38h18.28V9.9h1.53V6.85h-1.53V5.33z"></path><path fill="#000000" d="M6.86 25.14h18.28v1.52H6.86Z"></path><path fill="#000000" d="M6.86 17.52h18.28v1.52H6.86Z"></path><path fill="#000000" d="M6.86 9.9h18.28v1.53H6.86Z"></path><path fill="#000000" d="M3.81.76h24.38v1.52H3.81Z"></path><path fill="#000000" d="M2.29 28.19h1.52v1.52H2.29Z"></path><path fill="#000000" d="M2.29 2.28h1.52v1.53H2.29Z"></path><path fill="#000000" d="M.76 3.81h1.53v24.38H.76Z"></path></g></svg>