<svg width="40" height="40" viewBox="0 0 40 40" fill="none" xmlns="http://www.w3.org/2000/svg">
<path d="M22.5 11.0156C25.0523 11.0156 27.6047 11.0156 30.2344 11.0156C30.2344 11.8664 30.2344 12.7172 30.2344 13.5938C31.0852 13.5938 31.9359 13.5938 32.8125 13.5938C32.8125 14.4445 32.8125 15.2953 32.8125 16.1719C33.6375 16.1719 34.4625 16.1719 35.3125 16.1719C35.3125 18.6984 35.3125 21.225 35.3125 23.8281C34.4875 23.8281 33.6625 23.8281 32.8125 23.8281C32.8125 24.6789 32.8125 25.5297 32.8125 26.4062C31.9617 26.4062 31.1109 26.4062 30.2344 26.4062C30.2344 27.257 30.2344 28.1078 30.2344 28.9844C27.682 28.9844 25.1297 28.9844 22.5 28.9844C22.5 28.1078 22.5 27.2313 22.5 26.3281C25.0266 26.3281 27.5531 26.3281 30.1562 26.3281C30.1562 25.4773 30.1562 24.6266 30.1562 23.75C31.007 23.75 31.8578 23.75 32.7344 23.75C32.7344 21.275 32.7344 18.8 32.7344 16.25C31.8836 16.25 31.0328 16.25 30.1562 16.25C30.1562 15.3992 30.1562 14.5484 30.1562 13.6719C27.6297 13.6719 25.1031 13.6719 22.5 13.6719C22.5 12.7953 22.5 11.9188 22.5 11.0156Z" fill="#948979"/>
<path d="M9.76562 11.0156C12.318 11.0156 14.8703 11.0156 17.5 11.0156C17.5 11.8922 17.5 12.7687 17.5 13.6719C14.9734 13.6719 12.4469 13.6719 9.84375 13.6719C9.84375 14.5227 9.84375 15.3734 9.84375 16.25C8.99297 16.25 8.14219 16.25 7.26562 16.25C7.26562 18.725 7.26562 21.2 7.26562 23.75C8.11641 23.75 8.96719 23.75 9.84375 23.75C9.84375 24.6008 9.84375 25.4516 9.84375 26.3281C12.3703 26.3281 14.8969 26.3281 17.5 26.3281C17.5 27.2047 17.5 28.0812 17.5 28.9844C14.9477 28.9844 12.3953 28.9844 9.76562 28.9844C9.76562 28.1336 9.76562 27.2828 9.76562 26.4062C8.91484 26.4062 8.06406 26.4062 7.1875 26.4062C7.1875 25.5555 7.1875 24.7047 7.1875 23.8281C6.3625 23.8281 5.5375 23.8281 4.6875 23.8281C4.6875 21.3016 4.6875 18.775 4.6875 16.1719C5.5125 16.1719 6.3375 16.1719 7.1875 16.1719C7.1875 15.3211 7.1875 14.4703 7.1875 13.5938C8.03828 13.5938 8.88906 13.5938 9.76562 13.5938C9.76562 12.743 9.76562 11.8922 9.76562 11.0156Z" fill="#948979"/>
<path d="M12.3438 18.6719C17.3969 18.6719 22.45 18.6719 27.6562 18.6719C27.6562 19.5484 27.6562 20.425 27.6562 21.3281C22.6031 21.3281 17.55 21.3281 12.3438 21.3281C12.3438 20.4516 12.3438 19.575 12.3438 18.6719Z" fill="#948979"/>
</svg>
