<svg xmlns="http://www.w3.org/2000/svg" viewBox="0 0 32 32"><title>interface-essential-signout-logout</title><g><path fill="#000000" d="M25.145 9.14v4.57h-6.1v3.05h6.1v4.57h1.52v-1.52h1.53v-1.52h1.52v-1.53h1.52v-3.05h-1.52v-1.52h-1.52v-1.52h-1.53V9.14h-1.52z"></path><path fill="#000000" d="M20.575 21.33h1.52v6.1h-1.52Z"></path><path fill="#000000" d="M20.575 1.52h1.52v7.62h-1.52Z"></path><path fill="#000000" d="M14.475 30.48v-1.53h6.1v-1.52h-6.1V7.62h-1.52v22.86h1.52z"></path><path fill="#000000" d="M8.385 30.48h4.57V32h-4.57Z"></path><path fill="#000000" d="M9.905 16.76h1.52v3.05h-1.52Z"></path><path fill="#000000" d="M9.905 6.1h3.05v1.52h-3.05Z"></path><path fill="#000000" d="M5.335 28.95h3.05v1.53h-3.05Z"></path><path fill="#000000" d="M6.855 4.57h3.05V6.1h-3.05Z"></path><path fill="#000000" d="M2.285 27.43h3.05v1.52h-3.05Z"></path><path fill="#000000" d="M3.815 3.05h3.04v1.52h-3.04Z"></path><path fill="#000000" d="M2.285 0v1.52H.765v25.91h1.52V3.05h1.53V1.52h16.76V0H2.285z"></path></g></svg>