<svg xmlns="http://www.w3.org/2000/svg" viewBox="0 0 32 32"><title>interface-essential-signin-login</title><g><path fill="#000000" d="M22.855 9.583v1.52h-1.53v1.53h-1.52v1.52h-1.52v3.05h1.52v1.52h1.52v1.53h1.53v1.52h1.52v-4.57h6.1v-3.05h-6.1v-4.57h-1.52z"></path><path fill="#000000" d="M21.325 24.823h1.53v3.05h-1.53Z"></path><path fill="#000000" d="M21.325 1.963h1.53v4.57h-1.53Z"></path><path fill="#000000" d="M15.235 30.913v-1.52h6.09v-1.52h-6.09V8.063h-1.52v22.85h1.52z"></path><path fill="#000000" d="M9.135 30.913h4.58v1.53h-4.58Z"></path><path fill="#000000" d="M10.665 17.203h1.52v3.05h-1.52Z"></path><path fill="#000000" d="M10.665 6.533h3.05v1.53h-3.05Z"></path><path fill="#000000" d="M6.095 29.393h3.04v1.52h-3.04Z"></path><path fill="#000000" d="M7.615 5.013h3.05v1.52h-3.05Z"></path><path fill="#000000" d="M3.045 27.873h3.05v1.52h-3.05Z"></path><path fill="#000000" d="M4.565 3.493h3.05v1.52h-3.05Z"></path><path fill="#000000" d="M3.045.443v1.52h-1.52v25.91h1.52V3.493h1.52v-1.53h16.76V.443H3.045z"></path></g></svg>