<svg xmlns="http://www.w3.org/2000/svg" viewBox="0 0 32 32"><title>logo-whatapp</title><g><path fill="#000000" d="M30.47 11.43H32v9.14h-1.53Z"></path><path fill="#000000" d="M28.95 20.57h1.52v3.05h-1.52Z"></path><path fill="#000000" d="M28.95 8.38h1.52v3.05h-1.52Z"></path><path fill="#000000" d="M27.42 23.62h1.53v3.04h-1.53Z"></path><path fill="#000000" d="M27.42 5.33h1.53v3.05h-1.53Z"></path><path fill="#000000" d="M24.38 26.66h3.04v1.53h-3.04Z"></path><path fill="#000000" d="M24.38 3.81h3.04v1.52h-3.04Z"></path><path fill="#000000" d="M24.38 17.52h-4.57v1.53h-1.53v-1.53h-1.52V16h-1.53v-1.53h-1.52v-1.52h1.52V8.38h-1.52V6.85H9.14v1.53H7.61v4.57h1.53V16h1.52v1.52h1.53v1.53h1.52v1.52h1.52v1.52h1.53v1.53h3.05v1.52h4.57v-1.52h1.52v-4.57h-1.52v-1.53z"></path><path fill="#000000" d="M21.33 28.19h3.05v1.52h-3.05Z"></path><path fill="#000000" d="M21.33 2.28h3.05v1.53h-3.05Z"></path><path fill="#000000" d="M12.19 29.71h9.14v1.53h-9.14Z"></path><path fill="#000000" d="M12.19.76h9.14v1.52h-9.14Z"></path><path fill="#000000" d="M7.61 28.19h4.58v1.52H7.61Z"></path><path fill="#000000" d="M9.14 2.28h3.05v1.53H9.14Z"></path><path fill="#000000" d="M6.09 3.81h3.05v1.52H6.09Z"></path><path fill="#000000" d="M3.04 29.71v-1.52H1.52v1.52H0v1.53h7.61v-1.53H3.04z"></path><path fill="#000000" d="M4.57 23.62h1.52v3.04H4.57Z"></path><path fill="#000000" d="M4.57 5.33h1.52v3.05H4.57Z"></path><path fill="#000000" d="M3.04 26.66h1.53v1.53H3.04Z"></path><path fill="#000000" d="M3.04 20.57h1.53v3.05H3.04Z"></path><path fill="#000000" d="M3.04 8.38h1.53v3.05H3.04Z"></path><path fill="#000000" d="M1.52 11.43h1.52v9.14H1.52Z"></path></g></svg>