<svg xmlns="http://www.w3.org/2000/svg" viewBox="0 0 32 32"><title>logo-linkedin</title><g><path fill="#000000" d="M30.47 3.05H32v25.9h-1.53Z"></path><path fill="#000000" d="M28.95 28.95h1.52v1.53h-1.52Z"></path><path fill="#000000" d="M28.95 1.52h1.52v1.53h-1.52Z"></path><path fill="#000000" d="M27.42 4.57h1.53v22.86h-1.53Z"></path><path fill="#000000" d="M3.04 30.48h25.91V32H3.04Z"></path><path fill="#000000" d="M4.57 27.43h22.85v1.52H4.57Z"></path><path fill="#000000" d="M22.85 15.24h-1.52v-1.53h-3.05v1.53h-1.52v-1.53h-3.05v9.15h3.05v-4.57h1.52v-1.53h1.53v1.53h1.52v4.57h3.05v-6.1h-1.53v-1.52z"></path><path fill="#000000" d="M7.61 13.71h3.05v9.15H7.61Z"></path><path fill="#000000" d="M7.61 9.14h3.05v3.05H7.61Z"></path><path fill="#000000" d="M4.57 3.05h22.85v1.52H4.57Z"></path><path fill="#000000" d="M3.04 0h25.91v1.52H3.04Z"></path><path fill="#000000" d="M3.04 4.57h1.53v22.86H3.04Z"></path><path fill="#000000" d="M1.52 28.95h1.52v1.53H1.52Z"></path><path fill="#000000" d="M1.52 1.52h1.52v1.53H1.52Z"></path><path fill="#000000" d="M0 3.05h1.52v25.9H0Z"></path></g></svg>