<svg xmlns="http://www.w3.org/2000/svg" viewBox="0 0 32 32"><title>logo-social-media-old-instagram</title><g><path fill="#000000" d="M30.47 3.05v7.62H19.81v1.52h1.52v1.52h1.52v-1.52h7.62v16.76H32V3.05h-1.53z"></path><path fill="#000000" d="M28.95 28.95h1.52v1.53h-1.52Z"></path><path fill="#000000" d="M28.95 1.52h1.52v1.53h-1.52Z"></path><path fill="#000000" d="M3.04 30.48h25.91V32H3.04Z"></path><path fill="#000000" d="M25.9 4.57h1.52v3.05H25.9Z"></path><path fill="#000000" d="M22.85 3.05h3.05v1.52h-3.05Z"></path><path fill="#000000" d="M22.85 13.71h1.53v7.62h-1.53Z"></path><path fill="#000000" d="M22.85 7.62h3.05v1.52h-3.05Z"></path><path fill="#000000" d="M21.33 21.33h1.52v1.53h-1.52Z"></path><path fill="#000000" d="M21.33 4.57h1.52v3.05h-1.52Z"></path><path fill="#000000" d="M19.81 22.86h1.52v1.52h-1.52Z"></path><path d="M12.19 15.24h-1.53v4.57h1.53v1.52h1.52v1.53h4.57v-1.53h1.53v-1.52h1.52v-4.57h-1.52v-1.53h-1.53v-1.52h-4.57v1.52h-1.52Zm3.04 0h3.05v3.05h-1.52v-1.53h-1.53Z" fill="#000000"></path><path fill="#000000" d="M12.19 9.14h7.62v1.53h-7.62Z"></path><path fill="#000000" d="M12.19 24.38h7.62v1.52h-7.62Z"></path><path fill="#000000" d="M10.66 22.86h1.53v1.52h-1.53Z"></path><path fill="#000000" d="M9.14 21.33h1.52v1.53H9.14Z"></path><path fill="#000000" d="M7.61 13.71h1.53v7.62H7.61Z"></path><path fill="#000000" d="M1.52 28.95h1.52v1.53H1.52Z"></path><path d="M1.52 12.19h1.52v1.52h4.57v-1.52h1.53v1.52h1.52v-1.52h1.53v-1.52h-1.53V1.52h18.29V0H3.04v1.52H1.52v1.53h1.52v7.62H1.52V3.05H0v25.9h1.52ZM7.61 1.52h1.53v9.15H7.61Zm-3.04 0h1.52v9.15H4.57Z" fill="#000000"></path></g></svg>