<svg xmlns="http://www.w3.org/2000/svg" viewBox="0 0 32 32"><title>logo-twitter</title><g><path fill="#000000" d="M28.945 11.435v1.52h1.53v-3.05h-4.57v-3.05h-1.53v4.58h4.57z"></path><path fill="#000000" d="M27.425 12.955h1.52v1.52h-1.52Z"></path><path fill="#000000" d="M25.905 14.475h1.52v1.53h-1.52Z"></path><path fill="#000000" d="M24.375 16.005h1.53v6.09h-1.53Z"></path><path fill="#000000" d="M22.855 22.095h1.52v3.05h-1.52Z"></path><path fill="#000000" d="M22.855 5.335h1.52v1.52h-1.52Z"></path><path fill="#000000" d="M21.335 25.145h1.52v1.52h-1.52Z"></path><path fill="#000000" d="M21.335 3.815h1.52v1.52h-1.52Z"></path><path fill="#000000" d="M19.805 26.665h1.53v1.53h-1.53Z"></path><path fill="#000000" d="M18.285 8.385h3.05v3.05h-3.05Z"></path><path fill="#000000" d="M4.565 28.195v-1.53h-1.52v3.05h16.76v-1.52H4.565z"></path><path fill="#000000" d="M15.235 2.285h6.1v1.53h-6.1Z"></path><path fill="#000000" d="M13.715 3.815h1.52v1.52h-1.52Z"></path><path fill="#000000" d="M12.185 5.335h1.53v1.52h-1.53Z"></path><path fill="#000000" d="M12.185 11.435v-4.58h-1.52v3.05h-1.52v1.53h3.04z"></path><path fill="#000000" d="M9.145 22.095h1.52v-1.52h-3.05v3.05h1.53v-1.53z"></path><path fill="#000000" d="M7.615 8.385h1.53v1.52h-1.53Z"></path><path fill="#000000" d="M6.095 23.625h1.52v1.52h-1.52Z"></path><path fill="#000000" d="M6.095 19.045h1.52v1.53h-1.52Z"></path><path fill="#000000" d="M6.095 6.855h1.52v1.53h-1.52Z"></path><path fill="#000000" d="M4.565 25.145h1.53v1.52h-1.53Z"></path><path fill="#000000" d="M4.565 17.525h1.53v1.52h-1.53Z"></path><path fill="#000000" d="M4.565 5.335h1.53v1.52h-1.53Z"></path><path fill="#000000" d="M3.045 16.005h1.52v1.52h-1.52Z"></path><path fill="#000000" d="M3.045 5.335h1.52v-1.52h-3.04v12.19h1.52V5.335z"></path></g></svg>