<svg xmlns="http://www.w3.org/2000/svg" viewBox="0 0 32 32"><title>logo-social-media-tiktok</title><g><path fill="#000000" d="M30.47 3.05H32v25.9h-1.53Z"></path><path fill="#000000" d="M28.95 28.95h1.52v1.53h-1.52Z"></path><path fill="#000000" d="M28.95 1.52h1.52v1.53h-1.52Z"></path><path fill="#000000" d="M3.04 30.48h25.91V32H3.04Z"></path><path d="M27.42 9.14h-3.04v1.53h-1.53V9.14h-1.52V7.62h-1.52V6.09h1.52V4.57h-1.52V3.05h-3.05v1.52h-1.53v18.29h-1.52v1.52h-3.05v-1.52H9.14v-6.1h1.52v-1.52h1.53v-4.57H7.61v1.52H6.09v1.52H4.57v1.53H3.04v7.62h1.53v-6.1h1.52v-1.52h1.52v-1.53h1.53v1.53H7.61v1.52H6.09v6.1H4.57v3.04h1.52v-1.52h1.52v1.52h1.53v1.53H7.61v1.52h9.15v-1.52h1.52V25.9h1.53v-1.52h1.52V13.71h1.52v1.53h4.57v-1.53h1.53v-3.04h-1.53Zm-7.61 13.72h-1.53V12.19h1.53Z" fill="#000000"></path><path fill="#000000" d="M22.85 7.62h1.53v1.52h-1.53Z"></path><path fill="#000000" d="M21.33 6.09h1.52v1.53h-1.52Z"></path><path fill="#000000" d="M6.09 25.9h1.52v1.53H6.09Z"></path><path fill="#000000" d="M3.04 0h25.91v1.52H3.04Z"></path><path fill="#000000" d="M1.52 28.95h1.52v1.53H1.52Z"></path><path fill="#000000" d="M1.52 1.52h1.52v1.53H1.52Z"></path><path fill="#000000" d="M0 3.05h1.52v25.9H0Z"></path></g></svg>