<svg xmlns="http://www.w3.org/2000/svg" viewBox="0 0 32 32"><title>interface-essential-synchronize-arrows-square-1</title><g><path fill="#000000" d="M28.195 7.62h1.52v16.76h-1.52Z"></path><path fill="#000000" d="M26.665 24.38h1.53v1.52h-1.53Z"></path><path fill="#000000" d="M26.665 6.09h1.53v1.53h-1.53Z"></path><path fill="#000000" d="M20.575 4.57h6.09v1.52h-6.09Z"></path><path fill="#000000" d="M20.575 25.9v-4.57h-1.53v1.53h-1.52v1.52h-1.52v1.52h-1.53v1.53h1.53v1.52h1.52v1.53h1.52V32h1.53v-4.57h6.09V25.9h-6.09z"></path><path fill="#000000" d="M14.475 7.62h1.53V6.09h1.52V4.57h-1.52V3.05h-1.53V1.52h-1.52V0h-1.52v4.57h-6.1v1.52h6.1v4.58h1.52V9.14h1.52V7.62z"></path><path fill="#000000" d="M5.335 25.9h6.1v1.53h-6.1Z"></path><path fill="#000000" d="M3.815 24.38h1.52v1.52h-1.52Z"></path><path fill="#000000" d="M3.815 6.09h1.52v1.53h-1.52Z"></path><path fill="#000000" d="M2.285 7.62h1.53v16.76h-1.53Z"></path></g></svg>