<svg xmlns="http://www.w3.org/2000/svg" viewBox="0 0 32 32"><title>entertainment-events-hobbies-film-player</title><g><path d="M0 3.81v24.38h32V3.81Zm7.61 22.85H1.52V5.33h6.09Zm15.24 0H9.14V5.33h13.71Zm7.62 0h-6.09V5.33h6.09Z" fill="#000000"></path><path fill="#000000" d="M25.9 20.57h3.05v3.05H25.9Z"></path><path fill="#000000" d="M25.9 14.47h3.05v3.05H25.9Z"></path><path fill="#000000" d="M25.9 8.38h3.05v3.05H25.9Z"></path><path fill="#000000" d="M15.23 19.05h1.53v-1.53h1.52V16h1.52v-1.53h-1.52v-1.52h-1.52v-1.52h-1.53V9.9h-3.04v10.67h3.04v-1.52z"></path><path fill="#000000" d="M3.04 20.57h3.05v3.05H3.04Z"></path><path fill="#000000" d="M3.04 14.47h3.05v3.05H3.04Z"></path><path fill="#000000" d="M3.04 8.38h3.05v3.05H3.04Z"></path></g></svg>