<?xml version="1.0" encoding="UTF-8"?>
<svg version="1.1" xmlns="http://www.w3.org/2000/svg" width="443" height="418">
<path d="M0 0 C0.69771011 0.00359528 1.39542023 0.00719055 2.11427307 0.01089478 C3.2117688 0.01067574 3.2117688 0.01067574 4.33143616 0.01045227 C6.76094989 0.0111515 9.19038789 0.01894432 11.61988831 0.02676392 C13.29997719 0.02862806 14.98006662 0.03005198 16.66015625 0.03105164 C21.09071849 0.03487709 25.52124815 0.04470761 29.95179749 0.05575562 C34.46941182 0.06596914 38.98703139 0.07054913 43.50465393 0.07559204 C52.37511098 0.08632986 61.24554381 0.10340661 70.11598206 0.12442017 C70.11598206 3.42442017 70.11598206 6.72442017 70.11598206 10.12442017 C79.35598206 10.12442017 88.59598206 10.12442017 98.11598206 10.12442017 C99.09206423 13.05266668 99.19824874 15.08055292 99.11598206 18.12442017 C104.25690623 18.87219095 109.13656716 19.20447272 114.33082581 19.06192017 C116.11598206 19.12442017 116.11598206 19.12442017 117.11598206 20.12442017 C117.57058063 22.77905138 117.81841443 25.44631154 118.11598206 28.12442017 C122.07598206 28.61942017 122.07598206 28.61942017 126.11598206 29.12442017 C126.11598206 32.09442017 126.11598206 35.06442017 126.11598206 38.12442017 C132.38598206 38.12442017 138.65598206 38.12442017 145.11598206 38.12442017 C145.11598206 41.09442017 145.11598206 44.06442017 145.11598206 47.12442017 C147.31254456 47.09348267 147.31254456 47.09348267 149.55348206 47.06192017 C151.07430724 47.04050009 152.59670168 47.05262053 154.11598206 47.12442017 C155.11598206 48.12442017 155.11598206 48.12442017 155.21363831 50.19082642 C155.18108622 52.50202433 155.14853414 54.81322225 155.11598206 57.12442017 C158.08598206 57.12442017 161.05598206 57.12442017 164.11598206 57.12442017 C164.11598206 63.39442017 164.11598206 69.66442017 164.11598206 76.12442017 C167.08598206 76.12442017 170.05598206 76.12442017 173.11598206 76.12442017 C173.11598206 79.09442017 173.11598206 82.06442017 173.11598206 85.12442017 C174.58035706 85.10379517 176.04473206 85.08317017 177.55348206 85.06192017 C179.07430724 85.04050009 180.59670168 85.05262053 182.11598206 85.12442017 C183.11598206 86.12442017 183.11598206 86.12442017 183.22950745 87.89028931 C183.22427063 88.63915405 183.21903381 89.3880188 183.21363831 90.15957642 C183.21041565 90.96846313 183.20719299 91.77734985 183.20387268 92.61074829 C183.19549377 93.46088501 183.18711487 94.31102173 183.17848206 95.18692017 C183.17397034 96.04092407 183.16945862 96.89492798 183.16481018 97.77481079 C183.15298579 99.8913768 183.13504974 102.00790702 183.11598206 104.12442017 C186.08598206 104.12442017 189.05598206 104.12442017 192.11598206 104.12442017 C192.11598206 113.36442017 192.11598206 122.60442017 192.11598206 132.12442017 C195.41598206 132.12442017 198.71598206 132.12442017 202.11598206 132.12442017 C202.11598206 157.20442017 202.11598206 182.28442017 202.11598206 208.12442017 C199.14598206 208.45442017 196.17598206 208.78442017 193.11598206 209.12442017 C192.78598206 218.03442017 192.45598206 226.94442017 192.11598206 236.12442017 C189.14598206 236.45442017 186.17598206 236.78442017 183.11598206 237.12442017 C182.78598206 243.06442017 182.45598206 249.00442017 182.11598206 255.12442017 C179.47598206 255.12442017 176.83598206 255.12442017 174.11598206 255.12442017 C173.78598206 258.09442017 173.45598206 261.06442017 173.11598206 264.12442017 C170.14598206 264.45442017 167.17598206 264.78442017 164.11598206 265.12442017 C164.11598206 271.06442017 164.11598206 277.00442017 164.11598206 283.12442017 C161.14598206 283.12442017 158.17598206 283.12442017 155.11598206 283.12442017 C155.14691956 285.32098267 155.14691956 285.32098267 155.17848206 287.56192017 C155.19990213 289.08274535 155.1877817 290.60513979 155.11598206 292.12442017 C154.11598206 293.12442017 154.11598206 293.12442017 152.04957581 293.22207642 C149.73837789 293.18952433 147.42717997 293.15697225 145.11598206 293.12442017 C145.11598206 296.09442017 145.11598206 299.06442017 145.11598206 302.12442017 C139.17598206 302.45442017 133.23598206 302.78442017 127.11598206 303.12442017 C126.78598206 305.76442017 126.45598206 308.40442017 126.11598206 311.12442017 C123.14598206 311.45442017 120.17598206 311.78442017 117.11598206 312.12442017 C117.11598206 315.09442017 117.11598206 318.06442017 117.11598206 321.12442017 C111.17598206 321.45442017 105.23598206 321.78442017 99.11598206 322.12442017 C99.11598206 324.76442017 99.11598206 327.40442017 99.11598206 330.12442017 C89.54598206 330.12442017 79.97598206 330.12442017 70.11598206 330.12442017 C70.11598206 333.42442017 70.11598206 336.72442017 70.11598206 340.12442017 C45.03598206 340.12442017 19.95598206 340.12442017 -5.88401794 340.12442017 C-5.88401794 336.82442017 -5.88401794 333.52442017 -5.88401794 330.12442017 C-15.12401794 330.12442017 -24.36401794 330.12442017 -33.88401794 330.12442017 C-33.88401794 327.15442017 -33.88401794 324.18442017 -33.88401794 321.12442017 C-35.17179138 321.13602173 -36.45956482 321.14762329 -37.78636169 321.15957642 C-39.46474567 321.16895286 -41.1431312 321.17805322 -42.82151794 321.18692017 C-43.67165466 321.19529907 -44.52179138 321.20367798 -45.39768982 321.21231079 C-46.6110199 321.21714478 -46.6110199 321.21714478 -47.84886169 321.22207642 C-48.97215881 321.22993164 -48.97215881 321.22993164 -50.1181488 321.23794556 C-51.88401794 321.12442017 -51.88401794 321.12442017 -52.88401794 320.12442017 C-53.02595132 317.12110999 -52.92638173 314.13224882 -52.88401794 311.12442017 C-55.85401794 311.12442017 -58.82401794 311.12442017 -61.88401794 311.12442017 C-62.21401794 308.48442017 -62.54401794 305.84442017 -62.88401794 303.12442017 C-68.82401794 302.79442017 -74.76401794 302.46442017 -80.88401794 302.12442017 C-80.88401794 299.15442017 -80.88401794 296.18442017 -80.88401794 293.12442017 C-83.08058044 293.15535767 -83.08058044 293.15535767 -85.32151794 293.18692017 C-86.84234313 293.20834024 -88.36473757 293.19621981 -89.88401794 293.12442017 C-90.88401794 292.12442017 -90.88401794 292.12442017 -90.98167419 290.05801392 C-90.94912211 287.746816 -90.91657003 285.43561808 -90.88401794 283.12442017 C-93.85401794 283.12442017 -96.82401794 283.12442017 -99.88401794 283.12442017 C-99.88401794 276.85442017 -99.88401794 270.58442017 -99.88401794 264.12442017 C-102.85401794 264.12442017 -105.82401794 264.12442017 -108.88401794 264.12442017 C-108.88401794 261.15442017 -108.88401794 258.18442017 -108.88401794 255.12442017 C-110.16276794 255.33067017 -111.44151794 255.53692017 -112.75901794 255.74942017 C-114.93870544 256.10098267 -114.93870544 256.10098267 -116.88401794 256.12442017 C-118.88401794 254.12442017 -118.88401794 254.12442017 -119.11106873 252.24502563 C-119.10059509 251.50139771 -119.09012146 250.75776978 -119.07933044 249.99160767 C-119.07288513 249.1859436 -119.06643982 248.38027954 -119.05979919 247.55020142 C-119.03466248 246.2875647 -119.03466248 246.2875647 -119.00901794 244.99942017 C-118.99999451 244.14992798 -118.99097107 243.30043579 -118.98167419 242.42520142 C-118.95807442 240.32482133 -118.92220277 238.22458572 -118.88401794 236.12442017 C-119.99776794 236.31004517 -121.11151794 236.49567017 -122.25901794 236.68692017 C-125.88401794 237.12442017 -125.88401794 237.12442017 -127.88401794 236.12442017 C-128.21401794 227.21442017 -128.54401794 218.30442017 -128.88401794 209.12442017 C-131.85401794 208.79442017 -134.82401794 208.46442017 -137.88401794 208.12442017 C-137.9071424 198.36291028 -137.92493356 188.60140687 -137.93583012 178.83987522 C-137.94105872 174.30767922 -137.94815595 169.7755019 -137.9594574 165.24331665 C-137.97028709 160.87319186 -137.97629495 156.50308509 -137.97889519 152.13294792 C-137.98074929 150.46191054 -137.98436962 148.79087419 -137.989748 147.11984444 C-137.99695953 144.78744465 -137.99800884 142.45512024 -137.99754333 140.12271118 C-138.00113861 139.42500107 -138.00473389 138.72729095 -138.00843811 138.00843811 C-137.99807011 133.23847233 -137.99807011 133.23847233 -136.88401794 132.12442017 C-133.91401794 132.12442017 -130.94401794 132.12442017 -127.88401794 132.12442017 C-127.88401794 122.88442017 -127.88401794 113.64442017 -127.88401794 104.12442017 C-124.40578679 102.96500978 -122.42506216 103.41621132 -118.88401794 104.12442017 C-118.89561951 102.83664673 -118.90722107 101.54887329 -118.91917419 100.22207642 C-118.92855064 98.54369244 -118.937651 96.86530691 -118.94651794 95.18692017 C-118.95489685 94.33678345 -118.96327576 93.48664673 -118.97190857 92.61074829 C-118.97674255 91.39741821 -118.97674255 91.39741821 -118.98167419 90.15957642 C-118.98952942 89.0362793 -118.98952942 89.0362793 -118.99754333 87.89028931 C-118.88401794 86.12442017 -118.88401794 86.12442017 -117.88401794 85.12442017 C-114.88070777 84.98248679 -111.8918466 85.08205638 -108.88401794 85.12442017 C-108.88401794 82.15442017 -108.88401794 79.18442017 -108.88401794 76.12442017 C-105.91401794 76.12442017 -102.94401794 76.12442017 -99.88401794 76.12442017 C-99.88401794 69.85442017 -99.88401794 63.58442017 -99.88401794 57.12442017 C-96.91401794 57.12442017 -93.94401794 57.12442017 -90.88401794 57.12442017 C-90.90464294 55.66004517 -90.92526794 54.19567017 -90.94651794 52.68692017 C-90.96793802 51.16609498 -90.95581758 49.64370054 -90.88401794 48.12442017 C-89.88401794 47.12442017 -89.88401794 47.12442017 -87.81761169 47.02676392 C-84.35081482 47.07559204 -84.35081482 47.07559204 -80.88401794 47.12442017 C-80.88401794 44.15442017 -80.88401794 41.18442017 -80.88401794 38.12442017 C-74.61401794 38.12442017 -68.34401794 38.12442017 -61.88401794 38.12442017 C-61.88401794 35.15442017 -61.88401794 32.18442017 -61.88401794 29.12442017 C-58.91401794 29.12442017 -55.94401794 29.12442017 -52.88401794 29.12442017 C-52.90464294 27.66004517 -52.92526794 26.19567017 -52.94651794 24.68692017 C-52.96793802 23.16609498 -52.95581758 21.64370054 -52.88401794 20.12442017 C-51.88401794 19.12442017 -51.88401794 19.12442017 -50.1181488 19.01089478 C-49.36928406 19.01613159 -48.62041931 19.02136841 -47.84886169 19.02676392 C-47.03997498 19.02998657 -46.23108826 19.03320923 -45.39768982 19.03652954 C-44.5475531 19.04490845 -43.69741638 19.05328735 -42.82151794 19.06192017 C-41.96751404 19.06643188 -41.11351013 19.0709436 -40.23362732 19.07559204 C-38.11706131 19.08741643 -36.00053109 19.10535248 -33.88401794 19.12442017 C-33.88401794 16.15442017 -33.88401794 13.18442017 -33.88401794 10.12442017 C-24.64401794 10.12442017 -15.40401794 10.12442017 -5.88401794 10.12442017 C-5.88401794 7.15442017 -5.88401794 4.18442017 -5.88401794 1.12442017 C-4.22236587 -0.53723191 -2.21885765 0.00482291 0 0 Z " fill="#D0C1DE" transform="translate(184.88401794433594,42.875579833984375)"/>
<path d="M0 0 C9.24 0 18.48 0 28 0 C28 3.3 28 6.6 28 10 C18.76 10 9.52 10 0 10 C0 13.3 0 16.6 0 20 C-5.94 20 -11.88 20 -18 20 C-18 22.97 -18 25.94 -18 29 C-21.3 29 -24.6 29 -28 29 C-28 31.97 -28 34.94 -28 38 C-34.27 38 -40.54 38 -47 38 C-47 40.97 -47 43.94 -47 47 C-49.97 47 -52.94 47 -56 47 C-56 53.27 -56 59.54 -56 66 C-58.97 66 -61.94 66 -65 66 C-65 69.3 -65 72.6 -65 76 C-68.3 76 -71.6 76 -75 76 C-75 81.94 -75 87.88 -75 94 C-77.97 94 -80.94 94 -84 94 C-84 103.57 -84 113.14 -84 123 C-86.97 123 -89.94 123 -93 123 C-93 147.42 -93 171.84 -93 197 C-90.03 197 -87.06 197 -84 197 C-84 206.24 -84 215.48 -84 225 C-81.03 225 -78.06 225 -75 225 C-75 222.03 -75 219.06 -75 216 C-71.7 216 -68.4 216 -65 216 C-65 218.97 -65 221.94 -65 225 C-62.03 225 -59.06 225 -56 225 C-56 228.3 -56 231.6 -56 235 C-53.03 235 -50.06 235 -47 235 C-47 225.76 -47 216.52 -47 207 C-43.7 207 -40.4 207 -37 207 C-37 203.7 -37 200.4 -37 197 C-27.76 197 -18.52 197 -9 197 C-9 200.3 -9 203.6 -9 207 C-6.03 207 -3.06 207 0 207 C0 216.24 0 225.48 0 235 C-2.97 235 -5.94 235 -9 235 C-9 237.97 -9 240.94 -9 244 C3.54 244 16.08 244 29 244 C29 247.3 29 250.6 29 254 C41.21 254 53.42 254 66 254 C66 250.7 66 247.4 66 244 C78.21 244 90.42 244 103 244 C103 241.03 103 238.06 103 235 C112.57 235 122.14 235 132 235 C132 232.03 132 229.06 132 226 C134.97 226 137.94 226 141 226 C141 219.73 141 213.46 141 207 C143.97 207 146.94 207 150 207 C150 203.7 150 200.4 150 197 C156.27 197 162.54 197 169 197 C169 191.06 169 185.12 169 179 C172.3 179 175.6 179 179 179 C179 176.03 179 173.06 179 170 C181.97 170 184.94 170 188 170 C188 160.43 188 150.86 188 141 C190.97 141 193.94 141 197 141 C197 135.06 197 129.12 197 123 C203.27 123 209.54 123 216 123 C216 113.43 216 103.86 216 94 C212.7 94 209.4 94 206 94 C206 88.06 206 82.12 206 76 C203.03 76 200.06 76 197 76 C197 72.7 197 69.4 197 66 C194.03 66 191.06 66 188 66 C188 59.73 188 53.46 188 47 C185.03 47 182.06 47 179 47 C179 44.03 179 41.06 179 38 C172.4 38 165.8 38 159 38 C159 35.03 159 32.06 159 29 C156.03 29 153.06 29 150 29 C150 26.03 150 23.06 150 20 C144.06 20 138.12 20 132 20 C132 16.7 132 13.4 132 10 C122.76 10 113.52 10 104 10 C104 6.7 104 3.4 104 0 C113.24 0 122.48 0 132 0 C132.97608217 2.92824652 133.08226668 4.95613276 133 8 C138.14092417 8.74777079 143.0205851 9.08005255 148.21484375 8.9375 C150 9 150 9 151 10 C151.45459858 12.65463121 151.70243238 15.32189138 152 18 C155.96 18.495 155.96 18.495 160 19 C160 21.97 160 24.94 160 28 C166.27 28 172.54 28 179 28 C179 30.97 179 33.94 179 37 C181.1965625 36.9690625 181.1965625 36.9690625 183.4375 36.9375 C184.95832518 36.91607993 186.48071962 36.92820036 188 37 C189 38 189 38 189.09765625 40.06640625 C189.06510417 42.37760417 189.03255208 44.68880208 189 47 C191.97 47 194.94 47 198 47 C198 53.27 198 59.54 198 66 C200.97 66 203.94 66 207 66 C207 68.97 207 71.94 207 75 C208.464375 74.979375 209.92875 74.95875 211.4375 74.9375 C212.95832518 74.91607993 214.48071962 74.92820036 216 75 C217 76 217 76 217.11352539 77.76586914 C217.10828857 78.51473389 217.10305176 79.26359863 217.09765625 80.03515625 C217.09443359 80.84404297 217.09121094 81.65292969 217.08789062 82.48632812 C217.07951172 83.33646484 217.07113281 84.18660156 217.0625 85.0625 C217.05798828 85.91650391 217.05347656 86.77050781 217.04882812 87.65039062 C217.03700373 89.76695663 217.01906769 91.88348685 217 94 C219.97 94 222.94 94 226 94 C226 103.24 226 112.48 226 122 C229.3 122 232.6 122 236 122 C236 147.08 236 172.16 236 198 C233.03 198.33 230.06 198.66 227 199 C226.67 207.91 226.34 216.82 226 226 C223.03 226.33 220.06 226.66 217 227 C216.67 232.94 216.34 238.88 216 245 C213.36 245 210.72 245 208 245 C207.67 247.97 207.34 250.94 207 254 C204.03 254.33 201.06 254.66 198 255 C198 260.94 198 266.88 198 273 C195.03 273 192.06 273 189 273 C189.0309375 275.1965625 189.0309375 275.1965625 189.0625 277.4375 C189.08392007 278.95832518 189.07179964 280.48071962 189 282 C188 283 188 283 185.93359375 283.09765625 C183.62239583 283.06510417 181.31119792 283.03255208 179 283 C179 285.97 179 288.94 179 292 C173.06 292.33 167.12 292.66 161 293 C160.67 295.64 160.34 298.28 160 301 C157.03 301.33 154.06 301.66 151 302 C151 304.97 151 307.94 151 311 C145.06 311.33 139.12 311.66 133 312 C133 314.64 133 317.28 133 320 C123.43 320 113.86 320 104 320 C104 323.3 104 326.6 104 330 C78.92 330 53.84 330 28 330 C28 326.7 28 323.4 28 320 C18.76 320 9.52 320 0 320 C0 317.03 0 314.06 0 311 C-1.28777344 311.01160156 -2.57554687 311.02320313 -3.90234375 311.03515625 C-5.58072772 311.0445327 -7.25911326 311.05363305 -8.9375 311.0625 C-9.78763672 311.07087891 -10.63777344 311.07925781 -11.51367188 311.08789062 C-12.72700195 311.09272461 -12.72700195 311.09272461 -13.96484375 311.09765625 C-15.08814087 311.10551147 -15.08814087 311.10551147 -16.23413086 311.11352539 C-18 311 -18 311 -19 310 C-19.14193337 306.99668982 -19.04236378 304.00782866 -19 301 C-21.97 301 -24.94 301 -28 301 C-28.33 298.36 -28.66 295.72 -29 293 C-34.94 292.67 -40.88 292.34 -47 292 C-47 289.03 -47 286.06 -47 283 C-49.1965625 283.0309375 -49.1965625 283.0309375 -51.4375 283.0625 C-52.95832518 283.08392007 -54.48071962 283.07179964 -56 283 C-57 282 -57 282 -57.09765625 279.93359375 C-57.06510417 277.62239583 -57.03255208 275.31119792 -57 273 C-59.97 273 -62.94 273 -66 273 C-66 266.73 -66 260.46 -66 254 C-68.97 254 -71.94 254 -75 254 C-75 251.03 -75 248.06 -75 245 C-76.27875 245.20625 -77.5575 245.4125 -78.875 245.625 C-81.0546875 245.9765625 -81.0546875 245.9765625 -83 246 C-85 244 -85 244 -85.22705078 242.12060547 C-85.21657715 241.37697754 -85.20610352 240.63334961 -85.1953125 239.8671875 C-85.18886719 239.06152344 -85.18242188 238.25585938 -85.17578125 237.42578125 C-85.15064453 236.16314453 -85.15064453 236.16314453 -85.125 234.875 C-85.11597656 234.02550781 -85.10695313 233.17601562 -85.09765625 232.30078125 C-85.07405647 230.20040116 -85.03818483 228.10016556 -85 226 C-86.11375 226.185625 -87.2275 226.37125 -88.375 226.5625 C-92 227 -92 227 -94 226 C-94.33 217.09 -94.66 208.18 -95 199 C-97.97 198.67 -100.94 198.34 -104 198 C-104.02312446 188.23849012 -104.04091561 178.4769867 -104.05181217 168.71545506 C-104.05704078 164.18325906 -104.06413801 159.65108173 -104.07543945 155.11889648 C-104.08626914 150.7487717 -104.09227701 146.37866492 -104.09487724 142.00852776 C-104.09673135 140.33749037 -104.10035168 138.66645403 -104.10573006 136.99542427 C-104.11294159 134.66302449 -104.1139909 132.33070007 -104.11352539 129.99829102 C-104.11712067 129.3005809 -104.12071594 128.60287079 -104.12442017 127.88401794 C-104.11405216 123.11405216 -104.11405216 123.11405216 -103 122 C-100.03 122 -97.06 122 -94 122 C-94 112.76 -94 103.52 -94 94 C-90.52176885 92.84058962 -88.54104422 93.29179116 -85 94 C-85.01160156 92.71222656 -85.02320312 91.42445313 -85.03515625 90.09765625 C-85.0445327 88.41927228 -85.05363305 86.74088674 -85.0625 85.0625 C-85.07087891 84.21236328 -85.07925781 83.36222656 -85.08789062 82.48632812 C-85.09272461 81.27299805 -85.09272461 81.27299805 -85.09765625 80.03515625 C-85.10551147 78.91185913 -85.10551147 78.91185913 -85.11352539 77.76586914 C-85 76 -85 76 -84 75 C-80.99668982 74.85806663 -78.00782866 74.95763622 -75 75 C-75 72.03 -75 69.06 -75 66 C-72.03 66 -69.06 66 -66 66 C-66 59.73 -66 53.46 -66 47 C-63.03 47 -60.06 47 -57 47 C-57.020625 45.535625 -57.04125 44.07125 -57.0625 42.5625 C-57.08392007 41.04167482 -57.07179964 39.51928038 -57 38 C-56 37 -56 37 -53.93359375 36.90234375 C-50.46679688 36.95117188 -50.46679688 36.95117188 -47 37 C-47 34.03 -47 31.06 -47 28 C-40.73 28 -34.46 28 -28 28 C-28 25.03 -28 22.06 -28 19 C-25.03 19 -22.06 19 -19 19 C-19.020625 17.535625 -19.04125 16.07125 -19.0625 14.5625 C-19.08392007 13.04167482 -19.07179964 11.51928038 -19 10 C-18 9 -18 9 -16.23413086 8.88647461 C-15.48526611 8.89171143 -14.73640137 8.89694824 -13.96484375 8.90234375 C-13.15595703 8.90556641 -12.34707031 8.90878906 -11.51367188 8.91210938 C-10.66353516 8.92048828 -9.81339844 8.92886719 -8.9375 8.9375 C-8.08349609 8.94201172 -7.22949219 8.94652344 -6.34960938 8.95117188 C-4.23304337 8.96299627 -2.11651315 8.98093231 0 9 C0 6.03 0 3.06 0 0 Z " fill="#9755D9" transform="translate(151,53)"/>
<path d="M0 0 C9.24 0 18.48 0 28 0 C28.97608217 2.92824652 29.08226668 4.95613276 29 8 C34.14092417 8.74777079 39.0205851 9.08005255 44.21484375 8.9375 C46 9 46 9 47 10 C47.45459858 12.65463121 47.70243238 15.32189138 48 18 C50.64 18.33 53.28 18.66 56 19 C56 21.97 56 24.94 56 28 C62.27 28 68.54 28 75 28 C75 30.97 75 33.94 75 37 C77.1965625 36.9690625 77.1965625 36.9690625 79.4375 36.9375 C80.95832518 36.91607993 82.48071962 36.92820036 84 37 C85 38 85 38 85.09765625 40.06640625 C85.06510417 42.37760417 85.03255208 44.68880208 85 47 C87.97 47 90.94 47 94 47 C94 53.27 94 59.54 94 66 C96.97 66 99.94 66 103 66 C103 68.97 103 71.94 103 75 C105.1965625 74.9690625 105.1965625 74.9690625 107.4375 74.9375 C108.95832518 74.91607993 110.48071962 74.92820036 112 75 C113 76 113 76 113.11352539 77.76586914 C113.10828857 78.51473389 113.10305176 79.26359863 113.09765625 80.03515625 C113.09443359 80.84404297 113.09121094 81.65292969 113.08789062 82.48632812 C113.07951172 83.33646484 113.07113281 84.18660156 113.0625 85.0625 C113.05798828 85.91650391 113.05347656 86.77050781 113.04882812 87.65039062 C113.03700373 89.76695663 113.01906769 91.88348685 113 94 C115.97 94 118.94 94 122 94 C122 103.24 122 112.48 122 122 C125.3 122 128.6 122 132 122 C132 147.08 132 172.16 132 198 C129.03 198.33 126.06 198.66 123 199 C122.67 207.91 122.34 216.82 122 226 C119.03 226.33 116.06 226.66 113 227 C112.67 232.94 112.34 238.88 112 245 C109.36 245 106.72 245 104 245 C103.67 247.97 103.34 250.94 103 254 C100.03 254.33 97.06 254.66 94 255 C94 260.94 94 266.88 94 273 C91.03 273 88.06 273 85 273 C85.0309375 275.1965625 85.0309375 275.1965625 85.0625 277.4375 C85.08392007 278.95832518 85.07179964 280.48071962 85 282 C84 283 84 283 81.93359375 283.09765625 C79.62239583 283.06510417 77.31119792 283.03255208 75 283 C75 285.97 75 288.94 75 292 C69.06 292.33 63.12 292.66 57 293 C56.67 295.64 56.34 298.28 56 301 C53.03 301.33 50.06 301.66 47 302 C47 304.97 47 307.94 47 311 C41.06 311.33 35.12 311.66 29 312 C29 314.64 29 317.28 29 320 C19.43 320 9.86 320 0 320 C0 323.3 0 326.6 0 330 C-25.08 330 -50.16 330 -76 330 C-76 326.7 -76 323.4 -76 320 C-51.25 320 -26.5 320 -1 320 C-1 316.7 -1 313.4 -1 310 C8.57 310 18.14 310 28 310 C28 307.03 28 304.06 28 301 C33.94 301 39.88 301 46 301 C46 297.7 46 294.4 46 291 C49.3 291 52.6 291 56 291 C56 288.03 56 285.06 56 282 C62.27 282 68.54 282 75 282 C75 279.03 75 276.06 75 273 C77.97 273 80.94 273 84 273 C84 266.73 84 260.46 84 254 C87.3 254 90.6 254 94 254 C94 251.03 94 248.06 94 245 C96.97 245 99.94 245 103 245 C103 238.73 103 232.46 103 226 C105.97 226 108.94 226 112 226 C112 216.43 112 206.86 112 197 C114.97 197 117.94 197 121 197 C121 172.58 121 148.16 121 123 C118.03 123 115.06 123 112 123 C112 113.43 112 103.86 112 94 C108.7 94 105.4 94 102 94 C102 88.06 102 82.12 102 76 C99.03 76 96.06 76 93 76 C93 72.7 93 69.4 93 66 C90.03 66 87.06 66 84 66 C84 59.73 84 53.46 84 47 C81.03 47 78.06 47 75 47 C75 44.03 75 41.06 75 38 C68.4 38 61.8 38 55 38 C55 35.03 55 32.06 55 29 C52.03 29 49.06 29 46 29 C46 26.03 46 23.06 46 20 C40.06 20 34.12 20 28 20 C28 16.7 28 13.4 28 10 C18.76 10 9.52 10 0 10 C0 6.7 0 3.4 0 0 Z " fill="#24053D" transform="translate(255,53)"/>
<path d="M0 0 C9.24 0 18.48 0 28 0 C28 3.3 28 6.6 28 10 C18.76 10 9.52 10 0 10 C0 13.3 0 16.6 0 20 C-5.94 20 -11.88 20 -18 20 C-18 22.97 -18 25.94 -18 29 C-21.3 29 -24.6 29 -28 29 C-28 31.97 -28 34.94 -28 38 C-34.27 38 -40.54 38 -47 38 C-47 40.97 -47 43.94 -47 47 C-49.97 47 -52.94 47 -56 47 C-56 53.27 -56 59.54 -56 66 C-58.97 66 -61.94 66 -65 66 C-65 69.3 -65 72.6 -65 76 C-68.3 76 -71.6 76 -75 76 C-75 81.94 -75 87.88 -75 94 C-77.97 94 -80.94 94 -84 94 C-84 103.57 -84 113.14 -84 123 C-86.97 123 -89.94 123 -93 123 C-93 147.42 -93 171.84 -93 197 C-90.03 197 -87.06 197 -84 197 C-84 206.57 -84 216.14 -84 226 C-81.03 226 -78.06 226 -75 226 C-75 231.94 -75 237.88 -75 244 C-71.7 244 -68.4 244 -65 244 C-65 247.3 -65 250.6 -65 254 C-62.03 254 -59.06 254 -56 254 C-56 260.27 -56 266.54 -56 273 C-53.03 273 -50.06 273 -47 273 C-47 275.97 -47 278.94 -47 282 C-40.73 282 -34.46 282 -28 282 C-28 285.3 -28 288.6 -28 292 C-25.03 292 -22.06 292 -19 292 C-19 294.97 -19 297.94 -19 301 C-21.97 301 -24.94 301 -28 301 C-28.33 298.36 -28.66 295.72 -29 293 C-34.94 292.67 -40.88 292.34 -47 292 C-47 289.03 -47 286.06 -47 283 C-49.1965625 283.0309375 -49.1965625 283.0309375 -51.4375 283.0625 C-52.95832518 283.08392007 -54.48071962 283.07179964 -56 283 C-57 282 -57 282 -57.09765625 279.93359375 C-57.06510417 277.62239583 -57.03255208 275.31119792 -57 273 C-59.97 273 -62.94 273 -66 273 C-66 266.73 -66 260.46 -66 254 C-68.97 254 -71.94 254 -75 254 C-75 251.03 -75 248.06 -75 245 C-76.27875 245.20625 -77.5575 245.4125 -78.875 245.625 C-81.0546875 245.9765625 -81.0546875 245.9765625 -83 246 C-85 244 -85 244 -85.22705078 242.12060547 C-85.21657715 241.37697754 -85.20610352 240.63334961 -85.1953125 239.8671875 C-85.18886719 239.06152344 -85.18242188 238.25585938 -85.17578125 237.42578125 C-85.15064453 236.16314453 -85.15064453 236.16314453 -85.125 234.875 C-85.11597656 234.02550781 -85.10695313 233.17601562 -85.09765625 232.30078125 C-85.07405647 230.20040116 -85.03818483 228.10016556 -85 226 C-86.11375 226.185625 -87.2275 226.37125 -88.375 226.5625 C-92 227 -92 227 -94 226 C-94.33 217.09 -94.66 208.18 -95 199 C-97.97 198.67 -100.94 198.34 -104 198 C-104.02312446 188.23849012 -104.04091561 178.4769867 -104.05181217 168.71545506 C-104.05704078 164.18325906 -104.06413801 159.65108173 -104.07543945 155.11889648 C-104.08626914 150.7487717 -104.09227701 146.37866492 -104.09487724 142.00852776 C-104.09673135 140.33749037 -104.10035168 138.66645403 -104.10573006 136.99542427 C-104.11294159 134.66302449 -104.1139909 132.33070007 -104.11352539 129.99829102 C-104.11712067 129.3005809 -104.12071594 128.60287079 -104.12442017 127.88401794 C-104.11405216 123.11405216 -104.11405216 123.11405216 -103 122 C-100.03 122 -97.06 122 -94 122 C-94 112.76 -94 103.52 -94 94 C-90.52176885 92.84058962 -88.54104422 93.29179116 -85 94 C-85.01160156 92.71222656 -85.02320312 91.42445313 -85.03515625 90.09765625 C-85.0445327 88.41927228 -85.05363305 86.74088674 -85.0625 85.0625 C-85.07087891 84.21236328 -85.07925781 83.36222656 -85.08789062 82.48632812 C-85.09272461 81.27299805 -85.09272461 81.27299805 -85.09765625 80.03515625 C-85.10551147 78.91185913 -85.10551147 78.91185913 -85.11352539 77.76586914 C-85 76 -85 76 -84 75 C-80.99668982 74.85806663 -78.00782866 74.95763622 -75 75 C-75 72.03 -75 69.06 -75 66 C-72.03 66 -69.06 66 -66 66 C-66 59.73 -66 53.46 -66 47 C-63.03 47 -60.06 47 -57 47 C-57.020625 45.535625 -57.04125 44.07125 -57.0625 42.5625 C-57.08392007 41.04167482 -57.07179964 39.51928038 -57 38 C-56 37 -56 37 -53.93359375 36.90234375 C-50.46679688 36.95117188 -50.46679688 36.95117188 -47 37 C-47 34.03 -47 31.06 -47 28 C-40.73 28 -34.46 28 -28 28 C-28 25.03 -28 22.06 -28 19 C-25.03 19 -22.06 19 -19 19 C-19.020625 17.535625 -19.04125 16.07125 -19.0625 14.5625 C-19.08392007 13.04167482 -19.07179964 11.51928038 -19 10 C-18 9 -18 9 -16.23413086 8.88647461 C-15.48526611 8.89171143 -14.73640137 8.89694824 -13.96484375 8.90234375 C-13.15595703 8.90556641 -12.34707031 8.90878906 -11.51367188 8.91210938 C-10.66353516 8.92048828 -9.81339844 8.92886719 -8.9375 8.9375 C-8.08349609 8.94201172 -7.22949219 8.94652344 -6.34960938 8.95117188 C-4.23304337 8.96299627 -2.11651315 8.98093231 0 9 C0 6.03 0 3.06 0 0 Z " fill="#34164E" transform="translate(151,53)"/>
<path d="M0 0 C12.54 0 25.08 0 38 0 C38 2.97 38 5.94 38 9 C40.97 9 43.94 9 47 9 C47 12.3 47 15.6 47 19 C49.97 19 52.94 19 56 19 C56 31.54 56 44.08 56 57 C53.03 57 50.06 57 47 57 C47 59.97 47 62.94 47 66 C43.7 66 40.4 66 37 66 C37 68.97 37 71.94 37 75 C24.79 75 12.58 75 0 75 C0 72.03 0 69.06 0 66 C-3.3 66 -6.6 66 -10 66 C-10 63.03 -10 60.06 -10 57 C-12.97 57 -15.94 57 -19 57 C-19 44.46 -19 31.92 -19 19 C-16.03 19 -13.06 19 -10 19 C-10 25.27 -10 31.54 -10 38 C-6.7 38 -3.4 38 0 38 C0 40.97 0 43.94 0 47 C6.27 47 12.54 47 19 47 C19 44.03 19 41.06 19 38 C21.97 38 24.94 38 28 38 C28 31.73 28 25.46 28 19 C25.03 19 22.06 19 19 19 C19 16.03 19 13.06 19 10 C12.73 10 6.46 10 0 10 C0 6.7 0 3.4 0 0 Z " fill="#290940" transform="translate(264,147)"/>
<path d="M0 0 C2.97 0 5.94 0 9 0 C9 6.27 9 12.54 9 19 C11.97 19 14.94 19 18 19 C18 21.97 18 24.94 18 28 C24.27 28 30.54 28 37 28 C37 25.03 37 22.06 37 19 C43.435 18.505 43.435 18.505 50 18 C50 18.66 50 19.32 50 20 C50.66 20 51.32 20 52 20 C53.625 21.5 53.625 21.5 55 23 C55 21.68 55 20.36 55 19 C55.99 19 56.98 19 58 19 C58 18.01 58 17.02 58 16 C59.32 16 60.64 16 62 16 C62 15.34 62 14.68 62 14 C64.15014946 11.73362624 66.35251428 9.57554286 68.6875 7.5 C70.41205886 5.52907559 71.13836409 3.45234835 72 1 C72.66 1 73.32 1 74 1 C74 12.88 74 24.76 74 37 C71.03 37 68.06 37 65 37 C65 40.3 65 43.6 65 47 C62.03 47 59.06 47 56 47 C56 49.97 56 52.94 56 56 C43.79 56 31.58 56 19 56 C19 53.03 19 50.06 19 47 C15.7 47 12.4 47 9 47 C9 44.03 9 41.06 9 38 C6.03 38 3.06 38 0 38 C0 25.46 0 12.92 0 0 Z " fill="#26063D" transform="translate(114,166)"/>
<path d="M0 0 C12.54 0 25.08 0 38 0 C38 3.3 38 6.6 38 10 C41.3 10 44.6 10 48 10 C48 12.97 48 15.94 48 19 C50.97 19 53.94 19 57 19 C57 31.54 57 44.08 57 57 C54.03 57 51.06 57 48 57 C48 59.97 48 62.94 48 66 C47.67 66 47.34 66 47 66 C47 62.7 47 59.4 47 56 C49.97 56 52.94 56 56 56 C56 44.12 56 32.24 56 20 C55.34 20 54.68 20 54 20 C53.6596875 21.5778125 53.6596875 21.5778125 53.3125 23.1875 C52.17947163 27.17737846 50.20834555 29.33942076 47 32 C46.01 32.33 45.02 32.66 44 33 C44 33.66 44 34.32 44 35 C42.68 35 41.36 35 40 35 C40 35.99 40 36.98 40 38 C39.01 38 38.02 38 37 38 C37 39.32 37 40.64 37 42 C36.01 41.67 35.02 41.34 34 41 C34 40.34 34 39.68 34 39 C30.71480525 37.90493508 28.26336585 37.90039392 24.8125 37.9375 C23.72582031 37.94652344 22.63914063 37.95554688 21.51953125 37.96484375 C20.68808594 37.97644531 19.85664063 37.98804688 19 38 C19 40.97 19 43.94 19 47 C12.73 47 6.46 47 0 47 C0 44.03 0 41.06 0 38 C-2.97 38 -5.94 38 -9 38 C-9 28.43 -9 18.86 -9 9 C-6.03 9 -3.06 9 0 9 C0 6.03 0 3.06 0 0 Z " fill="#2E0F43" transform="translate(132,147)"/>
<path d="M0 0 C9.24 0 18.48 0 28 0 C28.97608217 2.92824652 29.08226668 4.95613276 29 8 C34.14092417 8.74777079 39.0205851 9.08005255 44.21484375 8.9375 C46 9 46 9 47 10 C47.45459858 12.65463121 47.70243238 15.32189138 48 18 C50.64 18.33 53.28 18.66 56 19 C56 21.97 56 24.94 56 28 C62.27 28 68.54 28 75 28 C75 30.97 75 33.94 75 37 C76.464375 36.979375 77.92875 36.95875 79.4375 36.9375 C80.95832518 36.91607993 82.48071962 36.92820036 84 37 C85 38 85 38 85.09765625 40.06640625 C85.06510417 42.37760417 85.03255208 44.68880208 85 47 C87.97 47 90.94 47 94 47 C94 53.27 94 59.54 94 66 C96.97 66 99.94 66 103 66 C103 68.97 103 71.94 103 75 C105.1965625 74.9690625 105.1965625 74.9690625 107.4375 74.9375 C108.95832518 74.91607993 110.48071962 74.92820036 112 75 C113 76 113 76 113.11352539 77.76586914 C113.10567017 78.88916626 113.10567017 78.88916626 113.09765625 80.03515625 C113.09282227 81.24848633 113.09282227 81.24848633 113.08789062 82.48632812 C113.07532227 83.7615332 113.07532227 83.7615332 113.0625 85.0625 C113.05798828 85.91650391 113.05347656 86.77050781 113.04882812 87.65039062 C113.03700373 89.76695663 113.01906769 91.88348685 113 94 C115.97 94 118.94 94 122 94 C122 103.24 122 112.48 122 122 C125.3 122 128.6 122 132 122 C132 147.08 132 172.16 132 198 C131.34 198 130.68 198 130 198 C130 173.25 130 148.5 130 123 C127.36 123 124.72 123 122 123 C122 147.75 122 172.5 122 198 C118.7 198 115.4 198 112 198 C112 197.67 112 197.34 112 197 C114.97 197 117.94 197 121 197 C121 172.58 121 148.16 121 123 C118.03 123 115.06 123 112 123 C112 113.43 112 103.86 112 94 C108.7 94 105.4 94 102 94 C102 88.06 102 82.12 102 76 C99.03 76 96.06 76 93 76 C93 72.7 93 69.4 93 66 C90.03 66 87.06 66 84 66 C84 59.73 84 53.46 84 47 C81.03 47 78.06 47 75 47 C75 44.03 75 41.06 75 38 C68.4 38 61.8 38 55 38 C55 35.03 55 32.06 55 29 C52.03 29 49.06 29 46 29 C46 26.03 46 23.06 46 20 C40.06 20 34.12 20 28 20 C28 16.7 28 13.4 28 10 C18.76 10 9.52 10 0 10 C0 6.7 0 3.4 0 0 Z " fill="#432462" transform="translate(255,53)"/>
<path d="M0 0 C9.24 0 18.48 0 28 0 C28 3.3 28 6.6 28 10 C30.97 10 33.94 10 37 10 C37 19.24 37 28.48 37 38 C34.03 38 31.06 38 28 38 C28 40.97 28 43.94 28 47 C21.73 47 15.46 47 9 47 C9 44.03 9 41.06 9 38 C3.06 38 -2.88 38 -9 38 C-9 28.76 -9 19.52 -9 10 C-6.03 10 -3.06 10 0 10 C0 6.7 0 3.4 0 0 Z " fill="#9986BB" transform="translate(114,250)"/>
<path d="M0 0 C0.33 0 0.66 0 1 0 C1 9.24 1 18.48 1 28 C6.94 28 12.88 28 19 28 C19.62888227 37.11879288 19.02079901 42.05837291 13 49 C12.28650391 49.82371094 12.28650391 49.82371094 11.55859375 50.6640625 C10.25 52.0625 10.25 52.0625 8 54 C7.34 54 6.68 54 6 54 C5.34 56.31 4.68 58.62 4 61 C7.14611253 63.09740836 7.91188078 63.25328219 11.5 63.1875 C12.66015625 63.17783203 12.66015625 63.17783203 13.84375 63.16796875 C16.18348849 63.0730565 16.18348849 63.0730565 19 62 C20.26237731 64.52475462 20.09856404 66.31200466 20.0625 69.125 C20.05347656 70.03507812 20.04445312 70.94515625 20.03515625 71.8828125 C20.02355469 72.58148438 20.01195312 73.28015625 20 74 C22.97 74 25.94 74 29 74 C29 74.33 29 74.66 29 75 C19.43 75 9.86 75 0 75 C0 72.03 0 69.06 0 66 C-2.97 66 -5.94 66 -9 66 C-9 59.73 -9 53.46 -9 47 C-11.97 47 -14.94 47 -18 47 C-18 43.7 -18 40.4 -18 37 C-21.3 37 -24.6 37 -28 37 C-28 31.06 -28 25.12 -28 19 C-30.97 19 -33.94 19 -37 19 C-37 18.67 -37 18.34 -37 18 C-34.03 18 -31.06 18 -28 18 C-28 15.03 -28 12.06 -28 9 C-24.7 9 -21.4 9 -18 9 C-18 11.97 -18 14.94 -18 18 C-15.03 18 -12.06 18 -9 18 C-9 21.3 -9 24.6 -9 28 C-6.03 28 -3.06 28 0 28 C0 18.76 0 9.52 0 0 Z " fill="#9857D8" transform="translate(104,260)"/>
<path d="M0 0 C9.57 0 19.14 0 29 0 C29 2.97 29 5.94 29 9 C31.97 9 34.94 9 38 9 C38 15.27 38 21.54 38 28 C34.7 28 31.4 28 28 28 C28 30.97 28 33.94 28 37 C19.09 37 10.18 37 1 37 C1 34.03 1 31.06 1 28 C-2.3 28 -5.6 28 -9 28 C-9 21.73 -9 15.46 -9 9 C-6.03 9 -3.06 9 0 9 C0 6.03 0 3.06 0 0 Z " fill="#9987BA" transform="translate(179,82)"/>
<path d="M0 0 C6.27 0 12.54 0 19 0 C19 3.3 19 6.6 19 10 C23.455 9.505 23.455 9.505 28 9 C28 15.27 28 21.54 28 28 C25.03 28 22.06 28 19 28 C19 31.3 19 34.6 19 38 C12.73 38 6.46 38 0 38 C0 34.7 0 31.4 0 28 C-2.97 28 -5.94 28 -9 28 C-9.82574651 21.60046458 -10.09088753 15.45301461 -10 9 C-6.7 9 -3.4 9 0 9 C0 6.03 0 3.06 0 0 Z " fill="#9C8ABB" transform="translate(217,194)"/>
<path d="M0 0 C6.6 0 13.2 0 20 0 C20 3.3 20 6.6 20 10 C22.64 10 25.28 10 28 10 C28 15.94 28 21.88 28 28 C25.03 28 22.06 28 19 28 C19 31.3 19 34.6 19 38 C13.06 38 7.12 38 1 38 C1 35.03 1 32.06 1 29 C-2.3 29 -5.6 29 -9 29 C-9 22.73 -9 16.46 -9 10 C-6.03 10 -3.06 10 0 10 C0 6.7 0 3.4 0 0 Z " fill="#9A88BB" transform="translate(282,100)"/>
<path d="M0 0 C5.94 0 11.88 0 18 0 C18 2.97 18 5.94 18 9 C21.3 9 24.6 9 28 9 C28 15.27 28 21.54 28 28 C24.7 28 21.4 28 18 28 C18 30.97 18 33.94 18 37 C11.73 37 5.46 37 -1 37 C-1 34.03 -1 31.06 -1 28 C-3.97 28 -6.94 28 -10 28 C-10 21.73 -10 15.46 -10 9 C-6.7 9 -3.4 9 0 9 C0 6.03 0 3.06 0 0 Z " fill="#F4F0F8" transform="translate(133,157)"/>
<path d="M0 0 C6.27 0 12.54 0 19 0 C19 2.97 19 5.94 19 9 C21.97 9 24.94 9 28 9 C28 15.27 28 21.54 28 28 C25.03 28 22.06 28 19 28 C19 30.97 19 33.94 19 37 C12.73 37 6.46 37 0 37 C0 31.06 0 25.12 0 19 C-2.97 19 -5.94 19 -9 19 C-9 15.7 -9 12.4 -9 9 C-6.03 9 -3.06 9 0 9 C0 6.03 0 3.06 0 0 Z " fill="#F6F2F8" transform="translate(264,157)"/>
<path d="M0 0 C0.69771011 0.00359528 1.39542023 0.00719055 2.11427307 0.01089478 C3.2117688 0.01067574 3.2117688 0.01067574 4.33143616 0.01045227 C6.76094989 0.0111515 9.19038789 0.01894432 11.61988831 0.02676392 C13.29997719 0.02862806 14.98006662 0.03005198 16.66015625 0.03105164 C21.09071849 0.03487709 25.52124815 0.04470761 29.95179749 0.05575562 C34.46941182 0.06596914 38.98703139 0.07054913 43.50465393 0.07559204 C52.37511098 0.08632986 61.24554381 0.10340661 70.11598206 0.12442017 C70.11598206 3.42442017 70.11598206 6.72442017 70.11598206 10.12442017 C45.03598206 10.12442017 19.95598206 10.12442017 -5.88401794 10.12442017 C-5.88401794 0.01278951 -5.88401794 0.01278951 0 0 Z " fill="#280743" transform="translate(184.88401794433594,42.875579833984375)"/>
<path d="M0 0 C24.42 0 48.84 0 74 0 C74 2.97 74 5.94 74 9 C49.58 9 25.16 9 0 9 C0 6.03 0 3.06 0 0 Z " fill="#E8DAF6" transform="translate(180,363)"/>
<path d="M0 0 C2.97 0 5.94 0 9 0 C9 24.42 9 48.84 9 74 C6.03 74 3.06 74 0 74 C0 49.58 0 25.16 0 0 Z " fill="#EBD8F6" transform="translate(367,176)"/>
<path d="M0 0 C24.42 0 48.84 0 74 0 C74 2.97 74 5.94 74 9 C49.58 9 25.16 9 0 9 C0 6.03 0 3.06 0 0 Z " fill="#F7F1F9" transform="translate(180,54)"/>
<path d="M0 0 C3.3 0 6.6 0 10 0 C10 3.3 10 6.6 10 10 C7.03 10 4.06 10 1 10 C1 16.27 1 22.54 1 29 C-1.97 29 -4.94 29 -8 29 C-8 31.97 -8 34.94 -8 38 C-14.27 38 -20.54 38 -27 38 C-27 40.97 -27 43.94 -27 47 C-30.3 47 -33.6 47 -37 47 C-37 43.7 -37 40.4 -37 37 C-34.03 37 -31.06 37 -28 37 C-28.020625 35.700625 -28.04125 34.40125 -28.0625 33.0625 C-28.08399454 31.70834367 -28.07148199 30.35243917 -28 29 C-27 28 -27 28 -25.23413086 27.88647461 C-24.48526611 27.89171143 -23.73640137 27.89694824 -22.96484375 27.90234375 C-22.15595703 27.90556641 -21.34707031 27.90878906 -20.51367188 27.91210938 C-19.66353516 27.92048828 -18.81339844 27.92886719 -17.9375 27.9375 C-17.08349609 27.94201172 -16.22949219 27.94652344 -15.34960938 27.95117188 C-13.23304337 27.96299627 -11.11651315 27.98093231 -9 28 C-9.01160156 26.71222656 -9.02320313 25.42445313 -9.03515625 24.09765625 C-9.0445327 22.41927228 -9.05363305 20.74088674 -9.0625 19.0625 C-9.07087891 18.21236328 -9.07925781 17.36222656 -9.08789062 16.48632812 C-9.09272461 15.27299805 -9.09272461 15.27299805 -9.09765625 14.03515625 C-9.10551147 12.91185913 -9.10551147 12.91185913 -9.11352539 11.76586914 C-9 10 -9 10 -8 9 C-5.32941149 8.85884839 -2.67567762 8.95752893 0 9 C0 6.03 0 3.06 0 0 Z " fill="#B391D3" transform="translate(338,297)"/>
<path d="M0 0 C2.64 0 5.28 0 8 0 C8 24.42 8 48.84 8 74 C5.36 74 2.72 74 0 74 C0 49.58 0 25.16 0 0 Z " fill="#230538" transform="translate(49,176)"/>
<path d="M0 0 C9.24 0 18.48 0 28 0 C28.97608217 2.92824652 29.08226668 4.95613276 29 8 C34.14092417 8.74777079 39.0205851 9.08005255 44.21484375 8.9375 C46 9 46 9 47 10 C47.45459858 12.65463121 47.70243238 15.32189138 48 18 C50.64 18.33 53.28 18.66 56 19 C56 21.97 56 24.94 56 28 C53.03 28 50.06 28 47 28 C47 25.03 47 22.06 47 19 C40.73 19 34.46 19 28 19 C28 16.03 28 13.06 28 10 C18.76 10 9.52 10 0 10 C0 6.7 0 3.4 0 0 Z " fill="#26073F" transform="translate(255,53)"/>
<path d="M0 0 C0.66 0.66 1.32 1.32 2 2 C1.34 2 0.68 2 0 2 C0 7.94 0 13.88 0 20 C-2.97 20 -5.94 20 -9 20 C-8.979375 21.464375 -8.95875 22.92875 -8.9375 24.4375 C-8.91607993 25.95832518 -8.92820036 27.48071962 -9 29 C-10 30 -10 30 -12.06640625 30.09765625 C-15.53320312 30.04882812 -15.53320312 30.04882812 -19 30 C-19 32.97 -19 35.94 -19 39 C-28.24 39 -37.48 39 -47 39 C-47 41.97 -47 44.94 -47 48 C-47.33 48 -47.66 48 -48 48 C-48 44.7 -48 41.4 -48 38 C-44.7 38 -41.4 38 -38 38 C-38 35.03 -38 32.06 -38 29 C-31.73 29 -25.46 29 -19 29 C-19 26.03 -19 23.06 -19 20 C-16.03 20 -13.06 20 -10 20 C-10 13.73 -10 7.46 -10 1 C-2.3828125 0.0234375 -2.3828125 0.0234375 0 0 Z " fill="#330E55" transform="translate(349,306)"/>
<path d="M0 0 C3.3 0 6.6 0 10 0 C10 2.97 10 5.94 10 9 C12.97 9 15.94 9 19 9 C19 15.27 19 21.54 19 28 C24.94 28 30.88 28 37 28 C37 31.3 37 34.6 37 38 C30.73 38 24.46 38 18 38 C18 35.03 18 32.06 18 29 C15.03 29 12.06 29 9 29 C9 22.73 9 16.46 9 10 C6.03 10 3.06 10 0 10 C0 6.7 0 3.4 0 0 Z " fill="#B495D1" transform="translate(86,297)"/>
<path d="M0 0 C3.3 0 6.6 0 10 0 C10 2.97 10 5.94 10 9 C18.91 9 27.82 9 37 9 C37 6.03 37 3.06 37 0 C40.3 0 43.6 0 47 0 C47 3.3 47 6.6 47 10 C44.03 10 41.06 10 38 10 C38 12.97 38 15.94 38 19 C28.43 19 18.86 19 9 19 C8.67 16.03 8.34 13.06 8 10 C5.36 9.67 2.72 9.34 0 9 C0 6.03 0 3.06 0 0 Z " fill="#DED0ED" transform="translate(170,110)"/>
<path d="M0 0 C2.97 0 5.94 0 9 0 C9 6.27 9 12.54 9 19 C6.03 19 3.06 19 0 19 C0 28.24 0 37.48 0 47 C-3.3 47 -6.6 47 -10 47 C-10 37.76 -10 28.52 -10 19 C-6.52176885 17.84058962 -4.54104422 18.29179116 -1 19 C-1.01160156 17.71222656 -1.02320312 16.42445313 -1.03515625 15.09765625 C-1.0445327 13.41927228 -1.05363305 11.74088674 -1.0625 10.0625 C-1.07087891 9.21236328 -1.07925781 8.36222656 -1.08789062 7.48632812 C-1.09111328 6.67744141 -1.09433594 5.86855469 -1.09765625 5.03515625 C-1.10289307 4.2862915 -1.10812988 3.53742676 -1.11352539 2.76586914 C-1 1 -1 1 0 0 Z " fill="#27063F" transform="translate(67,128)"/>
<path d="M0 0 C9.24 0 18.48 0 28 0 C28 3.3 28 6.6 28 10 C18.76 10 9.52 10 0 10 C0 12.97 0 15.94 0 19 C-6.27 19 -12.54 19 -19 19 C-19 10 -19 10 -18 9 C-16.65732587 8.91368126 -15.31025678 8.89293527 -13.96484375 8.90234375 C-13.15595703 8.90556641 -12.34707031 8.90878906 -11.51367188 8.91210938 C-10.66353516 8.92048828 -9.81339844 8.92886719 -8.9375 8.9375 C-8.08349609 8.94201172 -7.22949219 8.94652344 -6.34960938 8.95117188 C-4.23304337 8.96299627 -2.11651315 8.98093231 0 9 C0 6.03 0 3.06 0 0 Z " fill="#26063E" transform="translate(151,53)"/>
<path d="M0 0 C6.27 0 12.54 0 19 0 C19 2.97 19 5.94 19 9 C28.24 9 37.48 9 47 9 C47 12.3 47 15.6 47 19 C37.76 19 28.52 19 19 19 C19 16.03 19 13.06 19 10 C17.71222656 10.01160156 16.42445313 10.02320313 15.09765625 10.03515625 C13.41927228 10.0445327 11.74088674 10.05363305 10.0625 10.0625 C8.78729492 10.07506836 8.78729492 10.07506836 7.48632812 10.08789062 C6.67744141 10.09111328 5.86855469 10.09433594 5.03515625 10.09765625 C4.2862915 10.10289307 3.53742676 10.10812988 2.76586914 10.11352539 C1 10 1 10 0 9 C0 6.03 0 3.06 0 0 Z " fill="#25043D" transform="translate(132,354)"/>
<path d="M0 0 C2.97 0 5.94 0 9 0 C9 2.97 9 5.94 9 9 C11.97 9 14.94 9 18 9 C18 11.97 18 14.94 18 18 C14.7 18 11.4 18 8 18 C8 20.97 8 23.94 8 27 C5.36 27 2.72 27 0 27 C0 24.36 0 21.72 0 19 C-3.3 19 -6.6 19 -10 19 C-10 15.7 -10 12.4 -10 9 C-6.7 9 -3.4 9 0 9 C0 6.03 0 3.06 0 0 Z " fill="#9A86BA" transform="translate(86,157)"/>
<path d="M0 0 C6.27 0 12.54 0 19 0 C19 2.64 19 5.28 19 8 C16.06666115 10.93333885 12.81273792 10.46115407 8.875 10.625 C6.27625 10.74875 3.6775 10.8725 1 11 C0.67 16.61 0.34 22.22 0 28 C-3.3 28 -6.6 28 -10 28 C-10 21.73 -10 15.46 -10 9 C-6.7 9 -3.4 9 0 9 C0 6.03 0 3.06 0 0 Z " fill="#803BC8" transform="translate(217,316)"/>
<path d="M0 0 C5.28 0 10.56 0 16 0 C16 5.61 16 11.22 16 17 C12 18 12 18 10.1875 17.5 C6.99901038 16.77120237 4.18918974 17.44802485 1 18 C1.20625 18.7425 1.4125 19.485 1.625 20.25 C2 23 2 23 0 27 C-3.3 27 -6.6 27 -10 27 C-10 23.7 -10 20.4 -10 17 C-6.7 17 -3.4 17 0 17 C0 11.39 0 5.78 0 0 Z " fill="#9854DD" transform="translate(349,177)"/>
<path d="M0 0 C0.33 0 0.66 0 1 0 C1 2.97 1 5.94 1 9 C3.97 9 6.94 9 10 9 C10 15.27 10 21.54 10 28 C7.03 28 4.06 28 1 28 C1 30.97 1 33.94 1 37 C-5.27 37 -11.54 37 -18 37 C-18 34.03 -18 31.06 -18 28 C-12.06 28 -6.12 28 0 28 C0 18.76 0 9.52 0 0 Z " fill="#D3B4ED" transform="translate(282,157)"/>
<path d="M0 0 C12.54 0 25.08 0 38 0 C38 2.97 38 5.94 38 9 C25.46 9 12.92 9 0 9 C0 6.03 0 3.06 0 0 Z " fill="#2A0C3F" transform="translate(198,279)"/>
<path d="M0 0 C6.27 0 12.54 0 19 0 C19 2.97 19 5.94 19 9 C18 10 18 10 16.23413086 10.11352539 C15.48526611 10.10828857 14.73640137 10.10305176 13.96484375 10.09765625 C13.15595703 10.09443359 12.34707031 10.09121094 11.51367188 10.08789062 C10.66353516 10.07951172 9.81339844 10.07113281 8.9375 10.0625 C8.08349609 10.05798828 7.22949219 10.05347656 6.34960938 10.04882812 C4.23304337 10.03700373 2.11651315 10.01906769 0 10 C0 12.97 0 15.94 0 19 C-3.3 19 -6.6 19 -10 19 C-10 15.7 -10 12.4 -10 9 C-6.7 9 -3.4 9 0 9 C0 6.03 0 3.06 0 0 Z " fill="#6B598E" transform="translate(217,194)"/>
<path d="M0 0 C9.24 0 18.48 0 28 0 C28 3.3 28 6.6 28 10 C18.76 10 9.52 10 0 10 C0 6.7 0 3.4 0 0 Z " fill="#E2D0F4" transform="translate(254,353)"/>
<path d="M0 0 C3.3 0 6.6 0 10 0 C10 9.24 10 18.48 10 28 C6.7 28 3.4 28 0 28 C0 18.76 0 9.52 0 0 Z " fill="#E3D0F5" transform="translate(357,250)"/>
<path d="M0 0 C9.24 0 18.48 0 28 0 C28 3.3 28 6.6 28 10 C18.76 10 9.52 10 0 10 C0 6.7 0 3.4 0 0 Z " fill="#F1EDF6" transform="translate(254,63)"/>
<path d="M0 0 C6.27 0 12.54 0 19 0 C19 2.97 19 5.94 19 9 C21.97 9 24.94 9 28 9 C28 11.97 28 14.94 28 18 C25.03 18 22.06 18 19 18 C18.67 15.36 18.34 12.72 18 10 C12.06 9.67 6.12 9.34 0 9 C0 6.03 0 3.06 0 0 Z " fill="#25073F" transform="translate(104,336)"/>
<path d="M0 0 C2.97 0 5.94 0 9 0 C9.33 2.64 9.66 5.28 10 8 C15.94 8.33 21.88 8.66 28 9 C28 11.97 28 14.94 28 18 C21.73 18 15.46 18 9 18 C9 15.03 9 12.06 9 9 C6.03 9 3.06 9 0 9 C0 6.03 0 3.06 0 0 Z " fill="#DBBAF8" transform="translate(123,176)"/>
<path d="M0 0 C2.97 0 5.94 0 9 0 C9 9.24 9 18.48 9 28 C6.03 28 3.06 28 0 28 C0 18.76 0 9.52 0 0 Z " fill="#624D8C" transform="translate(105,260)"/>
<path d="M0 0 C2.97 0 5.94 0 9 0 C9 2.97 9 5.94 9 9 C6.36 9.33 3.72 9.66 1 10 C0.67 15.61 0.34 21.22 0 27 C-2.97 27 -5.94 27 -9 27 C-9 21.06 -9 15.12 -9 9 C-6.03 9 -3.06 9 0 9 C0 6.03 0 3.06 0 0 Z " fill="#F4EEF9" transform="translate(86,120)"/>
<path d="M0 0 C8.91 0 17.82 0 27 0 C27 2.97 27 5.94 27 9 C18.09 9 9.18 9 0 9 C0 6.03 0 3.06 0 0 Z " fill="#E9D8F6" transform="translate(152,354)"/>
<path d="M0 0 C8.91 0 17.82 0 27 0 C27 2.97 27 5.94 27 9 C18.09 9 9.18 9 0 9 C0 6.03 0 3.06 0 0 Z " fill="#624E8B" transform="translate(114,251)"/>
<path d="M0 0 C2.97 0 5.94 0 9 0 C9 8.91 9 17.82 9 27 C6.03 27 3.06 27 0 27 C0 18.09 0 9.18 0 0 Z " fill="#E8D8F5" transform="translate(357,148)"/>
<path d="M0 0 C8.91 0 17.82 0 27 0 C27 2.97 27 5.94 27 9 C18.09 9 9.18 9 0 9 C0 6.03 0 3.06 0 0 Z " fill="#634F8B" transform="translate(180,82)"/>
<path d="M0 0 C8.91 0 17.82 0 27 0 C27 2.97 27 5.94 27 9 C18.09 9 9.18 9 0 9 C0 6.03 0 3.06 0 0 Z " fill="#F4F1FB" transform="translate(152,63)"/>
<path d="M0 0 C0.33 0.66 0.66 1.32 1 2 C3.31 2 5.62 2 8 2 C8.66 10.25 9.32 18.5 10 27 C6.7 27 3.4 27 0 27 C0 18.09 0 9.18 0 0 Z " fill="#23063A" transform="translate(367,148)"/>
<path d="M0 0 C6.93359375 -0.09765625 6.93359375 -0.09765625 9 0 C10 1 10 1 10.0625 4.5625 C10.041875 5.696875 10.02125 6.83125 10 8 C10.80743652 7.96447021 11.61487305 7.92894043 12.44677734 7.89233398 C16.08930321 7.73516117 19.73211992 7.58622646 23.375 7.4375 C24.64601562 7.38142578 25.91703125 7.32535156 27.2265625 7.26757812 C28.43828125 7.21923828 29.65 7.17089844 30.8984375 7.12109375 C32.01911621 7.0739624 33.13979492 7.02683105 34.29443359 6.97827148 C37 7 37 7 39 8 C39 10.97 39 13.94 39 17 C50.22 17 61.44 17 73 17 C73 14.69 73 12.38 73 10 C73.66 9.67 74.32 9.34 75 9 C75 12.3 75 15.6 75 19 C62.79 19 50.58 19 38 19 C38 15.7 38 12.4 38 9 C25.46 9 12.92 9 0 9 C0 6.03 0 3.06 0 0 Z " fill="#D2B4EF" transform="translate(142,288)"/>
<path d="M0 0 C8.91 0 17.82 0 27 0 C27 2.64 27 5.28 27 8 C18.09 8 9.18 8 0 8 C0 5.36 0 2.72 0 0 Z " fill="#F7EDFE" transform="translate(180,120)"/>
<path d="M0 0 C3.3 0 6.6 0 10 0 C10 2.97 10 5.94 10 9 C7.03 9 4.06 9 1 9 C1 12.3 1 15.6 1 19 C3.97 19 6.94 19 10 19 C10 21.97 10 24.94 10 28 C6.7 28 3.4 28 0 28 C0 18.76 0 9.52 0 0 Z " fill="#CEB1E7" transform="translate(254,157)"/>
<path d="M0 0 C3.3 0 6.6 0 10 0 C10 6.27 10 12.54 10 19 C6.7 19 3.4 19 0 19 C0 12.73 0 6.46 0 0 Z " fill="#DEBAFC" transform="translate(151,166)"/>
<path d="M0 0 C2.64 0 5.28 0 8 0 C8 2.97 8 5.94 8 9 C5.69 9.33 3.38 9.66 1 10 C1.20625 10.7425 1.4125 11.485 1.625 12.25 C2 15 2 15 0 19 C-3.3 19 -6.6 19 -10 19 C-10 15.7 -10 12.4 -10 9 C-6.7 9 -3.4 9 0 9 C0 6.03 0 3.06 0 0 Z " fill="#8041C5" transform="translate(349,185)"/>
<path d="M0 0 C3.63 0 7.26 0 11 0 C10.125 7.875 10.125 7.875 9 9 C6.34536879 9.45459858 3.67810862 9.70243238 1 10 C0.67 12.97 0.34 15.94 0 19 C-2.97 19 -5.94 19 -9 19 C-9 15.7 -9 12.4 -9 9 C-6.03 9 -3.06 9 0 9 C0 6.03 0 3.06 0 0 Z " fill="#6F4C9D" transform="translate(301,251)"/>
<path d="M0 0 C3.3 0 6.6 0 10 0 C10 5.94 10 11.88 10 18 C6.7 18 3.4 18 0 18 C0 12.06 0 6.12 0 0 Z " fill="#66508E" transform="translate(273,110)"/>
<path d="M0 0 C1.32 0 2.64 0 4 0 C4 1.98 4 3.96 4 6 C2.68 5.67 1.36 5.34 0 5 C-0.66 7.31 -1.32 9.62 -2 12 C-2.66 12 -3.32 12 -4 12 C-4.2475 12.804375 -4.495 13.60875 -4.75 14.4375 C-6 17 -6 17 -8.0625 17.75 C-9.0215625 17.87375 -9.0215625 17.87375 -10 18 C-11.15811388 19.05270463 -11.15811388 19.05270463 -12 21 C-12.66 21 -13.32 21 -14 21 C-14 21.99 -14 22.98 -14 24 C-15.32 24 -16.64 24 -18 24 C-18.33 24.99 -18.66 25.98 -19 27 C-19.99 26.34 -20.98 25.68 -22 25 C-21.52695318 20.74257863 -19.1136178 18.74294902 -16 16 C-15.01 15.67 -14.02 15.34 -13 15 C-12.690625 14.360625 -12.38125 13.72125 -12.0625 13.0625 C-10.74215782 10.49948282 -9.5185326 10.2592663 -7 9 C-6.67 8.34 -6.34 7.68 -6 7 C-4.74191204 4.48382409 -3.4699603 4.19514208 -1 3 C-0.67 2.01 -0.34 1.02 0 0 Z " fill="#35154C" transform="translate(316,183)"/>
<path d="M0 0 C6.27 0 12.54 0 19 0 C19 2.97 19 5.94 19 9 C12.73 9 6.46 9 0 9 C0 6.03 0 3.06 0 0 Z " fill="#F7EBFC" transform="translate(217,232)"/>
<path d="M0 0 C0.33 0 0.66 0 1 0 C1 2.97 1 5.94 1 9 C1.66 8.67 2.32 8.34 3 8 C5.1547893 7.90817917 7.31249718 7.88249538 9.46923828 7.88647461 C10.46454056 7.88625557 10.46454056 7.88625557 11.47994995 7.8860321 C13.67677053 7.88672969 15.8735067 7.89451486 18.0703125 7.90234375 C19.59203037 7.90420848 21.11374884 7.90563212 22.63546753 7.90663147 C26.64351047 7.91045233 30.65151726 7.92027896 34.6595459 7.93133545 C38.74828604 7.94155882 42.83703201 7.94613108 46.92578125 7.95117188 C54.95053744 7.9619016 62.97526422 7.97897287 71 8 C71 7.34 71 6.68 71 6 C72.32 6.66 73.64 7.32 75 8 C75 6.35 75 4.7 75 3 C75.33 3 75.66 3 76 3 C76 5.31 76 7.62 76 10 C50.92 10 25.84 10 0 10 C0 6.7 0 3.4 0 0 Z " fill="#2A0A4E" transform="translate(179,373)"/>
<path d="M0 0 C0.33 0 0.66 0 1 0 C1 6.27 1 12.54 1 19 C3.97 19 6.94 19 10 19 C10 21.97 10 24.94 10 28 C16.27 28 22.54 28 29 28 C29 28.33 29 28.66 29 29 C25.03069011 29.02465881 21.06140966 29.04284023 17.09204102 29.05493164 C15.74079614 29.05997057 14.38955674 29.06680177 13.03833008 29.07543945 C11.09979566 29.08752419 9.161222 29.09269828 7.22265625 29.09765625 C5.47094116 29.10551147 5.47094116 29.10551147 3.68383789 29.11352539 C1 29 1 29 0 28 C-0.14193337 24.99668982 -0.04236378 22.00782866 0 19 C-2.97 19 -5.94 19 -9 19 C-9 13.72 -9 8.44 -9 3 C-8.67 3 -8.34 3 -8 3 C-7.67 7.62 -7.34 12.24 -7 17 C-4.69 17.33 -2.38 17.66 0 18 C0 12.06 0 6.12 0 0 Z " fill="#3A1D55" transform="translate(94,307)"/>
<path d="M0 0 C2.97 0 5.94 0 9 0 C9 2.97 9 5.94 9 9 C6.36 9.33 3.72 9.66 1 10 C0.67 12.64 0.34 15.28 0 18 C-2.97 18 -5.94 18 -9 18 C-9 15.03 -9 12.06 -9 9 C-6.03 9 -3.06 9 0 9 C0 6.03 0 3.06 0 0 Z " fill="#F6E9FD" transform="translate(95,176)"/>
<path d="M0 0 C5.94 0 11.88 0 18 0 C18 2.97 18 5.94 18 9 C12.06 9 6.12 9 0 9 C0 6.03 0 3.06 0 0 Z " fill="#E9DAF8" transform="translate(133,344)"/>
<path d="M0 0 C5.94 0 11.88 0 18 0 C18 2.97 18 5.94 18 9 C12.06 9 6.12 9 0 9 C0 6.03 0 3.06 0 0 Z " fill="#E7D4F7" transform="translate(283,344)"/>
<path d="M0 0 C2.97 0 5.94 0 9 0 C9 5.94 9 11.88 9 18 C6.03 18 3.06 18 0 18 C0 12.06 0 6.12 0 0 Z " fill="#E8D7F6" transform="translate(348,279)"/>
<path d="M0 0 C2.97 0 5.94 0 9 0 C9 5.94 9 11.88 9 18 C6.03 18 3.06 18 0 18 C0 12.06 0 6.12 0 0 Z " fill="#E6D5F6" transform="translate(77,279)"/>
<path d="M0 0 C2.97 0 5.94 0 9 0 C9 5.94 9 11.88 9 18 C6.03 18 3.06 18 0 18 C0 12.06 0 6.12 0 0 Z " fill="#E8DAF6" transform="translate(67,260)"/>
<path d="M0 0 C5.94 0 11.88 0 18 0 C18 2.97 18 5.94 18 9 C12.06 9 6.12 9 0 9 C0 6.03 0 3.06 0 0 Z " fill="#DCBCF8" transform="translate(264,185)"/>
<path d="M0 0 C5.94 0 11.88 0 18 0 C18 2.97 18 5.94 18 9 C12.06 9 6.12 9 0 9 C0 6.03 0 3.06 0 0 Z " fill="#624D8B" transform="translate(283,101)"/>
<path d="M0 0 C5.94 0 11.88 0 18 0 C18 2.97 18 5.94 18 9 C12.06 9 6.12 9 0 9 C0 6.03 0 3.06 0 0 Z " fill="#F5EFF9" transform="translate(133,73)"/>
<path d="M0 0 C24.42 0 48.84 0 74 0 C74 2.31 74 4.62 74 7 C73.01 6.505 73.01 6.505 72 6 C72 4.68 72 3.36 72 2 C36.36 2.495 36.36 2.495 0 3 C0 2.01 0 1.02 0 0 Z " fill="#F1D2FE" transform="translate(180,363)"/>
<path d="M0 0 C6.11485027 -0.09706112 11.93303301 0.22959149 18 1 C18 3.64 18 6.28 18 9 C12.06 9 6.12 9 0 9 C0 6.03 0 3.06 0 0 Z " fill="#26063D" transform="translate(311,81)"/>
<path d="M0 0 C2.64 0 5.28 0 8 0 C8.33 5.94 8.66 11.88 9 18 C6.03 18 3.06 18 0 18 C0 12.06 0 6.12 0 0 Z " fill="#25063D" transform="translate(340,101)"/>
<path d="M0 0 C2.97 0 5.94 0 9 0 C9 5.94 9 11.88 9 18 C6.36 18 3.72 18 1 18 C0.67 12.06 0.34 6.12 0 0 Z " fill="#26063D" transform="translate(85,307)"/>
<path d="M0 0 C5.94 0 11.88 0 18 0 C18 2.64 18 5.28 18 8 C12.06 8 6.12 8 0 8 C0 5.36 0 2.72 0 0 Z " fill="#EADAF7" transform="translate(311,326)"/>
<path d="M0 0 C5.94 0 11.88 0 18 0 C18 2.64 18 5.28 18 8 C12.06 8 6.12 8 0 8 C0 5.36 0 2.72 0 0 Z " fill="#E7DAF5" transform="translate(105,326)"/>
<path d="M0 0 C2.64 0 5.28 0 8 0 C8 5.94 8 11.88 8 18 C5.36 18 2.72 18 0 18 C0 12.06 0 6.12 0 0 Z " fill="#EAD9F8" transform="translate(330,307)"/>
<path d="M0 0 C2.64 0 5.28 0 8 0 C8 5.94 8 11.88 8 18 C5.36 18 2.72 18 0 18 C0 12.06 0 6.12 0 0 Z " fill="#E9D9F7" transform="translate(96,307)"/>
<path d="M0 0 C5.94 0 11.88 0 18 0 C18 2.64 18 5.28 18 8 C12.06 8 6.12 8 0 8 C0 5.36 0 2.72 0 0 Z " fill="#F8EDFE" transform="translate(283,139)"/>
<path d="M0 0 C2.64 0 5.28 0 8 0 C8 5.94 8 11.88 8 18 C5.36 18 2.72 18 0 18 C0 12.06 0 6.12 0 0 Z " fill="#F6F1FA" transform="translate(96,101)"/>
<path d="M0 0 C5.94 0 11.88 0 18 0 C18 2.64 18 5.28 18 8 C12.06 8 6.12 8 0 8 C0 5.36 0 2.72 0 0 Z " fill="#F6F1FB" transform="translate(105,92)"/>
<path d="M0 0 C2.97 0 5.94 0 9 0 C9 12.54 9 25.08 9 38 C6.03 38 3.06 38 0 38 C0 40.97 0 43.94 0 47 C-0.33 47 -0.66 47 -1 47 C-1 43.7 -1 40.4 -1 37 C1.97 37 4.94 37 8 37 C8 25.12 8 13.24 8 1 C7.34 1 6.68 1 6 1 C5.773125 2.051875 5.54625 3.10375 5.3125 4.1875 C4.16674146 8.17734002 2.33834107 10.45650204 -1 13 C-3.3125 12.8125 -3.3125 12.8125 -5 12 C-5.33 10.68 -5.66 9.36 -6 8 C-5.38125 7.79375 -4.7625 7.5875 -4.125 7.375 C-1.15346355 5.45224112 -0.86975341 3.33405473 0 0 Z " fill="#462B5A" transform="translate(180,166)"/>
<path d="M0 0 C3.3 0 6.6 0 10 0 C10 2.97 10 5.94 10 9 C12.97 9 15.94 9 19 9 C19 9.33 19 9.66 19 10 C13.06 10 7.12 10 1 10 C1 15.94 1 21.88 1 28 C0.67 28 0.34 28 0 28 C0 22.06 0 16.12 0 10 C-2.97 10 -5.94 10 -9 10 C-9 9.67 -9 9.34 -9 9 C-6.03 9 -3.06 9 0 9 C0 6.03 0 3.06 0 0 Z " fill="#AC8BCA" transform="translate(76,269)"/>
<path d="M0 0 C12.21 0 24.42 0 37 0 C37 0.66 37 1.32 37 2 C25.12 2 13.24 2 1 2 C1.495 5.465 1.495 5.465 2 9 C0.8269043 10.91918945 0.8269043 10.91918945 -1 12 C-2.99291992 12.34057617 -2.99291992 12.34057617 -5.23046875 12.29296875 C-6.03291016 12.28330078 -6.83535156 12.27363281 -7.66210938 12.26367188 C-8.49548828 12.23853516 -9.32886719 12.21339844 -10.1875 12.1875 C-11.03248047 12.17396484 -11.87746094 12.16042969 -12.74804688 12.14648438 C-14.83230384 12.11115799 -16.91623277 12.05735139 -19 12 C-19.33 12.99 -19.66 13.98 -20 15 C-20.66 13.68 -21.32 12.36 -22 11 C-26.62 11 -31.24 11 -36 11 C-36 10.67 -36 10.34 -36 10 C-24.12 10 -12.24 10 0 10 C0 6.7 0 3.4 0 0 Z " fill="#9A65CE" transform="translate(217,297)"/>
<path d="M0 0 C-0.66 2.31 -1.32 4.62 -2 7 C-10.415 7.495 -10.415 7.495 -19 8 C-19 5.36 -19 2.72 -19 0 C-12.5510809 -1.31909709 -6.51244208 -0.69508823 0 0 Z " fill="#A35FE4" transform="translate(236,354)"/>
<path d="M0 0 C2.31 0 4.62 0 7 0 C7 5.94 7 11.88 7 18 C4.36 18 1.72 18 -1 18 C-0.9278125 17.03578125 -0.855625 16.0715625 -0.78125 15.078125 C-0.6884375 13.81484375 -0.595625 12.5515625 -0.5 11.25 C-0.4071875 9.99703125 -0.314375 8.7440625 -0.21875 7.453125 C-0.06161598 4.97265229 0 2.48544483 0 0 Z " fill="#26063B" transform="translate(87,101)"/>
<path d="M0 0 C5.94 0 11.88 0 18 0 C17.67 2.31 17.34 4.62 17 7 C16.19175781 6.98839844 15.38351562 6.97679687 14.55078125 6.96484375 C12.94783203 6.95130859 12.94783203 6.95130859 11.3125 6.9375 C10.25675781 6.92589844 9.20101563 6.91429687 8.11328125 6.90234375 C5.27589738 6.99134575 2.7561081 7.35060162 0 8 C0 5.36 0 2.72 0 0 Z " fill="#25083C" transform="translate(311,336)"/>
<path d="M0 0 C9.24 0 18.48 0 28 0 C28 0.33 28 0.66 28 1 C22.06 1 16.12 1 10 1 C10 3.97 10 6.94 10 10 C6.7 10 3.4 10 0 10 C0 6.7 0 3.4 0 0 Z " fill="#473058" transform="translate(123,72)"/>
<path d="M0 0 C2.31 0 4.62 0 7 0 C7 5.94 7 11.88 7 18 C4.69 18 2.38 18 0 18 C0 14.7 0 11.4 0 8 C1.65 7.67 3.3 7.34 5 7 C5 6.34 5 5.68 5 5 C3.35 5.33 1.7 5.66 0 6 C0 4.02 0 2.04 0 0 Z " fill="#23083B" transform="translate(340,307)"/>
<path d="M0 0 C3.3 0 6.6 0 10 0 C10 3.3 10 6.6 10 10 C6.7 10 3.4 10 0 10 C0 6.7 0 3.4 0 0 Z " fill="#351651" transform="translate(76,297)"/>
<path d="M0 0 C2.05078125 0.03255208 4.1015625 0.06510417 6.15234375 0.09765625 C5.82234375 0.75765625 5.49234375 1.41765625 5.15234375 2.09765625 C2.58984375 2.72265625 2.58984375 2.72265625 0.15234375 3.09765625 C0.03117187 3.76152344 -0.09 4.42539062 -0.21484375 5.109375 C-1.07313333 9.63190084 -1.88736936 13.89704149 -3.84765625 18.09765625 C-6.15765625 18.09765625 -8.46765625 18.09765625 -10.84765625 18.09765625 C-10.84765625 15.45765625 -10.84765625 12.81765625 -10.84765625 10.09765625 C-8.20765625 10.09765625 -5.56765625 10.09765625 -2.84765625 10.09765625 C-2.85925781 9.45957031 -2.87085938 8.82148438 -2.8828125 8.1640625 C-2.89183594 7.33777344 -2.90085937 6.51148438 -2.91015625 5.66015625 C-2.92175781 4.83644531 -2.93335938 4.01273437 -2.9453125 3.1640625 C-2.8198894 0.51010975 -2.66068535 0.14062819 0 0 Z " fill="#7D3DC8" transform="translate(303.84765625,259.90234375)"/>
<path d="M0 0 C18.81 0 37.62 0 57 0 C57 3.3 57 6.6 57 10 C56.67 10 56.34 10 56 10 C56 7.03 56 4.06 56 1 C43.79 1.33 31.58 1.66 19 2 C18.67 2.66 18.34 3.32 18 4 C17.45472656 3.83886719 16.90945312 3.67773438 16.34765625 3.51171875 C13.66057251 2.92601497 11.18685518 2.8312031 8.4375 2.8125 C7.01244141 2.79123047 7.01244141 2.79123047 5.55859375 2.76953125 C2.75774757 2.81641112 2.75774757 2.81641112 0 5 C0 3.35 0 1.7 0 0 Z " fill="#A477D7" transform="translate(123,297)"/>
<path d="M0 0 C0.33 0 0.66 0 1 0 C1 6.27 1 12.54 1 19 C3.97 19 6.94 19 10 19 C9.75 21.375 9.75 21.375 9 24 C7 25.1875 7 25.1875 5 26 C4.67 26.66 4.34 27.32 4 28 C3.34 28 2.68 28 2 28 C1.34 29.32 0.68 30.64 0 32 C-1.40027356 9.19872014 -1.40027356 9.19872014 0 0 Z " fill="#2B1243" transform="translate(66,260)"/>
<path d="M0 0 C1.98 0 3.96 0 6 0 C6 2.97 6 5.94 6 9 C-0.435 9.495 -0.435 9.495 -7 10 C-7.33 9.01 -7.66 8.02 -8 7 C-6.75 5.4375 -6.75 5.4375 -5 4 C-2.8125 4.3125 -2.8125 4.3125 -1 5 C-0.67 3.35 -0.34 1.7 0 0 Z " fill="#28073F" transform="translate(145,354)"/>
<path d="M0 0 C3.3 0 6.6 0 10 0 C10 2.97 10 5.94 10 9 C6.7 9 3.4 9 0 9 C0 6.03 0 3.06 0 0 Z " fill="#E9D8F4" transform="translate(123,335)"/>
<path d="M0 0 C2.97 0 5.94 0 9 0 C9 3.3 9 6.6 9 10 C6.03 10 3.06 10 0 10 C0 6.7 0 3.4 0 0 Z " fill="#240739" transform="translate(189,269)"/>
<path d="M0 0 C2.97 0 5.94 0 9 0 C9 3.3 9 6.6 9 10 C6.03 10 3.06 10 0 10 C0 6.7 0 3.4 0 0 Z " fill="#311845" transform="translate(236,269)"/>
<path d="M0 0 C3.3 0 6.6 0 10 0 C10 2.97 10 5.94 10 9 C6.7 9 3.4 9 0 9 C0 6.03 0 3.06 0 0 Z " fill="#F4E9FC" transform="translate(207,223)"/>
<path d="M0 0 C3.3 0 6.6 0 10 0 C10 2.97 10 5.94 10 9 C6.7 9 3.4 9 0 9 C0 6.03 0 3.06 0 0 Z " fill="#230838" transform="translate(254,157)"/>
<path d="M0 0 C3.3 0 6.6 0 10 0 C10 2.97 10 5.94 10 9 C6.7 9 3.4 9 0 9 C0 6.03 0 3.06 0 0 Z " fill="#F2ECF6" transform="translate(67,148)"/>
<path d="M0 0 C2.97 0 5.94 0 9 0 C9 3.3 9 6.6 9 10 C6.03 10 3.06 10 0 10 C0 6.7 0 3.4 0 0 Z " fill="#F4E9FC" transform="translate(311,119)"/>
<path d="M0 0 C2.97 0 5.94 0 9 0 C9 2.97 9 5.94 9 9 C8.34 8.67 7.68 8.34 7 8 C6.21625 8.825 5.4325 9.65 4.625 10.5 C2 13 2 13 0 13 C0 8.71 0 4.42 0 0 Z " fill="#28083E" transform="translate(358,128)"/>
<path d="M0 0 C6.27 0 12.54 0 19 0 C19 3.3 19 6.6 19 10 C9.76 10 0.52 10 -9 10 C-9 12.97 -9 15.94 -9 19 C-9.33 19 -9.66 19 -10 19 C-10 15.7 -10 12.4 -10 9 C-0.80685498 7.60430295 7.71842808 6.5448383 17 8 C17.33 5.69 17.66 3.38 18 1 C12.06 1 6.12 1 0 1 C0 0.67 0 0.34 0 0 Z " fill="#3D2059" transform="translate(311,335)"/>
<path d="M0 0 C2.97 0 5.94 0 9 0 C9 2.97 9 5.94 9 9 C6.03 9 3.06 9 0 9 C0 6.03 0 3.06 0 0 Z " fill="#E6D7F3" transform="translate(301,335)"/>
<path d="M0 0 C2.97 0 5.94 0 9 0 C9 2.97 9 5.94 9 9 C6.03 9 3.06 9 0 9 C0 6.03 0 3.06 0 0 Z " fill="#E3D0F5" transform="translate(339,297)"/>
<path d="M0 0 C2.97 0 5.94 0 9 0 C9 2.97 9 5.94 9 9 C6.03 9 3.06 9 0 9 C0 6.03 0 3.06 0 0 Z " fill="#EAD8F8" transform="translate(86,297)"/>
<path d="M0 0 C2.97 0 5.94 0 9 0 C9 2.97 9 5.94 9 9 C6.03 9 3.06 9 0 9 C0 6.03 0 3.06 0 0 Z " fill="#F5E8FD" transform="translate(142,288)"/>
<path d="M0 0 C2.97 0 5.94 0 9 0 C9 2.97 9 5.94 9 9 C6.03 9 3.06 9 0 9 C0 6.03 0 3.06 0 0 Z " fill="#654A90" transform="translate(114,288)"/>
<path d="M0 0 C2.97 0 5.94 0 9 0 C9 2.97 9 5.94 9 9 C6.03 9 3.06 9 0 9 C0 6.03 0 3.06 0 0 Z " fill="#A25FE3" transform="translate(320,279)"/>
<path d="M0 0 C2.97 0 5.94 0 9 0 C9 2.97 9 5.94 9 9 C6.03 9 3.06 9 0 9 C0 6.03 0 3.06 0 0 Z " fill="#F6EAFD" transform="translate(152,279)"/>
<path d="M0 0 C2.97 0 5.94 0 9 0 C9 2.97 9 5.94 9 9 C6.03 9 3.06 9 0 9 C0 6.03 0 3.06 0 0 Z " fill="#614D8B" transform="translate(142,260)"/>
<path d="M0 0 C2.97 0 5.94 0 9 0 C9 2.97 9 5.94 9 9 C6.03 9 3.06 9 0 9 C0 6.03 0 3.06 0 0 Z " fill="#240D39" transform="translate(245,260)"/>
<path d="M0 0 C2.97 0 5.94 0 9 0 C9 2.97 9 5.94 9 9 C6.03 9 3.06 9 0 9 C0 6.03 0 3.06 0 0 Z " fill="#7F3BC8" transform="translate(320,260)"/>
<path d="M0 0 C2.97 0 5.94 0 9 0 C9 2.97 9 5.94 9 9 C6.03 9 3.06 9 0 9 C0 6.03 0 3.06 0 0 Z " fill="#270C3A" transform="translate(180,260)"/>
<path d="M0 0 C2.05078125 0.03255208 4.1015625 0.06510417 6.15234375 0.09765625 C6.15234375 3.06765625 6.15234375 6.03765625 6.15234375 9.09765625 C2.85234375 9.09765625 -0.44765625 9.09765625 -3.84765625 9.09765625 C-2.85356362 0.1508226 -2.85356362 0.1508226 0 0 Z " fill="#7C3DC5" transform="translate(313.84765625,250.90234375)"/>
<path d="M0 0 C2.97 0 5.94 0 9 0 C9 2.97 9 5.94 9 9 C6.03 9 3.06 9 0 9 C0 6.03 0 3.06 0 0 Z " fill="#F6EAFB" transform="translate(236,223)"/>
<path d="M0 0 C2.97 0 5.94 0 9 0 C9 2.97 9 5.94 9 9 C6.03 9 3.06 9 0 9 C0 6.03 0 3.06 0 0 Z " fill="#634F8C" transform="translate(208,204)"/>
<path d="M0 0 C2.97 0 5.94 0 9 0 C9 2.97 9 5.94 9 9 C6.03 9 3.06 9 0 9 C0 6.03 0 3.06 0 0 Z " fill="#65508B" transform="translate(77,166)"/>
<path d="M0 0 C2.97 0 5.94 0 9 0 C9 2.97 9 5.94 9 9 C6.03 9 3.06 9 0 9 C0 6.03 0 3.06 0 0 Z " fill="#1D0832" transform="translate(123,157)"/>
<path d="M0 0 C2.97 0 5.94 0 9 0 C9 2.97 9 5.94 9 9 C6.03 9 3.06 9 0 9 C0 6.03 0 3.06 0 0 Z " fill="#634F89" transform="translate(86,157)"/>
<path d="M0 0 C2.97 0 5.94 0 9 0 C9 2.97 9 5.94 9 9 C6.03 9 3.06 9 0 9 C0 6.03 0 3.06 0 0 Z " fill="#F6E9FC" transform="translate(302,129)"/>
<path d="M0 0 C2.97 0 5.94 0 9 0 C9 2.97 9 5.94 9 9 C6.03 9 3.06 9 0 9 C0 6.03 0 3.06 0 0 Z " fill="#220536" transform="translate(349,119)"/>
<path d="M0 0 C2.97 0 5.94 0 9 0 C9 2.97 9 5.94 9 9 C6.03 9 3.06 9 0 9 C0 6.03 0 3.06 0 0 Z " fill="#25063F" transform="translate(76,119)"/>
<path d="M0 0 C2.97 0 5.94 0 9 0 C9 2.97 9 5.94 9 9 C6.03 9 3.06 9 0 9 C0 6.03 0 3.06 0 0 Z " fill="#F9ECFD" transform="translate(208,110)"/>
<path d="M0 0 C2.97 0 5.94 0 9 0 C9 2.97 9 5.94 9 9 C6.03 9 3.06 9 0 9 C0 6.03 0 3.06 0 0 Z " fill="#F8EBFE" transform="translate(170,110)"/>
<path d="M0 0 C2.97 0 5.94 0 9 0 C9 2.97 9 5.94 9 9 C6.03 9 3.06 9 0 9 C0 6.03 0 3.06 0 0 Z " fill="#64508A" transform="translate(208,91)"/>
<path d="M0 0 C2.97 0 5.94 0 9 0 C9 2.97 9 5.94 9 9 C6.03 9 3.06 9 0 9 C0 6.03 0 3.06 0 0 Z " fill="#F6F1F9" transform="translate(124,82)"/>
<path d="M0 0 C6.15234375 -0.09765625 6.15234375 -0.09765625 8 0 C9 1 9 1 9.09765625 2.84765625 C9.04882812 5.92382812 9.04882812 5.92382812 9 9 C6.03 9 3.06 9 0 9 C0 6.03 0 3.06 0 0 Z " fill="#695094" transform="translate(339,194)"/>
<path d="M0 0 C0.33 0 0.66 0 1 0 C1 2.97 1 5.94 1 9 C3.97 9 6.94 9 10 9 C10 13.29 10 17.58 10 22 C10.66 22 11.32 22 12 22 C12.33 21.01 12.66 20.02 13 19 C13.66 19 14.32 19 15 19 C15 19.99 15 20.98 15 22 C15.66 22 16.32 22 17 22 C16.67 23.32 16.34 24.64 16 26 C15.34 26 14.68 26 14 26 C14 26.66 14 27.32 14 28 C12.35 28 10.7 28 9 28 C9 22.06 9 16.12 9 10 C6.03 10 3.06 10 0 10 C0 6.7 0 3.4 0 0 Z " fill="#4B315F" transform="translate(348,119)"/>
<path d="M0 0 C3.3 0 6.6 0 10 0 C10 6.27 10 12.54 10 19 C6.7 19 3.4 19 0 19 C0 12.73 0 6.46 0 0 Z M2 1 C2 6.61 2 12.22 2 18 C4.31 18 6.62 18 9 18 C9 12.39 9 6.78 9 1 C6.69 1 4.38 1 2 1 Z " fill="#C5AADC" transform="translate(151,166)"/>
<path d="M0 0 C2.97 0 5.94 0 9 0 C9 2.64 9 5.28 9 8 C6.03 8 3.06 8 0 8 C0 5.36 0 2.72 0 0 Z " fill="#614D89" transform="translate(170,92)"/>
<path d="M0 0 C2.64 0 5.28 0 8 0 C8 2.97 8 5.94 8 9 C5.66705225 9.04241723 3.33297433 9.04092937 1 9 C0 8 0 8 -0.09765625 6.15234375 C-0.06510417 4.1015625 -0.03255208 2.05078125 0 0 Z " fill="#A161E3" transform="translate(358,204)"/>
<path d="M0 0 C1.485 0.99 1.485 0.99 3 2 C3 3.32 3 4.64 3 6 C6.14611253 8.09740836 6.91188078 8.25328219 10.5 8.1875 C11.66015625 8.17783203 11.66015625 8.17783203 12.84375 8.16796875 C15.18348849 8.0730565 15.18348849 8.0730565 18 7 C19.26237731 9.52475462 19.09856404 11.31200466 19.0625 14.125 C19.05347656 15.03507812 19.04445313 15.94515625 19.03515625 16.8828125 C19.02355469 17.58148438 19.01195313 18.28015625 19 19 C21.97 19 24.94 19 28 19 C28 19.33 28 19.66 28 20 C24.7 20 21.4 20 18 20 C18 16.7 18 13.4 18 10 C12.06 10 6.12 10 0 10 C0 6.7 0 3.4 0 0 Z " fill="#9C65D1" transform="translate(105,315)"/>
<path d="M0 0 C1.65 0.66 3.3 1.32 5 2 C5 2.66 5 3.32 5 4 C4.01 4 3.02 4 2 4 C2 4.66 2 5.32 2 6 C3.98 6 5.96 6 8 6 C8 6.33 8 6.66 8 7 C-0.91 7 -9.82 7 -19 7 C-19 9.97 -19 12.94 -19 16 C-19.33 16 -19.66 16 -20 16 C-20 12.7 -20 9.4 -20 6 C-14.72 6 -9.44 6 -4 6 C-4 5.34 -4 4.68 -4 4 C-2.70766393 2.62689293 -1.37562854 1.28965176 0 0 Z " fill="#7F6CA2" transform="translate(227,197)"/>
<path d="M0 0 C2.64 0 5.28 0 8 0 C8 0.66 8 1.32 8 2 C8.66 2 9.32 2 10 2 C9.34 3.32 8.68 4.64 8 6 C7.34 6 6.68 6 6 6 C6 6.66 6 7.32 6 8 C4.02 8 2.04 8 0 8 C0 5.36 0 2.72 0 0 Z " fill="#614D89" transform="translate(217,195)"/>
<path d="M0 0 C2.64 0 5.28 0 8 0 C8 2.64 8 5.28 8 8 C5.36 8 2.72 8 0 8 C0 5.36 0 2.72 0 0 Z " fill="#965FCE" transform="translate(77,270)"/>
<path d="M0 0 C2.64 0 5.28 0 8 0 C8 2.64 8 5.28 8 8 C5.36 8 2.72 8 0 8 C0 5.36 0 2.72 0 0 Z " fill="#DABDF9" transform="translate(124,176)"/>
<path d="M0 0 C2.64 0 5.28 0 8 0 C8 2.64 8 5.28 8 8 C5.36 8 2.72 8 0 8 C0 5.36 0 2.72 0 0 Z " fill="#22063C" transform="translate(302,73)"/>
<path d="M0 0 C2.64 0 5.28 0 8 0 C8.04241723 2.33294775 8.04092937 4.66702567 8 7 C7 8 7 8 3.4375 8.0625 C2.303125 8.041875 1.16875 8.02125 0 8 C0 5.36 0 2.72 0 0 Z " fill="#23093A" transform="translate(330,326)"/>
<path d="M0 0 C-3.75 2 -3.75 2 -6 2 C-6.66 3.98 -7.32 5.96 -8 8 C-5.69 8 -3.38 8 -1 8 C-1 8.33 -1 8.66 -1 9 C-7.27 9 -13.54 9 -20 9 C-20 8.67 -20 8.34 -20 8 C-17.36 7.67 -14.72 7.34 -12 7 C-11.855625 6.38125 -11.71125 5.7625 -11.5625 5.125 C-11 3 -11 3 -10 1 C-6.70581806 -0.22006738 -3.47634765 -0.0790079 0 0 Z " fill="#422753" transform="translate(284,148)"/>
<path d="M0 0 C1.32 1.32 2.64 2.64 4 4 C4.66 3.01 5.32 2.02 6 1 C6 4.3 6 7.6 6 11 C3.36 11 0.72 11 -2 11 C-1.85957123 9.35369672 -1.71250671 7.70795821 -1.5625 6.0625 C-1.48128906 5.14597656 -1.40007812 4.22945313 -1.31640625 3.28515625 C-1 1 -1 1 0 0 Z " fill="#240737" transform="translate(88,108)"/>
<path d="M0 0 C0.33 0 0.66 0 1 0 C1 2.64 1 5.28 1 8 C14.365 8.495 14.365 8.495 28 9 C27.67 9.66 27.34 10.32 27 11 C26.18015625 10.97679687 25.3603125 10.95359375 24.515625 10.9296875 C23.43796875 10.91164062 22.3603125 10.89359375 21.25 10.875 C20.18265625 10.85179687 19.1153125 10.82859375 18.015625 10.8046875 C15.04870532 10.99684551 13.42137484 11.30960624 11 13 C10.18828772 15.55519921 10.18828772 15.55519921 10 18 C9.67 18 9.34 18 9 18 C9 15.03 9 12.06 9 9 C6.03 9 3.06 9 0 9 C0 6.03 0 3.06 0 0 Z " fill="#BFA3D6" transform="translate(123,176)"/>
<path d="M0 0 C0.99 0.33 1.98 0.66 3 1 C3 1.66 3 2.32 3 3 C3.66 3 4.32 3 5 3 C5 3.66 5 4.32 5 5 C3.68 5 2.36 5 1 5 C1 5.99 1 6.98 1 8 C0.01 8 -0.98 8 -2 8 C-2 9.32 -2 10.64 -2 12 C-2.99 11.67 -3.98 11.34 -5 11 C-5.875 8.875 -5.875 8.875 -6 6 C-4.2531134 3.70485976 -2.19996058 1.85561893 0 0 Z " fill="#35154D" transform="translate(171,177)"/>
<path d="M0 0 C4.75 0.75 4.75 0.75 7 3 C7.33 3 7.66 3 8 3 C8 4.98 8 6.96 8 9 C5.36 9 2.72 9 0 9 C0 6.03 0 3.06 0 0 Z " fill="#2D1445" transform="translate(330,91)"/>
<path d="M0 0 C0.33 0 0.66 0 1 0 C1.33 6.27 1.66 12.54 2 19 C4.475 19.99 4.475 19.99 7 21 C8.3125 23.125 8.3125 23.125 9 25 C2.25 26.125 2.25 26.125 0 25 C0 16.75 0 8.5 0 0 Z " fill="#28034D" transform="translate(57,254)"/>
<path d="M0 0 C2.31 0 4.62 0 7 0 C8.79682816 3.80504787 9.07349791 4.70600835 8 9 C16.58 8.67 25.16 8.34 34 8 C34 8.66 34 9.32 34 10 C24.76 10 15.52 10 6 10 C6 7.03 6 4.06 6 1 C4.02 1 2.04 1 0 1 C0 0.67 0 0.34 0 0 Z " fill="#2C0351" transform="translate(145,363)"/>
<path d="M0 0 C0.33 0 0.66 0 1 0 C1 5.61 1 11.22 1 17 C-5.27 17 -11.54 17 -18 17 C-17.67 16.34 -17.34 15.68 -17 15 C-13.5 14.3125 -13.5 14.3125 -10 14 C-9.67 14.33 -9.34 14.66 -9 15 C-7.65252916 15.23075082 -6.29622435 15.41153063 -4.9375 15.5625 C-3.638125 15.706875 -2.33875 15.85125 -1 16 C-1.01160156 15.34773438 -1.02320313 14.69546875 -1.03515625 14.0234375 C-1.08470994 9.2238086 -0.99413751 4.72215315 0 0 Z " fill="#955BD0" transform="translate(328,308)"/>
<path d="M0 0 C2.97 0 5.94 0 9 0 C9 0.33 9 0.66 9 1 C6.36 1 3.72 1 1 1 C1 6.94 1 12.88 1 19 C3.97 19 6.94 19 10 19 C10 19.33 10 19.66 10 20 C7.03 20 4.06 20 1 20 C1 22.97 1 25.94 1 29 C0.67 29 0.34 29 0 29 C0 26.03 0 23.06 0 20 C-2.97 20 -5.94 20 -9 20 C-9 19.67 -9 19.34 -9 19 C-6.03 19 -3.06 19 0 19 C0 12.73 0 6.46 0 0 Z " fill="#C8BCD1" transform="translate(95,100)"/>
<path d="M0 0 C0.33 0 0.66 0 1 0 C1 2.97 1 5.94 1 9 C3.97 9 6.94 9 10 9 C10 9.33 10 9.66 10 10 C7.03 10 4.06 10 1 10 C1 16.27 1 22.54 1 29 C-1.97 29 -4.94 29 -8 29 C-8 28.67 -8 28.34 -8 28 C-5.36 28 -2.72 28 0 28 C0 22.06 0 16.12 0 10 C-2.64 10 -5.28 10 -8 10 C-8 9.67 -8 9.34 -8 9 C-5.36 9 -2.72 9 0 9 C0 6.03 0 3.06 0 0 Z " fill="#AD91C5" transform="translate(338,297)"/>
<path d="M0 0 C2.64 0 5.28 0 8 0 C7.69381595 3.67420866 7.24228216 4.78135513 4.4375 7.3125 C3.633125 7.869375 2.82875 8.42625 2 9 C1.34 8.67 0.68 8.34 0 8 C0 5.36 0 2.72 0 0 Z " fill="#210635" transform="translate(349,298)"/>
<path d="M0 0 C2.97 0 5.94 0 9 0 C9 2.97 9 5.94 9 9 C7 5 7 5 7 2 C5.35 2.33 3.7 2.66 2 3 C1.67 7.62 1.34 12.24 1 17 C3.97 17 6.94 17 10 17 C10 17.33 10 17.66 10 18 C6.7 18 3.4 18 0 18 C0 12.06 0 6.12 0 0 Z " fill="#9461CC" transform="translate(86,279)"/>
<path d="M0 0 C0.33 0 0.66 0 1 0 C1 2.97 1 5.94 1 9 C3.64 9 6.28 9 9 9 C9 9.33 9 9.66 9 10 C6.36 10 3.72 10 1 10 C1.33 12.64 1.66 15.28 2 18 C1.34 18 0.68 18 0 18 C0 15.36 0 12.72 0 10 C-5.94 10 -11.88 10 -18 10 C-18 12.64 -18 15.28 -18 18 C-18.33 18 -18.66 18 -19 18 C-19 15.03 -19 12.06 -19 9 C-12.73 9 -6.46 9 0 9 C0 6.03 0 3.06 0 0 Z " fill="#E0D3EE" transform="translate(301,129)"/>
<path d="M0 0 C1.32 0 2.64 0 4 0 C4 2.97 4 5.94 4 9 C1.69 9 -0.62 9 -3 9 C-3 6.66666667 -3 4.33333333 -3 2 C-2.01 2 -1.02 2 0 2 C0 1.34 0 0.68 0 0 Z " fill="#230737" transform="translate(119,81)"/>
<path d="M0 0 C0.33 0 0.66 0 1 0 C1 2.64 1 5.28 1 8 C3.31 8 5.62 8 8 8 C8.66 6.02 9.32 4.04 10 2 C10.33 2.66 10.66 3.32 11 4 C10.0625 6.625 10.0625 6.625 9 9 C7.7625 9.12375 6.525 9.2475 5.25 9.375 C2.67115561 9.67866006 1.11625181 9.93689188 -1.1875 11.1875 C-3 12 -3 12 -5.75 11.125 C-6.4925 10.75375 -7.235 10.3825 -8 10 C-8 12.64 -8 15.28 -8 18 C-8.33 18 -8.66 18 -9 18 C-9 15.03 -9 12.06 -9 9 C-6.03 9 -3.06 9 0 9 C0 6.03 0 3.06 0 0 Z " fill="#8E55CB" transform="translate(292,270)"/>
<path d="M0 0 C2.31 0 4.62 0 7 0 C7.125 2.875 7.125 2.875 7 6 C5 8 5 8 2.375 8.125 C1.59125 8.08375 0.8075 8.0425 0 8 C0 5.36 0 2.72 0 0 Z " fill="#604B8B" transform="translate(293,260)"/>
<path d="M0 0 C0.33 0 0.66 0 1 0 C1 2.97 1 5.94 1 9 C5.10472658 8.8903028 9.20852148 8.75963024 13.3125 8.625 C14.47974609 8.5940625 15.64699219 8.563125 16.84960938 8.53125 C18.52700195 8.47324219 18.52700195 8.47324219 20.23828125 8.4140625 C21.26993408 8.3826416 22.30158691 8.3512207 23.36450195 8.31884766 C26.22843236 8.17325371 26.22843236 8.17325371 29 6 C29.33 7.32 29.66 8.64 30 10 C20.43 10 10.86 10 1 10 C0.67 10.66 0.34 11.32 0 12 C0 8.04 0 4.08 0 0 Z " fill="#3F1F63" transform="translate(254,363)"/>
<path d="M0 0 C0.33 0 0.66 0 1 0 C1.33 5.94 1.66 11.88 2 18 C3.32 17.34 4.64 16.68 6 16 C6.20086443 19.71599191 6.1519437 20.77208445 4 24 C3.01 24 2.02 24 1 24 C-0.25248502 21.49502996 -0.11374406 19.79146726 -0.09765625 16.9921875 C-0.09443359 16.00605469 -0.09121094 15.01992188 -0.08789062 14.00390625 C-0.07951172 12.97136719 -0.07113281 11.93882812 -0.0625 10.875 C-0.05798828 9.83472656 -0.05347656 8.79445313 -0.04882812 7.72265625 C-0.03701952 5.14838038 -0.02055075 2.57421854 0 0 Z " fill="#1E0633" transform="translate(367,256)"/>
<path d="M0 0 C2.64 0 5.28 0 8 0 C7.34 2.31 6.68 4.62 6 7 C4.02 7.33 2.04 7.66 0 8 C0 5.36 0 2.72 0 0 Z " fill="#614B8C" transform="translate(302,251)"/>
<path d="M0 0 C0 0.33 0 0.66 0 1 C-17.85649203 2.33257403 -17.85649203 2.33257403 -26 1 C-26 6.94 -26 12.88 -26 19 C-26.33 19 -26.66 19 -27 19 C-27 12.73 -27 6.46 -27 0 C-17.88651147 -1.30192693 -9.13466832 -0.6888091 0 0 Z " fill="#8A45D0" transform="translate(234,325)"/>
<path d="M0 0 C0.66 0 1.32 0 2 0 C2 0.66 2 1.32 2 2 C2.99 2.33 3.98 2.66 5 3 C4.01 3.99 3.02 4.98 2 6 C4.31 6 6.62 6 9 6 C9 6.33 9 6.66 9 7 C2.73 7 -3.54 7 -10 7 C-10 6.67 -10 6.34 -10 6 C-8.02 6 -6.04 6 -4 6 C-4 5.34 -4 4.68 -4 4 C-3.34 4 -2.68 4 -2 4 C-2 3.34 -2 2.68 -2 2 C-1.34 2 -0.68 2 0 2 C0 1.34 0 0.68 0 0 Z " fill="#3E254C" transform="translate(114,84)"/>
<path d="M0 0 C5.94 0 11.88 0 18 0 C18 2.64 18 5.28 18 8 C16.02 8 14.04 8 12 8 C12.495 7.5875 12.99 7.175 13.5 6.75 C15.43386092 4.87797662 15.43386092 4.87797662 15 1 C10.05 1.33 5.1 1.66 0 2 C0 1.34 0 0.68 0 0 Z " fill="#EED3FD" transform="translate(105,326)"/>
<path d="M0 0 C2.97 0 5.94 0 9 0 C9 2.64 9 5.28 9 8 C7.35 8 5.7 8 4 8 C3.67 6.68 3.34 5.36 3 4 C3.66 4.33 4.32 4.66 5 5 C5.33 4.01 5.66 3.02 6 2 C4.68 1.67 3.36 1.34 2 1 C1.67 1.99 1.34 2.98 1 4 C0.67 2.68 0.34 1.36 0 0 Z " fill="#270E3B" transform="translate(95,326)"/>
<path d="M0 0 C2.97 0 5.94 0 9 0 C9 3.3 9 6.6 9 10 C6.03 10 3.06 10 0 10 C0 6.7 0 3.4 0 0 Z M2 2 C1.67 4.31 1.34 6.62 1 9 C3.31 9 5.62 9 8 9 C8 6.69 8 4.38 8 2 C6.02 2 4.04 2 2 2 Z " fill="#442D56" transform="translate(189,269)"/>
<path d="M0 0 C0.33 0 0.66 0 1 0 C1.33 2.64 1.66 5.28 2 8 C4.64 8.33 7.28 8.66 10 9 C10 11.97 10 14.94 10 18 C9.67 18 9.34 18 9 18 C9 15.36 9 12.72 9 10 C7.7625 10.020625 6.525 10.04125 5.25 10.0625 C2.3359175 10.06766681 -0.20953327 9.93015558 -3 9 C-3 6.69 -3 4.38 -3 2 C-2.01 2.495 -2.01 2.495 -1 3 C-0.67 2.01 -0.34 1.02 0 0 Z " fill="#2D0B4A" transform="translate(301,63)"/>
<path d="M0 0 C3.3 0 6.6 0 10 0 C10 2.97 10 5.94 10 9 C9.34 9 8.68 9 8 9 C8 6.69 8 4.38 8 2 C5.69 2 3.38 2 1 2 C1 4.31 1 6.62 1 9 C0.67 9 0.34 9 0 9 C0 6.03 0 3.06 0 0 Z " fill="#DCBEF3" transform="translate(123,335)"/>
<path d="M0 0 C5.94 0 11.88 0 18 0 C18 0.33 18 0.66 18 1 C15.36 1 12.72 1 10 1 C10 1.66 10 2.32 10 3 C6.7 3.33 3.4 3.66 0 4 C0 2.68 0 1.36 0 0 Z " fill="#E2C6F4" transform="translate(133,344)"/>
<path d="M0 0 C0.33 0 0.66 0 1 0 C1 5.94 1 11.88 1 18 C-2.3 18 -5.6 18 -9 18 C-9 17.34 -9 16.68 -9 16 C-6.36 16 -3.72 16 -1 16 C-0.67 10.72 -0.34 5.44 0 0 Z " fill="#9660CE" transform="translate(347,279)"/>
<path d="M0 0 C4.95 0 9.9 0 15 0 C15 0.66 15 1.32 15 2 C10.20699867 3.39151652 5.84864218 2.68662689 1 2 C1 4.31 1 6.62 1 9 C0.67 9 0.34 9 0 9 C0 6.03 0 3.06 0 0 Z " fill="#320C57" transform="translate(104,81)"/>
<path d="M0 0 C2.5 1.375 2.5 1.375 5 3 C5 3.66 5 4.32 5 5 C3.68 5 2.36 5 1 5 C0.896875 5.639375 0.79375 6.27875 0.6875 6.9375 C0.460625 7.618125 0.23375 8.29875 0 9 C-0.99 9.33 -1.98 9.66 -3 10 C-3.36923077 4.58461538 -3.36923077 4.58461538 -1.5 1.625 C-1.005 1.08875 -0.51 0.5525 0 0 Z " fill="#311447" transform="translate(136,212)"/>
<path d="M0 0 C0.33 0 0.66 0 1 0 C1.8931507 6.58183362 1.95494281 12.42150508 1 19 C-2.3 19 -5.6 19 -9 19 C-9 18.67 -9 18.34 -9 18 C-6.03 18 -3.06 18 0 18 C0 15.36 0 12.72 0 10 C-2.97 10 -5.94 10 -9 10 C-9 9.67 -9 9.34 -9 9 C-6.03 9 -3.06 9 0 9 C0 6.03 0 3.06 0 0 Z " fill="#8674A7" transform="translate(179,82)"/>
<path d="M0 0 C0.66 0 1.32 0 2 0 C2.02689216 1.47906892 2.04634621 2.95827483 2.0625 4.4375 C2.07410156 5.26121094 2.08570313 6.08492188 2.09765625 6.93359375 C2 9 2 9 1 10 C-0.51928038 10.07179964 -2.04167482 10.08392007 -3.5625 10.0625 C-4.38878906 10.05347656 -5.21507812 10.04445313 -6.06640625 10.03515625 C-6.70449219 10.02355469 -7.34257812 10.01195312 -8 10 C-8 9.34 -8 8.68 -8 8 C-4.535 7.505 -4.535 7.505 -1 7 C-0.67 4.69 -0.34 2.38 0 0 Z " fill="#2D0E4B" transform="translate(338,326)"/>
<path d="M0 0 C1.32 0 2.64 0 4 0 C3.38545304 3.99455527 1.29353263 6.74466336 -1 10 C-1.99 9.67 -2.98 9.34 -4 9 C-3.34 8.67 -2.68 8.34 -2 8 C-1.67 7.01 -1.34 6.02 -1 5 C-1.66 5 -2.32 5 -3 5 C-1.125 1.125 -1.125 1.125 0 0 Z " fill="#9F60E0" transform="translate(296,279)"/>
<path d="M0 0 C2.00720923 0.28674418 4.0085944 0.61866701 6 1 C6 1.99 6 2.98 6 4 C5.34 4 4.68 4 4 4 C3.67 4.99 3.34 5.98 3 7 C2.01 7 1.02 7 0 7 C-0.38133299 5.0085944 -0.71325582 3.00720923 -1 1 C-0.67 0.67 -0.34 0.34 0 0 Z " fill="#321646" transform="translate(284,64)"/>
<path d="M0 0 C2.05078125 0.03255208 4.1015625 0.06510417 6.15234375 0.09765625 C5.82234375 0.75765625 5.49234375 1.41765625 5.15234375 2.09765625 C2.58984375 2.72265625 2.58984375 2.72265625 0.15234375 3.09765625 C0.02859375 4.39703125 -0.09515625 5.69640625 -0.22265625 7.03515625 C-0.43359375 9.25 -0.43359375 9.25 -0.84765625 11.09765625 C-1.83765625 11.59265625 -1.83765625 11.59265625 -2.84765625 12.09765625 C-2.87452904 10.28523573 -2.8939934 8.47270392 -2.91015625 6.66015625 C-2.92175781 5.65082031 -2.93335938 4.64148438 -2.9453125 3.6015625 C-2.81063978 0.1485539 -2.81063978 0.1485539 0 0 Z " fill="#844DC5" transform="translate(303.84765625,259.90234375)"/>
<path d="M0 0 C1.98 0 3.96 0 6 0 C5.6875 2.375 5.6875 2.375 5 5 C4.01 5.66 3.02 6.32 2 7 C0.4375 5.75 0.4375 5.75 -1 4 C-0.6875 1.8125 -0.6875 1.8125 0 0 Z " fill="#331946" transform="translate(145,354)"/>
<path d="M0 0 C8.58 0 17.16 0 26 0 C26 0.33 26 0.66 26 1 C24.74703125 1.06058594 23.4940625 1.12117188 22.203125 1.18359375 C20.55207276 1.26802256 18.90103165 1.35266939 17.25 1.4375 C16.425 1.47681641 15.6 1.51613281 14.75 1.55664062 C13.95078125 1.59853516 13.1515625 1.64042969 12.328125 1.68359375 C11.5949707 1.72025146 10.86181641 1.75690918 10.10644531 1.79467773 C7.97782571 1.91807167 7.97782571 1.91807167 5.97949219 2.70727539 C5.32625977 2.80387451 4.67302734 2.90047363 4 3 C2.68 2.01 1.36 1.02 0 0 Z " fill="#220830" transform="translate(152,363)"/>
<path d="M0 0 C2.97 0 5.94 0 9 0 C8.67 0.99 8.34 1.98 8 3 C5.03 2.505 5.03 2.505 2 2 C2.33 3.98 2.66 5.96 3 8 C2.01 8.33 1.02 8.66 0 9 C0 6.03 0 3.06 0 0 Z " fill="#E4C5FB" transform="translate(301,335)"/>
<path d="M0 0 C0.99 0.99 1.98 1.98 3 3 C3 3.66 3 4.32 3 5 C3.99 5 4.98 5 6 5 C6 5.66 6 6.32 6 7 C5.01 7 4.02 7 3 7 C1.73762269 9.52475462 1.90143596 11.31200466 1.9375 14.125 C1.94652344 15.03507812 1.95554687 15.94515625 1.96484375 16.8828125 C1.97644531 17.58148438 1.98804688 18.28015625 2 19 C1.34 19 0.68 19 0 19 C0 12.73 0 6.46 0 0 Z " fill="#3D2451" transform="translate(339,307)"/>
<path d="M0 0 C1.98 0 3.96 0 6 0 C6 0.33 6 0.66 6 1 C4.35 1 2.7 1 1 1 C0.67 3.97 0.34 6.94 0 10 C-2.31 10 -4.62 10 -7 10 C-6.21625 9.0925 -5.4325 8.185 -4.625 7.25 C-2.69947504 4.94809764 -1.17794259 2.78422793 0 0 Z " fill="#2C064E" transform="translate(358,297)"/>
<path d="M0 0 C0 0.66 0 1.32 0 2 C4.95 2 9.9 2 15 2 C15 2.33 15 2.66 15 3 C7.41 3 -0.18 3 -8 3 C-8 2.34 -8 1.68 -8 1 C-5.23735711 0.40267181 -2.83967231 0 0 0 Z " fill="#6B5796" transform="translate(192,88)"/>
<path d="M0 0 C1.32 0 2.64 0 4 0 C4.33 1.32 4.66 2.64 5 4 C4.34 4 3.68 4 3 4 C2.67 5.32 2.34 6.64 2 8 C1.34 7.67 0.68 7.34 0 7 C0 6.01 0 5.02 0 4 C-0.66 4 -1.32 4 -2 4 C-1.34 2.68 -0.68 1.36 0 0 Z " fill="#A15FDE" transform="translate(191,308)"/>
<path d="M0 0 C1.65 0 3.3 0 5 0 C4.125 4.75 4.125 4.75 3 7 C2.01 7 1.02 7 0 7 C-0.93423645 3.98968256 -1.04449911 3.13349732 0 0 Z " fill="#9E61DE" transform="translate(79,270)"/>
<path d="M0 0 C0.33 0 0.66 0 1 0 C1 8.58 1 17.16 1 26 C0.01 26 -0.98 26 -2 26 C-1.84152588 25.44731445 -1.68305176 24.89462891 -1.51977539 24.32519531 C-0.95067733 21.77935695 -0.7896572 19.40300555 -0.68359375 16.796875 C-0.64169922 15.8171875 -0.59980469 14.8375 -0.55664062 13.828125 C-0.51732422 12.81234375 -0.47800781 11.7965625 -0.4375 10.75 C-0.39431641 9.71875 -0.35113281 8.6875 -0.30664062 7.625 C-0.20074318 5.0834613 -0.09866557 2.54182804 0 0 Z " fill="#340D5D" transform="translate(376,253)"/>
<path d="M0 0 C0.66 0 1.32 0 2 0 C2 2.64 2 5.28 2 8 C0.68 8 -0.64 8 -2 8 C-1.67 6.68 -1.34 5.36 -1 4 C-2.32 3.67 -3.64 3.34 -5 3 C-4.360625 2.690625 -3.72125 2.38125 -3.0625 2.0625 C-1.06389179 1.1654837 -1.06389179 1.1654837 0 0 Z " fill="#280449" transform="translate(309,346)"/>
<path d="M0 0 C0.33 0 0.66 0 1 0 C1.33 1.98 1.66 3.96 2 6 C2.99 6 3.98 6 5 6 C5.66 6.33 6.32 6.66 7 7 C7.33 6.34 7.66 5.68 8 5 C8.33 6.32 8.66 7.64 9 9 C6.03 9 3.06 9 0 9 C0 6.03 0 3.06 0 0 Z " fill="#2D1A3A" transform="translate(123,157)"/>
<path d="M0 0 C5.61 0 11.22 0 17 0 C12.78370866 2.10814567 10.60209225 2.17700355 6 2 C5.67 2.66 5.34 3.32 5 4 C2.525 3.01 2.525 3.01 0 2 C0 1.34 0 0.68 0 0 Z " fill="#6B588F" transform="translate(190,82)"/>
<path d="M0 0 C0.99 0.33 1.98 0.66 3 1 C2.67 2.98 2.34 4.96 2 7 C-0.64 7 -3.28 7 -6 7 C-5.67 6.34 -5.34 5.68 -5 5 C-4.01 5.33 -3.02 5.66 -2 6 C-1.34 4.02 -0.68 2.04 0 0 Z " fill="#8E4DD2" transform="translate(233,346)"/>
<path d="M0 0 C2.97 0 5.94 0 9 0 C9 2.97 9 5.94 9 9 C8.67 9 8.34 9 8 9 C7.67 7.02 7.34 5.04 7 3 C5.35 2.67 3.7 2.34 2 2 C1.67 2.66 1.34 3.32 1 4 C0.67 2.68 0.34 1.36 0 0 Z " fill="#E2BFFC" transform="translate(86,297)"/>
<path d="M0 0 C1.98 0 3.96 0 6 0 C6 0.66 6 1.32 6 2 C5.01 2.495 5.01 2.495 4 3 C3.27840576 4.64363134 2.60648579 6.31050386 2 8 C1.34 8 0.68 8 0 8 C0 5.36 0 2.72 0 0 Z " fill="#604B89" transform="translate(340,195)"/>
<path d="M0 0 C-0.33 3.3 -0.66 6.6 -1 10 C-2.32 9.34 -3.64 8.68 -5 8 C-5 4 -5 4 -3.0625 1.75 C-1 0 -1 0 0 0 Z " fill="#311646" transform="translate(94,103)"/>
<path d="M0 0 C2.00720923 0.28674418 4.0085944 0.61866701 6 1 C6 2.32 6 3.64 6 5 C3.36 5 0.72 5 -2 5 C-1.125 1.125 -1.125 1.125 0 0 Z " fill="#210A37" transform="translate(332,95)"/>
<path d="M0 0 C0.33 0 0.66 0 1 0 C1 2.97 1 5.94 1 9 C-1.31 8.34 -3.62 7.68 -6 7 C-5.34 6.34 -4.68 5.68 -4 5 C-3.30251417 3.68252676 -2.63040043 2.35085807 -2 1 C-2 1.66 -2 2.32 -2 3 C-1.34 3 -0.68 3 0 3 C0 2.01 0 1.02 0 0 Z " fill="#C5B4D6" transform="translate(85,157)"/>
<path d="M0 0 C2.97 0 5.94 0 9 0 C9 2.97 9 5.94 9 9 C8.67 9 8.34 9 8 9 C8 7.02 8 5.04 8 3 C5.69 3 3.38 3 1 3 C0.67 2.01 0.34 1.02 0 0 Z " fill="#2A054C" transform="translate(349,119)"/>
<path d="M0 0 C0 0.66 0 1.32 0 2 C-2.97 2 -5.94 2 -9 2 C-9 4.97 -9 7.94 -9 11 C-10.32 10.67 -11.64 10.34 -13 10 C-12.34 9.34 -11.68 8.68 -11 8 C-10.59952556 5.67724823 -10.2602896 3.34260643 -10 1 C-2.25 0 -2.25 0 0 0 Z " fill="#D8BBEE" transform="translate(338,220)"/>
<path d="M0 0 C3.3 0 6.6 0 10 0 C10 0.33 10 0.66 10 1 C9.071875 1.020625 8.14375 1.04125 7.1875 1.0625 C3.99303786 1.62844359 3.99303786 1.62844359 2.93359375 3.625 C2.20025229 5.38218533 1.59224075 7.19037549 1 9 C0.67 9 0.34 9 0 9 C0 6.03 0 3.06 0 0 Z " fill="#43235D" transform="translate(151,185)"/>
<path d="M0 0 C2.97 0 5.94 0 9 0 C9 0.33 9 0.66 9 1 C7.35 1.33 5.7 1.66 4 2 C3.67 3.32 3.34 4.64 3 6 C2.01 6 1.02 6 0 6 C0 4.02 0 2.04 0 0 Z " fill="#2D074F" transform="translate(123,72)"/>
<path d="M0 0 C2.6875 0.3125 2.6875 0.3125 5 1 C4.67 1.99 4.34 2.98 4 4 C3.01 4 2.02 4 1 4 C0.67 4.66 0.34 5.32 0 6 C-0.66 6 -1.32 6 -2 6 C-2.33 5.01 -2.66 4.02 -3 3 C-1.8125 1.4375 -1.8125 1.4375 0 0 Z " fill="#341248" transform="translate(140,358)"/>
<path d="M0 0 C2 1 2 1 2 1 Z M-1 1 C0.42944945 3.35438733 1.08661261 4.48032433 0.625 7.25 C0.41875 7.8275 0.2125 8.405 0 9 C-0.99 8.34 -1.98 7.68 -3 7 C-2.125 2.125 -2.125 2.125 -1 1 Z " fill="#9F5EE0" transform="translate(336,239)"/>
<path d="M0 0 C0.66 0 1.32 0 2 0 C2.33 2.97 2.66 5.94 3 9 C2.01 9 1.02 9 0 9 C0 6.03 0 3.06 0 0 Z " fill="#402C55" transform="translate(254,204)"/>
<path d="M0 0 C0.66 0 1.32 0 2 0 C2 0.99 2 1.98 2 3 C2.66 3 3.32 3 4 3 C2.84826645 5.46800047 1.95216435 7.04783565 0 9 C0 6.03 0 3.06 0 0 Z " fill="#1F0734" transform="translate(283,156)"/>
<path d="M0 0 C2.97 0 5.94 0 9 0 C9 2.97 9 5.94 9 9 C8.67 9 8.34 9 8 9 C7.67 6.69 7.34 4.38 7 2 C6.01 2 5.02 2 4 2 C2.68 1.34 1.36 0.68 0 0 Z " fill="#EBE2F5" transform="translate(124,82)"/>
<path d="M0 0 C2.31 0 4.62 0 7 0 C5.35 1.65 3.7 3.3 2 5 C1.34 4.67 0.68 4.34 0 4 C0 2.68 0 1.36 0 0 Z " fill="#1F0430" transform="translate(87,307)"/>
<path d="M0 0 C2.97 0 5.94 0 9 0 C9 1.65 9 3.3 9 5 C8.34 4.67 7.68 4.34 7 4 C7 3.34 7 2.68 7 2 C4.69 1.67 2.38 1.34 0 1 C0 0.67 0 0.34 0 0 Z " fill="#210A3A" transform="translate(76,298)"/>
<path d="M0 0 C2.97 0 5.94 0 9 0 C9 0.66 9 1.32 9 2 C8.34 2 7.68 2 7 2 C6.67 2.66 6.34 3.32 6 4 C6 3.34 6 2.68 6 2 C4.02 2 2.04 2 0 2 C0 1.34 0 0.68 0 0 Z " fill="#8E56C9" transform="translate(114,297)"/>
<path d="M0 0 C1.65 1.32 3.3 2.64 5 4 C4.67 4.99 4.34 5.98 4 7 C3.34 7 2.68 7 2 7 C2 6.34 2 5.68 2 5 C1.34 5 0.68 5 0 5 C0 4.34 0 3.68 0 3 C-0.66 2.67 -1.32 2.34 -2 2 C-1.34 1.34 -0.68 0.68 0 0 Z " fill="#300F46" transform="translate(306,193)"/>
<path d="M0 0 C0.66 0 1.32 0 2 0 C2 1.65 2 3.3 2 5 C0.68 5.33 -0.64 5.66 -2 6 C-2.66 4.68 -3.32 3.36 -4 2 C-2.68 1.67 -1.36 1.34 0 1 C0 0.67 0 0.34 0 0 Z " fill="#25093A" transform="translate(130,158)"/>
<path d="M0 0 C0 3.3 0 6.6 0 10 C-1.32 9.67 -2.64 9.34 -4 9 C-3.1654738 6.49642139 -2.20628008 4.33214148 -1 2 C-1.66 1.67 -2.32 1.34 -3 1 C-1 0 -1 0 0 0 Z " fill="#2F0D55" transform="translate(368,129)"/>
<path d="M0 0 C0.66 0 1.32 0 2 0 C2 1.98 2 3.96 2 6 C-0.97 6 -3.94 6 -7 6 C-7 5.67 -7 5.34 -7 5 C-5.02 4.67 -3.04 4.34 -1 4 C-0.67 2.68 -0.34 1.36 0 0 Z " fill="#C9B9DC" transform="translate(177,85)"/>
<path d="M0 0 C0.99 0.495 0.99 0.495 2 1 C2.73075648 3.3140622 3.40138258 5.64828869 4 8 C2.68 8 1.36 8 0 8 C0 5.36 0 2.72 0 0 Z " fill="#28054F" transform="translate(123,346)"/>
<path d="M0 0 C2 1 2 1 3.125 4.0625 C3.41375 5.031875 3.7025 6.00125 4 7 C2.02 7.99 2.02 7.99 0 9 C0 6.03 0 3.06 0 0 Z " fill="#453055" transform="translate(254,157)"/>
<path d="M0 0 C0.33 0 0.66 0 1 0 C1 2.97 1 5.94 1 9 C-0.32 9 -1.64 9 -3 9 C-2.01 6.03 -1.02 3.06 0 0 Z " fill="#473654" transform="translate(263,157)"/>
</svg>
