<svg xmlns="http://www.w3.org/2000/svg" viewBox="0 0 32 32"><title>romance-love-letter-open</title><g><path fill="#000000" d="M30.47 15.23h-1.52v1.53h1.52v12.19H32V12.19h-1.53v3.04z"></path><path fill="#000000" d="M28.95 28.95h1.52v1.52h-1.52Z"></path><path fill="#000000" d="M28.95 10.66h1.52v1.53h-1.52Z"></path><path fill="#000000" d="M27.43 28.95H25.9v1.52H6.09v-1.52H4.57v1.52H3.04V32h25.91v-1.53h-1.52v-1.52z"></path><path fill="#000000" d="M24.38 27.42h1.52v1.53h-1.52Z"></path><path fill="#000000" d="M22.85 25.9h1.53v1.52h-1.53Z"></path><path fill="#000000" d="M22.85 18.28h3.05v1.53h-3.05Z"></path><path fill="#000000" d="M21.33 24.38h1.52v1.52h-1.52Z"></path><path fill="#000000" d="M19.81 22.85h1.52v1.53h-1.52Z"></path><path fill="#000000" d="M19.81 19.81h3.04v1.52h-3.04Z"></path><path fill="#000000" d="M19.81 1.52h1.52v1.52h-1.52Z"></path><path fill="#000000" d="M19.81 10.66h-3.05v1.53h-1.52v-1.53h-3.05v1.53h-1.53v3.04h1.53v1.53h1.52v1.52h1.53v1.53h1.52v-1.53h1.52v-1.52h1.53v-1.53h1.52v-3.04h-1.52v-1.53z"></path><path fill="#000000" d="M12.19 21.33h7.62v1.52h-7.62Z"></path><path fill="#000000" d="M12.19 0h7.62v1.52h-7.62Z"></path><path fill="#000000" d="M10.66 22.85h1.53v1.53h-1.53Z"></path><path fill="#000000" d="M9.14 19.81h3.05v1.52H9.14Z"></path><path fill="#000000" d="M10.66 1.52h1.53v1.52h-1.53Z"></path><path fill="#000000" d="M9.14 24.38h1.52v1.52H9.14Z"></path><path fill="#000000" d="M7.62 25.9h1.52v1.52H7.62Z"></path><path fill="#000000" d="M6.09 18.28h3.05v1.53H6.09Z"></path><path fill="#000000" d="M6.09 27.42h1.53v1.53H6.09Z"></path><path fill="#000000" d="M4.57 16.76H3.04v1.52h3.05V6.09H25.9v12.19h3.05v-1.52h-1.52v-6.1h1.52V9.14h-1.52V4.57h-4.58V3.04h-1.52v1.53H10.66V3.04H9.14v1.53H4.57v4.57H3.04v1.52h1.53v6.1z"></path><path fill="#000000" d="M1.52 28.95h1.52v1.52H1.52Z"></path><path fill="#000000" d="M1.52 10.66h1.52v1.53H1.52Z"></path><path fill="#000000" d="M1.52 16.76h1.52v-1.53H1.52v-3.04H0v16.76h1.52V16.76z"></path></g></svg>