<?xml version="1.0" encoding="UTF-8"?>
<svg version="1.1" xmlns="http://www.w3.org/2000/svg" width="1000" height="1000">
<path d="M0 0 C0.81058534 -0.00376113 1.62117068 -0.00752226 2.45631921 -0.01139736 C5.19593784 -0.02040189 7.93504448 -0.0078559 10.67464447 0.00444412 C12.64929992 0.00242138 14.62395438 -0.00091608 16.59860563 -0.00546145 C22.04340764 -0.01414382 27.48804019 -0.00401213 32.93282747 0.00908089 C38.79807436 0.01994493 44.66330498 0.01357123 50.52855682 0.00929642 C62.02818465 0.00365137 73.52774603 0.01400099 85.02736253 0.02958438 C94.37454828 0.04195545 103.72172133 0.04757923 113.06891632 0.04836655 C113.73256018 0.04842764 114.39620405 0.04848873 115.07995833 0.04855168 C117.77385547 0.0487812 120.4677526 0.04896837 123.16164974 0.04909982 C147.7295948 0.05031203 172.29750853 0.06602219 196.86544037 0.0906868 C220.05098971 0.11395865 243.23652005 0.1281503 266.42208099 0.13170242 C267.13571956 0.13181394 267.84935812 0.13192545 268.58462209 0.13204035 C271.46177167 0.13248921 274.33892124 0.13293119 277.21607082 0.13337278 C278.64993677 0.13359316 280.08380272 0.13381445 281.51766868 0.13403665 C282.9480491 0.13425801 284.37842953 0.13447678 285.80880995 0.13469296 C308.60727555 0.13821127 331.40573757 0.14967455 354.20419958 0.16249929 C360.87704692 0.16621549 367.5498941 0.16948097 374.22274208 0.17174816 C388.26075772 0.17656998 402.29876141 0.18381948 416.33676928 0.19989583 C422.14256884 0.20649386 427.94835833 0.21156729 433.75416183 0.21235657 C439.07151068 0.2131455 444.3888341 0.21857161 449.70617503 0.22767606 C451.62753203 0.23017704 453.54889206 0.23102038 455.47025043 0.23001727 C472.87435465 0.22268739 472.87435465 0.22268739 481.04901171 1.14548802 C484.36135293 1.49992701 487.62670433 1.50169946 490.95821381 1.5047493 C491.97181725 1.50618439 491.97181725 1.50618439 493.00589752 1.50764847 C494.41309962 1.50831994 495.82030502 1.50653908 497.22750092 1.50230789 C499.35981516 1.49691893 501.4919213 1.50230139 503.62422943 1.50865555 C505.00639135 1.50799507 506.38855313 1.50671455 507.77071381 1.5047493 C508.99943207 1.50362137 510.22815033 1.50249344 511.49410248 1.50133133 C515.19267277 1.43004801 515.19267277 1.43004801 518.94068909 0.87136555 C522.78578453 0.37675132 526.54860017 0.24874237 530.42928314 0.25168228 C531.45634078 0.25040064 531.45634078 0.25040064 532.50414705 0.24909312 C534.77336874 0.24746038 537.04251468 0.25292313 539.31172943 0.25841141 C540.94835661 0.25869378 542.58498392 0.25853456 544.22161102 0.2579689 C548.64662719 0.25768289 553.07161606 0.26354787 557.4966259 0.27054286 C562.12774135 0.2768091 566.75885747 0.27738278 571.3899765 0.27856827 C580.1516264 0.28167195 588.91326377 0.28987234 597.67490816 0.29991776 C607.6531367 0.31110882 617.63136585 0.31659688 627.60959911 0.32161319 C648.12815474 0.33205578 668.64669911 0.34963655 689.16524506 0.3719368 C689.16524506 1.0319368 689.16524506 1.6919368 689.16524506 2.3719368 C689.82524506 2.3719368 690.48524506 2.3719368 691.16524506 2.3719368 C691.16524506 3.0319368 691.16524506 3.6919368 691.16524506 4.3719368 C691.82524506 4.3719368 692.48524506 4.3719368 693.16524506 4.3719368 C693.16524506 12.2919368 693.16524506 20.2119368 693.16524506 28.3719368 C695.52422943 28.34873367 697.88321381 28.32553055 700.31368256 28.3016243 C702.59395052 28.28603471 704.87421259 28.27388604 707.15450287 28.26207352 C708.74144388 28.25200492 710.3283663 28.23834913 711.91524506 28.22105789 C714.19393753 28.19684678 716.47238511 28.18546258 718.75118256 28.1766243 C719.4626947 28.16630173 720.17420685 28.15597916 720.90727997 28.14534378 C722.66156171 28.14494258 724.41521214 28.24991471 726.16524506 28.3719368 C728.72660727 30.93329901 728.46191363 32.0375501 728.57930756 35.5984993 C728.63731537 37.1453743 728.63731537 37.1453743 728.69649506 38.7234993 C728.72743256 39.80373367 728.75837006 40.88396805 728.79024506 41.9969368 C728.84825287 43.62888992 728.84825287 43.62888992 728.90743256 45.2938118 C729.00190753 47.98634845 729.08746936 50.67887437 729.16524506 53.3719368 C730.08805267 53.35622635 730.08805267 53.35622635 731.02950287 53.34019852 C733.82470849 53.29854985 736.61984872 53.27258264 739.41524506 53.2469368 C740.38333099 53.23017899 741.35141693 53.21342117 742.34883881 53.19615555 C743.28340912 53.18971024 744.21797943 53.18326492 745.18087006 53.1766243 C746.03970795 53.16615067 746.89854584 53.15567703 747.78340912 53.14488602 C750.42467822 53.39666751 751.97950849 53.86946946 754.16524506 55.3719368 C758.39415627 67.6357793 756.35292785 81.87089225 754.16524506 94.3719368 C754.82524506 94.3719368 755.48524506 94.3719368 756.16524506 94.3719368 C756.16524506 95.0319368 756.16524506 95.6919368 756.16524506 96.3719368 C756.87938568 96.20951492 757.59352631 96.04709305 758.32930756 95.8797493 C762.93989265 95.05416244 767.49737807 95.23149954 772.16524506 95.3719368 C773.23645599 95.39707352 773.23645599 95.39707352 774.32930756 95.42271805 C776.16524506 95.5594368 776.16524506 95.5594368 779.16524506 96.3719368 C781.99466619 100.06695685 782.54019945 102.8181709 782.53946686 107.41308975 C782.54648117 108.62582062 782.55349548 109.83855148 782.56072235 111.08803177 C782.55329544 112.42363524 782.54556433 113.75923705 782.53755951 115.09483719 C782.53998868 116.50778852 782.54370922 117.92073813 782.54862213 119.33368301 C782.55801683 123.16420391 782.54861823 126.99446866 782.53529 130.82496953 C782.52396363 134.8349646 782.52808387 138.84494729 782.53003693 142.85495377 C782.53091943 149.58762669 782.51984792 156.32019884 782.5014267 163.052845 C782.48025114 170.83672545 782.47675128 178.62045837 782.48298866 186.40436178 C782.48868285 193.89389815 782.48303656 201.38338257 782.47181511 208.87291145 C782.46717073 212.0598274 782.46629456 215.24671157 782.46840096 218.43362999 C782.47028434 222.18553651 782.46217617 225.93729284 782.44634056 229.68916512 C782.44209768 231.06621937 782.44124719 232.44328886 782.44403076 233.82034683 C782.44725304 235.69949396 782.43694491 237.57864981 782.42594147 239.45776749 C782.4238886 240.50949174 782.42183573 241.56121599 782.41972065 242.64481068 C782.16404333 245.38481525 781.57499659 247.03545859 780.16524506 249.3719368 C779.17524506 249.3719368 778.18524506 249.3719368 777.16524506 249.3719368 C777.16524506 250.0319368 777.16524506 250.6919368 777.16524506 251.3719368 C769.90524506 251.7019368 762.64524506 252.0319368 755.16524506 252.3719368 C755.10917084 255.80213211 755.10917084 255.80213211 755.05196381 259.3016243 C755.00577306 261.51249726 754.9545308 263.72319923 754.90279388 265.93394852 C754.86950776 267.47225458 754.84148728 269.01068387 754.81880951 270.54918289 C754.78532948 272.75886498 754.73302196 274.96741415 754.67696381 277.1766243 C754.67057388 277.86626266 754.66418396 278.55590103 754.6576004 279.26643753 C754.5976181 281.20738602 754.5976181 281.20738602 754.16524506 284.3719368 C750.81404986 286.60606693 749.74746955 286.61041442 745.84102631 286.5672493 C744.81299896 286.56080399 743.78497162 286.55435867 742.72579193 286.54771805 C741.65393646 286.53096024 740.58208099 286.51420242 739.47774506 286.4969368 C738.39428802 286.48791336 737.31083099 286.47888992 736.19454193 286.46959305 C733.51788795 286.44601019 730.84167709 286.41309806 728.16524506 286.3719368 C728.20004974 288.21658524 728.20004974 288.21658524 728.23555756 290.0984993 C728.25432545 291.73130569 728.27252455 293.3641187 728.29024506 294.9969368 C728.30700287 295.80517899 728.32376068 296.61342117 728.34102631 297.44615555 C728.37908202 302.1270086 728.17735662 306.04123309 726.16524506 310.3719368 C722.48595061 312.82479976 720.69146599 312.60422558 716.30977631 312.5672493 C715.6481398 312.5644194 714.9865033 312.56158951 714.3048172 312.55867386 C712.19560768 312.54749598 710.08682581 312.5223966 707.97774506 312.4969368 C706.54611057 312.48690387 705.11446942 312.47777856 703.68282318 312.46959305 C700.17666728 312.44926751 696.67143376 312.41011671 693.16524506 312.3719368 C693.16524506 318.6419368 693.16524506 324.9119368 693.16524506 331.3719368 C692.50524506 331.3719368 691.84524506 331.3719368 691.16524506 331.3719368 C691.16524506 332.6919368 691.16524506 334.0119368 691.16524506 335.3719368 C690.50524506 335.3719368 689.84524506 335.3719368 689.16524506 335.3719368 C689.16524506 336.0319368 689.16524506 336.6919368 689.16524506 337.3719368 C687.89598797 337.37367305 686.62673088 337.3754093 685.31901145 337.37719816 C629.37763548 337.45378631 573.4362613 337.53159208 517.49489594 337.6156044 C516.22438796 337.61751192 516.22438796 337.61751192 514.92821316 337.61945798 C496.52024254 337.64710271 478.11227225 337.67496578 459.7043023 337.70305374 C450.67696036 337.71682686 441.64961835 337.73055173 432.62227631 337.74425125 C431.72395011 337.74561533 430.82562392 337.74697942 429.90007572 337.74838484 C400.78586725 337.79257135 371.67165535 337.83357258 342.55743996 337.87292093 C312.63731847 337.9133753 282.71720335 337.95704529 252.7970925 338.00475791 C248.57050841 338.0114964 244.34392427 338.01819816 240.11734009 338.02487755 C239.28549257 338.02619328 238.45364506 338.027509 237.59659005 338.0288646 C224.20936584 338.04994462 210.8221392 338.06763766 197.43490856 338.08406211 C183.9742815 338.10064896 170.51366354 338.1208088 157.05304727 338.14460521 C149.05714527 338.15863251 141.06125031 338.16993083 133.06533934 338.17730118 C127.0918315 338.18310936 121.11834459 338.19404968 115.14484742 338.2069701 C112.73011677 338.21139542 110.31538238 338.21416299 107.90064785 338.21509879 C104.61489734 338.21661568 101.32921325 338.224207 98.0434761 338.2332716 C97.10918431 338.23224893 96.17489252 338.23122626 95.21228886 338.2301726 C89.37216613 338.25432832 83.61479016 338.60504554 77.79952003 339.145661 C74.38135423 339.43927051 71.0236896 339.49900872 67.59249115 339.50133133 C66.59981735 339.50395981 66.59981735 339.50395981 65.58708954 339.50664139 C63.45425855 339.51095421 61.321514 339.50816364 59.18868256 339.5047493 C57.68604771 339.50542458 56.18341298 339.50639647 54.6807785 339.50764847 C51.55954174 339.50911035 48.43833389 339.50701692 45.31710052 339.50230789 C41.31339709 339.49656164 37.30975999 339.49992971 33.30605888 339.50588036 C30.21607202 339.5094848 27.12610106 339.50834878 24.03611374 339.50575256 C22.55849067 339.50508552 21.08086616 339.50590394 19.60324478 339.50823212 C17.55014165 339.51076204 15.49714854 339.50691554 13.44405365 339.50133133 C12.27667664 339.50053574 11.10929962 339.49974014 9.90654755 339.49892044 C7.16524506 339.3719368 7.16524506 339.3719368 5.16524506 338.3719368 C2.7940126 338.14163724 0.41782563 337.96073738 -1.95975494 337.8094368 C-3.24108307 337.72564774 -4.52241119 337.64185867 -5.84256744 337.55553055 C-6.82998932 337.49494461 -7.81741119 337.43435867 -8.83475494 337.3719368 C-8.83475494 336.7119368 -8.83475494 336.0519368 -8.83475494 335.3719368 C-9.49475494 335.3719368 -10.15475494 335.3719368 -10.83475494 335.3719368 C-10.83475494 327.7819368 -10.83475494 320.1919368 -10.83475494 312.3719368 C-21.72475494 312.3719368 -32.61475494 312.3719368 -43.83475494 312.3719368 C-43.83475494 311.7119368 -43.83475494 311.0519368 -43.83475494 310.3719368 C-44.49475494 310.3719368 -45.15475494 310.3719368 -45.83475494 310.3719368 C-45.83475494 302.4519368 -45.83475494 294.5319368 -45.83475494 286.3719368 C-53.42475494 286.3719368 -61.01475494 286.3719368 -68.83475494 286.3719368 C-68.83475494 285.7119368 -68.83475494 285.0519368 -68.83475494 284.3719368 C-69.82475494 284.3719368 -70.81475494 284.3719368 -71.83475494 284.3719368 C-74.28761791 280.69264235 -74.06704373 278.89815773 -74.03006744 274.51646805 C-74.02723755 273.85483154 -74.02440765 273.19319504 -74.021492 272.51150894 C-74.01031413 270.40229943 -73.98521475 268.29351755 -73.95975494 266.1844368 C-73.94972201 264.75280231 -73.94059671 263.32116116 -73.93241119 261.88951492 C-73.91208565 258.38335902 -73.87293486 254.8781255 -73.83475494 251.3719368 C-80.76475494 251.3719368 -87.69475494 251.3719368 -94.83475494 251.3719368 C-94.83475494 250.7119368 -94.83475494 250.0519368 -94.83475494 249.3719368 C-95.49475494 249.3719368 -96.15475494 249.3719368 -96.83475494 249.3719368 C-96.83475494 248.7119368 -96.83475494 248.0519368 -96.83475494 247.3719368 C-97.49475494 247.3719368 -98.15475494 247.3719368 -98.83475494 247.3719368 C-98.83475494 198.2019368 -98.83475494 149.0319368 -98.83475494 98.3719368 C-98.17475494 98.3719368 -97.51475494 98.3719368 -96.83475494 98.3719368 C-96.83475494 97.7119368 -96.83475494 97.0519368 -96.83475494 96.3719368 C-93.63069032 94.23589372 -92.83874747 94.12984772 -89.16678619 94.1766243 C-87.82777252 94.18629227 -87.82777252 94.18629227 -86.46170807 94.19615555 C-85.06855377 94.22129227 -85.06855377 94.22129227 -83.64725494 94.2469368 C-82.70688385 94.25596024 -81.76651276 94.26498367 -80.79764557 94.27428055 C-78.47642526 94.29784624 -76.15571851 94.33074564 -73.83475494 94.3719368 C-73.84522858 93.33263016 -73.85570221 92.29332352 -73.86649323 91.22252274 C-73.9027343 87.36106698 -73.92567035 83.49962623 -73.94461823 79.63805008 C-73.95466644 77.96777695 -73.96830731 76.29752137 -73.98563385 74.62730789 C-74.0099342 72.22443176 -74.02124981 69.82178853 -74.03006744 67.4188118 C-74.0455513 66.3014061 -74.0455513 66.3014061 -74.06134796 65.16142654 C-74.06285982 58.15142024 -74.06285982 58.15142024 -71.83475494 55.3719368 C-68.42513783 53.54284371 -65.58508042 53.12960152 -61.75272369 53.1766243 C-60.49238312 53.18411697 -60.49238312 53.18411697 -59.20658112 53.19176102 C-57.63033966 53.21907303 -57.63033966 53.21907303 -56.02225494 53.2469368 C-52.66037994 53.2881868 -49.29850494 53.3294368 -45.83475494 53.3719368 C-45.83475494 46.4419368 -45.83475494 39.5119368 -45.83475494 32.3719368 C-45.17475494 32.3719368 -44.51475494 32.3719368 -43.83475494 32.3719368 C-43.83475494 31.3819368 -43.83475494 30.3919368 -43.83475494 29.3719368 C-41.320645 28.11488183 -39.45434089 28.18063089 -36.64334869 28.0906868 C-35.10324127 28.03461258 -35.10324127 28.03461258 -33.53202057 27.97740555 C-31.35494132 27.90696679 -29.17785796 27.83665475 -27.00077057 27.76646805 C-25.46259674 27.71039383 -25.46259674 27.71039383 -23.89334869 27.6531868 C-22.94774078 27.62289383 -22.00213287 27.59260086 -21.02787018 27.56138992 C-18.85935094 27.61107481 -18.85935094 27.61107481 -17.83475494 26.3719368 C-15.50178061 26.33100742 -13.1677027 26.32951957 -10.83475494 26.3719368 C-10.85046539 25.69090897 -10.86617584 25.00988113 -10.88236237 24.30821609 C-10.94468716 21.22537399 -10.98373753 18.14266436 -11.02225494 15.0594368 C-11.04739166 13.98758133 -11.07252838 12.91572586 -11.09842682 11.81138992 C-11.10809479 10.78336258 -11.11776276 9.75533524 -11.12772369 8.69615555 C-11.14343414 7.74829178 -11.15914459 6.80042801 -11.17533112 5.82384109 C-10.83475494 3.3719368 -10.83475494 3.3719368 -9.80314112 1.74193883 C-6.75442692 -0.37997439 -3.58295082 -0.03585117 0 0 Z " fill="#888888" transform="translate(152.83475494384766,347.6280632019043)"/>
<path d="M0 0 C40.26 0 80.52 0 122 0 C122 8.25 122 16.5 122 25 C129.92 25 137.84 25 146 25 C146 64.93 146 104.86 146 146 C138.08 146 130.16 146 122 146 C122 154.25 122 162.5 122 171 C81.74 171 41.48 171 0 171 C0 163.08 0 155.16 0 147 C-7.92 147 -15.84 147 -24 147 C-24 106.41 -24 65.82 -24 24 C-16.08 24 -8.16 24 0 24 C0 16.08 0 8.16 0 0 Z " fill="#F7F4EE" transform="translate(232,419)"/>
<path d="M0 0 C1.39120471 0.00015906 2.78241534 0.00585033 4.17358398 0.01586914 C4.90463852 0.01728409 5.63569305 0.01869904 6.38890076 0.02015686 C8.73253406 0.02577131 11.07607313 0.03832617 13.41967773 0.05102539 C15.00496282 0.05603853 16.59024939 0.06060176 18.17553711 0.06469727 C22.06945383 0.07574542 25.96329979 0.09301967 29.85717773 0.11352539 C31.46084653 5.91191464 32.35441504 11.42655729 32.73217773 17.42602539 C32.80436523 18.22331055 32.87655273 19.0205957 32.95092773 19.84204102 C33.09936523 22.16430664 33.09936523 22.16430664 32.85717773 26.11352539 C30.52753673 28.66123288 29.09737025 29.0880255 25.64916992 29.45410156 C24.41328125 29.43839111 23.17739258 29.42268066 21.90405273 29.40649414 C20.9137204 29.40012688 20.9137204 29.40012688 19.90338135 29.39363098 C17.80422382 29.37689974 15.70604277 29.3392609 13.60717773 29.30102539 C12.18010831 29.28597123 10.75302377 29.2722841 9.32592773 29.26000977 C5.83566981 29.22957147 2.34751066 29.17084838 -1.14282227 29.11352539 C-1.14282227 35.38352539 -1.14282227 41.65352539 -1.14282227 48.11352539 C-1.80282227 48.11352539 -2.46282227 48.11352539 -3.14282227 48.11352539 C-3.14282227 49.43352539 -3.14282227 50.75352539 -3.14282227 52.11352539 C-233.81282227 52.11352539 -464.48282227 52.11352539 -702.14282227 52.11352539 C-702.14282227 31.11352539 -702.14282227 31.11352539 -700.14282227 28.11352539 C-694.27980783 26.75848201 -688.30558432 26.98486885 -682.31518555 27.01586914 C-681.24551041 27.01732941 -680.17583527 27.01878967 -679.07374573 27.02029419 C-676.75377057 27.02409248 -674.4337983 27.0302009 -672.11383438 27.0383606 C-668.40766065 27.05121784 -664.70152317 27.05766648 -660.99533081 27.0625 C-651.76698909 27.07582328 -642.5386817 27.09970584 -633.31036377 27.12390137 C-624.29879227 27.14713825 -615.28723092 27.16572837 -606.27563477 27.17602539 C-605.02493069 27.17750454 -603.77422661 27.17898369 -602.48562241 27.18050766 C-585.60210743 27.19316035 -568.75859997 26.97128538 -551.88745117 26.3449707 C-542.74127732 26.00752864 -533.59803896 25.96129293 -524.4465332 25.9831543 C-521.65774613 25.9887461 -518.86910595 25.98302307 -516.08032227 25.97680664 C-514.28084275 25.97746413 -512.48136332 25.97873839 -510.68188477 25.98071289 C-509.86031891 25.97868866 -509.03875305 25.97666443 -508.19229126 25.97457886 C-504.91815223 25.98826391 -502.27104266 26.07078526 -499.14282227 27.11352539 C-497.41432928 27.20730175 -495.68244968 27.24422963 -493.95141602 27.24633789 C-492.92338867 27.24762695 -491.89536133 27.24891602 -490.83618164 27.25024414 C-489.76174805 27.24637695 -488.68731445 27.24250977 -487.58032227 27.23852539 C-486.53295898 27.24239258 -485.4855957 27.24625977 -484.40649414 27.25024414 C-478.71434968 27.24316876 -473.16309218 26.97436633 -467.50830078 26.34057617 C-463.63625314 25.96891715 -459.77970649 25.96606493 -455.89282227 25.98852539 C-455.08087402 25.98973389 -454.26892578 25.99094238 -453.43237305 25.9921875 C-447.13120165 26.03242882 -440.91036151 26.40547611 -434.63500977 26.99243164 C-433.81258789 27.03239258 -432.99016602 27.07235352 -432.14282227 27.11352539 C-431.81282227 26.78352539 -431.48282227 26.45352539 -431.14282227 26.11352539 C-429.23476904 25.98965163 -427.32210285 25.93674658 -425.41021729 25.91018677 C-424.15167183 25.89064564 -422.89312637 25.87110451 -421.59644318 25.85097122 C-420.17603306 25.83426445 -418.75562022 25.81778743 -417.33520508 25.80151367 C-415.83214715 25.78108129 -414.32909291 25.76037617 -412.82604218 25.73942184 C-408.64209154 25.683122 -404.45808267 25.63469668 -400.27400875 25.58855963 C-397.57726335 25.55863053 -394.88053961 25.52713819 -392.183815 25.49539566 C-341.71645544 24.9101038 -291.24603279 24.96201027 -240.77604818 24.98495603 C-231.56871263 24.98871027 -222.36138788 24.987381 -213.15405273 24.9831543 C-143.47754925 24.95191991 -73.81438415 25.26449994 -4.14282227 26.11352539 C-4.14805908 25.36143799 -4.1532959 24.60935059 -4.15869141 23.83447266 C-4.17939453 20.44833197 -4.19246103 17.06220455 -4.20532227 13.67602539 C-4.21370117 12.49202148 -4.22208008 11.30801758 -4.23071289 10.08813477 C-4.23393555 8.96342773 -4.2371582 7.8387207 -4.24047852 6.67993164 C-4.24571533 5.63780518 -4.25095215 4.59567871 -4.25634766 3.52197266 C-4.08378066 -0.13904543 -3.74703756 0.13535093 0 0 Z " fill="#6B6B6B" transform="translate(847.142822265625,630.886474609375)"/>
<path d="M0 0 C56.43 0 112.86 0 171 0 C171 8.25 171 16.5 171 25 C131.07 25 91.14 25 50 25 C50 40.84 50 56.68 50 73 C82.01 73 114.02 73 147 73 C147 81.25 147 89.5 147 98 C114.99 98 82.98 98 50 98 C50 122.09 50 146.18 50 171 C33.5 171 17 171 0 171 C0 114.57 0 58.14 0 0 Z " fill="#F4F1EC" transform="translate(402,419)"/>
<path d="M0 0 C56.43 0 112.86 0 171 0 C171 8.25 171 16.5 171 25 C130.74 25 90.48 25 49 25 C49 40.84 49 56.68 49 73 C81.01 73 113.02 73 146 73 C146 81.25 146 89.5 146 98 C113.99 98 81.98 98 49 98 C49 122.09 49 146.18 49 171 C32.83 171 16.66 171 0 171 C0 114.57 0 58.14 0 0 Z " fill="#F5F2EC" transform="translate(597,419)"/>
<path d="M0 0 C0.33 0 0.66 0 1 0 C1.33 8.58 1.66 17.16 2 26 C3.95107666 26.02505615 5.90215332 26.0501123 7.91235352 26.07592773 C14.41827072 26.16042609 20.92412924 26.24865989 27.42996311 26.33933926 C31.3675912 26.39408996 35.30522702 26.44742327 39.24291992 26.49731445 C43.05554932 26.54567661 46.86810644 26.59802668 50.6806469 26.65294075 C52.12238662 26.67304468 53.56414588 26.69180248 55.00592232 26.70907402 C64.70282202 26.82641895 74.33194386 27.26050895 84 28 C84 28.33 84 28.66 84 29 C44.4 29.495 44.4 29.495 4 30 C3.67 37.59 3.34 45.18 3 53 C2 55 2 55 0.35620117 55.62109375 C-2.69253681 56.11136847 -5.61091618 56.09266862 -8.69921875 56.0625 C-9.99021484 56.05476563 -11.28121094 56.04703125 -12.61132812 56.0390625 C-13.97005747 56.02661662 -15.3287816 56.0135888 -16.6875 56 C-19.35811468 55.97349892 -22.02849014 55.95354844 -24.69921875 55.9375 C-25.88346436 55.92589844 -27.06770996 55.91429687 -28.2878418 55.90234375 C-30.91571157 55.68864336 -30.91571157 55.68864336 -32 57 C-32.12309805 59.78647496 -32.18610749 62.55201624 -32.2109375 65.33984375 C-32.23900132 67.05925439 -32.26766575 68.77865531 -32.296875 70.49804688 C-32.33820426 73.22159607 -32.37507205 75.94496293 -32.40136719 78.66870117 C-32.42888301 81.28863442 -32.47474983 83.90773013 -32.5234375 86.52734375 C-32.52669037 87.34508774 -32.52994324 88.16283173 -32.53329468 89.00535583 C-32.58349609 91.30053711 -32.58349609 91.30053711 -33 95 C-36.25389988 97.16926659 -37.13395957 97.24080049 -40.88671875 97.1953125 C-41.82451172 97.18886719 -42.76230469 97.18242187 -43.72851562 97.17578125 C-45.19321289 97.15064453 -45.19321289 97.15064453 -46.6875 97.125 C-48.16959961 97.11146484 -48.16959961 97.11146484 -49.68164062 97.09765625 C-52.12133765 97.0740843 -54.56054697 97.04118022 -57 97 C-57.74873591 100.33415101 -58.11966501 103.39597283 -58.09765625 106.81054688 C-58.09439331 107.74780609 -58.09113037 108.68506531 -58.08776855 109.65072632 C-58.07942993 110.66317413 -58.07109131 111.67562195 -58.0625 112.71875 C-58.05391733 114.9298498 -58.04545923 117.14095009 -58.03710938 119.35205078 C-58.03090576 120.51641663 -58.02470215 121.68078247 -58.01831055 122.88043213 C-57.92342401 141.63728553 -58.00059296 160.37442094 -58.5 179.125 C-59.08080578 201.08519007 -59.10484084 223.03342551 -59 245 C-57.9330188 244.96072388 -57.9330188 244.96072388 -56.84448242 244.9206543 C-53.62571241 244.81680604 -50.4072942 244.75171242 -47.1875 244.6875 C-45.50817383 244.6246582 -45.50817383 244.6246582 -43.79492188 244.56054688 C-42.72177734 244.54443359 -41.64863281 244.52832031 -40.54296875 244.51171875 C-39.55321045 244.48553467 -38.56345215 244.45935059 -37.54370117 244.43237305 C-35 245 -35 245 -33.17407227 247.15551758 C-31.86079101 250.33726845 -31.64076334 252.56698887 -31.671875 256 C-31.67703125 257.134375 -31.6821875 258.26875 -31.6875 259.4375 C-31.708125 260.613125 -31.72875 261.78875 -31.75 263 C-31.75515625 264.175625 -31.7603125 265.35125 -31.765625 266.5625 C-31.81066294 271.51667378 -31.88892203 276.15489846 -33 281 C-30.22901379 280.85672569 -27.45824074 280.71038969 -24.6875 280.5625 C-23.86531982 280.5202832 -23.04313965 280.47806641 -22.19604492 280.43457031 C-16.9093098 280.1499519 -11.69477652 279.68975031 -6.45703125 278.890625 C-4 279 -4 279 3 282 C3 289.92 3 297.84 3 306 C5.67222656 305.9278125 8.34445313 305.855625 11.09765625 305.78125 C13.81223233 305.7107905 16.52684058 305.64171586 19.24145508 305.57275391 C21.06668784 305.5256817 22.89188673 305.47726872 24.71704102 305.42724609 C54.11049485 304.62463855 83.50003913 305.03887162 112.89575195 305.46356201 C117.21498433 305.52548166 121.53425145 305.58487913 125.85351562 305.64453125 C134.23571165 305.76064591 142.61786727 305.87940284 151 306 C151 306.33 151 306.66 151 307 C150.11146835 307.01030746 149.22293671 307.02061493 148.30747986 307.03123474 C139.82338082 307.1303083 131.33933342 307.23295064 122.85532284 307.33933926 C118.49642333 307.39388057 114.13751692 307.44716868 109.77856445 307.49731445 C85.39008534 307.76480168 85.39008534 307.76480168 61.01889038 308.66622925 C49.70511984 309.2094863 38.38625622 309.10734488 27.0625 309.0625 C24.80664164 309.05746496 22.55078217 309.05290567 20.29492188 309.04882812 C14.86325622 309.03800417 9.43163366 309.02143126 4 309 C1.46140896 316.61577311 2.38184016 324.98135657 2 333 C232.01 333 462.02 333 699 333 C699 333.66 699 334.32 699 335 C697.73074291 335.00173625 696.46148582 335.0034725 695.15376639 335.00526136 C639.21239042 335.08184951 583.27101625 335.15965528 527.32965088 335.2436676 C526.05914291 335.24557512 526.05914291 335.24557512 524.7629681 335.24752118 C506.35499748 335.27516591 487.94702719 335.30302898 469.53905724 335.33111694 C460.5117153 335.34489006 451.4843733 335.35861493 442.45703125 335.37231445 C441.55870506 335.37367854 440.66037886 335.37504262 439.73483067 335.37644804 C410.62062219 335.42063456 381.50641029 335.46163578 352.39219491 335.50098413 C322.47207341 335.5414385 292.55195829 335.58510849 262.63184745 335.63282111 C258.40526336 335.63955961 254.17867921 335.64626136 249.95209503 335.65294075 C249.12024752 335.65425648 248.28840001 335.65557221 247.43134499 335.6569278 C234.04412078 335.67800783 220.65689414 335.69570086 207.2696635 335.71212531 C193.80903645 335.72871216 180.34841849 335.748872 166.88780221 335.77266841 C158.89190021 335.78669571 150.89600525 335.79799403 142.90009428 335.80536438 C136.92658645 335.81117256 130.95309953 335.82211289 124.97960237 335.8350333 C122.56487171 335.83945862 120.15013732 335.84222619 117.73540279 335.84316199 C114.44965228 335.84467888 111.16396819 335.8522702 107.87823105 335.8613348 C106.94393926 335.86031213 106.00964746 335.85928946 105.0470438 335.85823581 C99.20692108 335.88239152 93.4495451 336.23310875 87.63427497 336.7737242 C84.21610918 337.06733372 80.85844455 337.12707192 77.42724609 337.12939453 C76.4345723 337.13202301 76.4345723 337.13202301 75.42184448 337.13470459 C73.28901349 337.13901741 71.15626895 337.13622684 69.0234375 337.1328125 C67.52080266 337.13348778 66.01816792 337.13445967 64.51553345 337.13571167 C61.39429668 337.13717356 58.27308884 337.13508013 55.15185547 337.13037109 C51.14815204 337.12462484 47.14451493 337.12799292 43.14081383 337.13394356 C40.05082697 337.137548 36.96085601 337.13641199 33.87086868 337.13381577 C32.39324562 337.13314873 30.91562111 337.13396714 29.43799973 337.13629532 C27.38489659 337.13882525 25.33190349 337.13497874 23.27880859 337.12939453 C22.11143158 337.12859894 20.94405457 337.12780334 19.74130249 337.12698364 C17 337 17 337 15 336 C12.62876754 335.76970044 10.25258057 335.58880058 7.875 335.4375 C6.59367187 335.35371094 5.31234375 335.26992188 3.9921875 335.18359375 C3.00476563 335.12300781 2.01734375 335.06242187 1 335 C1 334.34 1 333.68 1 333 C0.34 333 -0.32 333 -1 333 C-1 325.41 -1 317.82 -1 310 C-11.89 310 -22.78 310 -34 310 C-34 309.34 -34 308.68 -34 308 C-34.66 308 -35.32 308 -36 308 C-36 300.08 -36 292.16 -36 284 C-43.59 284 -51.18 284 -59 284 C-59 283.34 -59 282.68 -59 282 C-59.99 282 -60.98 282 -62 282 C-64.45286296 278.32070555 -64.23228878 276.52622093 -64.1953125 272.14453125 C-64.1924826 271.48289474 -64.18965271 270.82125824 -64.18673706 270.13957214 C-64.17555918 268.03036263 -64.15045981 265.92158075 -64.125 263.8125 C-64.11496707 262.38086552 -64.10584176 260.94922436 -64.09765625 259.51757812 C-64.07733071 256.01142222 -64.03817991 252.5061887 -64 249 C-70.93 249 -77.86 249 -85 249 C-85 248.34 -85 247.68 -85 247 C-85.66 247 -86.32 247 -87 247 C-87 246.34 -87 245.68 -87 245 C-87.66 245 -88.32 245 -89 245 C-89 195.83 -89 146.66 -89 96 C-88.34 96 -87.68 96 -87 96 C-87 95.34 -87 94.68 -87 94 C-83.79593538 91.86395692 -83.00399253 91.75791092 -79.33203125 91.8046875 C-77.99301758 91.81435547 -77.99301758 91.81435547 -76.62695312 91.82421875 C-75.23379883 91.84935547 -75.23379883 91.84935547 -73.8125 91.875 C-72.87212891 91.88402344 -71.93175781 91.89304687 -70.96289062 91.90234375 C-68.64167032 91.92590944 -66.32096356 91.95880884 -64 92 C-64.01047363 90.96069336 -64.02094727 89.92138672 -64.03173828 88.85058594 C-64.06797936 84.98913019 -64.09091541 81.12768943 -64.10986328 77.26611328 C-64.1199115 75.59584015 -64.13355236 73.92558458 -64.15087891 72.25537109 C-64.17517926 69.85249496 -64.18649487 67.44985173 -64.1953125 65.046875 C-64.21079636 63.9294693 -64.21079636 63.9294693 -64.22659302 62.78948975 C-64.22810488 55.77948345 -64.22810488 55.77948345 -62 53 C-58.59038288 51.17090691 -55.75032548 50.75766472 -51.91796875 50.8046875 C-50.65762817 50.81218018 -50.65762817 50.81218018 -49.37182617 50.81982422 C-47.79558472 50.84713623 -47.79558472 50.84713623 -46.1875 50.875 C-42.825625 50.91625 -39.46375 50.9575 -36 51 C-36 44.07 -36 37.14 -36 30 C-35.34 30 -34.68 30 -34 30 C-34 29.01 -34 28.02 -34 27 C-31.48589006 25.74294503 -29.61958595 25.8086941 -26.80859375 25.71875 C-25.26848633 25.66267578 -25.26848633 25.66267578 -23.69726562 25.60546875 C-21.52018637 25.53503 -19.34310302 25.46471795 -17.16601562 25.39453125 C-15.6278418 25.33845703 -15.6278418 25.33845703 -14.05859375 25.28125 C-13.11298584 25.25095703 -12.16737793 25.22066406 -11.19311523 25.18945312 C-9.024596 25.23913801 -9.024596 25.23913801 -8 24 C-5.66702567 23.95907063 -3.33294775 23.95758277 -1 24 C-1.00523682 23.30849854 -1.01047363 22.61699707 -1.01586914 21.90454102 C-1.036575 18.79053648 -1.04963963 15.67654639 -1.0625 12.5625 C-1.07087891 11.47388672 -1.07925781 10.38527344 -1.08789062 9.26367188 C-1.09111328 8.22919922 -1.09433594 7.19472656 -1.09765625 6.12890625 C-1.10289307 5.17056885 -1.10812988 4.21223145 -1.11352539 3.22485352 C-1 1 -1 1 0 0 Z " fill="#A9A9A9" transform="translate(143,350)"/>
<path d="M0 0 C24.09 0 48.18 0 73 0 C73 39.93 73 79.86 73 121 C48.91 121 24.82 121 0 121 C0 81.07 0 41.14 0 0 Z " fill="#B3B3B3" transform="translate(257,444)"/>
<path d="M0 0 C1.06221819 3.18665458 1.12838816 5.45197426 1.13371277 8.80064392 C1.13797775 10.01062546 1.14224274 11.22060699 1.14663696 12.46725464 C1.14628744 13.81011966 1.14582591 15.15298466 1.14526367 16.49584961 C1.14825546 17.90850412 1.15165804 19.32115781 1.15544128 20.73381042 C1.16428296 24.57262626 1.16661945 28.41141982 1.16725707 32.25024486 C1.16820614 35.45360887 1.17188438 38.65696768 1.17542917 41.86032969 C1.18357418 49.4168989 1.18601334 56.9734562 1.18530273 64.5300293 C1.18470176 72.32862434 1.19525747 80.12715024 1.2110464 87.92572778 C1.22411492 94.61879233 1.22948693 101.31183427 1.22884732 108.00491148 C1.22859216 112.00348659 1.23145378 116.00200026 1.24202538 120.00056267 C1.25169493 123.76062767 1.25179344 127.52057235 1.24450874 131.28064156 C1.24346151 132.66092733 1.24583401 134.04122055 1.2518692 135.42149353 C1.25957205 137.30510471 1.25375267 139.18875677 1.24723816 141.07237244 C1.24778293 142.12669433 1.24832769 143.18101622 1.24888897 144.26728725 C0.99876805 147.01352634 0.41395083 148.6597721 -1 151 C-5.12498538 151.02892385 -9.24994485 151.04677267 -13.375 151.0625 C-14.550625 151.07087891 -15.72625 151.07925781 -16.9375 151.08789062 C-18.05898438 151.09111328 -19.18046875 151.09433594 -20.3359375 151.09765625 C-21.37282715 151.10289307 -22.4097168 151.10812988 -23.47802734 151.11352539 C-26 151 -26 151 -28 150 C-28.9634145 126.20320348 -29.15820852 102.43124695 -29.13037109 78.61694336 C-29.12465469 73.66480126 -29.12806829 68.71271273 -29.13382339 63.76057243 C-29.154323 42.81857799 -29.06191959 21.92032108 -28 1 C-27.30234528 0.96716919 -26.60469055 0.93433838 -25.88589478 0.9005127 C-24.48758926 0.83471008 -24.48758926 0.83471008 -23.06103516 0.76757812 C-22.08934387 0.72189697 -21.11765259 0.67621582 -20.11651611 0.62915039 C-18.09766488 0.5340441 -16.07885108 0.43814225 -14.06005859 0.34179688 C-9.36922127 0.12493923 -4.69747872 -0.0641294 0 0 Z " fill="#5B5B5B" transform="translate(934,446)"/>
<path d="M0 0 C0.66 0.33 1.32 0.66 2 1 C3.64283865 1.12875422 5.29020772 1.20222307 6.9375 1.24609375 C7.91460937 1.27896484 8.89171875 1.31183594 9.8984375 1.34570312 C11.966034 1.40689773 14.0337497 1.46419001 16.1015625 1.51757812 C17.56722656 1.56881836 17.56722656 1.56881836 19.0625 1.62109375 C19.96097656 1.6461499 20.85945313 1.67120605 21.78515625 1.69702148 C24 2 24 2 26 4 C26.24609566 6.57308388 26.24609566 6.57308388 26.24050903 9.89712524 C26.24325836 11.15358353 26.24600769 12.41004181 26.24884033 13.70457458 C26.24176157 15.10464572 26.23449194 16.5047159 26.22705078 17.90478516 C26.22648689 19.37304171 26.2268028 20.84129883 26.22793579 22.30955505 C26.22851116 26.30315999 26.21672721 30.29664553 26.20278788 34.29022264 C26.19031107 38.46092154 26.18911243 42.63162297 26.18673706 46.80233765 C26.1805133 54.70359983 26.1640904 62.60480688 26.14403808 70.50604475 C26.12170691 79.49986631 26.11069266 88.49369048 26.10064721 97.48753285 C26.07972492 115.99172073 26.04413016 134.49585392 26 153 C17.42 153 8.84 153 0 153 C0 152.34 0 151.68 0 151 C-0.66 151 -1.32 151 -2 151 C-2 101.83 -2 52.66 -2 2 C-1.34 2 -0.68 2 0 2 C0 1.34 0 0.68 0 0 Z " fill="#8B8B8B" transform="translate(56,444)"/>
<path d="M0 0 C0.82226074 0.23771118 0.82226074 0.23771118 1.66113281 0.48022461 C4.28238816 1.0627562 6.73872553 1.21206155 9.421875 1.31640625 C10.44667969 1.35830078 11.47148438 1.40019531 12.52734375 1.44335938 C13.59082031 1.48267578 14.65429688 1.52199219 15.75 1.5625 C16.82894531 1.60568359 17.90789062 1.64886719 19.01953125 1.69335938 C21.67956428 1.79928989 24.33968812 1.90136421 27 2 C27.02474682 6.91129185 27.04288223 11.82254727 27.05493164 16.73388672 C27.05995569 18.40414055 27.06677605 20.07438999 27.07543945 21.74462891 C27.08758946 24.14747196 27.09324763 26.55025679 27.09765625 28.953125 C27.10281754 29.69806213 27.10797882 30.44299927 27.11329651 31.21051025 C27.1136754 34.72412219 26.85976234 37.56095063 26 41 C18.08 41 10.16 41 2 41 C1.02554552 37.10218208 0.8296176 33.90119706 0.75390625 29.8984375 C0.72099574 28.50780554 0.68778366 27.1171807 0.65429688 25.7265625 C0.60673199 23.54301395 0.56222296 21.3594998 0.52319336 19.17578125 C0.48358769 17.06221429 0.43205199 14.94920118 0.37890625 12.8359375 C0.3538501 11.57313965 0.32879395 10.3103418 0.30297852 9.00927734 C0.30921672 5.88740641 0.30921672 5.88740641 -2 4 C-1.34 2.68 -0.68 1.36 0 0 Z " fill="#8C8C8C" transform="translate(81,403)"/>
<path d="M0 0 C156.42 0 312.84 0 474 0 C474 0.66 474 1.32 474 2 C468.17772753 2.74770718 462.48270757 3.14172539 456.61487484 3.10743046 C455.8177081 3.10689593 455.02054137 3.1063614 454.19921806 3.10581067 C451.54162848 3.10279475 448.88411803 3.09253893 446.22654724 3.08229065 C444.29662356 3.07859392 442.36669897 3.07534539 440.43677384 3.07250541 C435.14395688 3.06342365 429.85117461 3.04799543 424.55837619 3.03152263 C418.84683251 3.01486131 413.13527734 3.00409749 407.42372131 2.99261475 C397.53151401 2.97192112 387.63932157 2.94749707 377.74712944 2.92053413 C363.44470619 2.88155573 349.14227417 2.84821135 334.83983374 2.81623887 C311.6346671 2.76421188 288.42951395 2.70764176 265.22436523 2.64819336 C242.68368047 2.59045806 220.14299207 2.53486849 197.60229492 2.48217773 C196.9072486 2.48055215 196.21220228 2.47892657 195.49609395 2.47725173 C188.51602626 2.46092903 181.53595846 2.4446499 174.55589059 2.42840267 C116.03724384 2.29218705 57.51861652 2.14862681 -1 2 C-0.67 1.34 -0.34 0.68 0 0 Z " fill="#DFDFDF" transform="translate(145,348)"/>
<path d="M0 0 C4.269375 -0.020625 8.53875 -0.04125 12.9375 -0.0625 C14.95991821 -0.07615601 14.95991821 -0.07615601 17.02319336 -0.09008789 C18.6030603 -0.09383423 18.6030603 -0.09383423 20.21484375 -0.09765625 C21.84087524 -0.10551147 21.84087524 -0.10551147 23.49975586 -0.11352539 C26 0 26 0 27 1 C27.1007812 3.36398468 27.13973215 5.69811311 27.1328125 8.0625 C27.13424759 9.12223022 27.13424759 9.12223022 27.13571167 10.20336914 C27.13639333 11.69970793 27.13454005 13.19604967 27.13037109 14.69238281 C27.12502257 16.99030157 27.13031651 19.28802486 27.13671875 21.5859375 C27.13605797 23.03645877 27.1347768 24.48697991 27.1328125 25.9375 C27.13483673 26.6291626 27.13686096 27.3208252 27.13894653 28.03344727 C27.11495224 32.88504776 27.11495224 32.88504776 26 34 C24.00035018 34.08758003 21.9976389 34.10696576 19.99609375 34.09765625 C18.90224365 34.09515869 17.80839355 34.09266113 16.68139648 34.09008789 C14.58066772 34.07643188 14.58066772 34.07643188 12.4375 34.0625 C5.7859375 34.0315625 5.7859375 34.0315625 -1 34 C-0.67 22.78 -0.34 11.56 0 0 Z " fill="#8E8E8E" transform="translate(82,598)"/>
<path d="M0 0 C1.39120471 0.00015906 2.78241534 0.00585033 4.17358398 0.01586914 C4.90463852 0.01728409 5.63569305 0.01869904 6.38890076 0.02015686 C8.73253406 0.02577131 11.07607313 0.03832617 13.41967773 0.05102539 C15.00496282 0.05603853 16.59024939 0.06060176 18.17553711 0.06469727 C22.06945383 0.07574542 25.96329979 0.09301967 29.85717773 0.11352539 C31.52158303 6.01336855 32.2431811 11.49919493 32.48217773 17.61352539 C32.54018555 18.8471582 32.54018555 18.8471582 32.59936523 20.10571289 C32.69249466 22.10799549 32.77586758 24.11072801 32.85717773 26.11352539 C28.74600459 27.12681869 25.02906388 27.15415082 20.80639648 26.99243164 C19.81818657 26.95701515 19.81818657 26.95701515 18.81001282 26.92088318 C16.72131951 26.84476866 14.633047 26.7605231 12.54467773 26.67602539 C11.12217177 26.62275226 9.69964573 26.57001228 8.27709961 26.51782227 C4.80353865 26.38922545 1.3303074 26.25333828 -2.14282227 26.11352539 C-3.50923301 21.28084182 -3.54077134 16.41780677 -3.76782227 11.42602539 C-3.81938477 10.45084961 -3.87094727 9.47567383 -3.92407227 8.47094727 C-3.96790039 7.54475586 -4.01172852 6.61856445 -4.05688477 5.66430664 C-4.09765137 4.81521729 -4.13841797 3.96612793 -4.18041992 3.09130859 C-4.11693665 -0.24815907 -3.3890196 0.12241856 0 0 Z " fill="#5E5E5E" transform="translate(847.142822265625,630.886474609375)"/>
<path d="M0 0 C11.22 0 22.44 0 34 0 C34 8.25 34 16.5 34 25 C22.12 25.33 10.24 25.66 -2 26 C-1.34 25.67 -0.68 25.34 0 25 C0 16.75 0 8.5 0 0 Z " fill="#8C8C8C" transform="translate(109,632)"/>
<path d="M0 0 C16.335 0.495 16.335 0.495 33 1 C33.020625 4.939375 33.04125 8.87875 33.0625 12.9375 C33.071604 14.18136475 33.08070801 15.42522949 33.09008789 16.70678711 C33.09258545 17.6788208 33.09508301 18.65085449 33.09765625 19.65234375 C33.10289307 20.65257568 33.10812988 21.65280762 33.11352539 22.68334961 C33 25 33 25 32 26 C29.72052208 26.1002093 27.43792865 26.13081303 25.15625 26.1328125 C24.47195923 26.13376923 23.78766846 26.13472595 23.0826416 26.13571167 C21.63338123 26.1363933 20.18411782 26.13454023 18.73486328 26.13037109 C16.50937072 26.12502252 14.28407999 26.1303166 12.05859375 26.13671875 C10.65364539 26.13605797 9.24869715 26.1347768 7.84375 26.1328125 C6.55662109 26.13168457 5.26949219 26.13055664 3.94335938 26.12939453 C1 26 1 26 0 25 C-0.08737645 23.14630389 -0.10698153 21.28932459 -0.09765625 19.43359375 C-0.09515869 18.42095459 -0.09266113 17.40831543 -0.09008789 16.36499023 C-0.08098389 15.06891846 -0.07187988 13.77284668 -0.0625 12.4375 C-0.041875 8.333125 -0.02125 4.22875 0 0 Z " fill="#8A8A8A" transform="translate(109,377)"/>
<path d="M0 0 C1.02705764 -0.00128164 1.02705764 -0.00128164 2.07486391 -0.00258917 C4.3440856 -0.00422191 6.61323154 0.00124085 8.88244629 0.00672913 C10.51907347 0.0070115 12.15570077 0.00685228 13.79232788 0.00628662 C18.21734405 0.00600061 22.64233291 0.01186559 27.06734276 0.01886058 C31.6984582 0.02512682 36.32957433 0.0257005 40.96069336 0.02688599 C49.72234326 0.02998967 58.48398063 0.03819006 67.24562502 0.04823548 C77.22385356 0.05942653 87.20208271 0.0649146 97.18031597 0.06993091 C117.6988716 0.0803735 138.21741597 0.09795427 158.73596191 0.12025452 C158.73596191 0.78025452 158.73596191 1.44025452 158.73596191 2.12025452 C155.83397054 3.5712502 153.23110521 3.34053477 149.9889679 3.43322754 C149.29108559 3.45378853 148.59320329 3.47434953 147.87417305 3.49553359 C145.53370705 3.5618796 143.19313459 3.61990946 140.85241699 3.676651 C139.62673459 3.70816578 139.62673459 3.70816578 138.37629092 3.74031723 C118.52829542 4.24341237 98.68250954 4.25114521 78.8294332 4.22164845 C73.77140688 4.21525451 68.71337947 4.21479879 63.65534973 4.21362305 C54.14384742 4.21055577 44.63235705 4.20240675 35.12085992 4.19227356 C24.26410369 4.18096649 13.40734679 4.1755658 2.5505861 4.17057812 C-19.72096188 4.1602184 -41.99249922 4.14271152 -64.26403809 4.12025452 C-63.93403809 3.46025452 -63.60403809 2.80025452 -63.26403809 2.12025452 C-58.55481705 0.62924539 -53.53552913 1.0121921 -48.65075684 1.05775452 C-47.72237503 1.06154114 -46.79399323 1.06532776 -45.83747864 1.06922913 C-41.87975597 1.08551357 -37.92213806 1.11359081 -33.96447754 1.14076233 C-31.06824224 1.15894004 -28.17202414 1.17097783 -25.27575684 1.18275452 C-24.39215988 1.19105286 -23.50856293 1.1993512 -22.59819031 1.207901 C-21.75404068 1.21120422 -20.90989105 1.21450745 -20.04016113 1.21791077 C-19.30911667 1.22314758 -18.5780722 1.2283844 -17.82487488 1.23377991 C-15.06478372 1.14972579 -15.06478372 1.14972579 -11.55798817 0.62067509 C-7.68969357 0.12930782 -3.90319481 -0.00295697 0 0 Z " fill="#A4A4A4" transform="translate(683.2640380859375,347.87974548339844)"/>
<path d="M0 0 C9.00008464 0.20566757 17.9998779 0.40541489 27.00244141 0.44970703 C28.94413208 0.4603418 28.94413208 0.4603418 30.92504883 0.47119141 C34.28538594 0.44604638 34.28538594 0.44604638 37.0990696 -0.14372921 C40.9619102 -0.72974774 44.73987198 -0.77936779 48.63534546 -0.76429749 C49.44901538 -0.76515191 50.26268529 -0.76600634 51.10101187 -0.76688665 C53.81866596 -0.76852953 56.53625788 -0.76303963 59.25390625 -0.75756836 C61.20550536 -0.7572862 63.15710457 -0.75744478 65.10870361 -0.75801086 C70.40157725 -0.75829773 75.69442821 -0.75241879 80.98729658 -0.74543691 C86.52063348 -0.73918504 92.0539709 -0.73859812 97.58731079 -0.7374115 C108.06315911 -0.7343036 118.538997 -0.72609748 129.01484072 -0.71606201 C140.94220014 -0.70488409 152.86956005 -0.69938619 164.7969234 -0.69436657 C189.33027894 -0.68391444 213.86362521 -0.66632544 238.39697266 -0.64404297 C238.72697266 0.34595703 239.05697266 1.33595703 239.39697266 2.35595703 C201.1622638 2.37886746 162.92755598 2.39647765 124.69284164 2.40702236 C120.17445952 2.408273 115.65607741 2.40956733 111.13769531 2.41088867 C109.78845534 2.41128214 109.78845534 2.41128214 108.41195799 2.41168355 C93.86526275 2.41602974 79.31857148 2.4239115 64.77187859 2.43310983 C49.83530732 2.44247561 34.89873813 2.44801883 19.96216404 2.45004553 C10.75243115 2.45141468 1.54270949 2.45573232 -7.66701995 2.4638735 C-13.99044287 2.46917705 -20.31386003 2.47075314 -26.63728501 2.46945841 C-30.28045645 2.46882066 -33.92360835 2.4697684 -37.56677628 2.47516251 C-41.52931666 2.48098617 -45.49183205 2.47893056 -49.45437622 2.47621155 C-50.58866283 2.47912439 -51.72294943 2.48203723 -52.89160836 2.48503834 C-60.83060707 2.4704004 -68.69180945 2.00863943 -76.60302734 1.35595703 C-76.60302734 1.02595703 -76.60302734 0.69595703 -76.60302734 0.35595703 C-51.26324264 -2.13356568 -25.40758504 -0.58575848 0 0 Z " fill="#515151" transform="translate(602.60302734375,680.64404296875)"/>
<path d="M0 0 C1.98 0 3.96 0 6 0 C6 0.66 6 1.32 6 2 C4.35 2.33 2.7 2.66 1 3 C24.1521349 3.0235729 47.30426776 3.04109699 70.45641232 3.05181217 C81.21126143 3.05692414 91.966103 3.06386695 102.72094727 3.07543945 C112.11707854 3.08554495 121.51320435 3.09189026 130.90934092 3.09408849 C135.86430545 3.0953693 140.81925437 3.09828124 145.77421379 3.10573006 C172.19900373 3.14393927 198.58608698 2.76642436 225 2 C225 11.24 225 20.48 225 30 C236.55 30 248.1 30 260 30 C260 35.94 260 41.88 260 48 C259.67 48 259.34 48 259 48 C259 42.39 259 36.78 259 31 C257.68 31.66 256.36 32.32 255 33 C253.32577014 32.70700977 251.65821773 32.37309899 250 32 C249.360625 32.165 248.72125 32.33 248.0625 32.5 C246 33 246 33 243.5 32.5625 C238.38005709 31.73965203 233.1708262 31.54329529 228 32 C227.34 32.66 226.68 33.32 226 34 C222.93807166 30.65200915 222.64117309 28.40022965 222.70703125 23.921875 C222.71669922 22.76171875 222.72636719 21.6015625 222.73632812 20.40625 C222.76146484 19.1996875 222.78660156 17.993125 222.8125 16.75 C222.82603516 15.52796875 222.83957031 14.3059375 222.85351562 13.046875 C222.8888602 10.03080502 222.9382044 7.01562513 223 4 C221.99193045 4.16246214 220.98386089 4.32492428 219.94524378 4.49230951 C216.19811895 4.97450522 212.65093537 5.1242271 208.87609959 5.12304783 C208.19098483 5.12420167 207.50587007 5.12535552 206.79999426 5.12654433 C204.51154057 5.12918453 202.22315769 5.12471033 199.93470764 5.12025452 C198.27462114 5.12069075 196.61453471 5.12156662 194.95444864 5.12284368 C190.39822417 5.12507841 185.84202324 5.12108132 181.28580177 5.11606562 C176.37040513 5.11174666 171.45500982 5.11320857 166.53961182 5.1139679 C158.02517953 5.11449221 149.5107549 5.11135503 140.99632454 5.10573006 C128.68589105 5.09760258 116.37546126 5.09499855 104.06502538 5.09374207 C84.0920949 5.09155351 64.1191685 5.08489874 44.14624023 5.07543945 C24.74454773 5.06626026 5.34285634 5.0591819 -14.05883789 5.05493164 C-15.25478405 5.05466892 -16.45073022 5.05440619 -17.68291717 5.05413551 C-23.6826353 5.05283047 -29.68235343 5.05156676 -35.68207157 5.05032361 C-85.4547172 5.03995711 -135.2273584 5.02234412 -185 5 C-185 4.67 -185 4.34 -185 4 C-126.59 3.67 -68.18 3.34 -8 3 C-8 2.67 -8 2.34 -8 2 C-5.36 2 -2.72 2 0 2 C0 1.34 0 0.68 0 0 Z " fill="#666666" transform="translate(619,348)"/>
<path d="M0 0 C2.30515641 3.45773461 2.24933874 4.74016367 2.24723816 8.81410217 C2.25143265 10.02697403 2.25562714 11.23984589 2.25994873 12.48947144 C2.25446523 13.83551105 2.24878225 15.18154987 2.24291992 16.52758789 C2.24399272 17.94348742 2.24593137 19.35938653 2.24867249 20.77528381 C2.25352392 24.62226848 2.24586175 28.46913733 2.23571944 32.31610799 C2.22694493 36.33772608 2.22869626 40.35934048 2.2290802 44.38096619 C2.22814336 51.1339614 2.21945623 57.88691171 2.20581055 64.63989258 C2.19007847 72.45441507 2.18481265 80.26888839 2.1855461 88.08342558 C2.18615583 95.59324138 2.18105585 103.10304112 2.17275429 110.6128521 C2.16921806 113.81257693 2.16739056 117.01229609 2.16686058 120.21202278 C2.16585818 123.97698589 2.15976998 127.7419075 2.14969444 131.50685692 C2.14676658 132.89120352 2.14554465 134.2755549 2.14612198 135.65990448 C2.14661056 137.54423462 2.14035429 139.42856297 2.13371277 141.31288147 C2.13203692 142.36904695 2.13036108 143.42521242 2.12863445 144.51338291 C2 147 2 147 1 149 C0.34 149 -0.32 149 -1 149 C-1.02332767 129.7204697 -1.04097853 110.44094226 -1.05181217 91.16140079 C-1.05697541 82.21021618 -1.06401863 73.25904032 -1.07543945 64.30786133 C-1.08538545 56.50889612 -1.09185322 48.70993724 -1.09408849 40.91096586 C-1.09539575 36.77887814 -1.09848251 32.64680856 -1.10573006 28.51472664 C-1.11248894 24.62998474 -1.11461723 20.74526854 -1.11310768 16.86052132 C-1.11338407 15.43060161 -1.11538998 14.00068109 -1.11920547 12.57076645 C-1.12414059 10.62681949 -1.12239805 8.68285891 -1.12025452 6.73890686 C-1.12117631 5.64842576 -1.1220981 4.55794466 -1.12304783 3.43441868 C-1 1 -1 1 0 0 Z " fill="#A2A2A2" transform="translate(933,446)"/>
<path d="M0 0 C19.7164187 -0.02347159 39.43283451 -0.04104867 59.14926434 -0.05181217 C68.30613869 -0.05694506 77.46300431 -0.06392969 86.61987305 -0.07543945 C94.6109376 -0.08547897 102.60199583 -0.09187523 110.59306651 -0.09408849 C114.81521789 -0.09538004 119.03735117 -0.09836528 123.25949669 -0.10573006 C139.81992546 -0.13350463 156.31872302 -0.06343165 172.85783958 0.88952446 C178.69825842 1.19072666 184.54775354 1.23669897 190.39453125 1.31640625 C191.73215687 1.33710407 193.06977787 1.35810242 194.40739441 1.37937927 C197.84463631 1.43328236 201.28192322 1.48324351 204.71923828 1.53222656 C208.26012945 1.58343609 211.80095929 1.63859035 215.34179688 1.69335938 C222.22781103 1.79931622 229.11388115 1.90108637 236 2 C236 2.33 236 2.66 236 3 C216.17995693 3.02342762 196.3599167 3.04102742 176.53986263 3.05181217 C167.33573377 3.05695426 158.13161355 3.0639569 148.92749023 3.07543945 C140.8991276 3.08545037 132.87077122 3.09186859 124.84240252 3.09408849 C120.59696811 3.09538478 116.3515516 3.09840137 112.10612297 3.10573006 C108.09822125 3.1125917 104.09034455 3.11459665 100.08243752 3.11310768 C98.62292214 3.1133795 97.1634058 3.11532378 95.70389557 3.11920547 C87.18140741 3.14073176 78.76872969 2.85593931 70.27219296 2.23186588 C66.55526797 1.96848652 62.87215358 1.84473143 59.14672852 1.79467773 C58.49104889 1.78477814 57.83536926 1.77487854 57.15982056 1.76467896 C55.06621472 1.73395699 52.9725865 1.70867468 50.87890625 1.68359375 C49.39818344 1.66294623 47.91746549 1.64194824 46.43675232 1.62062073 C42.59500128 1.56620283 38.75320445 1.51645 34.91137695 1.46777344 C30.96887278 1.41696058 27.02643266 1.36159111 23.08398438 1.30664062 C15.3893776 1.20004574 7.69471648 1.09839447 0 1 C0 0.67 0 0.34 0 0 Z " fill="#9A9A9A" transform="translate(145,376)"/>
<path d="M0 0 C43.56 0 87.12 0 132 0 C132 0.66 132 1.32 132 2 C130.94200195 2.02505615 129.88400391 2.0501123 128.79394531 2.07592773 C124.81289592 2.17115654 120.83197503 2.2710796 116.85107422 2.37231445 C115.13854001 2.41523229 113.42597475 2.45693082 111.71337891 2.49731445 C109.23069955 2.55608039 106.74817056 2.61944894 104.265625 2.68359375 C103.51823059 2.70030624 102.77083618 2.71701874 102.00079346 2.73423767 C97.78486063 2.84789099 93.61858318 3.11473107 89.41943359 3.51147461 C81.95795637 4.1599698 74.50596461 4.14479088 67.0234375 4.1328125 C65.52080266 4.13348778 64.01816792 4.13445967 62.51553345 4.13571167 C59.39429668 4.13717356 56.27308884 4.13508013 53.15185547 4.13037109 C49.14815204 4.12462484 45.14451493 4.12799292 41.14081383 4.13394356 C38.05082697 4.137548 34.96085601 4.13641199 31.87086868 4.13381577 C30.39324562 4.13314873 28.91562111 4.13396714 27.43799973 4.13629532 C25.38489659 4.13882525 23.33190349 4.13497874 21.27880859 4.12939453 C20.11143158 4.12859894 18.94405457 4.12780334 17.74130249 4.12698364 C15 4 15 4 13 3 C10.62876754 2.76970044 8.25258057 2.58880058 5.875 2.4375 C4.59367188 2.35371094 3.31234375 2.26992188 1.9921875 2.18359375 C0.51105469 2.09271484 0.51105469 2.09271484 -1 2 C-0.67 1.34 -0.34 0.68 0 0 Z " fill="#C9C9C9" transform="translate(145,683)"/>
<path d="M0 0 C0.33 0 0.66 0 1 0 C1.33 8.58 1.66 17.16 2 26 C3.95107666 26.02505615 5.90215332 26.0501123 7.91235352 26.07592773 C14.41827072 26.16042609 20.92412924 26.24865989 27.42996311 26.33933926 C31.3675912 26.39408996 35.30522702 26.44742327 39.24291992 26.49731445 C43.05554932 26.54567661 46.86810644 26.59802668 50.6806469 26.65294075 C52.12238662 26.67304468 53.56414588 26.69180248 55.00592232 26.70907402 C64.70282202 26.82641895 74.33194386 27.26050895 84 28 C84 28.33 84 28.66 84 29 C56.94 29 29.88 29 2 29 C2 34.61 2 40.22 2 46 C1 53 1 53 0 54 C-2.44830426 54.08843793 -4.86820599 54.11528752 -7.31640625 54.09765625 C-8.04746078 54.0962413 -8.77851532 54.09482635 -9.53172302 54.09336853 C-11.87535632 54.08775408 -14.21889539 54.07519922 -16.5625 54.0625 C-18.14778508 54.05748686 -19.73307166 54.05292363 -21.31835938 54.04882812 C-25.2122761 54.03777997 -29.10612205 54.02050572 -33 54 C-33 53.67 -33 53.34 -33 53 C-17.655 52.505 -17.655 52.505 -2 52 C-1.67 44.08 -1.34 36.16 -1 28 C-11.23 28 -21.46 28 -32 28 C-32 27.34 -32 26.68 -32 26 C-31.30849854 25.97494385 -30.61699707 25.9498877 -29.90454102 25.92407227 C-26.79032134 25.80847839 -23.67643211 25.68558758 -20.5625 25.5625 C-19.47388672 25.52318359 -18.38527344 25.48386719 -17.26367188 25.44335938 C-16.22919922 25.40146484 -15.19472656 25.35957031 -14.12890625 25.31640625 C-12.69140015 25.26141968 -12.69140015 25.26141968 -11.22485352 25.20532227 C-9.02861075 25.24165576 -9.02861075 25.24165576 -8 24 C-5.66702567 23.95907063 -3.33294775 23.95758277 -1 24 C-1.00785522 22.9627478 -1.00785522 22.9627478 -1.01586914 21.90454102 C-1.036575 18.79053648 -1.04963963 15.67654639 -1.0625 12.5625 C-1.07087891 11.47388672 -1.07925781 10.38527344 -1.08789062 9.26367188 C-1.09272461 7.71196289 -1.09272461 7.71196289 -1.09765625 6.12890625 C-1.10551147 4.69140015 -1.10551147 4.69140015 -1.11352539 3.22485352 C-1 1 -1 1 0 0 Z " fill="#A9A9A9" transform="translate(143,350)"/>
<path d="M0 0 C12.71023321 -0.02331416 25.42046121 -0.04101131 38.13071156 -0.05181217 C44.0344958 -0.05699968 49.93826527 -0.06402095 55.84204102 -0.07543945 C61.55440603 -0.08641684 67.26675694 -0.09230783 72.9791317 -0.09487724 C75.14326893 -0.09670503 77.30740551 -0.10027323 79.47153664 -0.10573006 C91.3536164 -0.13446066 103.16996448 0.03545063 115.03105164 0.7724762 C122.51380306 1.20828885 122.51380306 1.20828885 130 1 C130.33 0.67 130.66 0.34 131 0 C133.6150259 -0.01705285 136.20055146 0.02970891 138.8125 0.12109375 C139.61421631 0.14470474 140.41593262 0.16831573 141.24194336 0.19264221 C143.82813557 0.26943426 146.41404844 0.35301852 149 0.4375 C163.52855712 0.89785583 163.52855712 0.89785583 178.0625 1.09765625 C179.96708984 1.10744507 179.96708984 1.10744507 181.91015625 1.11743164 C185.07559924 1.07767652 188.17904848 0.79844416 191.32739258 0.47265625 C196.83685458 -0.05847221 202.17938403 0.04175715 207.69921875 0.33984375 C208.6602803 0.38565079 209.62134186 0.43145782 210.61152649 0.47865295 C213.63725007 0.62448451 216.66232207 0.78079631 219.6875 0.9375 C221.7571273 1.03910961 223.8267887 1.14002717 225.89648438 1.24023438 C230.93141858 1.4855038 235.96579737 1.74016403 241 2 C241 2.33 241 2.66 241 3 C222.05810228 3.02341758 203.11620751 3.04102255 184.17429829 3.05181217 C175.37815681 3.05695636 166.58202436 3.0639631 157.78588867 3.07543945 C150.11425733 3.08544384 142.44263253 3.09186707 134.77099484 3.09408849 C130.71341879 3.09538587 126.65586143 3.09840957 122.5982914 3.10573006 C118.76932474 3.11258131 114.94038426 3.11459868 111.11141205 3.11310768 C109.71555882 3.11337996 108.31970461 3.11533055 106.92385674 3.11920547 C99.21076686 3.13954413 91.60585797 2.88946183 83.92065144 2.23186588 C79.97413778 1.91855843 76.04589456 1.82672621 72.08862305 1.79467773 C70.90071671 1.77982834 70.90071671 1.77982834 69.68881226 1.76467896 C67.1298091 1.73366064 64.57078754 1.70854888 62.01171875 1.68359375 C60.21425455 1.66297233 58.41679463 1.64197471 56.61933899 1.62062073 C51.93254099 1.56593487 47.24570322 1.5162942 42.55883789 1.46777344 C37.75859112 1.41716289 32.95840073 1.36168522 28.15820312 1.30664062 C18.7721838 1.19971528 9.38611511 1.09813007 0 1 C0 0.67 0 0.34 0 0 Z " fill="#676767" transform="translate(430,376)"/>
<path d="M0 0 C0.33 0 0.66 0 1 0 C1 12.87 1 25.74 1 39 C-7.91 39 -16.82 39 -26 39 C-26.33 39.99 -26.66 40.98 -27 42 C-27.495 41.505 -27.495 41.505 -28 41 C-29.70563778 40.84259395 -31.41727244 40.74906608 -33.12890625 40.68359375 C-34.68061523 40.62075195 -34.68061523 40.62075195 -36.26367188 40.55664062 C-37.35228516 40.51732422 -38.44089844 40.47800781 -39.5625 40.4375 C-40.65498047 40.39431641 -41.74746094 40.35113281 -42.87304688 40.30664062 C-45.58189564 40.20017932 -48.29083992 40.09816484 -51 40 C-50.34 38.68 -49.68 37.36 -49 36 C-42.4 36 -35.8 36 -29 36 C-29 24.78 -29 13.56 -29 2 C-28.01 2.33 -27.02 2.66 -26 3 C-25.67 14.55 -25.34 26.1 -25 38 C-23.515 37.505 -23.515 37.505 -22 37 C-14.95699837 36.55324243 -8.02000776 37.36181748 -1 38 C-0.67 25.46 -0.34 12.92 0 0 Z " fill="#A4A4A4" transform="translate(108,406)"/>
<path d="M0 0 C0.66 0 1.32 0 2 0 C2 7.92 2 15.84 2 24 C4.35898437 23.97679687 6.71796875 23.95359375 9.1484375 23.9296875 C11.42870546 23.91409791 13.70896753 23.90194925 15.98925781 23.89013672 C17.57619883 23.88006812 19.16312125 23.86641233 20.75 23.84912109 C23.02869247 23.82490999 25.30714006 23.81352578 27.5859375 23.8046875 C28.29744965 23.79436493 29.00896179 23.78404236 29.74203491 23.77340698 C31.49631665 23.77300578 33.24996709 23.87797791 35 24 C37.56136221 26.56136221 37.29666857 27.66561331 37.4140625 31.2265625 C37.47207031 32.7734375 37.47207031 32.7734375 37.53125 34.3515625 C37.5621875 35.43179688 37.593125 36.51203125 37.625 37.625 C37.68300781 39.25695312 37.68300781 39.25695312 37.7421875 40.921875 C37.83665846 43.61429745 37.91942581 46.30712584 38 49 C44.93 49 51.86 49 59 49 C58.67 49.99 58.34 50.98 58 52 C55.85424137 52.02747059 53.70837559 52.04660463 51.5625 52.0625 C50.36753906 52.07410156 49.17257812 52.08570313 47.94140625 52.09765625 C43.61344352 51.99042229 39.30281191 51.47809021 35 51 C35 42.75 35 34.5 35 26 C23.45 26 11.9 26 0 26 C0 17.42 0 8.84 0 0 Z " fill="#A5A5A5" transform="translate(844,352)"/>
<path d="M0 0 C27.06 0 54.12 0 82 0 C82 0.66 82 1.32 82 2 C75.83512969 2.77805684 69.85404382 3.14281086 63.64453125 3.09375 C62.7512764 3.09016479 61.85802155 3.08657959 60.93769836 3.08288574 C48.85266941 3.01327635 36.76983379 2.75033272 24.6875 2.5 C22.27799863 2.45163143 19.86849343 2.40345328 17.45898438 2.35546875 C11.6392771 2.23916607 5.81962088 2.12054462 0 2 C0 1.34 0 0.68 0 0 Z " fill="#EAEAEA" transform="translate(537,348)"/>
<path d="M0 0 C0.99 0.33 1.98 0.66 3 1 C3.0294985 4.77081636 3.04696364 8.54160231 3.0625 12.3125 C3.07087891 13.36501953 3.07925781 14.41753906 3.08789062 15.50195312 C3.10912731 22.40387656 2.72349505 29.13534225 2 36 C-8.89 36.495 -8.89 36.495 -20 37 C-20 36.01 -20 35.02 -20 34 C-13.4 34 -6.8 34 0 34 C0 22.78 0 11.56 0 0 Z " fill="#C5C5C5" transform="translate(79,408)"/>
<path d="M0 0 C2.81256281 -0.02684312 5.62487241 -0.04676188 8.4375 -0.0625 C9.23994141 -0.07087891 10.04238281 -0.07925781 10.86914062 -0.08789062 C12.91295221 -0.0965143 14.95683902 -0.0522815 17 0 C18 1 18 1 18.11352539 4.32641602 C18.11336629 5.80225556 18.10767314 7.27810069 18.09765625 8.75390625 C18.0962413 9.52935287 18.09482635 10.3047995 18.09336853 11.10374451 C18.08775345 13.59003494 18.07519846 16.0762366 18.0625 18.5625 C18.05748694 20.24413933 18.0529237 21.92578006 18.04882812 23.60742188 C18.03862832 27.73834329 18.01905605 31.86907182 18 36 C9.75 36 1.5 36 -7 36 C-7.33 34.68 -7.66 33.36 -8 32 C-6.37509046 31.97301811 -4.75005367 31.95361243 -3.125 31.9375 C-2.22007812 31.92589844 -1.31515625 31.91429687 -0.3828125 31.90234375 C2 32 2 32 4 33 C7.96 33 11.92 33 16 33 C16.33 22.77 16.66 12.54 17 2 C11.06 2 5.12 2 -1 2 C-0.67 1.34 -0.34 0.68 0 0 Z " fill="#696969" transform="translate(887,596)"/>
<path d="M0 0 C2.125 0.375 2.125 0.375 4 1 C4.02902429 4.27081471 4.04680684 7.5415963 4.0625 10.8125 C4.07087891 11.74126953 4.07925781 12.67003906 4.08789062 13.62695312 C4.09272461 14.9659668 4.09272461 14.9659668 4.09765625 16.33203125 C4.10551147 17.56530151 4.10551147 17.56530151 4.11352539 18.82348633 C4 21 4 21 3 24 C2.85426942 25.47965926 2.75336732 26.96403843 2.68359375 28.44921875 C2.64169922 29.29677734 2.59980469 30.14433594 2.55664062 31.01757812 C2.51732422 31.89865234 2.47800781 32.77972656 2.4375 33.6875 C2.39431641 34.58017578 2.35113281 35.47285156 2.30664062 36.39257812 C2.20064647 38.59490108 2.09857949 40.79733473 2 43 C1.34 42.67 0.68 42.34 0 42 C0.33 29.46 0.66 16.92 1 4 C-6.92 4.33 -14.84 4.66 -23 5 C-23.66 6.32 -24.32 7.64 -25 9 C-25.042721 7.33388095 -25.04063832 5.66617115 -25 4 C-23.35774283 2.35774283 -21.42236158 2.81380417 -19.16015625 2.75390625 C-17.6896582 2.70459961 -17.6896582 2.70459961 -16.18945312 2.65429688 C-14.10883172 2.5932168 -12.02809603 2.53591031 -9.94726562 2.48242188 C-8.47483398 2.43118164 -8.47483398 2.43118164 -6.97265625 2.37890625 C-6.06781494 2.3538501 -5.16297363 2.32879395 -4.23071289 2.30297852 C-1.79819013 2.2018615 -1.79819013 2.2018615 0 0 Z " fill="#878787" transform="translate(903,402)"/>
<path d="M0 0 C2.39139591 3.58709387 2.30475735 6.1704974 2.25 10.3125 C2.24613281 11.01439453 2.24226562 11.71628906 2.23828125 12.43945312 C2.12577299 19.39621364 1.19932827 26.14669562 0 33 C0.66 33 1.32 33 2 33 C2 33.66 2 34.32 2 35 C2.70511719 34.83628906 3.41023437 34.67257812 4.13671875 34.50390625 C7.09658688 33.98300176 9.81061273 33.90133268 12.8125 33.9375 C13.78832031 33.94652344 14.76414062 33.95554687 15.76953125 33.96484375 C16.87361328 33.98224609 16.87361328 33.98224609 18 34 C14.53245552 37.46754448 10.03055125 37.17276042 5.3125 37.25 C4.35988281 37.27578125 3.40726563 37.3015625 2.42578125 37.328125 C1.62527344 37.21984375 0.82476563 37.1115625 0 37 C-2.57051954 33.14422068 -2.25824956 29.96094577 -2.1875 25.5 C-2.18685547 24.72785156 -2.18621094 23.95570313 -2.18554688 23.16015625 C-2.15983488 19.86330661 -2.04886 17.14658001 -1 14 C-0.77439324 11.60745424 -0.59151405 9.21071877 -0.4375 6.8125 C-0.35371094 5.54019531 -0.26992188 4.26789063 -0.18359375 2.95703125 C-0.12300781 1.98121094 -0.06242188 1.00539063 0 0 Z " fill="#C3C3C3" transform="translate(907,409)"/>
<path d="M0 0 C4.82380802 -0.0246519 9.64757967 -0.04283693 14.47143555 -0.05493164 C16.11369464 -0.05997174 17.75594923 -0.06680378 19.39819336 -0.07543945 C21.75375479 -0.08751926 24.10925709 -0.09323139 26.46484375 -0.09765625 C27.20339096 -0.10281754 27.94193817 -0.10797882 28.7028656 -0.11329651 C30.46898088 -0.1134925 32.23497146 -0.06194719 34 0 C35 1 35 1 35.11352539 3.31665039 C35.10828857 4.31688232 35.10305176 5.31711426 35.09765625 6.34765625 C35.09443359 7.42724609 35.09121094 8.50683594 35.08789062 9.61914062 C35.07532227 11.32360352 35.07532227 11.32360352 35.0625 13.0625 C35.05798828 14.20267578 35.05347656 15.34285156 35.04882812 16.51757812 C35.03699747 19.34510351 35.0205141 22.1725264 35 25 C34.34 25 33.68 25 33 25 C33 17.41 33 9.82 33 2 C22.11 2 11.22 2 0 2 C0 1.34 0 0.68 0 0 Z " fill="#BCBCBC" transform="translate(109,658)"/>
<path d="M0 0 C7.92 0 15.84 0 24 0 C24 0.66 24 1.32 24 2 C13.11 2.495 13.11 2.495 2 3 C1.67 13.56 1.34 24.12 1 35 C0.34 35 -0.32 35 -1 35 C-1.02468646 30.33691801 -1.04285349 25.67387392 -1.05493164 21.01074219 C-1.05996588 19.42382139 -1.06679369 17.83690523 -1.07543945 16.25 C-1.08754482 13.97134251 -1.09323733 11.69274624 -1.09765625 9.4140625 C-1.10281754 8.70255035 -1.10797882 7.99103821 -1.11329651 7.25796509 C-1.11387171 2.22774341 -1.11387171 2.22774341 0 0 Z " fill="#9B9B9B" transform="translate(906,597)"/>
<path d="M0 0 C0.33 0 0.66 0 1 0 C1.33 7.59 1.66 15.18 2 23 C8.93 23 15.86 23 23 23 C22.67 23.99 22.34 24.98 22 26 C19.85424137 26.02747059 17.70837559 26.04660463 15.5625 26.0625 C14.36753906 26.07410156 13.17257812 26.08570313 11.94140625 26.09765625 C7.5796352 25.98958462 3.32444402 25.54993288 -1 25 C-1.0289337 21.20834926 -1.04677601 17.41672673 -1.0625 13.625 C-1.07087891 12.54476563 -1.07925781 11.46453125 -1.08789062 10.3515625 C-1.09111328 9.3203125 -1.09433594 8.2890625 -1.09765625 7.2265625 C-1.10289307 6.27346191 -1.10812988 5.32036133 -1.11352539 4.33837891 C-1 2 -1 2 0 0 Z " fill="#BFBFBF" transform="translate(880,378)"/>
<path d="M0 0 C10.89 0 21.78 0 33 0 C32.67 0.66 32.34 1.32 32 2 C22.1 2 12.2 2 2 2 C2 8.27 2 14.54 2 21 C1.34 21 0.68 21 0 21 C0 14.07 0 7.14 0 0 Z " fill="#B6B6B6" transform="translate(844,658)"/>
<path d="M0 0 C0.33 0 0.66 0 1 0 C1.33 8.25 1.66 16.5 2 25 C3.32 25.33 4.64 25.66 6 26 C4.68 26 3.36 26 2 26 C2 34.58 2 43.16 2 52 C1.67 52 1.34 52 1 52 C0.505 39.625 0.505 39.625 0 27 C-14.85 26.505 -14.85 26.505 -30 26 C-30 25.67 -30 25.34 -30 25 C-20.1 25 -10.2 25 0 25 C-0.185625 22.73125 -0.37125 20.4625 -0.5625 18.125 C-1.0184348 11.97323268 -0.93572295 6.11818854 0 0 Z " fill="#A0A0A0" transform="translate(143,632)"/>
<path d="M0 0 C3.97915159 -0.02886984 7.95827653 -0.04675406 11.9375 -0.0625 C13.07380859 -0.07087891 14.21011719 -0.07925781 15.38085938 -0.08789062 C16.46044922 -0.09111328 17.54003906 -0.09433594 18.65234375 -0.09765625 C20.15269165 -0.10551147 20.15269165 -0.10551147 21.68334961 -0.11352539 C24 0 24 0 25 1 C25.08726223 2.78071246 25.10699041 4.5648314 25.09765625 6.34765625 C25.09443359 7.42724609 25.09121094 8.50683594 25.08789062 9.61914062 C25.07951172 10.75544922 25.07113281 11.89175781 25.0625 13.0625 C25.05798828 14.20267578 25.05347656 15.34285156 25.04882812 16.51757812 C25.03699747 19.34510351 25.0205141 22.1725264 25 25 C24.34 25 23.68 25 23 25 C23 17.41 23 9.82 23 2 C15.41 2 7.82 2 0 2 C0 1.34 0 0.68 0 0 Z " fill="#C6C6C6" transform="translate(84,632)"/>
<path d="M0 0 C0.66 0 1.32 0 2 0 C2 7.59 2 15.18 2 23 C-5.92 23 -13.84 23 -22 23 C-21.67 22.34 -21.34 21.68 -21 21 C-14.07 21 -7.14 21 0 21 C0 14.07 0 7.14 0 0 Z " fill="#D2D2D2" transform="translate(107,380)"/>
<path d="M0 0 C8.58 0 17.16 0 26 0 C25.67 0.66 25.34 1.32 25 2 C17.41 2 9.82 2 2 2 C2 7.94 2 13.88 2 20 C1.34 20 0.68 20 0 20 C0 13.4 0 6.8 0 0 Z " fill="#C7C7C7" transform="translate(879,632)"/>
<path d="M0 0 C10.89 0 21.78 0 33 0 C33 5.94 33 11.88 33 18 C32.67 18 32.34 18 32 18 C32 12.39 32 6.78 32 1 C30.02 1.99 30.02 1.99 28 3 C26.32577014 2.70700977 24.65821773 2.37309899 23 2 C22.360625 2.165 21.72125 2.33 21.0625 2.5 C19 3 19 3 16.5 2.5625 C11.38005709 1.73965203 6.1708262 1.54329529 1 2 C0.34 2.66 -0.32 3.32 -1 4 C-0.67 2.68 -0.34 1.36 0 0 Z " fill="#616161" transform="translate(846,378)"/>
<path d="M0 0 C0.33 0 0.66 0 1 0 C1 8.58 1 17.16 1 26 C-2.3 26 -5.6 26 -9 26 C-8.67 25.34 -8.34 24.68 -8 24 C-5.69 24 -3.38 24 -1 24 C-1.00523682 23.30849854 -1.01047363 22.61699707 -1.01586914 21.90454102 C-1.036575 18.79053648 -1.04963963 15.67654639 -1.0625 12.5625 C-1.07087891 11.47388672 -1.07925781 10.38527344 -1.08789062 9.26367188 C-1.09111328 8.22919922 -1.09433594 7.19472656 -1.09765625 6.12890625 C-1.10289307 5.17056885 -1.10812988 4.21223145 -1.11352539 3.22485352 C-1 1 -1 1 0 0 Z " fill="#D0D0D0" transform="translate(143,350)"/>
<path d="M0 0 C6.6 0 13.2 0 20 0 C20 0.66 20 1.32 20 2 C13.26815587 2.87686585 6.7214632 3.12387197 -0.0625 3.0625 C-1.02349609 3.05798828 -1.98449219 3.05347656 -2.97460938 3.04882812 C-5.31647422 3.03717706 -7.65820181 3.02082025 -10 3 C-10 2.67 -10 2.34 -10 2 C-6.7 2 -3.4 2 0 2 C0 1.34 0 0.68 0 0 Z " fill="#B8B8B8" transform="translate(599,348)"/>
<path d="M0 0 C0.33 0 0.66 0 1 0 C1.02505615 1.24612061 1.0501123 2.49224121 1.07592773 3.77612305 C1.17022911 8.40740926 1.2703941 13.03855344 1.37231445 17.66967773 C1.41557739 19.67257358 1.45725847 21.67550425 1.49731445 23.6784668 C1.55522662 26.56049079 1.61886047 29.44234088 1.68359375 32.32421875 C1.70030624 33.21711105 1.71701874 34.11000336 1.73423767 35.029953 C1.8323847 39.16588026 2.16058899 42.94031201 3 47 C2.67 47.66 2.34 48.32 2 49 C1.34 49 0.68 49 0 49 C0 32.83 0 16.66 0 0 Z " fill="#A1A1A1" transform="translate(932,546)"/>
<path d="M0 0 C0.33 0.66 0.66 1.32 1 2 C-2.35091771 2.75363052 -5.43109812 3.11979937 -8.86328125 3.09765625 C-10.19262695 3.09282227 -10.19262695 3.09282227 -11.54882812 3.08789062 C-12.46083984 3.07951172 -13.37285156 3.07113281 -14.3125 3.0625 C-15.24384766 3.05798828 -16.17519531 3.05347656 -17.13476562 3.04882812 C-19.42324373 3.03709234 -21.71158808 3.02067363 -24 3 C-24 2.67 -24 2.34 -24 2 C-15.97649696 0.81603117 -8.13544686 -0.28545428 0 0 Z " fill="#7C7C7C" transform="translate(932,444)"/>
<path d="M0 0 C4.95 0 9.9 0 15 0 C14.67 0.99 14.34 1.98 14 3 C9.38 3 4.76 3 0 3 C0 2.01 0 1.02 0 0 Z " fill="#C6C6C6" transform="translate(888,401)"/>
<path d="M0 0 C2 1 2 1 2 1 Z M1 4 C-6.92 4.33 -14.84 4.66 -23 5 C-23.66 6.32 -24.32 7.64 -25 9 C-25.042721 7.33388095 -25.04063832 5.66617115 -25 4 C-22.55491854 1.55491854 -16.42413999 2.4677293 -13.125 2.3125 C-12.10535156 2.25255859 -11.08570313 2.19261719 -10.03515625 2.13085938 C-8.56755859 2.0602832 -8.56755859 2.0602832 -7.0703125 1.98828125 C-6.17070801 1.94227783 -5.27110352 1.89627441 -4.34423828 1.84887695 C-2 2 -2 2 1 4 Z " fill="#696969" transform="translate(903,402)"/>
<path d="M0 0 C0.97582031 0.00902344 1.95164062 0.01804687 2.95703125 0.02734375 C3.69308594 0.03894531 4.42914062 0.05054688 5.1875 0.0625 C2.70315563 2.40540892 1.41018407 3.04232934 -2.046875 3.35546875 C-3.20703125 3.32066406 -4.3671875 3.28585937 -5.5625 3.25 C-6.73296875 3.22292969 -7.9034375 3.19585937 -9.109375 3.16796875 C-10.00140625 3.13316406 -10.8934375 3.09835937 -11.8125 3.0625 C-11.4825 2.4025 -11.1525 1.7425 -10.8125 1.0625 C-7.19111734 0.03976493 -3.74515244 -0.04512232 0 0 Z " fill="#9E9E9E" transform="translate(630.8125,348.9375)"/>
<path d="M0 0 C2.0625 0.4375 2.0625 0.4375 4 1 C4 1.66 4 2.32 4 3 C-5.24 3 -14.48 3 -24 3 C-24 2.67 -24 2.34 -24 2 C-23.30849854 1.97494385 -22.61699707 1.9498877 -21.90454102 1.92407227 C-18.79032134 1.80847839 -15.67643211 1.68558758 -12.5625 1.5625 C-10.92958008 1.50352539 -10.92958008 1.50352539 -9.26367188 1.44335938 C-8.22919922 1.40146484 -7.19472656 1.35957031 -6.12890625 1.31640625 C-5.17056885 1.27974854 -4.21223145 1.24309082 -3.22485352 1.20532227 C-1.02861075 1.24165576 -1.02861075 1.24165576 0 0 Z " fill="#6B6B6B" transform="translate(785,376)"/>
<path d="M0 0 C0.99386719 0.02707031 1.98773437 0.05414063 3.01171875 0.08203125 C4.15060547 0.13423828 4.15060547 0.13423828 5.3125 0.1875 C2.1022878 3.3977122 -1.06210314 3.17724759 -5.5 3.25 C-6.551875 3.229375 -7.60375 3.20875 -8.6875 3.1875 C-6.10291354 -0.17334451 -4.11082043 -0.14508778 0 0 Z " fill="#B1B1B1" transform="translate(919.6875,442.8125)"/>
<path d="M0 0 C0.33 0 0.66 0 1 0 C1 7.59 1 15.18 1 23 C1.66 23.33 2.32 23.66 3 24 C2.01 24.33 1.02 24.66 0 25 C-1.29945577 22.40108846 -1.0223077 20.67333344 -0.87890625 17.7734375 C-0.83056641 16.7421875 -0.78222656 15.7109375 -0.73242188 14.6484375 C-0.67634766 13.56820313 -0.62027344 12.48796875 -0.5625 11.375 C-0.51029297 10.28703125 -0.45808594 9.1990625 -0.40429688 8.078125 C-0.27437225 5.3851419 -0.13939838 2.69250664 0 0 Z " fill="#747474" transform="translate(843,355)"/>
<path d="M0 0 C0.33 0 0.66 0 1 0 C1.06058594 0.66386719 1.12117187 1.32773437 1.18359375 2.01171875 C1.70011785 7.53512662 1.70011785 7.53512662 2.625 13 C3 15 3 15 2 17 C1.34 17 0.68 17 0 17 C0 11.39 0 5.78 0 0 Z " fill="#8A8A8A" transform="translate(932,578)"/>
<path d="M0 0 C1.32 0 2.64 0 4 0 C4 1.65 4 3.3 4 5 C3.01 5.495 3.01 5.495 2 6 C2 4.68 2 3.36 2 2 C-0.31 2.33 -2.62 2.66 -5 3 C-4.360625 2.690625 -3.72125 2.38125 -3.0625 2.0625 C-1.06389179 1.1654837 -1.06389179 1.1654837 0 0 Z " fill="#646464" transform="translate(840,350)"/>
<path d="M0 0 C2 3.75 2 3.75 2 6 C-0.97 5.505 -0.97 5.505 -4 5 C-2.68 3.35 -1.36 1.7 0 0 Z " fill="#3F3F3F" transform="translate(931,591)"/>
</svg>
