<svg xmlns="http://www.w3.org/2000/svg" viewBox="0 0 32 32"><title>interface-essential-password-type</title><g><path fill="#000000" d="M30.48 10.67H32v10.66h-1.52Z"></path><path fill="#000000" d="M28.95 21.33h1.53v1.53h-1.53Z"></path><path fill="#000000" d="M28.95 9.14h1.53v1.53h-1.53Z"></path><path fill="#000000" d="M3.05 22.86h25.9v1.52H3.05Z"></path><path fill="#000000" d="M21.34 16.76h7.61v1.52h-7.61Z"></path><path fill="#000000" d="M18.29 16.76h1.52v1.52h-1.52Z"></path><path fill="#000000" d="M18.29 13.71h1.52v1.53h-1.52Z"></path><path fill="#000000" d="M16.76 15.24h1.53v1.52h-1.53Z"></path><path fill="#000000" d="M15.24 16.76h1.52v1.52h-1.52Z"></path><path fill="#000000" d="M15.24 13.71h1.52v1.53h-1.52Z"></path><path fill="#000000" d="M12.19 16.76h1.53v1.52h-1.53Z"></path><path fill="#000000" d="M12.19 13.71h1.53v1.53h-1.53Z"></path><path fill="#000000" d="M10.67 15.24h1.52v1.52h-1.52Z"></path><path fill="#000000" d="M9.15 16.76h1.52v1.52H9.15Z"></path><path fill="#000000" d="M9.15 13.71h1.52v1.53H9.15Z"></path><path fill="#000000" d="M6.1 16.76h1.52v1.52H6.1Z"></path><path fill="#000000" d="M6.1 13.71h1.52v1.53H6.1Z"></path><path fill="#000000" d="M4.57 15.24H6.1v1.52H4.57Z"></path><path fill="#000000" d="M3.05 7.62h25.9v1.52H3.05Z"></path><path fill="#000000" d="M3.05 16.76h1.52v1.52H3.05Z"></path><path fill="#000000" d="M3.05 13.71h1.52v1.53H3.05Z"></path><path fill="#000000" d="M1.53 21.33h1.52v1.53H1.53Z"></path><path fill="#000000" d="M1.53 9.14h1.52v1.53H1.53Z"></path><path fill="#000000" d="M0 10.67h1.53v10.66H0Z"></path></g></svg>