<svg width="25" height="25" viewBox="0 0 25 25" fill="none" xmlns="http://www.w3.org/2000/svg">
<g clip-path="url(#clip0_807_24084)">
<path d="M14.0951 25V22.8299H13.01V18.4951H11.99V22.8299H10.9049V25H3.25495V22.8299H2.17005V19.515H3.25495V18.4951H1.08503V16.325H0V6.50495H1.08503V4.33997L4.33503 4.33503V2.17005H5.42005V0H10.9049V2.17005H14.0951V0H19.5799V2.17005H20.665V4.33503L23.915 4.33997V6.50495H25V16.325H23.915V18.4951H21.7451V19.515H22.8299V22.8299H21.7451V25H14.0951Z" fill="#F2EDE5"/>
<path d="M12.5 2.74525H10.3299V0.575195H5.995V2.74525H4.90998V4.91022H1.65998V7.08014H0.574951V15.7502H1.65998V17.9202H3.8299V20.0902H2.745V22.2551H3.8299V24.4252H10.3299V22.2551H11.4149V17.9202H13.585V22.2551H14.67V24.4252H21.17V22.2551H22.2549V20.0902H21.17V17.9202H23.3399V15.7502H24.425V7.08014H23.3399V4.91022H20.0899V2.74525H19.0049V0.575195H14.67V2.74525H12.5Z" fill="#9A2346"/>
<path d="M16.8351 4.91009H15.75V2.74512H17.9201V4.91504L16.8351 4.91009ZM21.175 7.08001H20.09V9.25007H17.9201V7.08001H15.75V4.91009H12.4951H9.24001V7.08001H7.07009V9.25007H4.90003V7.08001H2.72998V15.7501H4.90003V13.5851H7.07009V20.09H4.90003V22.2601H9.24001V15.7501H15.75V22.2601H20.09V20.09H17.9201V13.5851H20.09V15.7501H22.2601V7.07507L21.175 7.08001ZM8.16006 2.74512H7.07503V4.91504H9.24508V2.74512H8.16006Z" fill="#FDAAAA"/>
<path d="M16.8349 9.25V11.4201H14.6649V9.25H16.8349ZM9.24494 9.25H8.15991V11.4201H10.3298V9.25H9.24494Z" fill="#AA3F55"/>
</g>
<defs>
<clipPath id="clip0_807_24084">
<rect width="25" height="25" fill="white"/>
</clipPath>
</defs>
</svg>
