<svg xmlns="http://www.w3.org/2000/svg" viewBox="0 0 32 32"><title>hand-cross-finger-heart</title><g><path fill="#000000" d="M26.67 27.43h1.52V32h-1.52Z"></path><path fill="#000000" d="M25.14 25.91h1.53v1.52h-1.53Z"></path><path fill="#000000" d="M23.62 27.43h1.52v1.52h-1.52Z"></path><path fill="#000000" d="M23.62 24.38h1.52v1.53h-1.52Z"></path><path fill="#000000" d="M22.09 28.95h1.53v1.53h-1.53Z"></path><path fill="#000000" d="M20.57 22.86h3.05v1.52h-3.05Z"></path><path fill="#000000" d="M22.09 10.67h1.53v4.57h-1.53Z"></path><path fill="#000000" d="M20.57 30.48h1.52V32h-1.52Z"></path><path fill="#000000" d="M20.57 15.24h1.52v1.52h-1.52Z"></path><path fill="#000000" d="M19.05 9.14h3.04v1.53h-3.04Z"></path><path fill="#000000" d="M19.05 24.38h1.52v1.53h-1.52Z"></path><path fill="#000000" d="M17.52 21.33h3.05v1.53h-3.05Z"></path><path fill="#000000" d="M19.05 16.76h1.52v1.53h-1.52Z"></path><path fill="#000000" d="M17.52 25.91h1.53v1.52h-1.53Z"></path><path fill="#000000" d="M17.52 18.29h1.53v1.52h-1.53Z"></path><path fill="#000000" d="M17.52 10.67h1.53v1.52h-1.53Z"></path><path fill="#000000" d="M16 27.43h1.52v1.52H16Z"></path><path fill="#000000" d="M16 19.81h1.52v1.52H16Z"></path><path fill="#000000" d="M16 12.19h1.52v1.52H16Z"></path><path fill="#000000" d="M14.48 21.33H16v1.53h-1.52Z"></path><path fill="#000000" d="M14.48 13.71H16v1.53h-1.52Z"></path><path fill="#000000" d="M12.95 22.86h1.53v1.52h-1.53Z"></path><path fill="#000000" d="M12.95 15.24h1.53v1.52h-1.53Z"></path><path fill="#000000" d="M11.43 16.76h1.52v1.53h-1.52Z"></path><path fill="#000000" d="M11.43 12.19h1.52v3.05h-1.52Z"></path><path fill="#000000" d="M9.9 18.29h1.53v1.52H9.9Z"></path><path fill="#000000" d="M9.9 0v1.52H8.38v3.05H9.9V6.1h1.53v1.52h1.52v1.52h1.53V7.62H16V6.1h1.52V4.57h1.53V1.52h-1.53V0h-3.04v1.52h-1.53V0H9.9z"></path><path fill="#000000" d="M6.86 10.67h4.57v1.52H6.86Z"></path><path fill="#000000" d="M8.38 16.76H6.86v6.1h1.52v-1.53H9.9v-1.52H8.38v-3.05z"></path><path fill="#000000" d="M5.33 22.86h1.53v1.52H5.33Z"></path><path fill="#000000" d="M5.33 12.19h1.53v4.57H5.33Z"></path><path fill="#000000" d="M3.81 24.38h1.52V32H3.81Z"></path></g></svg>