<?xml version="1.0" encoding="UTF-8"?>
<svg version="1.1" xmlns="http://www.w3.org/2000/svg" width="1000" height="1000">
<path d="M0 0 C77.22 0 154.44 0 234 0 C234 8.58 234 17.16 234 26 C250.83 26 267.66 26 285 26 C285 51.08 285 76.16 285 102 C293.58 102 302.16 102 311 102 C311 127.41 311 152.82 311 179 C318.26 179 325.52 179 333 179 C333 153.59 333 128.18 333 102 C341.58 102 350.16 102 359 102 C359 85.17 359 68.34 359 51 C367.58 51 376.16 51 385 51 C385 42.75 385 34.5 385 26 C401.83 26 418.66 26 436 26 C436 17.42 436 8.84 436 0 C512.89 0 589.78 0 669 0 C669 8.58 669 17.16 669 26 C685.83 26 702.66 26 720 26 C720 51.08 720 76.16 720 102 C728.58 102 737.16 102 746 102 C746 127.41 746 152.82 746 179 C754.58 179 763.16 179 772 179 C772 289.88 772 400.76 772 515 C763.42 515 754.84 515 746 515 C746 540.08 746 565.16 746 591 C737.42 591 728.84 591 720 591 C720 608.16 720 625.32 720 643 C703.17 643 686.34 643 669 643 C669 651.25 669 659.5 669 668 C592.11 668 515.22 668 436 668 C436 659.75 436 651.5 436 643 C419.17 643 402.34 643 385 643 C385 634.42 385 625.84 385 617 C376.42 617 367.84 617 359 617 C359 608.42 359 599.84 359 591 C350.42 591 341.84 591 333 591 C333 565.92 333 540.84 333 515 C325.74 515 318.48 515 311 515 C311 540.08 311 565.16 311 591 C302.42 591 293.84 591 285 591 C285 608.16 285 625.32 285 643 C268.17 643 251.34 643 234 643 C234 651.25 234 659.5 234 668 C156.78 668 79.56 668 0 668 C0 659.75 0 651.5 0 643 C-16.83 643 -33.66 643 -51 643 C-51 634.42 -51 625.84 -51 617 C-59.25 617 -67.5 617 -76 617 C-76 608.42 -76 599.84 -76 591 C-84.58 591 -93.16 591 -102 591 C-102 565.92 -102 540.84 -102 515 C-110.25 515 -118.5 515 -127 515 C-127 404.12 -127 293.24 -127 179 C-118.75 179 -110.5 179 -102 179 C-102 153.59 -102 128.18 -102 102 C-93.42 102 -84.84 102 -76 102 C-76 85.17 -76 68.34 -76 51 C-67.75 51 -59.5 51 -51 51 C-51 42.75 -51 34.5 -51 26 C-34.17 26 -17.34 26 0 26 C0 17.42 0 8.84 0 0 Z " fill="#010101" transform="translate(177,148)"/>
<path d="M0 0 C74.91 0 149.82 0 227 0 C227 8.25 227 16.5 227 25 C235.58 25 244.16 25 253 25 C253 30.61 253 36.22 253 42 C210.43 42 167.86 42 124 42 C124 50.58 124 59.16 124 68 C115.42 68 106.84 68 98 68 C98 84.83 98 101.66 98 119 C89.75 119 81.5 119 73 119 C73 162.23 73 205.46 73 250 C81.25 250 89.5 250 98 250 C98 266.83 98 283.66 98 301 C106.58 301 115.16 301 124 301 C124 309.25 124 317.5 124 326 C166.9 326 209.8 326 254 326 C254 317.75 254 309.5 254 301 C262.58 301 271.16 301 280 301 C280 283.84 280 266.68 280 249 C287.92 249 295.84 249 304 249 C304 326.22 304 403.44 304 483 C295.42 483 286.84 483 278 483 C278 499.83 278 516.66 278 534 C269.75 534 261.5 534 253 534 C253 550.83 253 567.66 253 585 C244.42 585 235.84 585 227 585 C227 593.25 227 601.5 227 610 C152.09 610 77.18 610 0 610 C0 601.75 0 593.5 0 585 C-16.83 585 -33.66 585 -51 585 C-51 568.17 -51 551.34 -51 534 C-59.58 534 -68.16 534 -77 534 C-77 516.84 -77 499.68 -77 482 C-85.25 482 -93.5 482 -102 482 C-102 373.43 -102 264.86 -102 153 C-93.75 153 -85.5 153 -77 153 C-77 127.59 -77 102.18 -77 76 C-68.42 76 -59.84 76 -51 76 C-51 59.5 -51 43 -51 26 C-34.17 26 -17.34 26 0 26 C0 17.42 0 8.84 0 0 Z " fill="#FEFEFE" transform="translate(616,177)"/>
<path d="M0 0 C74.91 0 149.82 0 227 0 C227 8.58 227 17.16 227 26 C235.25 26 243.5 26 252 26 C252 31.28 252 36.56 252 42 C209.76 42 167.52 42 124 42 C124 50.58 124 59.16 124 68 C115.42 68 106.84 68 98 68 C98 84.83 98 101.66 98 119 C89.75 119 81.5 119 73 119 C73 162.23 73 205.46 73 250 C81.25 250 89.5 250 98 250 C98 266.83 98 283.66 98 301 C106.58 301 115.16 301 124 301 C124 309.25 124 317.5 124 326 C166.9 326 209.8 326 254 326 C254 317.75 254 309.5 254 301 C262.58 301 271.16 301 280 301 C280 284.17 280 267.34 280 250 C287.59 250 295.18 250 303 250 C303 326.56 303 403.12 303 482 C294.75 482 286.5 482 278 482 C278 499.16 278 516.32 278 534 C269.42 534 260.84 534 252 534 C252 550.83 252 567.66 252 585 C243.75 585 235.5 585 227 585 C227 593.25 227 601.5 227 610 C152.09 610 77.18 610 0 610 C0 601.75 0 593.5 0 585 C-17.16 585 -34.32 585 -52 585 C-52 568.17 -52 551.34 -52 534 C-60.25 534 -68.5 534 -77 534 C-77 516.84 -77 499.68 -77 482 C-85.25 482 -93.5 482 -102 482 C-102 373.43 -102 264.86 -102 153 C-93.75 153 -85.5 153 -77 153 C-77 127.92 -77 102.84 -77 77 C-68.42 77 -59.84 77 -51 77 C-51 60.17 -51 43.34 -51 26 C-34.17 26 -17.34 26 0 26 C0 17.42 0 8.84 0 0 Z " fill="#FEFEFE" transform="translate(181,177)"/>
<path d="M0 0 C0.33 0 0.66 0 1 0 C1.02312359 10.41342925 1.04091517 20.82685244 1.05181217 31.24030209 C1.05704097 36.07516827 1.06413854 40.91001694 1.07543945 45.74487305 C1.08626847 50.4067712 1.09227686 55.06865246 1.09487724 59.73056221 C1.09673147 61.51324288 1.10035203 63.29592259 1.10573006 65.07859612 C1.11294069 67.5666596 1.11399093 70.05465243 1.11352539 72.54272461 C1.11712067 73.28718842 1.12071594 74.03165222 1.12442017 74.79867554 C1.11405216 79.88594784 1.11405216 79.88594784 0 81 C-1.62674778 81.09340434 -3.25754051 81.11745171 -4.88696289 81.11352539 C-5.94258423 81.11340454 -6.99820557 81.11328369 -8.08581543 81.11315918 C-9.2034729 81.10804321 -10.32113037 81.10292725 -11.47265625 81.09765625 C-12.49387573 81.09664917 -13.51509521 81.09564209 -14.56726074 81.09460449 C-18.39901851 81.08935415 -22.23076033 81.07539303 -26.0625 81.0625 C-34.621875 81.041875 -43.18125 81.02125 -52 81 C-52 54.93 -52 28.86 -52 2 C-34.84 2 -17.68 2 0 2 C0 1.34 0 0.68 0 0 Z " fill="#F8F8F8" transform="translate(870,245)"/>
<path d="M0 0 C17.16 0 34.32 0 52 0 C52 25.74 52 51.48 52 78 C34.84 78 17.68 78 0 78 C0 52.26 0 26.52 0 0 Z " fill="#FCFCFC" transform="translate(383,248)"/>
</svg>
