<?xml version="1.0" encoding="UTF-8"?>
<svg version="1.1" xmlns="http://www.w3.org/2000/svg" width="512" height="512">
<path d="M0 0 C12.21 0 24.42 0 37 0 C37 11.88 37 23.76 37 36 C48.88 36 60.76 36 73 36 C73 47.88 73 59.76 73 72 C84.55 72 96.1 72 108 72 C108 83.88 108 95.76 108 108 C119.88 108 131.76 108 144 108 C144 119.88 144 131.76 144 144 C155.88 144 167.76 144 180 144 C180 155.88 180 167.76 180 180 C191.88 180 203.76 180 216 180 C216 191.88 216 203.76 216 216 C204.12 216 192.24 216 180 216 C180 227.88 180 239.76 180 252 C168.12 252 156.24 252 144 252 C144 263.88 144 275.76 144 288 C132.12 288 120.24 288 108 288 C108 299.88 108 311.76 108 324 C96.45 324 84.9 324 73 324 C73 335.88 73 347.76 73 360 C61.12 360 49.24 360 37 360 C37 371.88 37 383.76 37 396 C24.79 396 12.58 396 0 396 C0 371.91 0 347.82 0 323 C11.88 323 23.76 323 36 323 C36 311.12 36 299.24 36 287 C47.88 287 59.76 287 72 287 C72 275.12 72 263.24 72 251 C83.88 251 95.76 251 108 251 C108 239.12 108 227.24 108 215 C119.55 215 131.1 215 143 215 C143 203.78 143 192.56 143 181 C131.45 181 119.9 181 108 181 C108 169.12 108 157.24 108 145 C96.12 145 84.24 145 72 145 C72 133.12 72 121.24 72 109 C60.12 109 48.24 109 36 109 C36 97.12 36 85.24 36 73 C24.12 73 12.24 73 0 73 C0 48.91 0 24.82 0 0 Z " fill="#000000" transform="translate(148,58)"/>
</svg>
