<svg xmlns="http://www.w3.org/2000/svg" viewBox="0 0 32 32"><title>entertainment-events-hobbies-video-camera-film-1</title><g><path fill="#000000" d="M28.95 13.71v1.53h1.52v13.71h-1.52v1.53H32V13.71h-3.05z"></path><path fill="#000000" d="M27.42 27.43h1.53v1.52h-1.53Z"></path><path fill="#000000" d="M27.42 15.24h1.53v1.52h-1.53Z"></path><path fill="#000000" d="M27.42 4.57h1.53v6.1h-1.53Z"></path><path fill="#000000" d="M25.9 25.9v-7.61h1.52v-1.53H25.9v-1.52h-1.52v13.71h1.52v-1.52h1.52V25.9H25.9z"></path><path fill="#000000" d="M25.9 10.67h1.52v1.52H25.9Z"></path><path fill="#000000" d="M25.9 3.05h1.52v1.52H25.9Z"></path><path fill="#000000" d="M24.38 12.19h1.52v1.52h-1.52Z"></path><path fill="#000000" d="M24.38 1.52h1.52v1.53h-1.52Z"></path><path fill="#000000" d="M22.85 28.95h1.53v1.53h-1.53Z"></path><path fill="#000000" d="M18.28 13.71h6.1v1.53h-6.1Z"></path><path fill="#000000" d="M3.04 30.48h19.81V32H3.04Z"></path><path fill="#000000" d="M19.8 16.76h3.05v3.05H19.8Z"></path><path fill="#000000" d="M18.28 0h6.1v1.52h-6.1Z"></path><path d="M18.28 10.67h1.52v1.52h3.05v-1.52h1.53V9.14h1.52V6.1h-1.52V4.57h-1.53V3.05H19.8v1.52h-1.52V6.1h-1.52v3.04h1.52ZM19.8 6.1h3.05v3.04H19.8Z" fill="#000000"></path><path fill="#000000" d="M16.76 12.19v-1.52h-1.53v1.52h-1.52v-1.52h-1.52v1.52h-1.53v1.52h7.62v-1.52h-1.52z"></path><path fill="#000000" d="M16.76 1.52h1.52v1.53h-1.52Z"></path><path fill="#000000" d="M15.23 25.9h-1.52v-1.52h-3.05v1.52H9.14v-1.52H6.09v1.52H4.57v-4.57H3.04v6.1h1.53v1.52h10.66v-1.52h1.53v-6.1h-1.53v4.57z"></path><path fill="#000000" d="M15.23 3.05h1.53v1.52h-1.53Z"></path><path fill="#000000" d="M13.71 4.57h1.52v6.1h-1.52Z"></path><path fill="#000000" d="M12.19 3.05h1.52v1.52h-1.52Z"></path><path fill="#000000" d="M10.66 1.52h1.53v1.53h-1.53Z"></path><path fill="#000000" d="M4.57 13.71h6.09v1.53H4.57Z"></path><path fill="#000000" d="M4.57 19.81h10.66v1.52H4.57Z"></path><path fill="#000000" d="M4.57 0h6.09v1.52H4.57Z"></path><path d="M4.57 10.67h1.52v1.52h3.05v-1.52h1.52V9.14h1.53V6.1h-1.53V4.57H9.14V3.05H6.09v1.52H4.57V6.1H3.04v3.04h1.53ZM6.09 6.1h3.05v3.04H6.09Z" fill="#000000"></path><path fill="#000000" d="M3.04 12.19h1.53v1.52H3.04Z"></path><path fill="#000000" d="M3.04 1.52h1.53v1.53H3.04Z"></path><path fill="#000000" d="M1.52 28.95h1.52v1.53H1.52Z"></path><path fill="#000000" d="M1.52 13.71h1.52v1.53H1.52Z"></path><path fill="#000000" d="M1.52 10.67h1.52v1.52H1.52Z"></path><path fill="#000000" d="M1.52 3.05h1.52v1.52H1.52Z"></path><path fill="#000000" d="M0 15.24h1.52v13.71H0Z"></path><path fill="#000000" d="M0 4.57h1.52v6.1H0Z"></path></g></svg>