<svg width="20" height="20" viewBox="0 0 20 20" fill="none" xmlns="http://www.w3.org/2000/svg">
<g clip-path="url(#clip0_823_18443)">
<mask id="mask0_823_18443" style="mask-type:luminance" maskUnits="userSpaceOnUse" x="0" y="0" width="20" height="20">
<path d="M0.879883 0.373535H19.1179V19.6269H0.879883V0.373535Z" fill="white"/>
</mask>
<g mask="url(#mask0_823_18443)">
<path d="M11.0309 19.6125V19.1057H10.5242V18.092H9.47049V19.1057H8.96393V19.6125H7.48465V19.1057H6.97809V18.092H6.47153V17.0783H5.41778V17.5852H3.93851V17.0783H3.43184V15.5983H3.93851V14.5441H2.88476V15.051H1.40549V14.5441H0.898926V13.0641H1.40549V12.5572H2.41872V11.5031H1.40549V10.9962H0.898926V9.00942H1.40549V8.50255H2.41872V7.44828H1.40549V6.9415H0.898926V5.4615H1.40549V4.95463H2.88476V5.4615H3.93851V4.40723H3.43184V2.92723H3.93851V2.42046H5.41778V2.92723H6.47153V1.91359H6.97809V0.899941H7.48465V0.393066H8.96393V0.899941H9.47049V1.91359H10.5242V0.899941H11.0309V0.393066H12.5102V0.899941H13.0167V1.91359H13.5233V2.92723H14.5771V2.42046H16.0563V2.92723H16.5629V4.40723H16.0563V5.4615H17.1101V4.95463H18.5893V5.4615H19.0959V6.9415H18.5893V7.44828H17.5761V8.50255H18.5893V9.00942H19.0959V10.9962H18.5893V11.5031H17.5761V12.5572H18.5893V13.0641H19.0959V14.5441H18.5893V15.051H17.1101V14.5441H16.0563V15.5983H16.5629V17.0783H16.0563V17.5852H14.5771V17.0783H13.5233V18.092H13.0167V19.1057H12.5102V19.6125H11.0309ZM8.45736 13.0641H11.5375V12.5572H12.044V12.0505H12.5507V11.5436H13.0573V8.46203H12.5507V7.95515H12.044V7.44828H11.5375V6.9415H8.45736V7.44828H7.9507V7.95515H7.44413V8.46203H6.93757V11.5436H7.44413V12.0505H7.9507V12.5572H8.45736V13.0641Z" fill="black"/>
</g>
<path d="M17.09 5.44096V5.94783H16.0767V5.44096H15.5702V4.42731H16.0767V2.90679H14.557V3.41356H13.5438V2.90679H13.0372V1.89304H12.5306V0.879395H11.0108V1.89304H10.5042V2.39992H9.49102V1.89304H8.98446V0.879395H7.46466V1.89304H6.958V2.90679H6.45144V3.41356H5.43821V2.90679H3.91841V4.42731H4.42508V5.44096H3.91841V5.94783H2.90529V5.44096H1.3855V6.96148H2.39862V7.46835H2.90529V8.482H2.39862V8.98887H1.3855V11.0163H2.39862V11.523H2.90529V12.5368H2.39862V13.0436H1.3855V14.5641H2.90529V14.0573H3.91841V14.5641H4.42508V15.5778H3.91841V17.0984H5.43821V16.5915H6.45144V17.0984H6.958V18.112H7.46466V19.1257H8.98446V18.112H9.49102V17.6052H10.5042V18.112H11.0108V19.1257H12.5306V18.112H13.0372V17.0984H13.5438V16.5915H14.557V17.0984H16.0767V15.5778H15.5702V14.5641H16.0767V14.0573H17.09V14.5641H18.6098V13.0436H17.5965V12.5368H17.09V11.523H17.5965V11.0163H18.6098V8.98887H17.5965V8.482H17.09V7.46835H17.5965V6.96148H18.6098V5.44096H17.09ZM7.97123 13.0436V12.5368H7.46466V12.0299H6.958V11.523H6.45144V8.482H6.958V7.97523H7.46466V7.46835H7.97123V6.96148H8.47779V6.45471H11.5174V6.96148H12.024V7.46835H12.5306V7.97523H13.0372V8.482H13.5438V11.523H13.0372V12.0299H12.5306V12.5368H12.024V13.0436H11.5174V13.5504H8.47779V13.0436H7.97123Z" fill="#FDAAAA"/>
<path d="M15.0635 2.90674V3.41351H15.57V3.92038H16.0766V2.90674H15.0635Z" fill="#948979"/>
<path d="M11.0107 0.879395V1.89304H11.5173V1.38627H12.024V0.879395H11.0107Z" fill="#948979"/>
<path d="M8.98438 5.44092H9.9975V5.94779H8.98438V5.44092Z" fill="#948979"/>
<path d="M8.98447 0.879395H7.46467V1.89304H6.95801V2.90679H7.46467V2.39992H7.97124V1.38627H8.98447V0.879395Z" fill="#948979"/>
<path d="M7.4646 5.94775H8.47772V6.45463H7.4646V5.94775Z" fill="#948979"/>
<path d="M6.95801 6.45459H7.46467V6.96136H6.95801V6.45459Z" fill="#948979"/>
<path d="M6.45142 6.96143H6.95798V7.4683H6.45142V6.96143Z" fill="#948979"/>
<path d="M5.94482 7.46826H6.45139V7.97514H5.94482V7.46826Z" fill="#948979"/>
<path d="M5.43823 3.41357H6.45146V3.92045H5.43823V3.41357Z" fill="#948979"/>
<path d="M4.42505 2.90674H5.43817V3.41351H4.42505V2.90674Z" fill="#948979"/>
<path d="M3.91821 5.44092H4.42488V5.94779H3.91821V5.44092Z" fill="#948979"/>
<path d="M2.90527 5.94775H3.9184V6.45463H2.90527V5.94775Z" fill="#948979"/>
<path d="M2.39844 5.44092H2.9051V5.94779H2.39844V5.44092Z" fill="#948979"/>
<path d="M18.1031 14.0572H17.0898V14.564H18.6096V13.0435H18.1031V14.0572Z" fill="#EAA58C"/>
<path d="M18.1031 10.5093H17.5964V11.0162H18.6097V8.98877H18.1031V10.5093Z" fill="#EAA58C"/>
<path d="M18.1031 5.44092V6.45467H17.5964V6.96144H18.6097V5.44092H18.1031Z" fill="#EAA58C"/>
<path d="M17.0898 11.0161H17.5964V11.5229H17.0898V11.0161Z" fill="#EAA58C"/>
<path d="M17.0898 6.96143H17.5964V7.4683H17.0898V6.96143Z" fill="#EAA58C"/>
<path d="M15.5701 16.5918H14.5569V17.0986H16.0767V15.5781H15.5701V16.5918Z" fill="#EAA58C"/>
<path d="M15.0635 13.5503V11.5229H15.5701V8.98877H15.0635V11.0162H14.5569V12.5367H14.0503V13.0435H13.5438V13.5503H13.0371V14.0572H12.5305V14.564H11.0107V15.0709H8.98438V15.5777H9.49094V16.0846H11.5173V15.5777H13.0371V15.0709H13.5438V14.564H14.0503V13.5503H15.0635Z" fill="#EAA58C"/>
<path d="M14.5569 7.46826H15.0636V8.98878H14.5569V7.46826Z" fill="#EAA58C"/>
<path d="M14.0503 6.96143H14.5569V7.4683H14.0503V6.96143Z" fill="#EAA58C"/>
<path d="M13.5437 6.45459H14.0503V6.96136H13.5437V6.45459Z" fill="#EAA58C"/>
<path d="M13.0371 5.94775H13.5438V6.45463H13.0371V5.94775Z" fill="#EAA58C"/>
<path d="M12.5305 17.6055H13.0371V18.1122H12.5305V17.6055Z" fill="#EAA58C"/>
<path d="M12.5305 5.44092H13.0371V5.94779H12.5305V5.44092Z" fill="#EAA58C"/>
<path d="M12.024 18.6192H11.0107V19.1261H12.5305V18.1123H12.024V18.6192Z" fill="#EAA58C"/>
<path d="M11.0107 4.93408H12.024V5.44096H11.0107V4.93408Z" fill="#EAA58C"/>
<path d="M8.98438 17.6055H9.49094V18.1122H8.98438V17.6055Z" fill="#EAA58C"/>
<path d="M8.47772 18.6192H7.4646V19.1261H8.98439V18.1123H8.47772V18.6192Z" fill="#EAA58C"/>
<path d="M7.4646 14.5645H8.98439V15.0712H7.4646V14.5645Z" fill="#EAA58C"/>
<path d="M6.95801 14.0576H7.46467V14.5644H6.95801V14.0576Z" fill="#EAA58C"/>
<path d="M3.91821 16.5918H5.438V17.0987H3.91821V16.5918Z" fill="#EAA58C"/>
<path d="M2.39844 11.0161H2.9051V11.5229H2.39844V11.0161Z" fill="#EAA58C"/>
<path d="M2.39844 6.96143H2.9051V7.4683H2.39844V6.96143Z" fill="#EAA58C"/>
<path d="M1.3855 14.0576H2.90529V14.5644H1.3855V14.0576Z" fill="#EAA58C"/>
<path d="M1.3855 6.45459H2.39862V6.96136H1.3855V6.45459Z" fill="#EAA58C"/>
<mask id="mask1_823_18443" style="mask-type:luminance" maskUnits="userSpaceOnUse" x="18" y="13" width="2" height="2">
<path d="M18.5867 13.04H19.118V14.5867H18.5867V13.04Z" fill="white"/>
</mask>
<g mask="url(#mask1_823_18443)">
<path d="M18.6096 13.0435H19.1162V14.5641H18.6096V13.0435Z" fill="black"/>
</g>
<mask id="mask2_823_18443" style="mask-type:luminance" maskUnits="userSpaceOnUse" x="18" y="8" width="2" height="4">
<path d="M18.5867 8.98682H19.118V11.0401H18.5867V8.98682Z" fill="white"/>
</mask>
<g mask="url(#mask2_823_18443)">
<path d="M18.6096 8.98926H19.1162V11.0167H18.6096V8.98926Z" fill="black"/>
</g>
<mask id="mask3_823_18443" style="mask-type:luminance" maskUnits="userSpaceOnUse" x="18" y="5" width="2" height="2">
<path d="M18.5867 5.43994H19.118V6.98661H18.5867V5.43994Z" fill="white"/>
</mask>
<g mask="url(#mask3_823_18443)">
<path d="M18.6096 5.44092H19.1162V6.96144H18.6096V5.44092Z" fill="black"/>
</g>
<path d="M17.0898 14.5645H18.6096V15.0712H17.0898V14.5645Z" fill="black"/>
<path d="M17.5964 12.5371H18.6097V13.0439H17.5964V12.5371Z" fill="black"/>
<path d="M17.5964 11.0161H18.6097V11.5229H17.5964V11.0161Z" fill="black"/>
<path d="M17.5964 8.48193H18.6097V8.98881H17.5964V8.48193Z" fill="black"/>
<path d="M17.5964 6.96143H18.6097V7.4683H17.5964V6.96143Z" fill="black"/>
<path d="M17.0898 4.93408H18.6096V5.44096H17.0898V4.93408Z" fill="black"/>
<path d="M17.0898 11.5229H17.5964V12.5367H17.0898V11.5229Z" fill="black"/>
<path d="M17.0898 7.46826H17.5964V8.48191H17.0898V7.46826Z" fill="black"/>
<path d="M16.0767 14.0576H17.0899V14.5644H16.0767V14.0576Z" fill="black"/>
<path d="M16.0767 15.5781H16.5833V17.0986H16.0767V15.5781Z" fill="black"/>
<path d="M16.0767 5.44092H17.0899V5.94779H16.0767V5.44092Z" fill="black"/>
<path d="M16.0767 2.90674H16.5833V4.42726H16.0767V2.90674Z" fill="black"/>
<path d="M15.5701 14.5645H16.0766V15.5781H15.5701V14.5645Z" fill="black"/>
<path d="M15.5701 4.42725H16.0766V5.44089H15.5701V4.42725Z" fill="black"/>
<path d="M14.5569 17.0986H16.0767V17.6055H14.5569V17.0986Z" fill="black"/>
<path d="M14.5569 2.3999H16.0767V2.90678H14.5569V2.3999Z" fill="black"/>
<path d="M14.5569 8.98877H15.0636V11.0162H14.5569V8.98877Z" fill="black"/>
<path d="M13.5437 16.5918H14.5568V17.0987H13.5437V16.5918Z" fill="black"/>
<path d="M14.0503 11.0161H14.5569V12.5366H14.0503V11.0161Z" fill="black"/>
<path d="M14.0503 7.46826H14.5569V8.98878H14.0503V7.46826Z" fill="black"/>
<path d="M13.5437 12.5371H14.0503V13.0439H13.5437V12.5371Z" fill="black"/>
<path d="M13.5437 6.96143H14.0503V7.4683H13.5437V6.96143Z" fill="black"/>
<path d="M13.5437 2.90674H14.5568V3.41351H13.5437V2.90674Z" fill="black"/>
<path d="M13.0371 17.0986H13.5438V18.1123H13.0371V17.0986Z" fill="black"/>
<path d="M13.0371 13.0435H13.5438V13.5503H13.0371V13.0435Z" fill="black"/>
<path d="M13.0371 8.48193H13.5438V11.523H13.0371V8.48193Z" fill="black"/>
<path d="M13.0371 6.45459H13.5438V6.96136H13.0371V6.45459Z" fill="black"/>
<path d="M13.0371 1.89307H13.5438V2.90682H13.0371V1.89307Z" fill="black"/>
<path d="M12.5305 18.1123H13.0371V19.1261H12.5305V18.1123Z" fill="black"/>
<path d="M12.5305 13.5503H13.0371V14.0572H12.5305V13.5503Z" fill="black"/>
<path d="M12.5305 11.5229H13.0371V12.0298H12.5305V11.5229Z" fill="black"/>
<path d="M12.5305 7.9751H13.0371V8.48187H12.5305V7.9751Z" fill="black"/>
<path d="M12.5305 5.94775H13.0371V6.45463H12.5305V5.94775Z" fill="black"/>
<path d="M12.5305 0.879395H13.0371V1.89304H12.5305V0.879395Z" fill="black"/>
<path d="M12.0239 12.0298H12.5305V12.5367H12.0239V12.0298Z" fill="black"/>
<path d="M12.0239 7.46826H12.5305V7.97514H12.0239V7.46826Z" fill="black"/>
<mask id="mask4_823_18443" style="mask-type:luminance" maskUnits="userSpaceOnUse" x="10" y="19" width="3" height="1">
<path d="M10.9866 19.1201H12.5332V19.6327H10.9866V19.1201Z" fill="white"/>
</mask>
<g mask="url(#mask4_823_18443)">
<path d="M11.0107 19.126H12.5305V19.6327H11.0107V19.126Z" fill="black"/>
</g>
<path d="M11.0107 14.0576H12.5305V14.5644H11.0107V14.0576Z" fill="black"/>
<path d="M11.5173 12.5371H12.024V13.0439H11.5173V12.5371Z" fill="black"/>
<path d="M11.5173 6.96143H12.024V7.4683H11.5173V6.96143Z" fill="black"/>
<mask id="mask5_823_18443" style="mask-type:luminance" maskUnits="userSpaceOnUse" x="10" y="0" width="3" height="1">
<path d="M10.9866 0.372559H12.5332V0.879954H10.9866V0.372559Z" fill="white"/>
</mask>
<g mask="url(#mask5_823_18443)">
<path d="M11.0107 0.372559H12.5305V0.879434H11.0107V0.372559Z" fill="black"/>
</g>
<path d="M11.0107 5.44092H12.5305V5.94779H11.0107V5.44092Z" fill="black"/>
<path d="M10.5042 18.1123H11.0107V19.1261H10.5042V18.1123Z" fill="black"/>
<path d="M8.47778 13.0435H11.5174V13.5503H8.47778V13.0435Z" fill="black"/>
<path d="M10.5042 0.879395H11.0107V1.89304H10.5042V0.879395Z" fill="black"/>
<path d="M9.49097 17.6055H10.5042V18.1122H9.49097V17.6055Z" fill="black"/>
<path d="M8.98438 14.5645H11.0107V15.0712H8.98438V14.5645Z" fill="black"/>
<path d="M8.98438 4.93408H11.0107V5.44096H8.98438V4.93408Z" fill="black"/>
<path d="M9.49097 1.89307H10.5042V2.39994H9.49097V1.89307Z" fill="black"/>
<path d="M8.98438 18.1123H9.49094V19.1261H8.98438V18.1123Z" fill="black"/>
<path d="M8.47778 6.45459H11.5174V6.96136H8.47778V6.45459Z" fill="black"/>
<path d="M8.98438 0.879395H9.49094V1.89304H8.98438V0.879395Z" fill="black"/>
<path d="M7.4646 14.0576H8.98439V14.5644H7.4646V14.0576Z" fill="black"/>
<mask id="mask6_823_18443" style="mask-type:luminance" maskUnits="userSpaceOnUse" x="7" y="19" width="2" height="1">
<path d="M7.43994 19.1201H8.98661V19.6327H7.43994V19.1201Z" fill="white"/>
</mask>
<g mask="url(#mask6_823_18443)">
<path d="M7.4646 19.126H8.98439V19.6327H7.4646V19.126Z" fill="black"/>
</g>
<path d="M7.97119 12.5371H8.47775V13.0439H7.97119V12.5371Z" fill="black"/>
<path d="M7.97119 6.96143H8.47775V7.4683H7.97119V6.96143Z" fill="black"/>
<path d="M7.4646 5.44092H8.98439V5.94779H7.4646V5.44092Z" fill="black"/>
<mask id="mask7_823_18443" style="mask-type:luminance" maskUnits="userSpaceOnUse" x="7" y="0" width="2" height="1">
<path d="M7.43994 0.372559H8.98661V0.879954H7.43994V0.372559Z" fill="white"/>
</mask>
<g mask="url(#mask7_823_18443)">
<path d="M7.4646 0.372559H8.98439V0.879434H7.4646V0.372559Z" fill="black"/>
</g>
<path d="M7.4646 12.0298H7.97116V12.5367H7.4646V12.0298Z" fill="black"/>
<path d="M7.4646 7.46826H7.97116V7.97514H7.4646V7.46826Z" fill="black"/>
<path d="M6.95801 18.1123H7.46467V19.1261H6.95801V18.1123Z" fill="black"/>
<path d="M6.95801 13.5503H7.46467V14.0572H6.95801V13.5503Z" fill="black"/>
<path d="M6.95801 11.5229H7.46467V12.0298H6.95801V11.5229Z" fill="black"/>
<path d="M6.95801 7.9751H7.46467V8.48187H6.95801V7.9751Z" fill="black"/>
<path d="M6.95801 5.94775H7.46467V6.45463H6.95801V5.94775Z" fill="black"/>
<path d="M6.95801 0.879395H7.46467V1.89304H6.95801V0.879395Z" fill="black"/>
<path d="M6.45142 17.0986H6.95798V18.1123H6.45142V17.0986Z" fill="black"/>
<path d="M6.45142 13.0435H6.95798V13.5503H6.45142V13.0435Z" fill="black"/>
<path d="M6.45142 8.48193H6.95798V11.523H6.45142V8.48193Z" fill="black"/>
<path d="M6.45142 6.45459H6.95798V6.96136H6.45142V6.45459Z" fill="black"/>
<path d="M6.45142 1.89307H6.95798V2.90682H6.45142V1.89307Z" fill="black"/>
<path d="M5.43823 16.5918H6.45146V17.0987H5.43823V16.5918Z" fill="black"/>
<path d="M5.94482 12.5371H6.45139V13.0439H5.94482V12.5371Z" fill="black"/>
<path d="M5.94482 6.96143H6.45139V7.4683H5.94482V6.96143Z" fill="black"/>
<path d="M5.43823 11.0161H5.9449V12.5366H5.43823V11.0161Z" fill="black"/>
<path d="M5.43823 7.46826H5.9449V8.98878H5.43823V7.46826Z" fill="black"/>
<path d="M5.43823 2.90674H6.45146V3.41351H5.43823V2.90674Z" fill="black"/>
<path d="M4.93164 8.98877H5.4382V11.0162H4.93164V8.98877Z" fill="black"/>
<path d="M3.91821 17.0986H5.438V17.6055H3.91821V17.0986Z" fill="black"/>
<path d="M3.91821 2.3999H5.438V2.90678H3.91821V2.3999Z" fill="black"/>
<path d="M3.91821 14.5645H4.42488V15.5781H3.91821V14.5645Z" fill="black"/>
<path d="M3.91821 4.42725H4.42488V5.44089H3.91821V4.42725Z" fill="black"/>
<path d="M3.41187 15.5781H3.91843V17.0986H3.41187V15.5781Z" fill="black"/>
<path d="M2.90527 14.0576H3.9184V14.5644H2.90527V14.0576Z" fill="black"/>
<path d="M3.41187 2.90674H3.91843V4.42726H3.41187V2.90674Z" fill="black"/>
<path d="M2.90527 5.44092H3.9184V5.94779H2.90527V5.44092Z" fill="black"/>
<path d="M2.39844 11.5229H2.9051V12.5367H2.39844V11.5229Z" fill="black"/>
<path d="M2.39844 7.46826H2.9051V8.48191H2.39844V7.46826Z" fill="black"/>
<path d="M1.3855 14.5645H2.90529V15.0712H1.3855V14.5645Z" fill="black"/>
<path d="M1.3855 12.5371H2.39862V13.0439H1.3855V12.5371Z" fill="black"/>
<path d="M1.3855 11.0161H2.39862V11.5229H1.3855V11.0161Z" fill="black"/>
<path d="M1.3855 8.48193H2.39862V8.98881H1.3855V8.48193Z" fill="black"/>
<path d="M1.3855 6.96143H2.39862V7.4683H1.3855V6.96143Z" fill="black"/>
<path d="M1.3855 4.93408H2.90529V5.44096H1.3855V4.93408Z" fill="black"/>
<mask id="mask8_823_18443" style="mask-type:luminance" maskUnits="userSpaceOnUse" x="0" y="13" width="2" height="2">
<path d="M0.878174 13.04H1.38672V14.5867H0.878174V13.04Z" fill="white"/>
</mask>
<g mask="url(#mask8_823_18443)">
<path d="M0.878906 13.0435H1.38547V14.5641H0.878906V13.0435Z" fill="black"/>
</g>
<mask id="mask9_823_18443" style="mask-type:luminance" maskUnits="userSpaceOnUse" x="0" y="8" width="2" height="4">
<path d="M0.878174 8.98682H1.38672V11.0401H0.878174V8.98682Z" fill="white"/>
</mask>
<g mask="url(#mask9_823_18443)">
<path d="M0.878906 8.98926H1.38547V11.0167H0.878906V8.98926Z" fill="black"/>
</g>
<mask id="mask10_823_18443" style="mask-type:luminance" maskUnits="userSpaceOnUse" x="0" y="5" width="2" height="2">
<path d="M0.878174 5.43994H1.38672V6.98661H0.878174V5.43994Z" fill="white"/>
</mask>
<g mask="url(#mask10_823_18443)">
<path d="M0.878906 5.44092H1.38547V6.96144H0.878906V5.44092Z" fill="black"/>
</g>
</g>
<defs>
<clipPath id="clip0_823_18443">
<rect width="20" height="20" fill="white"/>
</clipPath>
</defs>
</svg>
