<svg xmlns="http://www.w3.org/2000/svg" viewBox="0 0 32 32"><title>pet-animals-turtle</title><g><path fill="#000000" d="M30.48 16.76H32v1.53h-1.52Z"></path><path fill="#000000" d="M28.95 18.29h1.53v1.52h-1.53Z"></path><path fill="#000000" d="M27.43 22.86h1.52v3.05h-1.52Z"></path><path fill="#000000" d="M27.43 19.81h1.52v1.53h-1.52Z"></path><path fill="#000000" d="M25.91 21.34h1.52v1.52h-1.52Z"></path><path fill="#000000" d="M22.86 25.91h4.57v1.52h-4.57Z"></path><path fill="#000000" d="M22.86 6.1h1.52v1.52h-1.52Z"></path><path fill="#000000" d="M21.34 24.38h1.52v1.53h-1.52Z"></path><path fill="#000000" d="M19.81 22.86h1.53v1.52h-1.53Z"></path><path fill="#000000" d="M18.29 21.34h1.52v1.52h-1.52Z"></path><path fill="#000000" d="M15.24 4.57h7.62V6.1h-7.62Z"></path><path fill="#000000" d="M15.24 22.86h3.05v1.52h-3.05Z"></path><path fill="#000000" d="M13.72 21.34h1.52v1.52h-1.52Z"></path><path fill="#000000" d="M12.19 22.86h1.53v1.52h-1.53Z"></path><path fill="#000000" d="M7.62 24.38h4.57v1.53H7.62Z"></path><path fill="#000000" d="M9.15 19.81h1.52v1.53H9.15Z"></path><path fill="#000000" d="M9.15 15.24h1.52v1.52H9.15Z"></path><path d="M10.67 12.19v-1.52h1.52v1.52h1.53v3.05h-1.53v1.52h-1.52v1.53h1.52v1.52h13.72v-1.52h1.52v-1.53h3.05v-1.52h-1.53v-3.05h-1.52v3.05h-1.52v1.52h-1.53v-1.52h-1.52v-3.05h1.52v-1.52h1.53v1.52h1.52V9.15h-1.52V7.62h-1.53v1.53h-1.52v1.52h-6.1V7.62h-1.52V6.1h-3.05v1.52h-1.52v1.53H9.15v3.04Zm4.57 4.57h1.52v-1.52h4.58v1.52h1.52v1.53h-7.62Z" fill="#000000"></path><path fill="#000000" d="M7.62 21.34h1.53v1.52H7.62Z"></path><path fill="#000000" d="M7.62 18.29h1.53v1.52H7.62Z"></path><path fill="#000000" d="M7.62 12.19h1.53v3.05H7.62Z"></path><path fill="#000000" d="M7.62 7.62h1.53v1.53H7.62Z"></path><path fill="#000000" d="M6.1 22.86h1.52v1.52H6.1Z"></path><path fill="#000000" d="M6.1 16.76h1.52v1.53H6.1Z"></path><path fill="#000000" d="M4.57 15.24H6.1v1.52H4.57Z"></path><path fill="#000000" d="M3.05 6.1h4.57v1.52H3.05Z"></path><path fill="#000000" d="M1.53 13.72h3.04v1.52H1.53Z"></path><path fill="#000000" d="M3.05 10.67h1.52v1.52H3.05Z"></path><path fill="#000000" d="M1.53 7.62h1.52v1.53H1.53Z"></path><path fill="#000000" d="M0 9.15h1.53v4.57H0Z"></path></g></svg>