<svg xmlns="http://www.w3.org/2000/svg" viewBox="0 0 32 32"><title>music-microphone-2</title><g><path fill="#000000" d="M24.38 10.67h-1.52V3.05h-1.53v13.71h1.53v-4.57h1.52v6.1h1.52V9.15h-1.52v1.52z"></path><path fill="#000000" d="M22.86 18.29h1.52v1.52h-1.52Z"></path><path fill="#000000" d="M21.33 19.81h1.53v1.53h-1.53Z"></path><path fill="#000000" d="M19.81 16.76h1.52v1.53h-1.52Z"></path><path fill="#000000" d="M19.81 1.53h1.52v1.52h-1.52Z"></path><path fill="#000000" d="M10.67 21.34v1.52h4.57v4.57h-4.57v1.53H7.62V32h16.76v-3.04h-3.05v-1.53h-4.57v-4.57h4.57v-1.52H10.67z"></path><path fill="#000000" d="M18.29 7.62h1.52v1.53h-1.52Z"></path><path fill="#000000" d="M18.29 4.57h1.52V6.1h-1.52Z"></path><path fill="#000000" d="M12.19 18.29h7.62v1.52h-7.62Z"></path><path fill="#000000" d="M15.24 9.15h1.52v1.52h-1.52Z"></path><path fill="#000000" d="M15.24 6.1h1.52v1.52h-1.52Z"></path><path fill="#000000" d="M15.24 3.05h1.52v1.52h-1.52Z"></path><path fill="#000000" d="M12.19 0h7.62v1.53h-7.62Z"></path><path fill="#000000" d="M12.19 7.62h1.52v1.53h-1.52Z"></path><path fill="#000000" d="M12.19 4.57h1.52V6.1h-1.52Z"></path><path fill="#000000" d="M10.67 16.76h1.52v1.53h-1.52Z"></path><path fill="#000000" d="M10.67 1.53h1.52v1.52h-1.52Z"></path><path fill="#000000" d="M9.14 19.81h1.53v1.53H9.14Z"></path><path fill="#000000" d="M7.62 18.29h1.52v1.52H7.62Z"></path><path fill="#000000" d="M7.62 12.19h1.52v4.57h1.53V3.05H9.14v7.62H7.62V9.15H6.1v9.14h1.52v-6.1z"></path></g></svg>