<svg width="14" height="14" viewBox="0 0 14 14" fill="none" xmlns="http://www.w3.org/2000/svg">
<path d="M5.1377 1.8042C5.70266 0.0654208 8.16258 0.0654202 8.72754 1.8042C9.11417 2.99365 10.2229 3.79932 11.4736 3.79932C13.3018 3.79942 14.0621 6.13878 12.583 7.21338C11.5711 7.94859 11.1477 9.25134 11.5342 10.4409C12.0991 12.1796 10.109 13.6257 8.62988 12.5513C7.61792 11.816 6.24731 11.816 5.23535 12.5513C3.75627 13.6257 1.76611 12.1796 2.33105 10.4409C2.71751 9.25134 2.29412 7.94859 1.28223 7.21338C-0.196833 6.13878 0.563432 3.79942 2.3916 3.79932C3.64234 3.79932 4.75107 2.99365 5.1377 1.8042Z" fill="#FFC83D" stroke="#AA3F55"/>
</svg>
