<?xml version="1.0" encoding="UTF-8"?>
<svg version="1.1" xmlns="http://www.w3.org/2000/svg" width="353" height="345">
<path d="M0 0 C18.81 0 37.62 0 57 0 C57 3.63 57 7.26 57 11 C59.36478516 10.98259766 59.36478516 10.98259766 61.77734375 10.96484375 C63.83072799 10.95546757 65.8841135 10.94636718 67.9375 10.9375 C68.97841797 10.92912109 70.01933594 10.92074219 71.09179688 10.91210938 C72.57583008 10.90727539 72.57583008 10.90727539 74.08984375 10.90234375 C75.00628662 10.89710693 75.92272949 10.89187012 76.86694336 10.88647461 C79 11 79 11 80 12 C80.4601125 15.32303475 80.70381212 18.65730818 81 22 C84.3 22.33 87.6 22.66 91 23 C91.33 26.63 91.66 30.26 92 34 C95.63 34 99.26 34 103 34 C103 41.26 103 48.52 103 56 C106.3 56 109.6 56 113 56 C114 57 114 57 114.12025452 59.28419495 C114.11803391 60.29457321 114.11581329 61.30495148 114.11352539 62.34594727 C114.11344986 63.4870546 114.11337433 64.62816193 114.11329651 65.80384827 C114.10813522 67.0454924 114.10297394 68.28713654 114.09765625 69.56640625 C114.09553383 71.46204567 114.09553383 71.46204567 114.09336853 73.39598083 C114.08870582 76.76124889 114.0797148 80.1264499 114.06866455 83.49169922 C114.05844846 86.9234967 114.05387049 90.35530109 114.04882812 93.78710938 C114.0377738 100.52475824 114.0210171 107.26237525 114 114 C109.05 114.495 109.05 114.495 104 115 C103.93941406 116.50433594 103.87882813 118.00867188 103.81640625 119.55859375 C103.73201957 121.51823989 103.64737065 123.47787476 103.5625 125.4375 C103.52318359 126.43072266 103.48386719 127.42394531 103.44335938 128.44726562 C103.40146484 129.39150391 103.35957031 130.33574219 103.31640625 131.30859375 C103.26141968 132.62041626 103.26141968 132.62041626 103.20532227 133.95874023 C103 136 103 136 102 137 C100.31816052 137.23287008 98.6287584 137.41264166 96.9375 137.5625 C94.4934375 137.7790625 94.4934375 137.7790625 92 138 C91.67 141.3 91.34 144.6 91 148 C87.37 148 83.74 148 80 148 C80.0309375 150.6915625 80.0309375 150.6915625 80.0625 153.4375 C80.0838122 155.29166122 80.07226502 157.14712498 80 159 C78.38219843 160.61780157 76.54364482 160.22272147 74.30859375 160.31640625 C72.89223633 160.37924805 72.89223633 160.37924805 71.44726562 160.44335938 C70.45404297 160.48267578 69.46082031 160.52199219 68.4375 160.5625 C67.44041016 160.60568359 66.44332031 160.64886719 65.41601562 160.69335938 C62.94418889 160.79980167 60.4721134 160.90043759 58 161 C57.67 164.3 57.34 167.6 57 171 C38.19 171 19.38 171 0 171 C0 167.37 0 163.74 0 160 C-1.49273437 160.01160156 -2.98546875 160.02320313 -4.5234375 160.03515625 C-6.47395709 160.04453375 -8.42447802 160.05363399 -10.375 160.0625 C-11.35984375 160.07087891 -12.3446875 160.07925781 -13.359375 160.08789062 C-14.30039063 160.09111328 -15.24140625 160.09433594 -16.2109375 160.09765625 C-17.08024902 160.10289307 -17.94956055 160.10812988 -18.84521484 160.11352539 C-21 160 -21 160 -23 159 C-23 155.37 -23 151.74 -23 148 C-26.63 148 -30.26 148 -34 148 C-34 144.37 -34 140.74 -34 137 C-36.6915625 137.0309375 -36.6915625 137.0309375 -39.4375 137.0625 C-41.29166122 137.0838122 -43.14712498 137.07226502 -45 137 C-46 136 -46 136 -46.11352539 133.86694336 C-46.10828857 132.95050049 -46.10305176 132.03405762 -46.09765625 131.08984375 C-46.09443359 130.10048828 -46.09121094 129.11113281 -46.08789062 128.09179688 C-46.07951172 127.05087891 -46.07113281 126.00996094 -46.0625 124.9375 C-46.05798828 123.89271484 -46.05347656 122.84792969 -46.04882812 121.77148438 C-46.03699913 119.1809334 -46.02051689 116.59049441 -46 114 C-46.71027344 114.08378906 -47.42054687 114.16757813 -48.15234375 114.25390625 C-49.07144531 114.35574219 -49.99054688 114.45757812 -50.9375 114.5625 C-52.31228516 114.71912109 -52.31228516 114.71912109 -53.71484375 114.87890625 C-54.46894531 114.91886719 -55.22304687 114.95882812 -56 115 C-57 114 -57 114 -57.12025452 111.71580505 C-57.11803391 110.70542679 -57.11581329 109.69504852 -57.11352539 108.65405273 C-57.11344986 107.5129454 -57.11337433 106.37183807 -57.11329651 105.19615173 C-57.10813522 103.9545076 -57.10297394 102.71286346 -57.09765625 101.43359375 C-57.0962413 100.16983414 -57.09482635 98.90607452 -57.09336853 97.60401917 C-57.08870582 94.23875111 -57.0797148 90.8735501 -57.06866455 87.50830078 C-57.05844846 84.0765033 -57.05387049 80.64469891 -57.04882812 77.21289062 C-57.0377738 70.47524176 -57.0210171 63.73762475 -57 57 C-54.24921116 56.08307039 -52.64051087 55.89113917 -49.8125 55.9375 C-48.554375 55.958125 -47.29625 55.97875 -46 56 C-46.00523682 55.36908447 -46.01047363 54.73816895 -46.01586914 54.08813477 C-46.03657826 51.24626653 -46.04964066 48.40441412 -46.0625 45.5625 C-46.07087891 44.56927734 -46.07925781 43.57605469 -46.08789062 42.55273438 C-46.09111328 41.60849609 -46.09433594 40.66425781 -46.09765625 39.69140625 C-46.10289307 38.81685791 -46.10812988 37.94230957 -46.11352539 37.04125977 C-46 35 -46 35 -45 34 C-42.01110641 33.54234333 -39.01030352 33.29679049 -36 33 C-35.34 29.7 -34.68 26.4 -34 23 C-30.7 22.34 -27.4 21.68 -24 21 C-23.855625 19.535625 -23.71125 18.07125 -23.5625 16.5625 C-23.125 12.125 -23.125 12.125 -22 11 C-20.43827255 10.91314397 -18.87270656 10.89297781 -17.30859375 10.90234375 C-16.36435547 10.90556641 -15.42011719 10.90878906 -14.44726562 10.91210938 C-13.45404297 10.92048828 -12.46082031 10.92886719 -11.4375 10.9375 C-10.44041016 10.94201172 -9.44332031 10.94652344 -8.41601562 10.95117188 C-5.94398513 10.96299977 -3.47198528 10.98093585 -1 11 C-0.67 7.37 -0.34 3.74 0 0 Z " fill="#FCDC3D" transform="translate(145,93)"/>
<path d="M0 0 C18.81 0 37.62 0 57 0 C57 3.63 57 7.26 57 11 C59.36478516 10.98259766 59.36478516 10.98259766 61.77734375 10.96484375 C63.83072799 10.95546757 65.8841135 10.94636718 67.9375 10.9375 C68.97841797 10.92912109 70.01933594 10.92074219 71.09179688 10.91210938 C72.57583008 10.90727539 72.57583008 10.90727539 74.08984375 10.90234375 C75.00628662 10.89710693 75.92272949 10.89187012 76.86694336 10.88647461 C79 11 79 11 80 12 C80.4601125 15.32303475 80.70381212 18.65730818 81 22 C84.3 22.33 87.6 22.66 91 23 C91.33 26.63 91.66 30.26 92 34 C95.63 34 99.26 34 103 34 C103 41.26 103 48.52 103 56 C106.3 56 109.6 56 113 56 C114 57 114 57 114.12025452 59.28419495 C114.11803391 60.29457321 114.11581329 61.30495148 114.11352539 62.34594727 C114.11344986 63.4870546 114.11337433 64.62816193 114.11329651 65.80384827 C114.10813522 67.0454924 114.10297394 68.28713654 114.09765625 69.56640625 C114.09553383 71.46204567 114.09553383 71.46204567 114.09336853 73.39598083 C114.08870582 76.76124889 114.0797148 80.1264499 114.06866455 83.49169922 C114.05844846 86.9234967 114.05387049 90.35530109 114.04882812 93.78710938 C114.0377738 100.52475824 114.0210171 107.26237525 114 114 C109.05 114.495 109.05 114.495 104 115 C103.93941406 116.50433594 103.87882813 118.00867188 103.81640625 119.55859375 C103.73201957 121.51823989 103.64737065 123.47787476 103.5625 125.4375 C103.52318359 126.43072266 103.48386719 127.42394531 103.44335938 128.44726562 C103.40146484 129.39150391 103.35957031 130.33574219 103.31640625 131.30859375 C103.26141968 132.62041626 103.26141968 132.62041626 103.20532227 133.95874023 C103 136 103 136 102 137 C100.31816052 137.23287008 98.6287584 137.41264166 96.9375 137.5625 C94.4934375 137.7790625 94.4934375 137.7790625 92 138 C91.67 141.3 91.34 144.6 91 148 C87.37 148 83.74 148 80 148 C80.0309375 150.6915625 80.0309375 150.6915625 80.0625 153.4375 C80.0838122 155.29166122 80.07226502 157.14712498 80 159 C78.38219843 160.61780157 76.54364482 160.22272147 74.30859375 160.31640625 C72.89223633 160.37924805 72.89223633 160.37924805 71.44726562 160.44335938 C70.45404297 160.48267578 69.46082031 160.52199219 68.4375 160.5625 C67.44041016 160.60568359 66.44332031 160.64886719 65.41601562 160.69335938 C62.94418889 160.79980167 60.4721134 160.90043759 58 161 C57.67 164.3 57.34 167.6 57 171 C38.19 171 19.38 171 0 171 C0 167.37 0 163.74 0 160 C-1.49273437 160.01160156 -2.98546875 160.02320313 -4.5234375 160.03515625 C-6.47395709 160.04453375 -8.42447802 160.05363399 -10.375 160.0625 C-11.35984375 160.07087891 -12.3446875 160.07925781 -13.359375 160.08789062 C-14.30039063 160.09111328 -15.24140625 160.09433594 -16.2109375 160.09765625 C-17.08024902 160.10289307 -17.94956055 160.10812988 -18.84521484 160.11352539 C-21 160 -21 160 -23 159 C-23 155.37 -23 151.74 -23 148 C-26.63 148 -30.26 148 -34 148 C-34 144.37 -34 140.74 -34 137 C-36.6915625 137.0309375 -36.6915625 137.0309375 -39.4375 137.0625 C-41.29166122 137.0838122 -43.14712498 137.07226502 -45 137 C-46 136 -46 136 -46.11352539 133.86694336 C-46.10828857 132.95050049 -46.10305176 132.03405762 -46.09765625 131.08984375 C-46.09443359 130.10048828 -46.09121094 129.11113281 -46.08789062 128.09179688 C-46.07951172 127.05087891 -46.07113281 126.00996094 -46.0625 124.9375 C-46.05798828 123.89271484 -46.05347656 122.84792969 -46.04882812 121.77148438 C-46.03699913 119.1809334 -46.02051689 116.59049441 -46 114 C-46.71027344 114.08378906 -47.42054687 114.16757813 -48.15234375 114.25390625 C-49.07144531 114.35574219 -49.99054688 114.45757812 -50.9375 114.5625 C-52.31228516 114.71912109 -52.31228516 114.71912109 -53.71484375 114.87890625 C-54.46894531 114.91886719 -55.22304687 114.95882812 -56 115 C-57 114 -57 114 -57.12025452 111.71580505 C-57.11803391 110.70542679 -57.11581329 109.69504852 -57.11352539 108.65405273 C-57.11344986 107.5129454 -57.11337433 106.37183807 -57.11329651 105.19615173 C-57.10813522 103.9545076 -57.10297394 102.71286346 -57.09765625 101.43359375 C-57.0962413 100.16983414 -57.09482635 98.90607452 -57.09336853 97.60401917 C-57.08870582 94.23875111 -57.0797148 90.8735501 -57.06866455 87.50830078 C-57.05844846 84.0765033 -57.05387049 80.64469891 -57.04882812 77.21289062 C-57.0377738 70.47524176 -57.0210171 63.73762475 -57 57 C-54.24921116 56.08307039 -52.64051087 55.89113917 -49.8125 55.9375 C-48.554375 55.958125 -47.29625 55.97875 -46 56 C-46.00523682 55.36908447 -46.01047363 54.73816895 -46.01586914 54.08813477 C-46.03657826 51.24626653 -46.04964066 48.40441412 -46.0625 45.5625 C-46.07087891 44.56927734 -46.07925781 43.57605469 -46.08789062 42.55273438 C-46.09111328 41.60849609 -46.09433594 40.66425781 -46.09765625 39.69140625 C-46.10289307 38.81685791 -46.10812988 37.94230957 -46.11352539 37.04125977 C-46 35 -46 35 -45 34 C-42.01110641 33.54234333 -39.01030352 33.29679049 -36 33 C-35.34 29.7 -34.68 26.4 -34 23 C-30.7 22.34 -27.4 21.68 -24 21 C-23.855625 19.535625 -23.71125 18.07125 -23.5625 16.5625 C-23.125 12.125 -23.125 12.125 -22 11 C-20.43827255 10.91314397 -18.87270656 10.89297781 -17.30859375 10.90234375 C-16.36435547 10.90556641 -15.42011719 10.90878906 -14.44726562 10.91210938 C-13.45404297 10.92048828 -12.46082031 10.92886719 -11.4375 10.9375 C-10.44041016 10.94201172 -9.44332031 10.94652344 -8.41601562 10.95117188 C-5.94398513 10.96299977 -3.47198528 10.98093585 -1 11 C-0.67 7.37 -0.34 3.74 0 0 Z M0 12 C0 15.63 0 19.26 0 23 C-7.26 23 -14.52 23 -22 23 C-22 26.96 -22 30.92 -22 35 C-25.63 35 -29.26 35 -33 35 C-33 42.26 -33 49.52 -33 57 C-36.96 57 -40.92 57 -45 57 C-45 75.81 -45 94.62 -45 114 C-41.37 114 -37.74 114 -34 114 C-34 121.26 -34 128.52 -34 136 C-30.04 136 -26.08 136 -22 136 C-22 139.63 -22 143.26 -22 147 C-14.74 147 -7.48 147 0 147 C0 150.96 0 154.92 0 159 C18.81 159 37.62 159 57 159 C57 155.04 57 151.08 57 147 C64.26 147 71.52 147 79 147 C79 143.37 79 139.74 79 136 C82.63 136 86.26 136 90 136 C90 128.74 90 121.48 90 114 C93.96 114 97.92 114 102 114 C102 95.19 102 76.38 102 57 C98.37 57 94.74 57 91 57 C91 49.41 91 41.82 91 34 C87.37 34 83.74 34 80 34 C80 30.37 80 26.74 80 23 C72.41 23 64.82 23 57 23 C57 19.37 57 15.74 57 12 C38.19 12 19.38 12 0 12 Z " fill="#231F1F" transform="translate(145,93)"/>
<path d="M0 0 C7.59 0 15.18 0 23 0 C23 3.63 23 7.26 23 11 C26.63 11 30.26 11 34 11 C34 18.59 34 26.18 34 34 C37.63 34 41.26 34 45 34 C45 52.81 45 71.62 45 91 C41.04 91 37.08 91 33 91 C33 98.26 33 105.52 33 113 C29.37 113 25.74 113 22 113 C22 116.63 22 120.26 22 124 C14.74 124 7.48 124 0 124 C0 127.96 0 131.92 0 136 C-18.81 136 -37.62 136 -57 136 C-57 132.04 -57 128.08 -57 124 C-38.52 124 -20.04 124 -1 124 C-1 120.37 -1 116.74 -1 113 C2.96 113 6.92 113 11 113 C11 109.37 11 105.74 11 102 C14.63 102 18.26 102 22 102 C22 75.93 22 49.86 22 23 C18.37 23 14.74 23 11 23 C11 19.37 11 15.74 11 12 C7.37 12 3.74 12 0 12 C0 8.04 0 4.08 0 0 Z " fill="#FAA73E" transform="translate(202,116)"/>
<path d="M0 0 C1.40282227 -0.00193359 1.40282227 -0.00193359 2.83398438 -0.00390625 C4.3102832 0.00189453 4.3102832 0.00189453 5.81640625 0.0078125 C6.79673828 0.00394531 7.77707031 0.00007813 8.78710938 -0.00390625 C9.72361328 -0.00261719 10.66011719 -0.00132813 11.625 0 C12.91942017 0.00169189 12.91942017 0.00169189 14.23999023 0.00341797 C16.37890625 0.1328125 16.37890625 0.1328125 18.37890625 1.1328125 C18.37890625 4.7628125 18.37890625 8.3928125 18.37890625 12.1328125 C22.00890625 12.1328125 25.63890625 12.1328125 29.37890625 12.1328125 C29.37890625 15.7628125 29.37890625 19.3928125 29.37890625 23.1328125 C33.00890625 23.1328125 36.63890625 23.1328125 40.37890625 23.1328125 C40.37890625 27.4228125 40.37890625 31.7128125 40.37890625 36.1328125 C36.74890625 36.1328125 33.11890625 36.1328125 29.37890625 36.1328125 C29.37890625 39.7628125 29.37890625 43.3928125 29.37890625 47.1328125 C21.45890625 47.1328125 13.53890625 47.1328125 5.37890625 47.1328125 C5.37890625 43.5028125 5.37890625 39.8728125 5.37890625 36.1328125 C1.74890625 36.1328125 -1.88109375 36.1328125 -5.62109375 36.1328125 C-6.67083189 31.93385995 -6.3490453 29.33875476 -5.62109375 25.1328125 C-6.40355469 25.14441406 -7.18601562 25.15601562 -7.9921875 25.16796875 C-9.00410156 25.17699219 -10.01601563 25.18601562 -11.05859375 25.1953125 C-12.06792969 25.20691406 -13.07726563 25.21851562 -14.1171875 25.23046875 C-16.62109375 25.1328125 -16.62109375 25.1328125 -17.62109375 24.1328125 C-17.71960546 22.30165367 -17.75082004 20.46661317 -17.74609375 18.6328125 C-17.74867187 17.6325 -17.75125 16.6321875 -17.75390625 15.6015625 C-17.62109375 13.1328125 -17.62109375 13.1328125 -16.62109375 12.1328125 C-14.93500409 12.06075739 -13.24608716 12.04895182 -11.55859375 12.0703125 C-10.63949219 12.07933594 -9.72039063 12.08835937 -8.7734375 12.09765625 C-8.06316406 12.10925781 -7.35289063 12.12085937 -6.62109375 12.1328125 C-6.56050781 11.35035156 -6.49992187 10.56789063 -6.4375 9.76171875 C-6.35371094 8.74980469 -6.26992187 7.73789063 -6.18359375 6.6953125 C-6.10238281 5.68597656 -6.02117187 4.67664063 -5.9375 3.63671875 C-5.40238888 -0.59792606 -3.89020474 0.00509142 0 0 Z " fill="#2C2716" transform="translate(71.62109375,69.8671875)"/>
<path d="M0 0 C3.62544051 -0.08063171 7.24910455 -0.14032292 10.875 -0.1875 C12.42380859 -0.22520508 12.42380859 -0.22520508 14.00390625 -0.26367188 C14.99003906 -0.27333984 15.97617187 -0.28300781 16.9921875 -0.29296875 C17.90339355 -0.3086792 18.81459961 -0.32438965 19.75341797 -0.34057617 C20.49479004 -0.22818604 21.23616211 -0.1157959 22 0 C24.67927341 4.01891012 24.15601248 6.24161923 24 11 C24.71027344 11.06058594 25.42054688 11.12117188 26.15234375 11.18359375 C27.07144531 11.26738281 27.99054688 11.35117188 28.9375 11.4375 C30.31228516 11.55931641 30.31228516 11.55931641 31.71484375 11.68359375 C34 12 34 12 35 13 C35.09854655 14.64340867 35.12972411 16.2911461 35.125 17.9375 C35.12886719 19.28134766 35.12886719 19.28134766 35.1328125 20.65234375 C35 23 35 23 34 25 C30.37 25 26.74 25 23 25 C23.185625 26.629375 23.37125 28.25875 23.5625 29.9375 C23.75422324 31.62040398 23.91036938 33.30858344 24 35 C23 36 23 36 20.49609375 36.09765625 C17.6640625 36.06510417 14.83203125 36.03255208 12 36 C12 39.63 12 43.26 12 47 C4.08 47 -3.84 47 -12 47 C-12 43.37 -12 39.74 -12 36 C-15.63 36 -19.26 36 -23 36 C-23 31.71 -23 27.42 -23 23 C-19.37 23 -15.74 23 -12 23 C-12 19.37 -12 15.74 -12 12 C-8.37 12 -4.74 12 -1 12 C-0.67 8.04 -0.34 4.08 0 0 Z " fill="#241D1C" transform="translate(258,70)"/>
<path d="M0 0 C7.92 0 15.84 0 24 0 C24 3.63 24 7.26 24 11 C27.63 11 31.26 11 35 11 C35 15.29 35 19.58 35 24 C31.37 24 27.74 24 24 24 C24 27.63 24 31.26 24 35 C20.37 35 16.74 35 13 35 C13 38.63 13 42.26 13 46 C5.08 46 -2.84 46 -11 46 C-12 37 -12 37 -11 35 C-11.78246094 35.01160156 -12.56492187 35.02320313 -13.37109375 35.03515625 C-14.38300781 35.04417969 -15.39492188 35.05320312 -16.4375 35.0625 C-17.44683594 35.07410156 -18.45617188 35.08570313 -19.49609375 35.09765625 C-22 35 -22 35 -23 34 C-23.07226502 32.14712498 -23.0838122 30.29166122 -23.0625 28.4375 C-23.05347656 27.42558594 -23.04445312 26.41367187 -23.03515625 25.37109375 C-23.02355469 24.58863281 -23.01195312 23.80617188 -23 23 C-19.7 22.67 -16.4 22.34 -13 22 C-12.34 18.37 -11.68 14.74 -11 11 C-7.37 11 -3.74 11 0 11 C0 7.37 0 3.74 0 0 Z " fill="#202020" transform="translate(77,240)"/>
<path d="M0 0 C7.92 0 15.84 0 24 0 C24 3.63 24 7.26 24 11 C27.63 11 31.26 11 35 11 C35.495 16.445 35.495 16.445 36 22 C39.63 22.33 43.26 22.66 47 23 C47.125 31.625 47.125 31.625 46 35 C42.7 35 39.4 35 36 35 C36.020625 36.258125 36.04125 37.51625 36.0625 38.8125 C36.10886083 41.64051087 35.91692961 43.24921116 35 46 C27.41 46 19.82 46 12 46 C10.8422494 42.52674819 10.93133348 39.63932552 11 36 C7.37 35.67 3.74 35.34 0 35 C0 31.37 0 27.74 0 24 C-2.4440625 24.0309375 -2.4440625 24.0309375 -4.9375 24.0625 C-6.62499341 24.08386068 -8.31391034 24.07205511 -10 24 C-11 23 -11 23 -11.09765625 20.27734375 C-11.08605469 19.17519531 -11.07445312 18.07304687 -11.0625 16.9375 C-11.05347656 15.83277344 -11.04445312 14.72804687 -11.03515625 13.58984375 C-11.02355469 12.73519531 -11.01195312 11.88054687 -11 11 C-7.37 11 -3.74 11 0 11 C0 7.37 0 3.74 0 0 Z " fill="#3D3516" transform="translate(246,240)"/>
<path d="M0 0 C7.92 0 15.84 0 24 0 C24 3.63 24 7.26 24 11 C27.63 11 31.26 11 35 11 C35 15.29 35 19.58 35 24 C31.37 24 27.74 24 24 24 C24 27.63 24 31.26 24 35 C16.08 35 8.16 35 0 35 C0 31.37 0 27.74 0 24 C-3.63 24 -7.26 24 -11 24 C-11 19.71 -11 15.42 -11 11 C-7.37 11 -3.74 11 0 11 C0 7.37 0 3.74 0 0 Z " fill="#3C2F1E" transform="translate(280,161)"/>
<path d="M0 0 C2.02408755 0.09002398 4.04544287 0.24641038 6.0625 0.4375 C7.16722656 0.53933594 8.27195313 0.64117187 9.41015625 0.74609375 C10.26480469 0.82988281 11.11945313 0.91367187 12 1 C12 4.63 12 8.26 12 12 C15.63 12 19.26 12 23 12 C23 19.92 23 27.84 23 36 C19.37 36 15.74 36 12 36 C12 39.63 12 43.26 12 47 C10.02090602 47.02686553 8.04171029 47.04633375 6.0625 47.0625 C4.96035156 47.07410156 3.85820312 47.08570313 2.72265625 47.09765625 C0 47 0 47 -1 46 C-1.14257189 42.66381769 -1.04228157 39.34024394 -1 36 C-4.63 36 -8.26 36 -12 36 C-12 28.08 -12 20.16 -12 12 C-8.37 12 -4.74 12 -1 12 C-1.020625 10.205625 -1.04125 8.41125 -1.0625 6.5625 C-1.0838122 4.70833878 -1.07226502 2.85287502 -1 1 C-0.67 0.67 -0.34 0.34 0 0 Z " fill="#21201F" transform="translate(168,36)"/>
<path d="M0 0 C0.9583374 0.00523682 1.9166748 0.01047363 2.90405273 0.01586914 C4.45576172 0.02070313 4.45576172 0.02070313 6.03881836 0.02563477 C7.12743164 0.03401367 8.21604492 0.04239258 9.33764648 0.05102539 C10.97636719 0.05779297 10.97636719 0.05779297 12.64819336 0.06469727 C15.3572008 0.07652699 18.06618028 0.09446308 20.77514648 0.11352539 C20.77514648 3.74352539 20.77514648 7.37352539 20.77514648 11.11352539 C24.40514648 11.11352539 28.03514648 11.11352539 31.77514648 11.11352539 C31.77514648 15.40352539 31.77514648 19.69352539 31.77514648 24.11352539 C28.14514648 24.11352539 24.51514648 24.11352539 20.77514648 24.11352539 C20.77514648 27.74352539 20.77514648 31.37352539 20.77514648 35.11352539 C16.96260026 35.14035332 13.15024037 35.16028017 9.33764648 35.17602539 C8.2490332 35.1844043 7.16041992 35.1927832 6.03881836 35.20141602 C5.0043457 35.20463867 3.96987305 35.20786133 2.90405273 35.21118164 C1.94571533 35.21641846 0.98737793 35.22165527 0 35.22705078 C-2.22485352 35.11352539 -2.22485352 35.11352539 -3.22485352 34.11352539 C-3.36742541 30.77734308 -3.26713508 27.45376933 -3.22485352 24.11352539 C-6.85485352 24.11352539 -10.48485352 24.11352539 -14.22485352 24.11352539 C-14.22485352 19.82352539 -14.22485352 15.53352539 -14.22485352 11.11352539 C-10.59485352 11.11352539 -6.96485352 11.11352539 -3.22485352 11.11352539 C-3.24547852 9.48415039 -3.26610352 7.85477539 -3.28735352 6.17602539 C-3.30871419 4.48853198 -3.29690863 2.79961505 -3.22485352 1.11352539 C-2.22485352 0.11352539 -2.22485352 0.11352539 0 0 Z " fill="#231E1D" transform="translate(46.224853515625,160.886474609375)"/>
<path d="M0 0 C1.65322266 0.01740234 1.65322266 0.01740234 3.33984375 0.03515625 C4.44457031 0.04417969 5.54929688 0.05320312 6.6875 0.0625 C7.54214844 0.07410156 8.39679688 0.08570313 9.27734375 0.09765625 C9.27734375 3.72765625 9.27734375 7.35765625 9.27734375 11.09765625 C12.90734375 11.09765625 16.53734375 11.09765625 20.27734375 11.09765625 C20.27734375 19.01765625 20.27734375 26.93765625 20.27734375 35.09765625 C16.64734375 35.09765625 13.01734375 35.09765625 9.27734375 35.09765625 C9.27734375 38.72765625 9.27734375 42.35765625 9.27734375 46.09765625 C7.29824977 46.12452178 5.31905404 46.14399 3.33984375 46.16015625 C2.23769531 46.17175781 1.13554687 46.18335938 0 46.1953125 C-2.72265625 46.09765625 -2.72265625 46.09765625 -3.72265625 45.09765625 C-3.86458962 42.09434607 -3.76502003 39.10548491 -3.72265625 36.09765625 C-7.35265625 35.76765625 -10.98265625 35.43765625 -14.72265625 35.09765625 C-14.72265625 27.17765625 -14.72265625 19.25765625 -14.72265625 11.09765625 C-11.09265625 11.09765625 -7.46265625 11.09765625 -3.72265625 11.09765625 C-3.74328125 9.46828125 -3.76390625 7.83890625 -3.78515625 6.16015625 C-3.80651693 4.47266284 -3.79471136 2.78374591 -3.72265625 1.09765625 C-2.72265625 0.09765625 -2.72265625 0.09765625 0 0 Z " fill="#24211F" transform="translate(170.72265625,273.90234375)"/>
<path d="M0 0 C0.66 0.33 1.32 0.66 2 1 C3.37129234 1.11226809 4.74760252 1.16647557 6.12329102 1.18945312 C6.97500381 1.20617065 7.82671661 1.22288818 8.70423889 1.2401123 C10.09007423 1.26047546 10.09007423 1.26047546 11.50390625 1.28125 C12.45635727 1.29965942 13.40880829 1.31806885 14.39012146 1.33703613 C17.44751697 1.39588957 20.50497086 1.44858873 23.5625 1.5 C26.5950285 1.55161545 29.62748784 1.60472885 32.65989685 1.66296387 C34.5475718 1.69919499 36.43532294 1.73171654 38.32313538 1.7598877 C43.94274926 1.86740479 49.42217573 2.3006928 55 3 C55 3.33 55 3.66 55 4 C36.52 4 18.04 4 -1 4 C-1 7.63 -1 11.26 -1 15 C-8.26 15 -15.52 15 -23 15 C-23 18.96 -23 22.92 -23 27 C-26.63 27 -30.26 27 -34 27 C-34 34.26 -34 41.52 -34 49 C-37.96 49 -41.92 49 -46 49 C-46 67.48 -46 85.96 -46 105 C-46.33 105 -46.66 105 -47 105 C-47.17087131 97.2670375 -47.33020701 89.53389388 -47.48217773 81.80053711 C-47.53496972 79.17939083 -47.59023431 76.55829297 -47.64819336 73.93725586 C-47.92875483 61.18024764 -48.18524863 48.4504652 -47.58984375 35.69921875 C-47.54896133 34.82078812 -47.50807892 33.94235748 -47.46595764 33.03730774 C-47.13517519 27.13517519 -47.13517519 27.13517519 -46 26 C-43.01110641 25.54234333 -40.01030352 25.29679049 -37 25 C-36.34 21.7 -35.68 18.4 -35 15 C-31.7 14.34 -28.4 13.68 -25 13 C-24.855625 11.535625 -24.71125 10.07125 -24.5625 8.5625 C-24.125 4.125 -24.125 4.125 -23 3 C-21.29436222 2.84259395 -19.58272756 2.74906608 -17.87109375 2.68359375 C-16.83662109 2.64169922 -15.80214844 2.59980469 -14.73632812 2.55664062 C-13.1034082 2.49766602 -13.1034082 2.49766602 -11.4375 2.4375 C-9.7987793 2.37272461 -9.7987793 2.37272461 -8.12695312 2.30664062 C-5.41810436 2.20017932 -2.70916008 2.09816484 0 2 C0 1.34 0 0.68 0 0 Z " fill="#251F16" transform="translate(146,101)"/>
<path d="M0 0 C7.59 0 15.18 0 23 0 C23 15.18 23 30.36 23 46 C15.41 46 7.82 46 0 46 C0 42.04 0 38.08 0 34 C3.96 34 7.92 34 12 34 C11.67 26.74 11.34 19.48 11 12 C7.37 11.67 3.74 11.34 0 11 C0 7.37 0 3.74 0 0 Z " fill="#353225" transform="translate(179,150)"/>
<path d="M0 0 C7.26 0 14.52 0 22 0 C22 3.63 22 7.26 22 11 C18.37 11 14.74 11 11 11 C11 18.59 11 26.18 11 34 C14.63 34 18.26 34 22 34 C22 37.96 22 41.92 22 46 C14.74 46 7.48 46 0 46 C0 30.82 0 15.64 0 0 Z " fill="#322E23" transform="translate(123,150)"/>
<path d="M0 0 C1.50046875 0.00386719 1.50046875 0.00386719 3.03125 0.0078125 C4.0315625 0.00523437 5.031875 0.00265625 6.0625 0 C8.53125 0.1328125 8.53125 0.1328125 9.53125 1.1328125 C9.60369053 3.15245449 9.61502188 5.17448374 9.59375 7.1953125 C9.58472656 8.30003906 9.57570312 9.40476563 9.56640625 10.54296875 C9.55480469 11.39761719 9.54320312 12.25226563 9.53125 13.1328125 C5.90125 13.1328125 2.27125 13.1328125 -1.46875 13.1328125 C-1.46875 17.0928125 -1.46875 21.0528125 -1.46875 25.1328125 C-6.29255802 25.1574644 -11.11632967 25.17564943 -15.94018555 25.18774414 C-17.58244464 25.19278424 -19.22469923 25.19961628 -20.86694336 25.20825195 C-23.22250479 25.22033176 -25.57800709 25.22604389 -27.93359375 25.23046875 C-28.67214096 25.23563004 -29.41068817 25.24079132 -30.1716156 25.24610901 C-31.93773088 25.246305 -33.70372146 25.19475969 -35.46875 25.1328125 C-35.79875 24.8028125 -36.12875 24.4728125 -36.46875 24.1328125 C-36.46875 20.1728125 -36.46875 16.2128125 -36.46875 12.1328125 C-25.90875 11.8028125 -15.34875 11.4728125 -4.46875 11.1328125 C-4.13875 7.8328125 -3.80875 4.5328125 -3.46875 1.1328125 C-2.46875 0.1328125 -2.46875 0.1328125 0 0 Z " fill="#EC6731" transform="translate(192.46875,204.8671875)"/>
<path d="M0 0 C0.9583374 0.00523682 1.9166748 0.01047363 2.90405273 0.01586914 C4.45576172 0.02070313 4.45576172 0.02070313 6.03881836 0.02563477 C7.12743164 0.03401367 8.21604492 0.04239258 9.33764648 0.05102539 C10.97636719 0.05779297 10.97636719 0.05779297 12.64819336 0.06469727 C15.35723144 0.07652713 18.06616248 0.09300996 20.77514648 0.11352539 C21.6315129 8.20143046 21.53370922 14.76933529 20.77514648 23.11352539 C12.85514648 23.11352539 4.93514648 23.11352539 -3.22485352 23.11352539 C-4.0047245 15.66142485 -4.62347774 8.52623376 -3.22485352 1.11352539 C-2.22485352 0.11352539 -2.22485352 0.11352539 0 0 Z " fill="#221F1F" transform="translate(46.224853515625,160.886474609375)"/>
<path d="M0 0 C3.96 0.33 7.92 0.66 12 1 C12.125 9.625 12.125 9.625 11 13 C7.7 13 4.4 13 1 13 C1.020625 14.258125 1.04125 15.51625 1.0625 16.8125 C1.10886083 19.64051087 0.91692961 21.24921116 0 24 C-7.59 24 -15.18 24 -23 24 C-24.1577506 20.52674819 -24.06866652 17.63932552 -24 14 C-27.63 13.67 -31.26 13.34 -35 13 C-35 9.7 -35 6.4 -35 3 C-31.37 3 -27.74 3 -24 3 C-24 5.97 -24 8.94 -24 12 C-16.08 12 -8.16 12 0 12 C0 8.04 0 4.08 0 0 Z " fill="#24211D" transform="translate(281,262)"/>
<path d="M0 0 C7.26 0 14.52 0 22 0 C22 3.63 22 7.26 22 11 C25.96 11 29.92 11 34 11 C34 14.63 34 18.26 34 22 C26.41 22 18.82 22 11 22 C11 18.37 11 14.74 11 11 C7.37 11 3.74 11 0 11 C0 7.37 0 3.74 0 0 Z " fill="#F9DA42" transform="translate(247,252)"/>
<path d="M0 0 C7.59 0 15.18 0 23 0 C23 3.63 23 7.26 23 11 C19.04 11 15.08 11 11 11 C11 14.63 11 18.26 11 22 C3.74 22 -3.52 22 -11 22 C-11 18.37 -11 14.74 -11 11 C-7.37 11 -3.74 11 0 11 C0 7.37 0 3.74 0 0 Z " fill="#F6D945" transform="translate(258,83)"/>
<path d="M0 0 C7.26 0 14.52 0 22 0 C22 3.63 22 7.26 22 11 C18.37 11 14.74 11 11 11 C11 14.63 11 18.26 11 22 C3.74 22 -3.52 22 -11 22 C-11 18.37 -11 14.74 -11 11 C-7.37 11 -3.74 11 0 11 C0 7.37 0 3.74 0 0 Z " fill="#FDDE3C" transform="translate(78,252)"/>
<path d="M0 0 C7.26 0 14.52 0 22 0 C22 3.63 22 7.26 22 11 C25.63 11 29.26 11 33 11 C33 14.63 33 18.26 33 22 C25.74 22 18.48 22 11 22 C11 18.04 11 14.08 11 10 C7.37 10 3.74 10 0 10 C0 6.7 0 3.4 0 0 Z " fill="#F8DA43" transform="translate(67,83)"/>
<path d="M0 0 C3.3 0 6.6 0 10 0 C10 7.26 10 14.52 10 22 C13.96 22 17.92 22 22 22 C22 25.63 22 29.26 22 33 C29.26 33 36.52 33 44 33 C44 36.96 44 40.92 44 45 C43.67 45 43.34 45 43 45 C43 41.7 43 38.4 43 35 C41.57945312 35.08378906 40.15890625 35.16757813 38.6953125 35.25390625 C36.83855767 35.3570593 34.98178592 35.45990814 33.125 35.5625 C31.71927734 35.64661133 31.71927734 35.64661133 30.28515625 35.73242188 C29.38925781 35.78076172 28.49335938 35.82910156 27.5703125 35.87890625 C26.74289551 35.9260376 25.91547852 35.97316895 25.06298828 36.02172852 C23 36 23 36 21 35 C19.12943209 34.7724985 17.25314042 34.59037189 15.375 34.4375 C13.60125 34.293125 11.8275 34.14875 10 34 C10 30.37 10 26.74 10 23 C7.3084375 23.0309375 7.3084375 23.0309375 4.5625 23.0625 C2.70833878 23.0838122 0.85287502 23.07226502 -1 23 C-2 22 -2 22 -2.0625 18.4375 C-2.041875 17.303125 -2.02125 16.16875 -2 15 C-1.67 15 -1.34 15 -1 15 C-0.67 10.05 -0.34 5.1 0 0 Z " fill="#231D1A" transform="translate(101,207)"/>
<path d="M0 0 C7.92 0 15.84 0 24 0 C24 3.63 24 7.26 24 11 C16.41 11.33 8.82 11.66 1 12 C0.67 15.96 0.34 19.92 0 24 C-3.63 24 -7.26 24 -11 24 C-11 19.71 -11 15.42 -11 11 C-7.37 11 -3.74 11 0 11 C0 7.37 0 3.74 0 0 Z " fill="#20201F" transform="translate(280,161)"/>
<path d="M0 0 C1.40282227 -0.00193359 1.40282227 -0.00193359 2.83398438 -0.00390625 C4.3102832 0.00189453 4.3102832 0.00189453 5.81640625 0.0078125 C6.79673828 0.00394531 7.77707031 0.00007813 8.78710938 -0.00390625 C9.72361328 -0.00261719 10.66011719 -0.00132813 11.625 0 C12.91942017 0.00169189 12.91942017 0.00169189 14.23999023 0.00341797 C16.37890625 0.1328125 16.37890625 0.1328125 18.37890625 1.1328125 C17.71890625 4.7628125 17.05890625 8.3928125 16.37890625 12.1328125 C9.11890625 12.4628125 1.85890625 12.7928125 -5.62109375 13.1328125 C-5.95109375 17.0928125 -6.28109375 21.0528125 -6.62109375 25.1328125 C-14.3359375 25.23046875 -14.3359375 25.23046875 -16.62109375 25.1328125 C-17.62109375 24.1328125 -17.62109375 24.1328125 -17.75390625 21.6640625 C-17.75132813 20.66375 -17.74875 19.6634375 -17.74609375 18.6328125 C-17.74867187 17.6325 -17.75125 16.6321875 -17.75390625 15.6015625 C-17.62109375 13.1328125 -17.62109375 13.1328125 -16.62109375 12.1328125 C-14.93500409 12.06075739 -13.24608716 12.04895182 -11.55859375 12.0703125 C-10.63949219 12.07933594 -9.72039063 12.08835937 -8.7734375 12.09765625 C-8.06316406 12.10925781 -7.35289063 12.12085937 -6.62109375 12.1328125 C-6.56050781 11.35035156 -6.49992187 10.56789063 -6.4375 9.76171875 C-6.35371094 8.74980469 -6.26992187 7.73789063 -6.18359375 6.6953125 C-6.10238281 5.68597656 -6.02117187 4.67664063 -5.9375 3.63671875 C-5.40238888 -0.59792606 -3.89020474 0.00509142 0 0 Z " fill="#201F1F" transform="translate(71.62109375,69.8671875)"/>
<path d="M0 0 C10 2 10 2 11 3 C11.15655027 4.48638992 11.25066943 5.97949127 11.31640625 7.47265625 C11.37924805 8.82133789 11.37924805 8.82133789 11.44335938 10.19726562 C11.48267578 11.14279297 11.52199219 12.08832031 11.5625 13.0625 C11.60568359 14.01189453 11.64886719 14.96128906 11.69335938 15.93945312 C11.79979132 18.29278176 11.90043154 20.64637099 12 23 C15.96 23.33 19.92 23.66 24 24 C24 27.63 24 31.26 24 35 C22.02090602 35.02686553 20.04171029 35.04633375 18.0625 35.0625 C16.96035156 35.07410156 15.85820312 35.08570313 14.72265625 35.09765625 C12 35 12 35 11 34 C10.85742811 30.66381769 10.95771843 27.34024394 11 24 C7.37 24 3.74 24 0 24 C0 16.08 0 8.16 0 0 Z " fill="#211E20" transform="translate(156,48)"/>
<path d="M0 0 C0.33 0 0.66 0 1 0 C1 3.96 1 7.92 1 12 C-2.63 12 -6.26 12 -10 12 C-10 19.26 -10 26.52 -10 34 C-13.96 34 -17.92 34 -22 34 C-22 52.48 -22 70.96 -22 90 C-22.33 90 -22.66 90 -23 90 C-23.17087131 82.2670375 -23.33020701 74.53389388 -23.48217773 66.80053711 C-23.53496972 64.17939083 -23.59023431 61.55829297 -23.64819336 58.93725586 C-23.92875483 46.18024764 -24.18524863 33.4504652 -23.58984375 20.69921875 C-23.54896133 19.82078812 -23.50807892 18.94235748 -23.46595764 18.03730774 C-23.13517519 12.13517519 -23.13517519 12.13517519 -22 11 C-20.36527118 10.91299658 -18.72685945 10.89298937 -17.08984375 10.90234375 C-16.10048828 10.90556641 -15.11113281 10.90878906 -14.09179688 10.91210938 C-13.05087891 10.92048828 -12.00996094 10.92886719 -10.9375 10.9375 C-9.37032227 10.94426758 -9.37032227 10.94426758 -7.77148438 10.95117188 C-5.18096546 10.96300073 -2.59047578 10.98093681 0 11 C0 7.37 0 3.74 0 0 Z " fill="#332C1D" transform="translate(122,116)"/>
<path d="M0 0 C3.62498242 -0.02946035 7.24993332 -0.04695131 10.875 -0.0625 C11.88820313 -0.07087891 12.90140625 -0.07925781 13.9453125 -0.08789062 C20.31365281 -0.10830197 26.70349543 -0.06430278 33 1 C34 2 34 2 34.1328125 4.21484375 C34.13023437 5.11332031 34.12765625 6.01179688 34.125 6.9375 C34.12886719 8.28134766 34.12886719 8.28134766 34.1328125 9.65234375 C34 12 34 12 33 14 C29.37 14 25.74 14 22 14 C22.185625 15.629375 22.37125 17.25875 22.5625 18.9375 C22.75422324 20.62040398 22.91036938 22.30858344 23 24 C22 25 22 25 18.76538086 25.11352539 C17.33185874 25.11336631 15.89833088 25.10767407 14.46484375 25.09765625 C13.33496788 25.09553383 13.33496788 25.09553383 12.18226624 25.09336853 C9.7673044 25.08775376 7.35243399 25.07519883 4.9375 25.0625 C3.30403779 25.0574869 1.67057414 25.05292366 0.03710938 25.04882812 C-3.97529585 25.03777954 -7.98763241 25.02050506 -12 25 C-12 24.67 -12 24.34 -12 24 C-4.74 24 2.52 24 10 24 C10 20.37 10 16.74 10 13 C13.96 13 17.92 13 22 13 C22 9.37 22 5.74 22 2 C14.41 2 6.82 2 -1 2 C-0.67 1.34 -0.34 0.68 0 0 Z " fill="#382E14" transform="translate(259,81)"/>
<path d="M0 0 C1.50046875 0.00386719 1.50046875 0.00386719 3.03125 0.0078125 C4.0315625 0.00523437 5.031875 0.00265625 6.0625 0 C8.53125 0.1328125 8.53125 0.1328125 9.53125 1.1328125 C9.60369053 3.15245449 9.61502188 5.17448374 9.59375 7.1953125 C9.58472656 8.30003906 9.57570312 9.40476563 9.56640625 10.54296875 C9.55480469 11.39761719 9.54320312 12.25226563 9.53125 13.1328125 C5.90125 13.1328125 2.27125 13.1328125 -1.46875 13.1328125 C-1.46875 17.0928125 -1.46875 21.0528125 -1.46875 25.1328125 C-6.29255802 25.1574644 -11.11632967 25.17564943 -15.94018555 25.18774414 C-17.58244464 25.19278424 -19.22469923 25.19961628 -20.86694336 25.20825195 C-23.22250479 25.22033176 -25.57800709 25.22604389 -27.93359375 25.23046875 C-28.67214096 25.23563004 -29.41068817 25.24079132 -30.1716156 25.24610901 C-31.93773088 25.246305 -33.70372146 25.19475969 -35.46875 25.1328125 C-35.79875 24.8028125 -36.12875 24.4728125 -36.46875 24.1328125 C-36.46875 20.1728125 -36.46875 16.2128125 -36.46875 12.1328125 C-25.90875 11.8028125 -15.34875 11.4728125 -4.46875 11.1328125 C-4.13875 7.8328125 -3.80875 4.5328125 -3.46875 1.1328125 C-2.46875 0.1328125 -2.46875 0.1328125 0 0 Z M-35.46875 13.1328125 C-35.46875 16.7628125 -35.46875 20.3928125 -35.46875 24.1328125 C-24.57875 24.1328125 -13.68875 24.1328125 -2.46875 24.1328125 C-2.46875 20.5028125 -2.46875 16.8728125 -2.46875 13.1328125 C-13.35875 13.1328125 -24.24875 13.1328125 -35.46875 13.1328125 Z " fill="#FCB63F" transform="translate(192.46875,204.8671875)"/>
<path d="M0 0 C3.62544051 -0.08063171 7.24910455 -0.14032292 10.875 -0.1875 C12.42380859 -0.22520508 12.42380859 -0.22520508 14.00390625 -0.26367188 C14.99003906 -0.27333984 15.97617187 -0.28300781 16.9921875 -0.29296875 C17.90339355 -0.3086792 18.81459961 -0.32438965 19.75341797 -0.34057617 C20.49479004 -0.22818604 21.23616211 -0.1157959 22 0 C24 3 24 3 23 11 C15.41 11 7.82 11 0 11 C0 7.37 0 3.74 0 0 Z " fill="#241E22" transform="translate(258,70)"/>
<path d="M0 0 C3.63 0 7.26 0 11 0 C11 7.26 11 14.52 11 22 C7.37 22 3.74 22 0 22 C0 14.74 0 7.48 0 0 Z " fill="#E49336" transform="translate(168,286)"/>
<path d="M0 0 C7.26 0 14.52 0 22 0 C22 3.63 22 7.26 22 11 C14.74 11 7.48 11 0 11 C0 7.37 0 3.74 0 0 Z " fill="#E2953A" transform="translate(281,173)"/>
<path d="M0 0 C7.26 0 14.52 0 22 0 C22 3.63 22 7.26 22 11 C14.74 11 7.48 11 0 11 C0 7.37 0 3.74 0 0 Z " fill="#F5D946" transform="translate(44,173)"/>
<path d="M0 0 C3.63 0 7.26 0 11 0 C11 7.26 11 14.52 11 22 C7.37 22 3.74 22 0 22 C0 14.74 0 7.48 0 0 Z " fill="#FAFAF5" transform="translate(134,162)"/>
<path d="M0 0 C3.63 0 7.26 0 11 0 C11 7.26 11 14.52 11 22 C7.37 22 3.74 22 0 22 C0 14.74 0 7.48 0 0 Z " fill="#F6D64E" transform="translate(168,49)"/>
<path d="M0 0 C3.96 0.33 7.92 0.66 12 1 C12 12.55 12 24.1 12 36 C8.04 36 4.08 36 0 36 C-1.58403524 34.41596476 -1.21974935 32.7228362 -1.31640625 30.52734375 C-1.35830078 29.62822266 -1.40019531 28.72910156 -1.44335938 27.80273438 C-1.48267578 26.85720703 -1.52199219 25.91167969 -1.5625 24.9375 C-1.60568359 23.98810547 -1.64886719 23.03871094 -1.69335938 22.06054688 C-1.79979276 19.70718647 -1.90181008 17.35371646 -2 15 C-4.64 14.34 -7.28 13.68 -10 13 C-10 12.67 -10 12.34 -10 12 C-7.03 12 -4.06 12 -1 12 C-1.01160156 11.21753906 -1.02320313 10.43507813 -1.03515625 9.62890625 C-1.04417969 8.61699219 -1.05320313 7.60507812 -1.0625 6.5625 C-1.07410156 5.55316406 -1.08570313 4.54382812 -1.09765625 3.50390625 C-1 1 -1 1 0 0 Z M0 13 C0 20.26 0 27.52 0 35 C3.63 35 7.26 35 11 35 C11 27.74 11 20.48 11 13 C7.37 13 3.74 13 0 13 Z " fill="#2D2617" transform="translate(168,36)"/>
<path d="M0 0 C2.57161458 0.03255208 5.14322917 0.06510417 7.71484375 0.09765625 C7.71484375 4.38765625 7.71484375 8.67765625 7.71484375 13.09765625 C4.08484375 13.09765625 0.45484375 13.09765625 -3.28515625 13.09765625 C-3.28515625 16.72765625 -3.28515625 20.35765625 -3.28515625 24.09765625 C-11.20515625 24.09765625 -19.12515625 24.09765625 -27.28515625 24.09765625 C-27.28515625 21.45765625 -27.28515625 18.81765625 -27.28515625 16.09765625 C-26.62515625 16.09765625 -25.96515625 16.09765625 -25.28515625 16.09765625 C-25.28515625 18.07765625 -25.28515625 20.05765625 -25.28515625 22.09765625 C-18.68515625 22.09765625 -12.08515625 22.09765625 -5.28515625 22.09765625 C-5.91357598 18.12623935 -5.91357598 18.12623935 -8.28515625 16.09765625 C-8.28515625 15.43765625 -8.28515625 14.77765625 -8.28515625 14.09765625 C-6.96515625 14.09765625 -5.64515625 14.09765625 -4.28515625 14.09765625 C-4.19427734 12.70740234 -4.19427734 12.70740234 -4.1015625 11.2890625 C-4.01777344 10.09152344 -3.93398437 8.89398438 -3.84765625 7.66015625 C-3.76644531 6.46519531 -3.68523437 5.27023438 -3.6015625 4.0390625 C-3.18170797 0.13597043 -3.18170797 0.13597043 0 0 Z " fill="#222323" transform="translate(104.28515625,92.90234375)"/>
<path d="M0 0 C3.3 0 6.6 0 10 0 C10 6.93 10 13.86 10 21 C6 22 6 22 0 22 C0 14.74 0 7.48 0 0 Z " fill="#241C1B" transform="translate(236,207)"/>
<path d="M0 0 C0.33 0 0.66 0 1 0 C1 2.64 1 5.28 1 8 C4.63 8 8.26 8 12 8 C12.83562396 15.89200403 13.00711451 23.12901272 12 31 C11.67 31 11.34 31 11 31 C11 27.37 11 23.74 11 20 C7.37 20 3.74 20 0 20 C0 16.37 0 12.74 0 9 C-7.26 9 -14.52 9 -22 9 C-22 12.3 -22 15.6 -22 19 C-18.37 19 -14.74 19 -11 19 C-11 19.33 -11 19.66 -11 20 C-14.96 20 -18.92 20 -23 20 C-23 16.04 -23 12.08 -23 8 C-15.74 8 -8.48 8 -1 8 C-0.67 5.36 -0.34 2.72 0 0 Z " fill="#44371A" transform="translate(89,74)"/>
<path d="M0 0 C2.97 0 5.94 0 9 0 C9 6.93 9 13.86 9 21 C6.03 21 3.06 21 0 21 C0 14.07 0 7.14 0 0 Z " fill="#FDFDFD" transform="translate(181,162)"/>
<path d="M0 0 C6.27 0 12.54 0 19 0 C19 2.64 19 5.28 19 8 C13.24733894 10.789169 8.0965149 10.28347682 2 9 C0.3337447 8.9629721 -1.33401319 8.95240038 -3 9 C-3 7.35 -3 5.7 -3 4 C-2.01 4 -1.02 4 0 4 C0 2.68 0 1.36 0 0 Z " fill="#201F20" transform="translate(251,240)"/>
<path d="M0 0 C0.33 0 0.66 0 1 0 C1 3.63 1 7.26 1 11 C-2.63 11 -6.26 11 -10 11 C-10 14.63 -10 18.26 -10 22 C-2.74 22 4.52 22 12 22 C12 22.33 12 22.66 12 23 C2.76 23 -6.48 23 -16 23 C-16 22.34 -16 21.68 -16 21 C-17.65 21 -19.3 21 -21 21 C-21 18.03 -21 15.06 -21 12 C-16.545 11.505 -16.545 11.505 -12 11 C-11.54625 9.865625 -11.0925 8.73125 -10.625 7.5625 C-9 4 -9 4 -7 3 C-7 4.98 -7 6.96 -7 9 C-6.01 9 -5.02 9 -4 9 C-3.67 8.34 -3.34 7.68 -3 7 C-2.34 7 -1.68 7 -1 7 C-0.67 4.69 -0.34 2.38 0 0 Z " fill="#231E1F" transform="translate(77,252)"/>
<path d="M0 0 C3.63 0 7.26 0 11 0 C11 18.81 11 37.62 11 57 C7.04 57 3.08 57 -1 57 C-1 64.26 -1 71.52 -1 79 C-4.63 79 -8.26 79 -12 79 C-12 78.67 -12 78.34 -12 78 C-9.94921875 77.77213542 -7.8984375 77.54427083 -5.84765625 77.31640625 C-3.98859771 77.18113386 -3.98859771 77.18113386 -3 76 C-2.85547282 74.52492882 -2.77305075 73.0436396 -2.71875 71.5625 C-2.68136719 70.66789062 -2.64398438 69.77328125 -2.60546875 68.8515625 C-2.57066406 67.91054687 -2.53585938 66.96953125 -2.5 66 C-2.43141512 64.14566805 -2.35872187 62.29148192 -2.28125 60.4375 C-2.25095703 59.61121094 -2.22066406 58.78492188 -2.18945312 57.93359375 C-2 56 -2 56 -1 55 C2.3 55 5.6 55 9 55 C9 37.18 9 19.36 9 1 C6.03 1 3.06 1 0 1 C0 0.67 0 0.34 0 0 Z " fill="#D89649" transform="translate(236,150)"/>
<path d="M0 0 C0.33 0 0.66 0 1 0 C1.17103567 7.71464864 1.33033291 15.42948129 1.48217773 23.14453125 C1.53493217 25.75884248 1.59019183 28.3731046 1.64819336 30.98730469 C1.93395823 43.9386655 2.16525539 56.85842891 1.58984375 69.8046875 C1.54896133 70.73048615 1.50807892 71.65628479 1.46595764 72.61013794 C1.13420873 78.86579127 1.13420873 78.86579127 0 80 C-1.64107242 80.20839015 -3.28856293 80.36751725 -4.9375 80.5 C-8.60557465 80.75214943 -8.60557465 80.75214943 -12 82 C-12 81.34 -12 80.68 -12 80 C-15.3 80 -18.6 80 -22 80 C-22 83.3 -22 86.6 -22 90 C-22.33 90 -22.66 90 -23 90 C-23 86.37 -23 82.74 -23 79 C-19.37 79 -15.74 79 -12 79 C-12 71.74 -12 64.48 -12 57 C-11.67 57 -11.34 57 -11 57 C-11 64.26 -11 71.52 -11 79 C-6.545 78.505 -6.545 78.505 -2 78 C-1.04977701 61.06737618 -0.6992099 44.14309715 -0.4375 27.1875 C-0.39417857 24.53710448 -0.35056065 21.88671379 -0.30664062 19.23632812 C-0.2010181 12.82427025 -0.09902077 6.41216305 0 0 Z " fill="#503A1F" transform="translate(247,150)"/>
<path d="M0 0 C6.27 0 12.54 0 19 0 C19 0.66 19 1.32 19 2 C18.34 2 17.68 2 17 2 C16.7525 2.61875 16.505 3.2375 16.25 3.875 C14.79371361 6.35068687 13.62187494 6.95125002 11 8 C11 8.99 11 9.98 11 11 C7.37 11 3.74 11 0 11 C0 7.37 0 3.74 0 0 Z " fill="#222120" transform="translate(280,185)"/>
<path d="M0 0 C18.81 0 37.62 0 57 0 C57 3.63 57 7.26 57 11 C56.67 11 56.34 11 56 11 C56 7.7 56 4.4 56 1 C38.18 1.33 20.36 1.66 2 2 C2 5.3 2 8.6 2 12 C1.67 12.66 1.34 13.32 1 14 C-6.26 13.67 -13.52 13.34 -21 13 C-21 15.97 -21 18.94 -21 22 C-21.33 22 -21.66 22 -22 22 C-22 18.37 -22 14.74 -22 11 C-14.74 11 -7.48 11 0 11 C0 7.37 0 3.74 0 0 Z " fill="#C3A853" transform="translate(145,105)"/>
<path d="M0 0 C2.43757413 -0.02698422 4.87484915 -0.04683099 7.3125 -0.0625 C8.00279297 -0.07087891 8.69308594 -0.07925781 9.40429688 -0.08789062 C12.5483025 -0.10307906 14.99420019 -0.00193327 18 1 C17.34 3.31 16.68 5.62 16 8 C15.01 8 14.02 8 13 8 C12.34 9.98 11.68 11.96 11 14 C10.690625 13.360625 10.38125 12.72125 10.0625 12.0625 C9.1654837 10.06389179 9.1654837 10.06389179 8 9 C6.65252916 8.76924918 5.29622435 8.58846937 3.9375 8.4375 C2.638125 8.293125 1.33875 8.14875 0 8 C0 5.36 0 2.72 0 0 Z " fill="#FDDD3A" transform="translate(249,253)"/>
<path d="M0 0 C1.50046875 0.00386719 1.50046875 0.00386719 3.03125 0.0078125 C4.0315625 0.00523437 5.031875 0.00265625 6.0625 0 C8.53125 0.1328125 8.53125 0.1328125 9.53125 1.1328125 C9.60330511 2.81890216 9.61511068 4.50781909 9.59375 6.1953125 C9.58472656 7.11441406 9.57570312 8.03351563 9.56640625 8.98046875 C9.55480469 9.69074219 9.54320312 10.40101563 9.53125 11.1328125 C7.55215602 11.15967803 5.57296029 11.17914625 3.59375 11.1953125 C2.49160156 11.20691406 1.38945312 11.21851563 0.25390625 11.23046875 C-2.46875 11.1328125 -2.46875 11.1328125 -3.46875 10.1328125 C-3.5666557 8.63543126 -3.59849864 7.13338358 -3.59375 5.6328125 C-3.59632813 4.818125 -3.59890625 4.0034375 -3.6015625 3.1640625 C-3.40428938 0.14694413 -3.03507471 0.16327934 0 0 Z " fill="#1E2122" transform="translate(170.46875,308.8671875)"/>
<path d="M0 0 C7.71484375 -0.09765625 7.71484375 -0.09765625 10 0 C11 1 11 1 11.1328125 3.21484375 C11.13023437 4.11332031 11.12765625 5.01179688 11.125 5.9375 C11.12757813 6.83339844 11.13015625 7.72929688 11.1328125 8.65234375 C11 11 11 11 10 13 C6.7 13 3.4 13 0 13 C0 8.71 0 4.42 0 0 Z " fill="#1D1C19" transform="translate(282,82)"/>
<path d="M0 0 C3.96 0 7.92 0 12 0 C12 3.63 12 7.26 12 11 C8.04 11 4.08 11 0 11 C0 7.37 0 3.74 0 0 Z " fill="#EF9331" transform="translate(269,263)"/>
<path d="M0 0 C3.96 0 7.92 0 12 0 C12 3.63 12 7.26 12 11 C8.04 11 4.08 11 0 11 C0 7.37 0 3.74 0 0 Z " fill="#E09035" transform="translate(269,83)"/>
<path d="M0 0 C0.33 0 0.66 0 1 0 C1 3.3 1 6.6 1 10 C2.17369141 9.98259766 2.17369141 9.98259766 3.37109375 9.96484375 C4.38300781 9.95582031 5.39492187 9.94679687 6.4375 9.9375 C7.44683594 9.92589844 8.45617187 9.91429687 9.49609375 9.90234375 C12 10 12 10 13 11 C13.08700342 12.63472882 13.10701063 14.27314055 13.09765625 15.91015625 C13.09443359 16.89951172 13.09121094 17.88886719 13.08789062 18.90820312 C13.07951172 19.94912109 13.07113281 20.99003906 13.0625 22.0625 C13.05798828 23.10728516 13.05347656 24.15207031 13.04882812 25.22851562 C13.03699927 27.81903454 13.01906319 30.40952422 13 33 C9.04 33 5.08 33 1 33 C1 36.96 1 40.92 1 45 C0.67 45 0.34 45 0 45 C0 30.15 0 15.3 0 0 Z M3 11 C3 17.93 3 24.86 3 32 C5.97 32 8.94 32 12 32 C12 25.07 12 18.14 12 11 C9.03 11 6.06 11 3 11 Z " fill="#DCD49E" transform="translate(178,151)"/>
<path d="M0 0 C0.33 0 0.66 0 1 0 C1.06058594 0.69867188 1.12117187 1.39734375 1.18359375 2.1171875 C1.26738281 3.02726562 1.35117188 3.93734375 1.4375 4.875 C1.51871094 5.77992187 1.59992188 6.68484375 1.68359375 7.6171875 C1.86989285 10.01110861 1.86989285 10.01110861 3 12 C3 14.64 3 17.28 3 20 C9.27 19.67 15.54 19.34 22 19 C22.33 17.68 22.66 16.36 23 15 C23.66 13.68 24.32 12.36 25 11 C25 14.63 25 18.26 25 22 C17.08 22 9.16 22 1 22 C1 18.37 1 14.74 1 11 C-2.63 11 -6.26 11 -10 11 C-10 10.34 -10 9.68 -10 9 C-8.88625 8.54625 -7.7725 8.0925 -6.625 7.625 C-3.03800992 6.27534014 -3.03800992 6.27534014 -1 4 C-0.3574765 1.93125966 -0.3574765 1.93125966 0 0 Z " fill="#212927" transform="translate(245,95)"/>
<path d="M0 0 C0.33 0.99 0.66 1.98 1 3 C4.3 3.33 7.6 3.66 11 4 C11 4.33 11 4.66 11 5 C7.37 5 3.74 5 0 5 C0 8.63 0 12.26 0 16 C-0.33 16 -0.66 16 -1 16 C-1.33 14.02 -1.66 12.04 -2 10 C-2.53625 10.639375 -3.0725 11.27875 -3.625 11.9375 C-6.44367193 14.38529404 -8.33860732 14.66714612 -12 15 C-12 11.37 -12 7.74 -12 4 C-8.37 4 -4.74 4 -1 4 C-0.67 2.68 -0.34 1.36 0 0 Z " fill="#2D2B30" transform="translate(247,89)"/>
<path d="M0 0 C3.63 0 7.26 0 11 0 C11 3.63 11 7.26 11 11 C7.37 11 3.74 11 0 11 C0 7.37 0 3.74 0 0 Z " fill="#F9D848" transform="translate(168,286)"/>
<path d="M0 0 C3.63 0 7.26 0 11 0 C11 3.63 11 7.26 11 11 C7.37 11 3.74 11 0 11 C0 7.37 0 3.74 0 0 Z " fill="#E9983E" transform="translate(67,263)"/>
<path d="M0 0 C3.63 0 7.26 0 11 0 C11 3.63 11 7.26 11 11 C7.37 11 3.74 11 0 11 C0 7.37 0 3.74 0 0 Z " fill="#E7702E" transform="translate(191,207)"/>
<path d="M0 0 C3.63 0 7.26 0 11 0 C11 3.63 11 7.26 11 11 C7.37 11 3.74 11 0 11 C0 7.37 0 3.74 0 0 Z " fill="#F8D94A" transform="translate(281,173)"/>
<path d="M0 0 C3.63 0 7.26 0 11 0 C11 3.63 11 7.26 11 11 C7.37 11 3.74 11 0 11 C0 7.37 0 3.74 0 0 Z " fill="#E69538" transform="translate(44,173)"/>
<path d="M0 0 C18.81 0 37.62 0 57 0 C54.46024012 2.53975988 53.52307 2.26778159 49.99951172 2.31884766 C48.95858368 2.33871735 47.91765564 2.35858704 46.84518433 2.37905884 C45.71807037 2.39061005 44.59095642 2.40216125 43.4296875 2.4140625 C42.27832306 2.43342865 41.12695862 2.4527948 39.94070435 2.4727478 C36.25221231 2.53267372 32.56368928 2.57898126 28.875 2.625 C26.37889241 2.66316777 23.88279815 2.70221878 21.38671875 2.7421875 C15.25793063 2.83838588 9.12906262 2.92339506 3 3 C2.67 3.99 2.34 4.98 2 6 C1.34 6 0.68 6 0 6 C0 4.02 0 2.04 0 0 Z " fill="#20302F" transform="translate(145,93)"/>
<path d="M0 0 C3.63 0 7.26 0 11 0 C11 3.63 11 7.26 11 11 C7.37 11 3.74 11 0 11 C0 7.37 0 3.74 0 0 Z " fill="#EC952D" transform="translate(168,49)"/>
<path d="M0 0 C2.57161458 0.03255208 5.14322917 0.06510417 7.71484375 0.09765625 C7.71484375 3.72765625 7.71484375 7.35765625 7.71484375 11.09765625 C4.08484375 11.09765625 0.45484375 11.09765625 -3.28515625 11.09765625 C-3.3828125 3.3828125 -3.3828125 3.3828125 -3.28515625 1.09765625 C-2.28515625 0.09765625 -2.28515625 0.09765625 0 0 Z " fill="#201F1C" transform="translate(114.28515625,229.90234375)"/>
<path d="M0 0 C7.26 0 14.52 0 22 0 C22 3.63 22 7.26 22 11 C18.7 11 15.4 11 12 11 C12 10.67 12 10.34 12 10 C14.97 10 17.94 10 21 10 C21 7.03 21 4.06 21 1 C14.4 1 7.8 1 1 1 C1 5.95 1 10.9 1 16 C2.65 16 4.3 16 6 16 C5.67 17.65 5.34 19.3 5 21 C6.32 21 7.64 21 9 21 C9 17.7 9 14.4 9 11 C9.66 11 10.32 11 11 11 C11 14.63 11 18.26 11 22 C7.37 22 3.74 22 0 22 C0 14.74 0 7.48 0 0 Z " fill="#EED551" transform="translate(78,252)"/>
<path d="M0 0 C1.98 0 3.96 0 6 0 C6 2 6 4 6 6 C6.66 6 7.32 6 8 6 C8.66 4.35 9.32 2.7 10 1 C10.33 1 10.66 1 11 1 C11 4.96 11 8.92 11 13 C3.28515625 13.09765625 3.28515625 13.09765625 1 13 C0 12 0 12 -0.09765625 9.27734375 C-0.08605469 8.17519531 -0.07445312 7.07304687 -0.0625 5.9375 C-0.05347656 4.83277344 -0.04445312 3.72804687 -0.03515625 2.58984375 C-0.02355469 1.73519531 -0.01195312 0.88054687 0 0 Z " fill="#231E1C" transform="translate(235,251)"/>
<path d="M0 0 C0 3.96 0 7.92 0 12 C-3.3 12 -6.6 12 -10 12 C-10 8.37 -10 4.74 -10 1 C-3.375 0 -3.375 0 0 0 Z " fill="#1F1D1C" transform="translate(111,252)"/>
<path d="M0 0 C3.63 0 7.26 0 11 0 C11 3.3 11 6.6 11 10 C7.37 10 3.74 10 0 10 C0 6.7 0 3.4 0 0 Z " fill="#E89A39" transform="translate(67,83)"/>
<path d="M0 0 C0.33 0 0.66 0 1 0 C1 3.3 1 6.6 1 10 C-14.18 10 -29.36 10 -45 10 C-45.33 9.34 -45.66 8.68 -46 8 C-31.48 7.67 -16.96 7.34 -2 7 C-1.34 4.69 -0.68 2.38 0 0 Z " fill="#111819" transform="translate(201,254)"/>
<path d="M0 0 C7.59 0 15.18 0 23 0 C23 3.63 23 7.26 23 11 C26.63 11 30.26 11 34 11 C34 18.59 34 26.18 34 34 C33.67 34 33.34 34 33 34 C33 26.74 33 19.48 33 12 C29.04 12 25.08 12 21 12 C20.67 9.03 20.34 6.06 20 3 C13.4 3 6.8 3 0 3 C0 2.01 0 1.02 0 0 Z " fill="#BC8240" transform="translate(202,116)"/>
<path d="M0 0 C3.3 0 6.6 0 10 0 C10 3.63 10 7.26 10 11 C6.7 10.67 3.4 10.34 0 10 C0 6.7 0 3.4 0 0 Z " fill="#1E2122" transform="translate(271,251)"/>
<path d="M0 0 C3.3 0 6.6 0 10 0 C10 3.3 10 6.6 10 10 C6.7 10 3.4 10 0 10 C0 6.7 0 3.4 0 0 Z " fill="#F9A83E" transform="translate(191,106)"/>
<path d="M0 0 C2.97 0 5.94 0 9 0 C9 3.3 9 6.6 9 10 C6.04335481 11.4783226 3.25770263 11.06032783 0 11 C-1.37432457 7.18243176 -0.67975039 3.92744671 0 0 Z " fill="#221F23" transform="translate(66,95)"/>
<path d="M0 0 C10.89 0 21.78 0 33 0 C33 0.33 33 0.66 33 1 C23.1 1.33 13.2 1.66 3 2 C2.2790955 5.98171738 2.2790955 5.98171738 2 10 C11.57 10 21.14 10 31 10 C31.33 7.36 31.66 4.72 32 2 C32.33 2 32.66 2 33 2 C33 4.97 33 7.94 33 11 C22.11 11 11.22 11 0 11 C0 7.37 0 3.74 0 0 Z " fill="#E37726" transform="translate(157,218)"/>
<path d="M0 0 C4.17659405 0.14916407 7.935193 -0.01459224 12 -1 C13.00496852 2.01490557 13.10335303 4.04181692 13.0625 7.1875 C13.05347656 8.08855469 13.04445313 8.98960937 13.03515625 9.91796875 C13.02355469 10.60503906 13.01195312 11.29210937 13 12 C15.97 12 18.94 12 22 12 C22.495 12.99 22.495 12.99 23 14 C19.04 14 15.08 14 11 14 C11 10.04 11 6.08 11 2 C3.74 2 -3.52 2 -11 2 C-10.67 1.34 -10.34 0.68 -10 0 C-6.27918418 -1.13691594 -3.73990085 -0.80140732 0 0 Z " fill="#222212" transform="translate(258,249)"/>
<path d="M0 0 C0.33 0 0.66 0 1 0 C1 3.63 1 7.26 1 11 C-2.63 11 -6.26 11 -10 11 C-10 14.63 -10 18.26 -10 22 C-2.74 22 4.52 22 12 22 C12 22.33 12 22.66 12 23 C4.41 23 -3.18 23 -11 23 C-11.275 8.2875 -11.275 8.2875 -9 4 C-8.34 3.67 -7.68 3.34 -7 3 C-7 4.98 -7 6.96 -7 9 C-6.01 9 -5.02 9 -4 9 C-3.67 8.34 -3.34 7.68 -3 7 C-2.34 7 -1.68 7 -1 7 C-0.67 4.69 -0.34 2.38 0 0 Z " fill="#51371C" transform="translate(77,252)"/>
<path d="M0 0 C0.33 0 0.66 0 1 0 C1 1.65 1 3.3 1 5 C3.31 5.33 5.62 5.66 8 6 C8.33 6.99 8.66 7.98 9 9 C10.32 9.33 11.64 9.66 13 10 C13 16.27 13 22.54 13 29 C10.87598962 24.75197923 10.7623893 21.83238937 10.875 17.25 C10.88402344 16.55261719 10.89304687 15.85523438 10.90234375 15.13671875 C10.92580112 13.42433042 10.96166896 11.71211996 11 10 C10.28972656 10.08378906 9.57945313 10.16757813 8.84765625 10.25390625 C7.92855469 10.35574219 7.00945312 10.45757812 6.0625 10.5625 C4.68771484 10.71912109 4.68771484 10.71912109 3.28515625 10.87890625 C2.53105469 10.91886719 1.77695313 10.95882812 1 11 C0 10 0 10 -0.09765625 7.71484375 C-0.08605469 6.79832031 -0.07445313 5.88179687 -0.0625 4.9375 C-0.05347656 4.01839844 -0.04445313 3.09929687 -0.03515625 2.15234375 C-0.02355469 1.44207031 -0.01195313 0.73179687 0 0 Z " fill="#1D2A28" transform="translate(88,197)"/>
<path d="M0 0 C3.63 0 7.26 0 11 0 C11 3.63 11 7.26 11 11 C18.26 11 25.52 11 33 11 C33 14.96 33 18.92 33 23 C32.67 23 32.34 23 32 23 C32 19.7 32 16.4 32 13 C30.57945312 13.08378906 29.15890625 13.16757813 27.6953125 13.25390625 C25.83855767 13.3570593 23.98178592 13.45990814 22.125 13.5625 C21.18785156 13.61857422 20.25070313 13.67464844 19.28515625 13.73242188 C18.38925781 13.78076172 17.49335938 13.82910156 16.5703125 13.87890625 C15.74289551 13.9260376 14.91547852 13.97316895 14.06298828 14.02172852 C12 14 12 14 10 13 C10 9.04 10 5.08 10 1 C6.7 1 3.4 1 0 1 C0 0.67 0 0.34 0 0 Z " fill="#524310" transform="translate(112,229)"/>
<path d="M0 0 C1.22589844 0.01353516 1.22589844 0.01353516 2.4765625 0.02734375 C3.41628906 0.04474609 3.41628906 0.04474609 4.375 0.0625 C3.42382866 1.2350131 2.46382991 2.40037015 1.5 3.5625 C0.69949219 4.53703125 0.69949219 4.53703125 -0.1171875 5.53125 C-0.61476562 6.0365625 -1.11234375 6.541875 -1.625 7.0625 C-2.285 7.0625 -2.945 7.0625 -3.625 7.0625 C-3.625 7.7225 -3.625 8.3825 -3.625 9.0625 C-6.595 9.0625 -9.565 9.0625 -12.625 9.0625 C-12.295 8.4025 -11.965 7.7425 -11.625 7.0625 C-10.965 7.0625 -10.305 7.0625 -9.625 7.0625 C-9.625 6.4025 -9.625 5.7425 -9.625 5.0625 C-8.635 5.0625 -7.645 5.0625 -6.625 5.0625 C-6.625 3.7425 -6.625 2.4225 -6.625 1.0625 C-4.21954362 -0.14022819 -2.67503047 -0.03821472 0 0 Z " fill="#302D2F" transform="translate(160.625,252.9375)"/>
<path d="M0 0 C2.05078125 0.03255208 4.1015625 0.06510417 6.15234375 0.09765625 C6.15234375 3.39765625 6.15234375 6.69765625 6.15234375 10.09765625 C4.83234375 10.09765625 3.51234375 10.09765625 2.15234375 10.09765625 C1.49234375 9.43765625 0.83234375 8.77765625 0.15234375 8.09765625 C-0.83765625 8.09765625 -1.82765625 8.09765625 -2.84765625 8.09765625 C-2.84765625 6.77765625 -2.84765625 5.45765625 -2.84765625 4.09765625 C-2.18765625 4.09765625 -1.52765625 4.09765625 -0.84765625 4.09765625 C-0.84765625 3.43765625 -0.84765625 2.77765625 -0.84765625 2.09765625 C-1.50765625 1.76765625 -2.16765625 1.43765625 -2.84765625 1.09765625 C-1.84765625 0.09765625 -1.84765625 0.09765625 0 0 Z " fill="#FCDD3B" transform="translate(262.84765625,83.90234375)"/>
<path d="M0 0 C0.33 0 0.66 0 1 0 C1 7.26 1 14.52 1 22 C1.66 22 2.32 22 3 22 C3.99 18.535 3.99 18.535 5 15 C5.33 15.66 5.66 16.32 6 17 C6.66 17.33 7.32 17.66 8 18 C7.67 18.66 7.34 19.32 7 20 C8.32 20.33 9.64 20.66 11 21 C11 21.66 11 22.32 11 23 C3.48751716 23.94450945 -3.48751716 23.94450945 -11 23 C-11 22.67 -11 22.34 -11 22 C-7.37 22 -3.74 22 0 22 C0 14.74 0 7.48 0 0 Z " fill="#3C3019" transform="translate(179,286)"/>
<path d="M0 0 C0.33 0 0.66 0 1 0 C1 2.64 1 5.28 1 8 C4.63 8 8.26 8 12 8 C12 10.31 12 12.62 12 15 C13.32 14.67 14.64 14.34 16 14 C15.34 15.32 14.68 16.64 14 18 C14.65226562 17.98839844 15.30453125 17.97679687 15.9765625 17.96484375 C20.7761914 17.91529006 25.27784685 18.00586249 30 19 C30 19.33 30 19.66 30 20 C27.02077407 20.02683987 24.04178705 20.04676037 21.0625 20.0625 C19.78729492 20.07506836 19.78729492 20.07506836 18.48632812 20.08789062 C17.67744141 20.09111328 16.86855469 20.09433594 16.03515625 20.09765625 C15.2862915 20.10289307 14.53742676 20.10812988 13.76586914 20.11352539 C12 20 12 20 11 19 C10.85742811 15.66381769 10.95771843 12.34024394 11 9 C7.37 9 3.74 9 0 9 C0 6.03 0 3.06 0 0 Z " fill="#192524" transform="translate(32,176)"/>
<path d="M0 0 C0.33 0 0.66 0 1 0 C1.02698189 1.62490954 1.04638757 3.24994633 1.0625 4.875 C1.07410156 5.77992187 1.08570313 6.68484375 1.09765625 7.6171875 C1 10 1 10 0 12 C-7.26 11.67 -14.52 11.34 -22 11 C-22 13.97 -22 16.94 -22 20 C-22.33 20 -22.66 20 -23 20 C-23 16.37 -23 12.74 -23 9 C-15.41 9 -7.82 9 0 9 C0 6.03 0 3.06 0 0 Z " fill="#E0C84F" transform="translate(146,107)"/>
<path d="M0 0 C0.66 0 1.32 0 2 0 C2.12375 0.969375 2.2475 1.93875 2.375 2.9375 C2.684375 4.4534375 2.684375 4.4534375 3 6 C5.79398052 7.39699026 8.53923715 7.60871135 11.625 8.0625 C12.81351563 8.23910156 14.00203125 8.41570312 15.2265625 8.59765625 C16.14179688 8.73042969 17.05703125 8.86320313 18 9 C18 9.66 18 10.32 18 11 C15.37493198 11.02690844 12.75013827 11.04679404 10.125 11.0625 C9.37863281 11.07087891 8.63226563 11.07925781 7.86328125 11.08789062 C2.2265625 11.11328125 2.2265625 11.11328125 0 10 C0 6.7 0 3.4 0 0 Z " fill="#182424" transform="translate(122,242)"/>
<path d="M0 0 C0.33 0.66 0.66 1.32 1 2 C4.63 2 8.26 2 12 2 C12 6.29 12 10.58 12 15 C11.67 15 11.34 15 11 15 C11 11.04 11 7.08 11 3 C10.01 3.33 9.02 3.66 8 4 C5.66700175 4.03954234 3.33291811 4.04401732 1 4 C1 7.3 1 10.6 1 14 C0.67 14 0.34 14 0 14 C0 10.37 0 6.74 0 3 C-7.26 3 -14.52 3 -22 3 C-22 2.67 -22 2.34 -22 2 C-14.74 2 -7.48 2 0 2 C0 1.34 0 0.68 0 0 Z " fill="#454326" transform="translate(100,249)"/>
<path d="M0 0 C0.99 0.33 1.98 0.66 3 1 C2.34 1.66 1.68 2.32 1 3 C0.66868587 5.38480046 0.66868587 5.38480046 0.68115234 8.18408203 C0.66128265 9.26505157 0.64141296 10.34602112 0.62094116 11.45974731 C0.60938995 12.63060883 0.59783875 13.80147034 0.5859375 15.0078125 C0.56657135 16.20356903 0.5472052 17.39932556 0.5272522 18.63131714 C0.46732056 22.46247148 0.4210164 26.29365565 0.375 30.125 C0.33683276 32.71746125 0.29778179 35.30990966 0.2578125 37.90234375 C0.1616079 44.26811537 0.07660039 50.63396395 0 57 C-0.33 57 -0.66 57 -1 57 C-1.02312916 49.71578452 -1.04091801 42.4315769 -1.05181217 35.14733219 C-1.05703975 31.76528187 -1.06413511 28.3832566 -1.07543945 25.0012207 C-1.08834267 21.11670223 -1.09322924 17.23219403 -1.09765625 13.34765625 C-1.10281754 12.12788589 -1.10797882 10.90811554 -1.11329651 9.65138245 C-1.11337204 8.53029587 -1.11344757 7.40920929 -1.11352539 6.25415039 C-1.115746 5.26153702 -1.11796661 4.26892365 -1.12025452 3.24623108 C-1 1 -1 1 0 0 Z " fill="#281A10" transform="translate(249,149)"/>
<path d="M0 0 C0.33 0 0.66 0 1 0 C1 3.63 1 7.26 1 11 C-6.92 11 -14.84 11 -23 11 C-23 10.34 -23 9.68 -23 9 C-12.605 8.505 -12.605 8.505 -2 8 C-1.67 6.68 -1.34 5.36 -1 4 C-0.66666667 2.66666667 -0.33333333 1.33333333 0 0 Z " fill="#151F1F" transform="translate(269,106)"/>
<path d="M0 0 C0.33 0 0.66 0 1 0 C2.01202288 7.17757765 1.88826175 13.81191259 1 21 C0.67 21 0.34 21 0 21 C0 17.37 0 13.74 0 10 C-7.26 10 -14.52 10 -22 10 C-22 13.63 -22 17.26 -22 21 C-22.33 21 -22.66 21 -23 21 C-23.33 17.04 -23.66 13.08 -24 9 C-16.08 9 -8.16 9 0 9 C-0.33 7.02 -0.66 5.04 -1 3 C-0.67 2.01 -0.34 1.02 0 0 Z " fill="#483613" transform="translate(66,163)"/>
<path d="M0 0 C2 2 2 2 2.1953125 4.1640625 C2.17210937 4.97617188 2.14890625 5.78828125 2.125 6.625 C2.10695312 7.44226563 2.08890625 8.25953125 2.0703125 9.1015625 C2.03550781 10.04128906 2.03550781 10.04128906 2 11 C-0.64 11 -3.28 11 -6 11 C-6 10.67 -6 10.34 -6 10 C-3.69 10 -1.38 10 1 10 C0.01 9.67 -0.98 9.34 -2 9 C-2 7.68 -2 6.36 -2 5 C-3.65 4.67 -5.3 4.34 -7 4 C-7.33 3.01 -7.66 2.02 -8 1 C-1.9453125 0.0234375 -1.9453125 0.0234375 0 0 Z " fill="#1E2123" transform="translate(234,230)"/>
<path d="M0 0 C7.26 0 14.52 0 22 0 C22 0.33 22 0.66 22 1 C15.4 1 8.8 1 2 1 C2 3.64 2 6.28 2 9 C4.64 9 7.28 9 10 9 C10.33 9.66 10.66 10.32 11 11 C7.37 11 3.74 11 0 11 C0 7.37 0 3.74 0 0 Z " fill="#EDD357" transform="translate(247,252)"/>
<path d="M0 0 C0.9583374 0.00523682 1.9166748 0.01047363 2.90405273 0.01586914 C4.45576172 0.02070313 4.45576172 0.02070313 6.03881836 0.02563477 C7.12743164 0.03401367 8.21604492 0.04239258 9.33764648 0.05102539 C10.97636719 0.05779297 10.97636719 0.05779297 12.64819336 0.06469727 C15.35723144 0.07652713 18.06616248 0.09300996 20.77514648 0.11352539 C20.77514648 0.44352539 20.77514648 0.77352539 20.77514648 1.11352539 C19.59436523 1.13930664 18.41358398 1.16508789 17.19702148 1.19165039 C15.63969325 1.24793936 14.08240302 1.30528653 12.52514648 1.36352539 C11.7478418 1.37770508 10.97053711 1.39188477 10.16967773 1.40649414 C5.30898158 1.6070161 5.30898158 1.6070161 1.22827148 4.16040039 C0.74874023 4.80493164 0.26920898 5.44946289 -0.22485352 6.11352539 C0.10514648 6.77352539 0.43514648 7.43352539 0.77514648 8.11352539 C-0.21485352 9.59852539 -0.21485352 9.59852539 -1.22485352 11.11352539 C-1.88485352 11.11352539 -2.54485352 11.11352539 -3.22485352 11.11352539 C-3.25173502 9.46777973 -3.27119475 7.82191126 -3.28735352 6.17602539 C-3.29895508 5.25950195 -3.31055664 4.34297852 -3.32250977 3.39868164 C-3.19214137 0.34806119 -3.04629171 0.1554401 0 0 Z " fill="#1B2426" transform="translate(46.224853515625,160.886474609375)"/>
<path d="M0 0 C3.63 0 7.26 0 11 0 C11 0.33 11 0.66 11 1 C8.36 1.33 5.72 1.66 3 2 C2.93941406 2.63808594 2.87882813 3.27617187 2.81640625 3.93359375 C2.73261719 4.75988281 2.64882812 5.58617187 2.5625 6.4375 C2.48128906 7.26121094 2.40007812 8.08492187 2.31640625 8.93359375 C2 11 2 11 1 12 C-1.31817089 12.32097751 -3.63779357 12.51220956 -5.96875 12.71875 C-7.99180593 12.79065837 -7.99180593 12.79065837 -9 14 C-9.36760731 16.32817964 -9.70241581 18.6618385 -10 21 C-10.33 21 -10.66 21 -11 21 C-11 17.7 -11 14.4 -11 11 C-7.37 11 -3.74 11 0 11 C0 7.37 0 3.74 0 0 Z " fill="#F7B136" transform="translate(213,218)"/>
<path d="M0 0 C3.96 0 7.92 0 12 0 C11.01 0.33 10.02 0.66 9 1 C9 1.99 9 2.98 9 4 C8.34 4 7.68 4 7 4 C7 4.66 7 5.32 7 6 C6.34 6 5.68 6 5 6 C5 5.34 5 4.68 5 4 C4.34 4 3.68 4 3 4 C2.87625 4.61875 2.7525 5.2375 2.625 5.875 C2 8 2 8 0 10 C0 6.7 0 3.4 0 0 Z " fill="#393632" transform="translate(180,151)"/>
<path d="M0 0 C1.98 0 3.96 0 6 0 C5.01 1.485 5.01 1.485 4 3 C3.29187186 5.32108669 2.61975848 7.65377147 2 10 C4.97 10.33 7.94 10.66 11 11 C11 11.66 11 12.32 11 13 C9.35425434 13.02688151 7.70838587 13.04634123 6.0625 13.0625 C5.14597656 13.07410156 4.22945312 13.08570313 3.28515625 13.09765625 C1 13 1 13 0 12 C-0.07244053 9.98035801 -0.08377188 7.95832876 -0.0625 5.9375 C-0.05347656 4.83277344 -0.04445312 3.72804687 -0.03515625 2.58984375 C-0.02355469 1.73519531 -0.01195312 0.88054687 0 0 Z " fill="#141E1F" transform="translate(235,251)"/>
<path d="M0 0 C0.66 0 1.32 0 2 0 C2 1.98 2 3.96 2 6 C8.93 6 15.86 6 23 6 C19.31422423 7.84288788 18.27877347 8.24701045 14.453125 8.1953125 C13.18662109 8.18564453 13.18662109 8.18564453 11.89453125 8.17578125 C11.02183594 8.15902344 10.14914063 8.14226562 9.25 8.125 C7.91775391 8.11146484 7.91775391 8.11146484 6.55859375 8.09765625 C4.37211942 8.07414577 2.18619906 8.04128499 0 8 C0 5.36 0 2.72 0 0 Z " fill="#111D1A" transform="translate(77,109)"/>
<path d="M0 0 C3.63 0 7.26 0 11 0 C11 3.63 11 7.26 11 11 C10.34 11 9.68 11 9 11 C8.67 8.03 8.34 5.06 8 2 C6.02 2.66 4.04 3.32 2 4 C1.67 6.31 1.34 8.62 1 11 C0.67 11 0.34 11 0 11 C0 7.37 0 3.74 0 0 Z " fill="#DC9644" transform="translate(168,49)"/>
<path d="M0 0 C2.64590014 -0.02684679 5.29153096 -0.04676357 7.9375 -0.0625 C8.69224609 -0.07087891 9.44699219 -0.07925781 10.22460938 -0.08789062 C12.14994313 -0.09652441 14.07535581 -0.05224333 16 0 C17 1 17 1 17.09765625 3.50390625 C17.08605469 4.51324219 17.07445312 5.52257812 17.0625 6.5625 C17.05347656 7.57441406 17.04445312 8.58632812 17.03515625 9.62890625 C17.02355469 10.41136719 17.01195312 11.19382812 17 12 C15.35 11.67 13.7 11.34 12 11 C12.66 10.01 13.32 9.02 14 8 C14.66 8 15.32 8 16 8 C15.67 6.35 15.34 4.7 15 3 C10.05 2.67 5.1 2.34 0 2 C0 1.34 0 0.68 0 0 Z " fill="#252A2A" transform="translate(208,104)"/>
<path d="M0 0 C2.31 0 4.62 0 7 0 C7.6875 1.75 7.6875 1.75 8 4 C6.875 6.25 6.875 6.25 5 8 C2.3125 8.25 2.3125 8.25 0 8 C0 5.36 0 2.72 0 0 Z " fill="#FDDE3C" transform="translate(249,95)"/>
<path d="M0 0 C3.63 0 7.26 0 11 0 C11 0.66 11 1.32 11 2 C5.25 5 5.25 5 3 5 C2.67 6.32 2.34 7.64 2 9 C1.34 9 0.68 9 0 9 C0 6.03 0 3.06 0 0 Z " fill="#201C1C" transform="translate(304,172)"/>
<path d="M0 0 C2.31 0 4.62 0 7 0 C8.04449911 3.13349732 7.93423645 3.98968256 7 7 C4.69 7.33 2.38 7.66 0 8 C0 5.36 0 2.72 0 0 Z " fill="#F09233" transform="translate(68,84)"/>
<path d="M0 0 C1.32 0 2.64 0 4 0 C4 7.92 4 15.84 4 24 C3.67 24 3.34 24 3 24 C2.71125 23.030625 2.4225 22.06125 2.125 21.0625 C1.35785318 17.89335797 1.35785318 17.89335797 -1 17 C-1 15.68 -1 14.36 -1 13 C-0.01 12.34 0.98 11.68 2 11 C2.43932865 8.86511724 2.43932865 8.86511724 2.3125 6.5 C2.30863281 5.7059375 2.30476562 4.911875 2.30078125 4.09375 C2.18225165 1.78266964 2.18225165 1.78266964 0 0 Z " fill="#282F30" transform="translate(187,285)"/>
<path d="M0 0 C2.475 0.99 2.475 0.99 5 2 C5 2.66 5 3.32 5 4 C4.01 4 3.02 4 2 4 C1.67 5.65 1.34 7.3 1 9 C-0.32 8.67 -1.64 8.34 -3 8 C-3 8.66 -3 9.32 -3 10 C-3.66 10 -4.32 10 -5 10 C-4.75 7.125 -4.75 7.125 -4 4 C-1.9375 2.625 -1.9375 2.625 0 2 C0 1.34 0 0.68 0 0 Z " fill="#312D2F" transform="translate(94,164)"/>
<path d="M0 0 C3.63 0 7.26 0 11 0 C11 3.63 11 7.26 11 11 C7.37 11 3.74 11 0 11 C0 10.67 0 10.34 0 10 C2.97 10 5.94 10 9 10 C9 7.36 9 4.72 9 2 C6.03 2 3.06 2 0 2 C0 1.34 0 0.68 0 0 Z " fill="#CB8C45" transform="translate(270,263)"/>
<path d="M0 0 C0.33 1.32 0.66 2.64 1 4 C-5.625 6.125 -5.625 6.125 -9 5 C-9 7.97 -9 10.94 -9 14 C-7.35 14 -5.7 14 -4 14 C-4 14.66 -4 15.32 -4 16 C-5.99954746 16.04254356 -8.00041636 16.04080783 -10 16 C-11 15 -11 15 -11.09765625 12.49609375 C-11.08605469 11.48675781 -11.07445312 10.47742188 -11.0625 9.4375 C-11.05347656 8.42558594 -11.04445312 7.41367187 -11.03515625 6.37109375 C-11.02355469 5.58863281 -11.01195312 4.80617188 -11 4 C-7.7 3.67 -4.4 3.34 -1 3 C-0.67 2.01 -0.34 1.02 0 0 Z " fill="#101D1D" transform="translate(65,259)"/>
<path d="M0 0 C0.66 0.33 1.32 0.66 2 1 C2 3.31 2 5.62 2 8 C-1.63 8 -5.26 8 -9 8 C-9 11.63 -9 15.26 -9 19 C-9.66 19 -10.32 19 -11 19 C-11.08121924 17.39667209 -11.13929134 15.79215974 -11.1875 14.1875 C-11.22230469 13.29417969 -11.25710937 12.40085938 -11.29296875 11.48046875 C-11 9 -11 9 -9.6796875 7.22265625 C-7.23052575 5.43989433 -4.97735238 5.25339169 -2 5 C-1.34 5.33 -0.68 5.66 0 6 C0 4.02 0 2.04 0 0 Z " fill="#20292B" transform="translate(76,177)"/>
<path d="M0 0 C1.47906892 -0.02689216 2.95827483 -0.04634621 4.4375 -0.0625 C5.26121094 -0.07410156 6.08492188 -0.08570312 6.93359375 -0.09765625 C9 0 9 0 10 1 C10.07205511 2.68608966 10.08386068 4.37500659 10.0625 6.0625 C10.05347656 6.98160156 10.04445313 7.90070313 10.03515625 8.84765625 C10.02355469 9.55792969 10.01195312 10.26820312 10 11 C9.34 11 8.68 11 8 11 C7.67 8.69 7.34 6.38 7 4 C5.68 4 4.36 4 3 4 C1 2 1 2 0 0 Z " fill="#111C19" transform="translate(283,82)"/>
<path d="M0 0 C0.66 0 1.32 0 2 0 C2 3.63 2 7.26 2 11 C-1.63 11 -5.26 11 -9 11 C-8.67 10.01 -8.34 9.02 -8 8 C-6.02 8 -4.04 8 -2 8 C-1.855625 7.4225 -1.71125 6.845 -1.5625 6.25 C-1.04166667 4.16666667 -0.52083333 2.08333333 0 0 Z " fill="#FED443" transform="translate(211,218)"/>
<path d="M0 0 C3.63 0 7.26 0 11 0 C11 0.66 11 1.32 11 2 C8.03 2 5.06 2 2 2 C2 4.64 2 7.28 2 10 C3.65 10 5.3 10 7 10 C7 10.33 7 10.66 7 11 C4.69 11 2.38 11 0 11 C0 7.37 0 3.74 0 0 Z " fill="#352906" transform="translate(89,263)"/>
<path d="M0 0 C7.26 0 14.52 0 22 0 C22 0.33 22 0.66 22 1 C21.00097656 1.06058594 20.00195312 1.12117187 18.97265625 1.18359375 C17.68230469 1.26738281 16.39195312 1.35117188 15.0625 1.4375 C13.77472656 1.51871094 12.48695313 1.59992188 11.16015625 1.68359375 C8.13976043 1.64919188 8.13976043 1.64919188 7 3 C5.33382885 3.04063832 3.66611905 3.042721 2 3 C1.67 5.31 1.34 7.62 1 10 C0.67 10 0.34 10 0 10 C0 6.7 0 3.4 0 0 Z " fill="#2B1B0C" transform="translate(202,241)"/>
<path d="M0 0 C2.16874252 0.50603992 3.99967627 0.99983813 6 2 C7.27053036 5.31707328 6.93573205 8.26650082 6.5625 11.75 C6.46066406 12.73484375 6.35882813 13.7196875 6.25390625 14.734375 C6.17011719 15.48203125 6.08632812 16.2296875 6 17 C5.67 17 5.34 17 5 17 C5 13.37 5 9.74 5 6 C1.37 6 -2.26 6 -6 6 C-6 5.67 -6 5.34 -6 5 C-3.36 4.67 -0.72 4.34 2 4 C1.34 3.67 0.68 3.34 0 3 C0 2.01 0 1.02 0 0 Z " fill="#544A2B" transform="translate(95,88)"/>
<path d="M0 0 C0.66 0 1.32 0 2 0 C2 2.97 2 5.94 2 9 C4.97 9 7.94 9 11 9 C11.33 9.66 11.66 10.32 12 11 C8.04 11 4.08 11 0 11 C0 7.37 0 3.74 0 0 Z " fill="#402D08" transform="translate(269,252)"/>
<path d="M0 0 C0.66 0 1.32 0 2 0 C2.66 1.98 3.32 3.96 4 6 C5.4540625 6.185625 5.4540625 6.185625 6.9375 6.375 C8.4534375 6.684375 8.4534375 6.684375 10 7 C10.33 7.66 10.66 8.32 11 9 C7.37 9 3.74 9 0 9 C0 6.03 0 3.06 0 0 Z " fill="#1A2325" transform="translate(145,255)"/>
<path d="M0 0 C0.99 0 1.98 0 3 0 C3 2.64 3 5.28 3 8 C0.36 8 -2.28 8 -5 8 C-5 7.01 -5 6.02 -5 5 C-3.35 5 -1.7 5 0 5 C0 3.35 0 1.7 0 0 Z " fill="#FDDC38" transform="translate(174,61)"/>
<path d="M0 0 C2.125 0.375 2.125 0.375 4 1 C4 1.66 4 2.32 4 3 C4.66 3.33 5.32 3.66 6 4 C4.68 4.33 3.36 4.66 2 5 C2 5.66 2 6.32 2 7 C1.01 7 0.02 7 -1 7 C-1.625 4.625 -1.625 4.625 -2 2 C-1.34 1.34 -0.68 0.68 0 0 Z " fill="#312E30" transform="translate(297,188)"/>
<path d="M0 0 C1.65322266 0.01740234 1.65322266 0.01740234 3.33984375 0.03515625 C4.99693359 0.04869141 4.99693359 0.04869141 6.6875 0.0625 C7.54214844 0.07410156 8.39679688 0.08570313 9.27734375 0.09765625 C9.27734375 1.74765625 9.27734375 3.39765625 9.27734375 5.09765625 C8.94734375 4.43765625 8.61734375 3.77765625 8.27734375 3.09765625 C6.15157593 2.63114418 6.15157593 2.63114418 3.71484375 2.47265625 C2.88855469 2.39789063 2.06226563 2.323125 1.2109375 2.24609375 C0.57285156 2.19710938 -0.06523437 2.148125 -0.72265625 2.09765625 C-1.38265625 4.73765625 -2.04265625 7.37765625 -2.72265625 10.09765625 C-3.05265625 10.09765625 -3.38265625 10.09765625 -3.72265625 10.09765625 C-3.74954841 8.61858733 -3.76900246 7.13938142 -3.78515625 5.66015625 C-3.79675781 4.83644531 -3.80835938 4.01273437 -3.8203125 3.1640625 C-3.66956839 -0.02568279 -3.22197711 0.11556589 0 0 Z " fill="#152628" transform="translate(170.72265625,273.90234375)"/>
<path d="M0 0 C0.33 0.99 0.66 1.98 1 3 C4.3 3.33 7.6 3.66 11 4 C11 4.33 11 4.66 11 5 C7.37 5 3.74 5 0 5 C0 8.63 0 12.26 0 16 C-0.33 16 -0.66 16 -1 16 C-1.07347656 15.04287109 -1.07347656 15.04287109 -1.1484375 14.06640625 C-1.22320312 13.24011719 -1.29796875 12.41382812 -1.375 11.5625 C-1.44460937 10.73878906 -1.51421875 9.91507813 -1.5859375 9.06640625 C-1.79089844 8.04353516 -1.79089844 8.04353516 -2 7 C-2.66 6.67 -3.32 6.34 -4 6 C-2.68 4.02 -1.36 2.04 0 0 Z " fill="#4D4417" transform="translate(247,89)"/>
<path d="M0 0 C0.66 0 1.32 0 2 0 C2 2.97 2 5.94 2 9 C0.02 9 -1.96 9 -4 9 C-3.34 8.67 -2.68 8.34 -2 8 C-1.61866701 6.0085944 -1.28674418 4.00720923 -1 2 C-0.67 1.34 -0.34 0.68 0 0 Z " fill="#1B2427" transform="translate(313,176)"/>
<path d="M0 0 C1.98 0 3.96 0 6 0 C5.34 0.66 4.68 1.32 4 2 C4.33 2.99 4.66 3.98 5 5 C4.01 5.495 4.01 5.495 3 6 C2.67 6.99 2.34 7.98 2 9 C1.01 9 0.02 9 -1 9 C-0.67 6.03 -0.34 3.06 0 0 Z " fill="#1E1A1A" transform="translate(66,95)"/>
<path d="M0 0 C3.3 0 6.6 0 10 0 C10 0.66 10 1.32 10 2 C5.545 2.495 5.545 2.495 1 3 C1 5.31 1 7.62 1 10 C0.67 10 0.34 10 0 10 C0 6.7 0 3.4 0 0 Z " fill="#1C272C" transform="translate(66,251)"/>
<path d="M0 0 C3.3 0 6.6 0 10 0 C10 0.33 10 0.66 10 1 C7.69 1.33 5.38 1.66 3 2 C2.67 3.98 2.34 5.96 2 8 C2.99 8.33 3.98 8.66 5 9 C3.35 9 1.7 9 0 9 C0 6.03 0 3.06 0 0 Z " fill="#FCD647" transform="translate(55,174)"/>
<path d="M0 0 C2.12438339 -0.08078641 4.2496323 -0.13909141 6.375 -0.1875 C7.55835938 -0.22230469 8.74171875 -0.25710937 9.9609375 -0.29296875 C11.46527344 -0.14794922 11.46527344 -0.14794922 13 0 C13.66 0.99 14.32 1.98 15 3 C14.34 3 13.68 3 13 3 C13 4.98 13 6.96 13 9 C12.67 9 12.34 9 12 9 C12 6.69 12 4.38 12 2 C11.38511719 2.02320312 10.77023437 2.04640625 10.13671875 2.0703125 C8.92435547 2.09738281 8.92435547 2.09738281 7.6875 2.125 C6.88699219 2.14820312 6.08648437 2.17140625 5.26171875 2.1953125 C3 2 3 2 0 0 Z " fill="#141719" transform="translate(267,70)"/>
<path d="M0 0 C3.63 0 7.26 0 11 0 C11 0.33 11 0.66 11 1 C8.36 1.33 5.72 1.66 3 2 C3.33 2.99 3.66 3.98 4 5 C3.01 5 2.02 5 1 5 C1 6.98 1 8.96 1 11 C0.67 11 0.34 11 0 11 C0 7.37 0 3.74 0 0 Z " fill="#E7D14F" transform="translate(258,83)"/>
<path d="M0 0 C0.33 0 0.66 0 1 0 C1 3.3 1 6.6 1 10 C0.01 9.67 -0.98 9.34 -2 9 C-3.0209375 9.2784375 -3.0209375 9.2784375 -4.0625 9.5625 C-5.0215625 9.7790625 -5.0215625 9.7790625 -6 10 C-6.66 9.34 -7.32 8.68 -8 8 C-7.21625 7.71125 -6.4325 7.4225 -5.625 7.125 C-2.90328368 6.15087746 -2.90328368 6.15087746 -1 4 C-0.3574765 1.93125966 -0.3574765 1.93125966 0 0 Z " fill="#231D18" transform="translate(245,95)"/>
<path d="M0 0 C3.3 0 6.6 0 10 0 C6.37542083 2.71843438 5.19115285 3.41789544 1 4 C0.67 5.32 0.34 6.64 0 8 C0 5.36 0 2.72 0 0 Z " fill="#1D2A2A" transform="translate(235,93)"/>
<path d="M0 0 C0.99 0 1.98 0 3 0 C3.66 2.64 4.32 5.28 5 8 C3 7 1 6 -1 5 C-0.67 3.35 -0.34 1.7 0 0 Z " fill="#241F23" transform="translate(287,86)"/>
<path d="M0 0 C0.66 1.32 1.32 2.64 2 4 C5.3 4 8.6 4 12 4 C12.33 3.01 12.66 2.02 13 1 C13 2.65 13 4.3 13 6 C11.02090602 6.02686553 9.04171029 6.04633375 7.0625 6.0625 C5.96035156 6.07410156 4.85820312 6.08570312 3.72265625 6.09765625 C1 6 1 6 0 5 C-0.04063832 3.33382885 -0.042721 1.66611905 0 0 Z " fill="#1C2B2B" transform="translate(167,77)"/>
<path d="M0 0 C0.33 0.66 0.66 1.32 1 2 C1.99 2.33 2.98 2.66 4 3 C3.67 3.66 3.34 4.32 3 5 C2.9603287 6.66619446 2.95615553 8.33391013 3 10 C2.01 10.33 1.02 10.66 0 11 C0 7.37 0 3.74 0 0 Z " fill="#EBA12E" transform="translate(269,263)"/>
<path d="M0 0 C0.66 0 1.32 0 2 0 C2.33 3.96 2.66 7.92 3 12 C1.35 11.67 -0.3 11.34 -2 11 C-1.34 10.67 -0.68 10.34 0 10 C-0.185625 8.72125 -0.37125 7.4425 -0.5625 6.125 C-1.125 2.25 -1.125 2.25 0 0 Z " fill="#252111" transform="translate(75,95)"/>
<path d="M0 0 C0.33 0.66 0.66 1.32 1 2 C2.093125 1.979375 3.18625 1.95875 4.3125 1.9375 C8 2 8 2 11 3 C11 4.65 11 6.3 11 8 C10.67 6.68 10.34 5.36 10 4 C6.37 4 2.74 4 -1 4 C-0.67 2.68 -0.34 1.36 0 0 Z " fill="#1D282A" transform="translate(157,68)"/>
<path d="M0 0 C0.33 1.32 0.66 2.64 1 4 C-4.61 4 -10.22 4 -16 4 C-16 3.67 -16 3.34 -16 3 C-11.71 3 -7.42 3 -3 3 C-3 2.34 -3 1.68 -3 1 C-2.01 0.67 -1.02 0.34 0 0 Z " fill="#2B2E30" transform="translate(280,282)"/>
<path d="M0 0 C1.98 0 3.96 0 6 0 C6 0.99 6 1.98 6 3 C6.66 3.33 7.32 3.66 8 4 C5.22396483 4.7658028 2.89326812 5 0 5 C0 3.35 0 1.7 0 0 Z " fill="#201F23" transform="translate(258,278)"/>
<path d="M0 0 C1.65 0 3.3 0 5 0 C5 1.32 5 2.64 5 4 C4.01 4 3.02 4 2 4 C2 4.99 2 5.98 2 7 C1.34 7 0.68 7 0 7 C0 4.69 0 2.38 0 0 Z " fill="#2F3235" transform="translate(246,240)"/>
<path d="M0 0 C1.32 0.66 2.64 1.32 4 2 C3.01 2.66 2.02 3.32 1 4 C0.74984127 7.58357241 0.74984127 7.58357241 1 11 C0.01 11.495 0.01 11.495 -1 12 C-1.02687279 10.18757948 -1.04633715 8.37504767 -1.0625 6.5625 C-1.07410156 5.55316406 -1.08570312 4.54382813 -1.09765625 3.50390625 C-1 1 -1 1 0 0 Z " fill="#232B2B" transform="translate(123,104)"/>
<path d="M0 0 C3.3 0 6.6 0 10 0 C10 0.33 10 0.66 10 1 C7.69 1.33 5.38 1.66 3 2 C2.34 3.98 1.68 5.96 1 8 C0.67 8 0.34 8 0 8 C0 5.36 0 2.72 0 0 Z " fill="#1F292B" transform="translate(246,82)"/>
<path d="M0 0 C0.33 0 0.66 0 1 0 C1 3.63 1 7.26 1 11 C-0.65 10.67 -2.3 10.34 -4 10 C-3.67 9.01 -3.34 8.02 -3 7 C-2.34 7 -1.68 7 -1 7 C-0.67 4.69 -0.34 2.38 0 0 Z " fill="#4D3C18" transform="translate(77,252)"/>
<path d="M0 0 C0.99 0.495 0.99 0.495 2 1 C2 2.65 2 4.3 2 6 C5.96 6.99 5.96 6.99 10 8 C10 8.33 10 8.66 10 9 C6.7 9 3.4 9 0 9 C0 6.03 0 3.06 0 0 Z " fill="#271A0C" transform="translate(225,118)"/>
<path d="M0 0 C0.33 0 0.66 0 1 0 C1 2.31 1 4.62 1 7 C-0.65 7 -2.3 7 -4 7 C-1.125 1.125 -1.125 1.125 0 0 Z " fill="#312924" transform="translate(65,268)"/>
<path d="M0 0 C0.33 0 0.66 0 1 0 C1.33 2.64 1.66 5.28 2 8 C3.98 8.66 5.96 9.32 8 10 C8 10.33 8 10.66 8 11 C5.36 11 2.72 11 0 11 C0 7.37 0 3.74 0 0 Z " fill="#F4B234" transform="translate(213,128)"/>
<path d="M0 0 C0 3.3 0 6.6 0 10 C-0.99 9.34 -1.98 8.68 -3 8 C-3.1875 4.375 -3.1875 4.375 -3 1 C-1 0 -1 0 0 0 Z " fill="#FDCE40" transform="translate(191,106)"/>
<path d="M0 0 C0.66 0 1.32 0 2 0 C2.33 2.31 2.66 4.62 3 7 C0.525 6.01 0.525 6.01 -2 5 C-1.34 3.35 -0.68 1.7 0 0 Z " fill="#312A20" transform="translate(109,224)"/>
<path d="M0 0 C0.33 0 0.66 0 1 0 C1 2.64 1 5.28 1 8 C-0.65 8 -2.3 8 -4 8 C-4 7.01 -4 6.02 -4 5 C-3.01 4.67 -2.02 4.34 -1 4 C-0.26676204 1.98491642 -0.26676204 1.98491642 0 0 Z " fill="#1E2324" transform="translate(303,188)"/>
<path d="M0 0 C0.33 0 0.66 0 1 0 C1 2.64 1 5.28 1 8 C-0.32 7.34 -1.64 6.68 -3 6 C-3 4.68 -3 3.36 -3 2 C-2.01 2 -1.02 2 0 2 C0 1.34 0 0.68 0 0 Z " fill="#332B30" transform="translate(256,153)"/>
<path d="M0 0 C2.31 0.33 4.62 0.66 7 1 C6.360625 1.2475 5.72125 1.495 5.0625 1.75 C2.84540342 2.78940378 2.84540342 2.78940378 2.375 4.875 C2.25125 5.57625 2.1275 6.2775 2 7 C1.34 8.32 0.68 9.64 0 11 C0 7.37 0 3.74 0 0 Z " fill="#1B2627" transform="translate(258,70)"/>
<path d="M0 0 C1.81242052 -0.02687279 3.62495233 -0.04633715 5.4375 -0.0625 C6.44683594 -0.07410156 7.45617187 -0.08570313 8.49609375 -0.09765625 C11 0 11 0 12 1 C12.04080783 2.99958364 12.04254356 5.00045254 12 7 C11.690625 6.360625 11.38125 5.72125 11.0625 5.0625 C10.1654837 3.06389179 10.1654837 3.06389179 9 2 C7.48530552 1.76807135 5.96245438 1.58784762 4.4375 1.4375 C3.61121094 1.35371094 2.78492188 1.26992188 1.93359375 1.18359375 C1.29550781 1.12300781 0.65742188 1.06242187 0 1 C0 0.67 0 0.34 0 0 Z " fill="#201915" transform="translate(168,309)"/>
<path d="M0 0 C0.66 0 1.32 0 2 0 C2 1.98 2 3.96 2 6 C0.35 6 -1.3 6 -3 6 C-2.67 4.68 -2.34 3.36 -2 2 C-1.34 2 -0.68 2 0 2 C0 1.34 0 0.68 0 0 Z " fill="#1A1F27" transform="translate(76,172)"/>
<path d="M0 0 C1.98 0 3.96 0 6 0 C5.01 0.66 4.02 1.32 3 2 C1.7811879 5.55672179 1.7811879 5.55672179 1 9 C0.67 9 0.34 9 0 9 C0 6.03 0 3.06 0 0 Z " fill="#1C2A2E" transform="translate(111,116)"/>
<path d="M0 0 C0.66 0 1.32 0 2 0 C2.33 2.31 2.66 4.62 3 7 C2.01 7 1.02 7 0 7 C0 4.69 0 2.38 0 0 Z " fill="#F48E35" transform="translate(294,176)"/>
<path d="M0 0 C2 2 2 2 2 6 C-0.475 5.01 -0.475 5.01 -3 4 C-2.67 3.01 -2.34 2.02 -2 1 C-1.34 0.67 -0.68 0.34 0 0 Z " fill="#2C3230" transform="translate(99,84)"/>
<path d="M0 0 C6.15234375 0.5859375 6.15234375 0.5859375 8 1 C8.33 1.66 8.66 2.32 9 3 C6.36 3 3.72 3 1 3 C0.67 2.01 0.34 1.02 0 0 Z " fill="#182527" transform="translate(99,227)"/>
<path d="M0 0 C3.37462715 0.54723683 5.08235 1.0549 8 3 C5.03 3 2.06 3 -1 3 C-0.67 2.01 -0.34 1.02 0 0 Z " fill="#2F2A23" transform="translate(92,90)"/>
</svg>
