<?xml version="1.0" encoding="UTF-8"?>
<svg version="1.1" xmlns="http://www.w3.org/2000/svg" width="512" height="512">
<path d="M0 0 C9.01643625 7.03880521 15.1108423 16.14007339 17.25 27.4375 C18.5771194 41.2201879 16.25555869 52.7895947 7.5703125 63.89453125 C-0.58233427 72.82950271 -10.236591 77.52023034 -22.23046875 78.8125 C-35.56819798 79.28620403 -46.91093999 75.55625499 -56.75 66.4375 C-65.54345587 56.80022766 -69.41534676 46.36847084 -69.21875 33.37158203 C-68.64273854 20.84033274 -63.44465705 10.55627257 -54.20703125 2.11328125 C-38.00161747 -10.53769834 -17.12245062 -11.43845467 0 0 Z " fill="#000000" transform="translate(409.75,220.5625)"/>
<path d="M0 0 C9.01643625 7.03880521 15.1108423 16.14007339 17.25 27.4375 C18.5771194 41.2201879 16.25555869 52.7895947 7.5703125 63.89453125 C-0.58233427 72.82950271 -10.236591 77.52023034 -22.23046875 78.8125 C-35.56819798 79.28620403 -46.91093999 75.55625499 -56.75 66.4375 C-65.54345587 56.80022766 -69.41534676 46.36847084 -69.21875 33.37158203 C-68.64273854 20.84033274 -63.44465705 10.55627257 -54.20703125 2.11328125 C-38.00161747 -10.53769834 -17.12245062 -11.43845467 0 0 Z " fill="#000000" transform="translate(281.75,220.5625)"/>
<path d="M0 0 C9.01643625 7.03880521 15.1108423 16.14007339 17.25 27.4375 C18.5771194 41.2201879 16.25555869 52.7895947 7.5703125 63.89453125 C-0.58233427 72.82950271 -10.236591 77.52023034 -22.23046875 78.8125 C-35.56819798 79.28620403 -46.91093999 75.55625499 -56.75 66.4375 C-65.54345587 56.80022766 -69.41534676 46.36847084 -69.21875 33.37158203 C-68.64273854 20.84033274 -63.44465705 10.55627257 -54.20703125 2.11328125 C-38.00161747 -10.53769834 -17.12245062 -11.43845467 0 0 Z " fill="#000000" transform="translate(153.75,220.5625)"/>
</svg>
