<svg width="40" height="40" viewBox="0 0 40 40" fill="none" xmlns="http://www.w3.org/2000/svg">
<mask id="mask0_899_13582" style="mask-type:luminance" maskUnits="userSpaceOnUse" x="28" y="33" width="8" height="5">
<path d="M28.2856 33.8293H35.8205V37.5989H28.2856V33.8293Z" fill="white"/>
</mask>
<g mask="url(#mask0_899_13582)">
<path d="M35.8207 33.8491C35.8207 34.7865 35.8207 36.6613 35.8207 37.5985C32.8347 37.5985 30.4796 37.5985 28.3242 37.5985V33.8491C30.667 33.8491 33.428 33.8491 35.8207 33.8491Z" fill="#948979"/>
</g>
<mask id="mask1_899_13582" style="mask-type:luminance" maskUnits="userSpaceOnUse" x="28" y="28" width="8" height="4">
<path d="M28.2856 28.1824H35.8205V31.9822H28.2856V28.1824Z" fill="white"/>
</mask>
<g mask="url(#mask1_899_13582)">
<path d="M35.8207 28.2251V31.9745C32.6347 31.9745 31.2292 31.9745 28.3242 31.9745V28.2251H35.8207Z" fill="#948979"/>
</g>
<mask id="mask2_899_13582" style="mask-type:luminance" maskUnits="userSpaceOnUse" x="28" y="22" width="8" height="5">
<path d="M28.2856 22.5881H35.8205V26.388H28.2856V22.5881Z" fill="white"/>
</mask>
<g mask="url(#mask2_899_13582)">
<path d="M28.3242 22.6008H35.8207V26.3504H28.3242V22.6008Z" fill="#948979"/>
</g>
<mask id="mask3_899_13582" style="mask-type:luminance" maskUnits="userSpaceOnUse" x="28" y="16" width="8" height="5">
<path d="M28.2856 16.9412H35.8205V20.741H28.2856V16.9412Z" fill="white"/>
</mask>
<g mask="url(#mask3_899_13582)">
<path d="M35.8207 16.9768C35.8207 17.9142 35.8207 19.789 35.8207 20.7264C34.8837 20.7264 29.2614 20.7264 28.3242 20.7264V16.9768C31.379 16.9768 35.2397 16.9768 35.8207 16.9768Z" fill="#948979"/>
</g>
<mask id="mask4_899_13582" style="mask-type:luminance" maskUnits="userSpaceOnUse" x="3" y="1" width="26" height="37">
<path d="M3.96045 1.979H28.3384V37.5991H3.96045V1.979Z" fill="white"/>
</mask>
<g mask="url(#mask4_899_13582)">
<path d="M28.324 31.9746V33.8494H26.4498V37.5987C23.1264 37.5987 19.978 37.5987 15.2052 37.5987V35.7241H13.3311C13.3311 34.7868 13.3311 29.1626 13.3311 28.2252H11.4569C11.4569 30.575 11.4569 33.3744 11.4569 35.7241H13.3311V37.5987C10.9821 37.5987 8.18336 37.5987 5.83441 37.5987V35.7241H3.96045V18.8517H5.83441V16.9769C8.18336 16.9769 10.9821 16.9769 13.3311 16.9769V18.8517H11.4569V22.6011H13.3311C13.3311 21.6637 13.3311 19.7891 13.3311 18.8517H15.2052C15.2052 17.9143 15.2052 16.0397 15.2052 15.1023H17.0792V11.353H18.9534V7.6034H20.8275V1.97925C21.7645 1.97925 23.6387 1.97925 24.5759 1.97925C24.5759 2.91046 24.5759 6.66601 24.5759 11.353H22.7017V15.1023H24.5759V16.9769C24.8006 16.9769 25.5003 16.9769 26.4498 16.9769V20.7265H28.324V22.6011H26.4498V26.3506H28.324V28.2252H26.4498V31.9746H28.324Z" fill="#948979"/>
</g>
</svg>
