<svg xmlns="http://www.w3.org/2000/svg" viewBox="0 0 32 32"><title>interface-essential-bin</title><g><path fill="#000000" d="M25.905 8.38v16.76h1.53V8.38h3.04V6.86h-1.52V5.33h-6.1V2.28h-1.52v3.05h-10.67V2.28h-1.52v3.05h-6.09v1.53h-1.53v1.52h3.05v16.76h1.52V8.38h19.81z"></path><path fill="#000000" d="M24.385 25.14h1.52v4.57h-1.52Z"></path><path fill="#000000" d="M7.625 29.71h16.76v1.53H7.625Z"></path><path fill="#000000" d="M21.335 11.43h1.52v12.19h-1.52Z"></path><path fill="#000000" d="M19.815 23.62h1.52v3.04h-1.52Z"></path><path fill="#000000" d="M15.245 11.43h1.52v15.23h-1.52Z"></path><path fill="#000000" d="M10.665.76h10.67v1.52h-10.67Z"></path><path fill="#000000" d="M10.665 23.62h1.53v3.04h-1.53Z"></path><path fill="#000000" d="M9.145 11.43h1.52v12.19h-1.52Z"></path><path fill="#000000" d="M6.095 25.14h1.53v4.57h-1.53Z"></path></g></svg>