<svg xmlns="http://www.w3.org/2000/svg" viewBox="0 0 32 32"><title>interface-essential-paginate-filter-camera</title><g><path fill="#000000" d="M29.71 2.28h1.53v22.86h-1.53Z"></path><path fill="#000000" d="M6.85 25.14v1.52h1.53v1.53H9.9v-1.53h3.05v1.53h1.52v-1.53h3.05v1.53h1.52v-1.53h3.05v1.53h1.53v-1.53h1.52v1.53h-1.52v1.52h-3.05v-1.52h-1.53v1.52H16v-1.52h-1.53v1.52h-3.04v-1.52H9.9v1.52H6.85v-1.52H5.33v1.52H2.28v1.53h22.86v-1.53h1.52v-3.05h3.05v-1.52H6.85z"></path><path fill="#000000" d="M9.9 17.52h1.53v1.53h9.14v-1.53h1.52V16h1.53v1.52h1.52v1.53h1.52V8.38h-1.52V9.9h-1.52v1.53h-1.53V9.9h-1.52V8.38h-9.14V9.9H9.9v7.62z"></path><path fill="#000000" d="M6.85.76h22.86v1.52H6.85Z"></path><path fill="#000000" d="M3.81 26.66h1.52v1.53H3.81Z"></path><path fill="#000000" d="M3.81 26.66v-1.52H2.28v-3.05h1.53v-1.52H2.28v-3.05h1.53V16H2.28v-3.05h1.53v-1.52H2.28V8.38h1.53V6.85h1.52v1.53H3.81V9.9h1.52v3.05H3.81v1.52h1.52v3.05H3.81v1.53h1.52v3.04H3.81v1.53h1.52v1.52h1.52V2.28H5.33v3.05H2.28v1.52H.76v22.86h1.52v-3.05h1.53z"></path></g></svg>