<svg xmlns="http://www.w3.org/2000/svg" viewBox="0 0 32 32"><title>interface-essential-text-input-area-3</title><g><path fill="#000000" d="M30.48 15.995H32v4.58h-1.52Z"></path><path fill="#000000" d="M30.48 11.425H32v3.05h-1.52Z"></path><path fill="#000000" d="M28.95 20.575h1.53v1.52h-1.53Z"></path><path fill="#000000" d="M28.95 9.905h1.53v1.52h-1.53Z"></path><path fill="#000000" d="M27.43 22.095h1.52v1.52h-1.52Z"></path><path fill="#000000" d="M27.43 8.385h1.52v1.52h-1.52Z"></path><path fill="#000000" d="M25.91 5.335h3.04v1.52h-3.04Z"></path><path fill="#000000" d="M25.91 25.145h3.04v1.52h-3.04Z"></path><path fill="#000000" d="M24.38 6.855h1.53v18.29h-1.53Z"></path><path fill="#000000" d="M21.34 5.335h3.04v1.52h-3.04Z"></path><path fill="#000000" d="M21.34 25.145h3.04v1.52h-3.04Z"></path><path fill="#000000" d="M18.29 22.095h4.57v1.52h-4.57Z"></path><path fill="#000000" d="M21.34 19.045h1.52v1.53h-1.52Z"></path><path fill="#000000" d="M21.34 14.475h1.52v1.52h-1.52Z"></path><path fill="#000000" d="M19.81 15.995h1.53v3.05h-1.53Z"></path><path fill="#000000" d="M18.29 8.385h4.57v1.52h-4.57Z"></path><path fill="#000000" d="M16.76 15.995h1.53v3.05h-1.53Z"></path><path fill="#000000" d="M12.19 22.095h4.57v1.52h-4.57Z"></path><path fill="#000000" d="M13.72 15.995h3.04v-1.52h-3.04v-3.05h-1.53v9.15h4.57v-1.53h-3.04v-3.05z"></path><path fill="#000000" d="M12.19 8.385h4.57v1.52h-4.57Z"></path><path fill="#000000" d="M10.67 12.955H9.15v3.04H6.1v-3.04H4.57v7.62H6.1v-3.05h3.05v3.05h1.52v-7.62z"></path><path fill="#000000" d="M6.1 22.095h4.57v1.52H6.1Z"></path><path fill="#000000" d="M6.1 11.425h3.05v1.53H6.1Z"></path><path fill="#000000" d="M6.1 8.385h4.57v1.52H6.1Z"></path><path fill="#000000" d="M3.05 22.095h1.52v1.52H3.05Z"></path><path fill="#000000" d="M3.05 8.385h1.52v1.52H3.05Z"></path><path fill="#000000" d="M1.53 20.575h1.52v1.52H1.53Z"></path><path fill="#000000" d="M1.53 9.905h1.52v1.52H1.53Z"></path><path fill="#000000" d="M0 15.995h1.53v4.58H0Z"></path><path fill="#000000" d="M0 11.425h1.53v3.05H0Z"></path></g></svg>